<?xml version="1.0" encoding="UTF-8"?>
<svg width="52px" height="52px" viewBox="0 0 52 52" version="1.1" xmlns="http://www.w3.org/2000/svg" xmlns:xlink="http://www.w3.org/1999/xlink">
    <title>FEF88DCA-7DEC-448B-8172-433225289382</title>
    <g id="Web" stroke="none" stroke-width="1" fill="none" fill-rule="evenodd">
        <g id="Learn-tab" transform="translate(-139.000000, -835.000000)" fill-rule="nonzero" stroke="#ECFEEE" stroke-width="1.4">
            <g id="Group-17" transform="translate(100.000000, 736.000000)">
                <g id="Group-34" transform="translate(20.000000, 70.000000)">
                    <g id="Group-31" transform="translate(20.000000, 30.000000)">
                        <g id="Compliance" transform="translate(0.000000, 0.000000)">
                            <path d="M37.3404925,5.63590066 L31.8321983,5.63590066 C31.47065,5.63590066 31.1197356,5.48702784 30.864525,5.2318173 L26.9725642,1.33985652 C26.1200268,0.481698235 24.960182,-0.000613444396 23.7505311,5.85572241e-07 C22.5382811,5.85572241e-07 21.3898336,0.47852094 20.5391318,1.33985652 L16.6365373,5.2318173 C16.3813267,5.48702784 16.041046,5.63590066 15.6794977,5.63590066 L10.1712035,5.63590066 C7.66163317,5.63590066 5.61994883,7.677585 5.61994883,10.1871553 L5.61994883,15.6848158 C5.61994883,16.046364 5.47107601,16.3972785 5.22649924,16.6524891 L1.32390469,20.5444499 C-0.441301563,22.3202899 -0.441301563,25.212676 1.32390469,26.9778823 L5.22649924,30.8804768 C5.48170978,31.1356874 5.61994883,31.4759681 5.61994883,31.8375164 L5.61994883,37.3458106 C5.61994883,39.8553809 7.66163317,41.8970653 10.1712035,41.8970653 L15.6794977,41.8970653 C16.041046,41.8970653 16.3813267,42.0353043 16.6365373,42.3011486 L20.5391318,46.2037432 C21.4217349,47.0863463 22.5914499,47.522331 23.7505311,47.522331 C24.8139084,47.522331 25.8772857,47.1288814 26.7386212,46.3951511 C29.2907267,48.7026797 32.5978299,50.0000006 36.0750736,50.0000006 C43.7420236,50.0000006 49.9734144,43.7579755 49.9734144,36.0910254 C49.9734144,32.6137818 48.6760941,29.2960447 46.3685655,26.7652068 C47.9463114,24.9663963 47.862689,22.2533137 46.1771576,20.5550836 L42.2851968,16.6631229 C42.0299863,16.4079123 41.8811134,16.0569978 41.8811134,15.6954495 L41.8811134,10.1977891 C41.8862025,8.99003302 41.4101326,7.82996721 40.5581101,6.97395407 C39.7060877,6.11794093 38.5482592,5.63645537 37.3404925,5.63590066 Z M36.0750736,46.7992344 C30.1512915,46.7945433 25.3502882,41.9935399 25.345597,36.0697579 C25.345597,30.1573803 30.1520622,25.350915 36.0644398,25.350915 C38.644205,25.3506448 41.1369964,26.2835531 43.0827297,27.9774569 C45.4327935,29.9978737 46.7833002,32.9434287 46.7833002,36.0697579 C46.7939164,41.9927692 41.9874512,46.7992344 36.0750736,46.7992344 L36.0750736,46.7992344 Z M43.9227978,22.7988097 C44.4332189,23.3092307 44.4544864,24.1280312 43.9972342,24.6597199 C43.7632912,24.5002133 43.5293482,24.3513405 43.2954052,24.2131014 C43.2422363,24.1812001 43.1997012,24.1492988 43.1465324,24.1173975 C42.8168854,23.9153558 42.4659709,23.7345816 42.1256902,23.5644413 C42.0299863,23.5219062 41.9342823,23.4793711 41.8492121,23.436836 C41.5940016,23.3198645 41.338791,23.202893 41.0729467,23.1071891 C40.9453414,23.0540202 40.8071024,23.0114851 40.6794971,22.96895 C40.4455541,22.8838798 40.2116111,22.8094434 39.9776681,22.7456408 C39.8394291,22.7031057 39.6905563,22.6605706 39.5523172,22.6286693 C39.3183742,22.5648667 39.0844312,22.5116978 38.8398545,22.4691627 C38.7016154,22.4372614 38.5527426,22.4053601 38.4145036,22.3840925 C38.159293,22.3415574 37.8934487,22.3096561 37.6382382,22.2777548 C37.5106329,22.267121 37.3936614,22.2458535 37.2660561,22.2352197 C36.8832403,22.2033184 36.4897907,22.1820508 36.1069749,22.1820508 C28.4400249,22.1820508 22.1980003,28.4240754 22.1980003,36.0910254 C22.1980003,36.484475 22.2192679,36.8672908 22.2511692,37.2501066 C22.261803,37.3777119 22.2830705,37.4946834 22.2937043,37.6222887 C22.3256056,37.888133 22.3575069,38.1433435 22.400042,38.3985541 C22.4213096,38.5474269 22.4532109,38.6856659 22.4851122,38.823905 L22.6446188,39.5363677 C22.6765201,39.6852406 22.7190552,39.8234796 22.7615903,39.9617187 L22.9848995,40.6635476 C23.0274346,40.7911529 23.0699697,40.929392 23.1231385,41.0569972 C23.2188425,41.3228415 23.335814,41.5780521 23.4527855,41.8332626 L23.5803908,42.1203745 C23.7505311,42.471289 23.9313053,42.8115697 24.1227132,43.1412167 C24.1546145,43.1943855 24.1971496,43.2475544 24.2290509,43.3007233 C24.3672899,43.5346663 24.5161628,43.7686092 24.6756693,43.9919185 C24.1333469,44.4385369 23.335814,44.4172694 22.8253929,43.9174821 L18.9227984,40.0148875 C18.0733233,39.159942 16.9166042,38.6811675 15.711399,38.6856659 L10.2031048,38.6856659 C9.45874074,38.6856659 8.84198193,38.0795409 8.84198193,37.324543 L8.84198193,31.8162488 C8.84198193,30.6039988 8.36346216,29.4661851 7.51276035,28.6048495 L3.6101658,24.702255 C3.07847717,24.1705663 3.08911094,23.3092307 3.6101658,22.7775421 L7.51276035,18.8855813 C8.36384824,18.0291836 8.84167614,16.8709287 8.84198193,15.6635482 L8.84198193,10.1658878 C8.84198193,9.41088994 9.44810697,8.8047649 10.2031048,8.8047649 L15.711399,8.8047649 C16.9236491,8.8047649 18.0614628,8.32624513 18.9227984,7.47554332 L22.8253929,3.58358254 C23.3464478,3.06252768 24.2290509,3.06252768 24.7501058,3.58358254 L28.6420665,7.47554332 C29.4927683,8.32624513 30.6624833,8.8047649 31.8640996,8.8047649 L37.3723938,8.8047649 C38.1167579,8.8047649 38.7335167,9.42152371 38.7335167,10.1658878 L38.7335167,15.6635482 C38.7335167,16.8651645 39.2226703,18.0348795 40.0733721,18.8855813 L43.9227978,22.7988097 L43.9227978,22.7988097 Z" id="Shape" fill="#212121"></path>
                            <path d="M17.444704,14.4725465 C15.7964692,14.4725465 14.4672476,15.812421 14.4672476,17.450022 C14.4672476,19.0982568 15.807103,20.4274784 17.444704,20.4274784 C19.082305,20.4274784 20.4221795,19.087623 20.4221795,17.450022 C20.4249989,16.6594847 20.1122151,15.9005067 19.5532172,15.3415088 C18.9942193,14.7825109 18.2352413,14.4697271 17.444704,14.4725465 L17.444704,14.4725465 Z M30.0776258,14.4725657 C28.4293911,14.4725657 27.1001695,15.812421 27.1001695,17.450022 C27.1001695,19.0982568 28.4400249,20.4274784 30.0776258,20.4274784 C31.7152268,20.4274784 33.0550822,19.087623 33.0550822,17.450022 C33.0550822,15.8017873 31.7258606,14.4725657 30.0776258,14.4725657 L30.0776258,14.4725657 Z M17.444704,27.0948538 C15.7964692,27.0948538 14.4672476,28.4347091 14.4672476,30.0723101 C14.4672476,31.7205449 15.807103,33.0497665 17.444704,33.0497665 C19.082305,33.0497665 20.4221603,31.7099111 20.4221603,30.0723101 C20.4327941,28.4347091 19.0929387,27.0948538 17.444704,27.0948538 Z M34.6926832,37.9944707 L30.2477662,33.5495538 L27.9934064,35.8039136 L33.5655033,41.3760104 C33.8644408,41.6749744 34.2699029,41.8429328 34.6926832,41.8429328 C35.1154634,41.8429328 35.5209255,41.6749744 35.819863,41.3760104 L44.1673745,33.0284989 L41.9130148,30.7741391 L34.6926832,37.9944707 L34.6926832,37.9944707 Z" id="Shape" fill="#32983F"></path>
                        </g>
                    </g>
                </g>
            </g>
        </g>
    </g>
</svg>