<?xml version="1.0" encoding="UTF-8"?>
<svg width="74px" height="74px" viewBox="0 0 74 74" version="1.1" xmlns="http://www.w3.org/2000/svg" xmlns:xlink="http://www.w3.org/1999/xlink">
    <title>F2B9FF55-7EC1-4F70-A19A-004916F67A66</title>
    <g id="Web" stroke="none" stroke-width="1" fill="none" fill-rule="evenodd">
        <g id="Learn-tab" transform="translate(-381.000000, -177.000000)" fill-rule="nonzero">
            <g id="Group-36" transform="translate(100.000000, 110.000000)">
                <g id="Group-5-+-Oval-Mask" transform="translate(20.000000, 20.000000)">
                    <g id="Group-5" transform="translate(261.000000, 47.000000)">
                        <path d="M35.1683672,9.54837859 L35.1683672,1.83252636 C35.1683672,0.82042205 35.9884103,0 37.0000471,0 C38.0115008,0 38.831727,0.82042205 38.831727,1.83252636 L38.831727,9.54837859 C38.831727,10.5604829 38.0115008,11.3809049 37.0000471,11.3809049 C35.9884103,11.3809049 35.1683672,10.5604829 35.1683672,9.54837859 L35.1683672,9.54837859 Z" id="Path" fill="#167F7D"></path>
                        <path d="M27.5212866,10.9788487 C27.8623076,11.3091591 28.3185484,11.4935408 28.7932051,11.4928741 C29.2904217,11.4935615 29.7664223,11.2913862 30.111282,10.9330355 C30.8139144,10.2047895 30.7933996,9.04480035 30.06549,8.34184323 L24.5297869,2.99599734 C23.8020605,2.29322348 22.6426071,2.31356453 21.9397915,3.0418105 C21.237159,3.77005648 21.2576739,4.93004566 21.9855835,5.63300277 L27.5212866,10.9788487 L27.5212866,10.9788487 Z" id="Path" fill="#167F7D"></path>
                        <path d="M45.2070722,11.4928739 C45.6649922,11.4928739 46.1234617,11.3220809 46.4789908,10.9788487 L52.0146939,5.63300277 C52.7426035,4.93022891 52.7629351,3.76987322 52.0604859,3.0418105 C51.3576703,2.31356453 50.1984001,2.29322348 49.4703073,2.99599734 L43.9346042,8.34184323 C43.2066946,9.04461709 43.1863629,10.2047895 43.8888122,10.9330355 C44.2337651,11.2913606 44.7098093,11.4935264 45.2070722,11.4928739 Z" id="Path" fill="#167F7D"></path>
                        <path d="M73.5686212,31.6284887 L61.9211517,45.4459207 C61.5732442,45.8594148 61.060339,46.097772 60.5200997,46.0970173 C60.0881195,46.0974202 59.6700025,45.9444987 59.3401315,45.6654573 C58.5667962,45.0128947 58.4686182,43.8567538 59.1208794,43.0832444 L68.2276257,32.2797685 L54.1801059,32.2797685 L42.5637749,62.7255447 L54.21619,48.9020654 C54.8686344,48.1283728 56.0242413,48.0305158 56.7973934,48.6825287 C57.5707286,49.3350914 57.6689067,50.4912322 57.0166455,51.2647416 L38.4003664,73.3490665 C38.0522331,73.7618327 37.5398761,74 37.0000471,74 C36.4602181,74 35.9478611,73.7618327 35.5997278,73.3490665 L0.431472962,31.6284887 C-0.131397447,30.9607648 -0.144966601,29.9883963 0.399052227,29.3052118 L4.82164344,23.7513741 C5.45192451,22.9597227 6.60441752,22.8296134 7.39552009,23.4600024 C8.18680582,24.0905748 8.31722143,25.2436003 7.6867572,26.0350685 L5.63271132,28.6145326 L20.0110325,28.6145326 L26.2345314,17.5583513 L14.4372304,17.5583513 L12.4295261,20.0795411 C11.7990618,20.8711924 10.6469351,21.0016683 9.85564941,20.3709128 C9.06436368,19.7403404 8.93394807,18.5873148 9.5644123,17.7958467 L12.121987,14.5839778 C12.4694498,14.1474964 12.996807,13.8932986 13.5545439,13.8932986 L60.4455503,13.8932986 C61.0032872,13.8932986 61.5306444,14.1474964 61.8781072,14.5839778 L73.6008588,29.3052118 C74.1449301,29.9883529 74.1314376,30.9607208 73.5686212,31.6284887 L73.5686212,31.6284887 Z" id="Path" fill="#167F7D"></path>
                        <polygon id="Path" fill="#ECFEEE" points="59.5630469 17.5583513 47.7659291 17.5583513 53.9892449 28.6145326 68.3673829 28.6145326"></polygon>
                        <polygon id="Path" fill="#ECFEEE" points="24.2154706 28.6145326 49.7848067 28.6145326 43.5613078 17.5583513 30.4386032 17.5583513"></polygon>
                        <polygon id="Path" fill="#ECFEEE" points="5.77265166 32.2795853 31.4368688 62.7253615 19.8205378 32.2795853"></polygon>
                        <polygon id="Path" fill="#ECFEEE" points="50.2586623 32.2795853 23.741615 32.2795853 37.0000471 67.0290496"></polygon>
                    </g>
                </g>
            </g>
        </g>
    </g>
</svg>