<?xml version="1.0" encoding="UTF-8"?>
<svg width="52px" height="52px" viewBox="0 0 52 52" version="1.1" xmlns="http://www.w3.org/2000/svg" xmlns:xlink="http://www.w3.org/1999/xlink">
    <title>D4EC1A94-1C50-4ABF-9A53-68624646CEC8</title>
    <g id="Web" stroke="none" stroke-width="1" fill="none" fill-rule="evenodd">
        <g id="Learn-tab" transform="translate(-1054.000000, -835.000000)" fill-rule="nonzero" stroke="#E0FAFF" stroke-width="0.8">
            <g id="Group-17" transform="translate(100.000000, 736.000000)">
                <g id="Group-34-Copy-3" transform="translate(935.000000, 70.000000)">
                    <g id="Group-6" transform="translate(20.000000, 30.000000)">
                        <path d="M41.2508306,28.24992 L36.0007547,28.24992 C35.2501579,28.24992 34.7505804,27.7495222 34.7505804,26.9997457 C34.7505804,26.2499692 35.2509782,25.7495714 36.0007547,25.7495714 L41.2508306,25.7495714 C42.5001846,25.7495714 43.7503589,25.5001928 45.0005332,25.2491735 C45.7503097,24.9997949 46.2507075,24.749596 46.7502851,24.4993971 C47.2506829,24.2500185 47.5008818,23.4994217 47.5008818,22.9998441 C47.5008818,22.4994463 47.2506829,21.9990484 47.000484,21.4994709 C45.7503097,19.999918 43.50016,18.9999426 40.5002338,17.9999672 C40.2500349,17.9999672 40.2500349,17.7497683 39.9998359,17.7497683 C39.2500595,17.2493786 38.7504819,16.4995939 38.500283,15.7498175 C38.500283,14.7490218 39.0006809,13.9992453 39.7504573,13.4996678 C41.5002092,10.9993191 42.5001846,8.74998975 42.250806,6.74921864 C42.000607,5.49986465 41.5002092,4.49988926 40.5002338,3.74929247 C38.7504819,2.49911815 36.2509536,2.49911815 34.7497601,3.74929247 C33.750605,4.49988926 33.2502071,5.49986465 33.0000082,6.74921864 C32.7506296,8.74916942 33.750605,10.9993191 35.5003568,13.4996678 C36.0007547,14.0000656 35.7505558,14.7498421 35.2501579,15.2494196 C34.7497601,15.7498175 33.9999836,15.4996185 33.5004061,15.000041 C31.0000574,11.9992945 30.000082,8.99936835 30.5004799,6.24964111 C30.7506788,4.49988926 31.7506542,2.74931708 33.2502071,1.74934169 C35.7505558,-0.250609091 39.5010787,-0.250609091 42.000607,1.74934169 C43.50016,2.99951601 44.5001354,4.49988926 44.7503343,6.24964111 C45.0005332,8.99936835 44.0005578,12.0001148 41.7504081,15.000041 C41.5002092,15.2494196 41.5002092,15.4996185 41.2500103,15.4996185 C41.2500103,15.4996185 41.5002092,15.4996185 41.5002092,15.7498175 C44.7503343,16.7497929 47.2506829,18.2493458 48.7502358,19.9990976 C49.5008326,20.7496944 50.0004102,21.9998687 50.0004102,23.2500431 C50.0004102,24.6269262 49.3522036,25.9234685 48.2506583,26.7495468 C47.5008818,27.2499446 46.7502851,27.7503425 45.7503097,27.9997211 C44.2507567,27.9997211 42.7503835,28.24992 41.2508306,28.24992 L41.2508306,28.24992 Z" id="Shape" fill="#212121"></path>
                        <path d="M13.9996555,28.24992 L8.74957958,28.24992 C6.99982773,28.24992 5.50027481,27.9997211 4.25010049,27.5001436 C3.24930478,27.2499446 2.49952831,26.7495468 1.74975185,26.2499692 C0.749776462,25.5001928 0,23.9998195 0,22.7496452 C0,21.4994709 0.500397857,20.4994955 1.25017432,19.4995201 C2.99992617,17.7497683 5.49945448,16.4995939 8.74957958,15.4996185 C8.74957958,15.4996185 8.99977851,15.4996185 8.99977851,15.2494196 C8.99977851,15.2494196 8.74957958,15.000041 8.74957958,14.7490218 C6.25005127,11.7507362 5.00069728,8.50061114 5.50109513,6.0002625 C5.75047374,4.25051065 6.75044913,2.49993848 8.25082238,1.49996309 C10.751171,-0.499987695 14.5008736,-0.499987695 17.0012223,1.49996309 C18.5007752,2.7501374 19.5007506,4.25051065 19.7509495,6.0002625 C20.0011485,8.74998975 19.0011731,11.7507362 16.7510234,14.7506624 C16.2506255,15.2510603 15.500849,15.2510603 15.0012715,15.0008613 C14.5008736,14.5004635 14.2506747,13.750687 14.7510726,13.2502892 C16.7510234,10.7507609 17.5007998,8.25041221 17.2506009,6.50066036 C17.2506009,5.25048604 16.5008244,4.25051065 15.500849,3.49991387 C13.7510972,2.25055987 11.5009475,2.25055987 9.7503753,3.49991387 C8.75039991,4.25051065 8.00062345,5.25048604 8.00062345,6.25046143 C7.75042452,8.25041221 8.75039991,10.4997416 10.5009721,13.0000902 C11.0013699,13.750687 11.7511464,14.5004635 11.5009475,15.2502399 C11.5009475,16.2510357 10.751171,16.7506132 10.0005742,17.2501907 C10.0005742,17.2501907 9.75119562,17.5003897 9.50017637,17.5003897 C6.75044913,18.750564 4.75049835,19.7505394 3.25094542,21.2509126 C3.0007465,21.7513105 2.75054757,22.250888 2.75054757,22.7504655 C2.75054757,23.500242 3.0007465,24.0006399 3.50032403,24.2508388 C4.00072189,24.5002174 4.50111974,24.7512366 5.2508962,25.0006152 C6.25087159,25.5010131 7.50104591,25.7503917 8.75039991,25.7503917 L14.0004758,25.7503917 C14.7510726,25.7503917 15.2506501,26.2507896 15.2506501,27.000566 C15.2506501,27.7503425 14.7502522,28.2507403 14.0004758,28.2507403 L13.9996555,28.24992 Z" id="Shape" fill="#212121"></path>
                        <path d="M30.250281,50 L20.0003281,50 C17.7501784,50 15.7502276,49.7498011 13.9996555,49.0000246 C12.7503015,48.4996268 11.7503261,48.0000492 10.9997293,47.2502728 C9.50017637,46.5004963 8.74957958,44.7499241 8.74957958,43.0001723 C8.74957958,41.499799 9.24997744,40.2496247 10.2499528,39.0002707 C12.2499036,36.750121 15.5000287,34.9995488 20.0003281,33.4999959 L20.7501046,32.7502194 L20.0003281,31.9996227 C16.750203,27.7503425 15.2506501,23.9998195 15.7502276,20.4994955 C16.2506255,18.2493458 17.2497806,16.2502153 19.2497313,14.7490218 C22.4998564,12.4996924 27.5005537,12.4996924 30.5004799,14.7490218 C32.5004307,16.2502153 33.750605,18.2493458 33.9999836,20.4994955 C34.5003815,23.9998195 33.0000082,27.9997211 30.000082,32.000443 C29.2503056,32.7502194 29.2503056,32.999598 29.2503056,32.999598 C29.2503056,32.999598 29.7507034,33.249797 30.000082,33.4999959 C34.5003815,34.9995488 37.7505066,36.750121 39.7504573,39.0002707 C40.7504327,40.0002461 41.2508306,41.499799 41.2508306,43.0001723 C41.2508306,44.7499241 40.5002338,46.5004963 39.2500595,47.5004717 C38.500283,48.2502481 37.5003076,48.7498257 36.2501333,49.2502235 C34.2501825,49.7506214 32.2502317,50 30.250281,50 Z M25.0002051,15.2494196 C23.4998318,15.2494196 22.0002789,15.7498175 20.7501046,16.4995939 C19.2497313,17.5003897 18.4999549,18.9999426 18.249756,20.7496944 C18.0003773,23.4994217 19.2505517,26.7495468 21.75008,30.2498708 C22.4998564,30.9996473 23.2504532,31.750244 23.0002543,32.999598 C23.0002543,34.0003938 21.9994586,34.7501702 21.2505024,35.4999467 C21.2505024,35.4999467 21.0003035,35.7501456 20.7501046,35.7501456 C16.5008244,37.0003199 13.7502769,38.7500718 11.7503261,40.7500226 C11.5001272,41.2504204 11.2499282,42.2503958 11.2499282,43.0001723 C11.2499282,44.0001477 11.7503261,45.000123 12.5001025,45.4997006 C13.0005004,46.0000984 13.9996555,46.5004963 15.0004512,46.7498749 C16.5000041,47.2502728 18.249756,47.5004717 20.0003281,47.5004717 L30.250281,47.5004717 C32.0000328,47.5004717 33.750605,47.2502728 35.2501579,46.7498749 C36.2509536,46.5004963 37.0007301,46.0000984 37.7505066,45.4997006 C38.500283,45.000123 39.0006809,44.0001477 39.0006809,43.0001723 C39.0006809,42.2503958 38.7504819,41.2504204 37.9998852,40.7500226 C36.2501333,38.7500718 33.2502071,37.2496985 29.000927,35.7501456 C28.7499077,35.7501456 28.7499077,35.4999467 28.5005291,35.4999467 C27.7499282,34.7501702 26.7499569,33.9995734 26.7499569,32.999598 C26.7499569,31.9996227 27.5005537,30.9996473 28.2503302,30.2498708 C30.7506788,26.9997457 32.0000328,23.4994217 31.7506542,20.7496944 C31.5004553,18.9999426 30.7498585,17.7497683 29.2503056,16.5004143 C28.0001313,15.7498175 26.5005783,15.2494196 25.0002051,15.2494196 L25.0002051,15.2494196 Z" id="Shape" fill="#327F98"></path>
                    </g>
                </g>
            </g>
        </g>
    </g>
</svg>