<?xml version="1.0" encoding="UTF-8"?>
<svg width="52px" height="52px" viewBox="0 0 52 52" version="1.1" xmlns="http://www.w3.org/2000/svg" xmlns:xlink="http://www.w3.org/1999/xlink">
    <title>ECDF6502-946A-4E9F-959F-EB5089ADFB60</title>
    <g id="Web" stroke="none" stroke-width="1" fill="none" fill-rule="evenodd">
        <g id="Learn-tab" transform="translate(-749.000000, -835.000000)" fill-rule="nonzero" stroke="#FFF8DD" stroke-width="0.5">
            <g id="Group-17" transform="translate(100.000000, 736.000000)">
                <g id="Group-34-Copy-2" transform="translate(630.000000, 70.000000)">
                    <g id="Group-5" transform="translate(20.000000, 30.000000)">
                        <path d="M25.0009852,20.2889972 C23.3464274,20.2889972 21.9995375,21.6336148 21.9995375,23.2859287 C21.9995375,24.9411835 23.3464274,26.2882318 25.0009852,26.2882318 C26.6555429,26.2882318 28.0024328,24.9411735 28.0024328,23.2859287 C28.0024328,21.6336148 26.6555429,20.2889972 25.0009852,20.2889972 Z M25.0009852,24.28768 C24.4491392,24.28768 23.9998492,23.8383338 23.9998492,23.2859387 C23.9998492,22.7364644 24.4491392,22.2895689 25.0009852,22.2895689 C25.5528311,22.2895689 26.0021211,22.7364744 26.0021211,23.2859387 C26.0021211,23.8383338 25.5528311,24.28768 25.0009852,24.28768 Z" id="Shape" fill="#988C32"></path>
                        <path d="M25.0048958,16.5604202 C20.3537811,16.5604202 16.5699916,20.3441927 16.5699916,24.9954087 C16.5699916,29.6466248 20.3537811,33.4303973 25.0048958,33.4303973 C29.6501495,33.4303973 33.4290582,29.6466148 33.4290582,24.9954087 C33.4290582,20.3442027 29.6501495,16.5604202 25.0048958,16.5604202 Z M21.8432732,30.2546955 C22.6998566,29.4742064 23.8113498,29.0390242 24.9970845,29.0390242 C26.1828193,29.0390242 27.2943225,29.4742064 28.1508959,30.2546955 C27.2816205,31.0083272 26.1701173,31.4283651 24.9970845,31.4283651 C23.8250219,31.4283651 22.7135188,31.0083272 21.8432732,30.2546955 Z M29.8861463,29.1674102 C28.6222193,27.8099091 26.8765174,27.0384524 24.9970745,27.0384524 C23.119462,27.0384524 21.3752903,27.8081986 20.1116134,29.1631991 C19.152784,28.0392234 18.5702933,26.5850851 18.5702933,24.9953987 C18.5702933,21.4475225 21.4564829,18.560972 25.0048858,18.560972 C28.5474277,18.560972 31.4287366,21.4475225 31.4287366,24.9953987 C31.4287366,26.5871557 30.8455857,28.0428845 29.8861463,29.1674102 Z" id="Shape" fill="#988C32"></path>
                        <path d="M45.4670638,19.6154681 L48.4743723,19.6154681 C49.3153233,19.6154681 50,18.9307058 50,18.0891595 L50,7.08070832 C50,6.23916202 49.3153233,5.55488987 48.4743723,5.55488987 L45.4670638,5.55488987 C44.9276697,5.55488987 44.4559162,5.83896964 44.1853741,6.26370891 L34.1557315,1.14105047 C31.4180049,-0.249970124 28.1235416,-0.375485368 25.3076729,0.799154469 C21.3842117,2.43047254 14.4182764,5.434246 11.8514765,7.22185796 C10.3473321,8.26169994 9.94004866,10.3491961 10.9431349,11.8750246 C10.9616878,11.9028624 10.9851315,11.933631 11.0105254,11.9634294 C11.5781839,12.774017 12.5522656,13.2489504 13.5791056,13.286861 L11.5809343,15.2905336 C11.2312698,15.6412221 11.1902434,16.1955778 11.4861895,16.5936295 L13.0108371,18.6444954 C12.6074542,19.4064294 12.2792731,20.1962011 12.0311945,21.004048 L9.50248049,21.3791533 C9.0121741,21.4519237 8.64882749,21.872942 8.64882749,22.3686912 L8.64882749,27.6299385 C8.64882749,28.126658 9.01314425,28.5486565 9.50541094,28.6199665 L12.0321746,28.9862794 C12.2802633,29.7936361 12.6074642,30.5829177 13.0098669,31.3438814 L12.8261883,31.5910208 L6.02378851,31.5910208 C5.88039617,30.8977661 5.26683057,30.3753494 4.53295623,30.3753494 L1.5256477,30.3753494 C0.684696676,30.3753494 0,31.0596216 0,31.9011679 L0,42.9101192 C0,43.7516655 0.684696676,44.4359376 1.5256477,44.4359376 L4.53295623,44.4359376 C5.07326041,44.4359376 5.545564,44.1508876 5.81586611,43.724918 L15.8364673,48.8478165 C17.3200985,49.6014481 18.9805072,50 20.6379954,50 C22.0356732,50 23.4001457,49.7274635 24.6952675,49.1897125 C29.4938651,47.1945222 35.7243258,44.4598643 38.1553746,42.7645683 C39.6634196,41.7125129 40.0619216,39.6987674 39.0773983,38.1578047 C39.0637261,38.1333879 39.0490738,38.1099413 39.0334414,38.0869848 L39.0344216,38.0864947 C38.4674432,37.2415274 37.4676475,36.7418771 36.4170738,36.7025661 L38.4200758,34.6993136 C38.7707205,34.3486251 38.8117369,33.7937893 38.5157908,33.3957275 L36.9921134,31.3443715 C37.3974465,30.5795068 37.7226972,29.7902251 37.9658951,28.9862894 L40.4975395,28.6199765 C40.9888261,28.5486665 41.354123,28.1271581 41.354123,27.6299485 L41.354123,22.3687012 C41.354123,21.872952 40.9907864,21.4519437 40.50047,21.3791633 L37.9658951,21.0045481 C37.7236673,20.2001222 37.3974465,19.4103505 36.9921134,18.6449956 L37.1763421,18.397366 L41.3922089,18.397366 L43.9756214,18.397366 C44.1181636,19.091701 44.7324593,19.6154681 45.4670638,19.6154681 Z M45.9446782,7.55545163 L47.9996884,7.55545163 L47.9996884,17.6149163 L45.9446782,17.6149163 L45.9446782,17.3970851 L45.9446782,7.7747432 L45.9446782,7.55545163 Z M20.8009308,12.1032987 C20.0696769,12.3406653 19.3495347,12.6339677 18.6503857,12.9993603 L17.5914407,12.2124593 C18.5855556,11.8924194 19.7128013,11.534599 20.7600844,11.2137089 C20.7241688,11.5550147 20.79581,12.0024904 20.8009308,12.1032987 Z M4.05534182,42.4353559 L2.00032165,42.4353559 L2.00032165,32.3758912 L4.05534182,32.3758912 L4.05534182,42.4353559 Z M37.3788936,39.2152216 C37.7979089,39.8491897 37.6367438,40.687315 37.0106763,41.1234675 C35.2281685,42.3669767 30.5819447,44.5756068 23.9275879,47.3425038 C21.6323103,48.2954114 18.9609941,48.1923524 16.7448288,47.0650859 L6.05858393,41.6021219 L6.05858393,33.5915725 C13.9128476,33.6713149 13.8793224,33.4853427 14.8744074,33.6833983 C17.2327049,34.2570294 17.1769062,36.6284853 20.6023498,37.157944 L20.6023498,37.157944 C20.8888945,37.2022064 21.1777595,37.232735 21.4711352,37.232735 L25.8819824,37.232735 C27.1578012,37.232735 27.8126632,38.7584234 26.6401605,39.4983812 L15.7427127,39.6933859 C15.1898966,39.7036388 14.7503681,40.1593368 14.7601396,40.7117419 C14.7699112,41.2577952 15.2162607,41.6939477 15.7602955,41.6939477 C15.7661564,41.6939477 15.7720173,41.6939477 15.7778782,41.6939477 L26.9397772,41.4941816 C26.951129,41.4940015 26.9604704,41.4877098 26.9717622,41.4870996 C27.8396974,41.4107882 35.5066619,38.8721653 35.8337429,38.7639249 C36.3924199,38.5797932 37.0448716,38.7522016 37.3476488,39.1649175 C37.3574103,39.1820023 37.368152,39.198607 37.3788936,39.2152216 Z M29.1934783,37.8878189 C29.9215618,37.6505723 30.641704,37.3567898 31.3428032,36.9890065 L32.4016882,37.7764576 C31.354165,38.1135323 30.2171478,38.4761141 29.2370151,38.7824801 C29.2467866,38.6774706 29.2516674,38.5709907 29.2516674,38.4630504 C29.2516474,38.2660951 29.2274136,38.0751215 29.1934783,37.8878189 Z M37.0272789,22.887877 L39.3538113,23.2317235 L39.3538113,26.7639654 L37.0302093,27.0999997 C36.6268265,27.1586062 36.2986453,27.4565498 36.2019503,27.8531412 C35.9460504,28.9022658 35.5231345,29.9313648 34.9429641,30.91162 C34.7378522,31.2583974 34.7603157,31.6940697 35.0005931,32.0174005 L36.3953404,33.8953678 L33.895931,36.3946096 L32.0196587,34.9991978 C31.8428711,34.868301 31.6338586,34.8018724 31.4228857,34.8018724 C31.2490286,34.8018724 31.0751715,34.846805 30.9198773,34.9376505 C30.0295986,35.4562261 29.1405501,35.8387235 28.2135857,36.1045382 C27.6365958,35.5677074 26.8696863,35.2321632 26.0216542,35.2321632 L25.8819824,35.2321632 L21.4711352,35.2321632 C18.504303,35.2321632 18.6628877,32.3652282 15.160582,31.6969905 C15.4054102,30.851133 14.4680141,30.544937 13.7892784,27.8458091 C13.690633,27.4526287 13.3644122,27.158116 12.9629796,27.0999897 L10.6491391,26.7644455 L10.6491391,23.2317135 L12.9659101,22.8878669 C13.3653823,22.8282802 13.690633,22.5347378 13.7892784,22.1425377 C14.0559199,21.0826701 14.4837266,20.0511304 15.0599863,19.0772269 C15.2650983,18.7304496 15.2426348,18.2942971 15.0023474,17.9709563 L13.6066399,16.0924988 L16.097258,13.5947274 L17.9735303,14.989159 C18.2968206,15.2279961 18.7295081,15.2509525 19.0733116,15.0506963 C19.9467377,14.5420134 20.8576496,14.152374 21.7866844,13.8853891 C22.2791311,14.3429776 22.9129598,14.639991 23.6157693,14.7193032 C23.6386629,14.7226642 23.6620365,14.7234544 23.6851201,14.7263252 C23.7823053,14.7351777 23.8760099,14.7556934 23.9754454,14.7556934 L24.0974744,14.7556934 C24.1021151,14.7556934 24.1065658,14.7566737 24.1112065,14.7566737 L28.5318153,14.7566737 C29.088542,14.7566737 29.6491793,14.8870803 30.1619492,15.1391011 C30.4199894,15.2623657 30.6622672,15.42 30.8853919,15.6062123 C30.9127962,15.6289286 30.9339795,15.6598173 30.9607837,15.6833839 C31.6421598,16.2877236 32.4149102,17.8279061 34.8423684,18.2918464 C34.7671567,18.5511992 34.8003719,18.8359492 34.9429741,19.0772269 C35.5231445,20.0574822 35.9460604,21.0865812 36.2019603,22.1352156 C36.2986453,22.5308467 36.6248662,22.8282902 37.0272789,22.887877 Z M36.6737038,16.3967943 L35.9646133,16.3967943 C32.708846,16.3967943 32.9185387,12.7551517 28.5259543,12.7551517 C25.429852,12.5798425 22.727561,13.3557703 22.7525949,11.5090118 C22.7642367,10.7949513 23.3606996,10.3013327 23.9754454,10.3013327 L34.2348538,10.3013327 C34.7876699,10.3013327 35.2350096,9.8534569 35.2350096,9.30105179 C35.2350096,8.74864668 34.7876699,8.30077091 34.2348538,8.30077091 L23.9754354,8.30077091 C23.3047109,8.30077091 22.9258819,8.48700321 22.5347809,8.60749704 C22.2647188,8.65283977 22.105264,8.62542207 21.8452235,8.80237176 C19.159255,9.57406845 14.6810173,11.0554444 14.1692276,11.224932 C13.5900373,11.4139451 12.9219632,11.2298134 12.6338284,10.7931708 C12.6201562,10.772655 12.6025735,10.7496986 12.5840206,10.7267421 C12.2128728,10.1059578 12.3877,9.28297671 12.991314,8.86537945 C14.756239,7.63651439 19.5255321,5.37025803 26.0763627,2.64586302 C28.3608986,1.69393572 31.0312347,1.79796493 33.2473999,2.92377106 L43.9443665,8.38722519 L43.9443665,16.3967943 L41.3922089,16.3967943 L36.6737038,16.3967943 Z" id="Shape" fill="#212121"></path>
                    </g>
                </g>
            </g>
        </g>
    </g>
</svg>