<?xml version="1.0" encoding="UTF-8"?>
<svg width="52px" height="52px" viewBox="0 0 52 52" version="1.1" xmlns="http://www.w3.org/2000/svg" xmlns:xlink="http://www.w3.org/1999/xlink">
    <title>33029D87-AAF1-494F-805E-C80A6724ED0B</title>
    <g id="Web" stroke="none" stroke-width="1" fill="none" fill-rule="evenodd">
        <g id="Learn-tab" transform="translate(-444.000000, -835.000000)" fill-rule="nonzero" stroke="#FFE4E0" stroke-width="0.5">
            <g id="Group-17" transform="translate(100.000000, 736.000000)">
                <g id="Group-34-Copy" transform="translate(325.000000, 70.000000)">
                    <g id="Group-16" transform="translate(20.000000, 30.000000)">
                        <path d="M34.2100669,11.4040271 C37.1126594,11.4040271 39.4731541,9.04353253 39.4731541,6.14093994 C39.4731541,3.23834734 37.1126594,0.877852728 34.2100669,0.877852728 C31.3074743,0.877852728 28.9469796,3.23834734 28.9469796,6.14093994 C28.9469796,9.04353253 31.3074743,11.4040271 34.2100669,11.4040271 Z M34.2100669,2.63221513 C36.1451286,2.63221513 37.7187917,4.20587821 37.7187917,6.14093994 C37.7187917,8.07600167 36.1451286,9.64966474 34.2100669,9.64966474 C34.1074366,9.64966474 34.0118239,9.62773521 33.9118252,9.61984058 C34.6276051,8.97686676 35.0872481,8.05407214 35.0872481,7.01812114 L33.3328856,7.01812114 C33.3328856,7.8830218 32.7021924,8.59967884 31.8767649,8.74265938 C31.160985,8.09968556 30.701342,7.17689093 30.701342,6.14093994 C30.701342,4.20587821 32.2750051,2.63221513 34.2100669,2.63221513 Z" id="Shape" fill="#983232"></path>
                        <path d="M7.01744961,21.9302016 C9.92004221,21.9302016 12.2805368,19.5697069 12.2805368,16.6671144 C12.2805368,13.7645218 9.92004221,11.4040271 7.01744961,11.4040271 C4.11485702,11.4040271 1.7543624,13.7645218 1.7543624,16.6671144 C1.7543624,19.5697069 4.11485702,21.9302016 7.01744961,21.9302016 Z M7.01744961,13.1583895 C8.95251134,13.1583895 10.5261744,14.7320526 10.5261744,16.6671144 C10.5261744,17.7030653 10.0665315,18.62586 9.35075161,19.2688338 C8.5253241,19.1258533 7.89463081,18.4091962 7.89463081,17.5442956 L6.14026841,17.5442956 C6.14026841,18.5802466 6.59991136,19.5030412 7.31569122,20.146015 C7.21569256,20.1539096 7.12007981,20.1758392 7.01744961,20.1758392 C5.08238788,20.1758392 3.50872481,18.6021761 3.50872481,16.6671144 C3.50872481,14.7320526 5.08238788,13.1583895 7.01744961,13.1583895 Z" id="Shape" fill="#983232"></path>
                        <path d="M49.3993365,1.80064735 L44.1362493,0.046284949 C43.8678319,-0.0449418959 43.5757305,0.000671526571 43.3459091,0.165581592 C43.1169648,0.331368839 42.9818789,0.596277562 42.9818789,0.877852728 L42.9818789,7.89530234 L42.9818789,12.2812083 L30.701342,12.2812083 C30.4960816,12.2812083 30.2969615,12.3531372 30.1390689,12.4838372 L24.8759817,16.8697432 C24.7838777,16.9478123 24.7075629,17.0434251 24.6531777,17.1513184 L22.1654918,22.1275673 L16.6269697,24.5003425 L11.6805449,22.852119 C11.5910724,22.823172 11.497214,22.8073828 11.4033556,22.8073828 L4.38590601,22.8073828 C1.96751743,22.8073828 0,24.7749002 0,27.1932888 L0,36.842282 C0,37.3273632 0.392099997,37.7194632 0.877181201,37.7194632 L3.50872481,37.7194632 L3.50872481,48.2456376 L0,48.2456376 L0,50 L4.38590601,50 L8.77181201,50 L12.2805368,50 C12.765618,50 13.157718,49.6079 13.157718,49.1228188 L13.157718,44.7369128 L14.9120804,44.7369128 L19.2979864,44.7369128 L25.4382548,44.7369128 C25.923336,44.7369128 26.315436,44.3448128 26.315436,43.8597316 L26.315436,39.4738256 L31.5785232,39.4738256 L35.9644293,39.4738256 C36.4495105,39.4738256 36.8416105,39.0817256 36.8416105,38.5966444 L36.8416105,34.2107384 L42.1046977,34.2107384 L46.4906037,34.2107384 L49.1221473,34.2107384 L49.1221473,32.456376 L47.3677849,32.456376 L47.3677849,25.4389264 C47.3677849,23.0205378 45.4002674,21.0530204 42.9818789,21.0530204 L39.4731541,21.0530204 L39.4731541,17.5442956 L43.8590601,17.5442956 C46.2774486,17.5442956 48.2449661,15.5767781 48.2449661,13.1583895 L48.2449661,7.89530234 C48.2449661,7.41022113 47.8528661,7.01812114 47.3677849,7.01812114 L44.7362413,7.01812114 L44.7362413,5.01902518 L49.3993365,3.46466009 C49.7581036,3.34448627 49.9993285,3.01028023 49.9993285,2.63221513 C49.9993285,2.25415003 49.7581036,1.91994399 49.3993365,1.80064735 Z M35.5460138,14.0355707 L35.0872481,15.1829238 L34.6284823,14.0355707 L35.5460138,14.0355707 Z M12.2805368,42.9825504 C11.7954556,42.9825504 11.4033556,43.3746504 11.4033556,43.8597316 L11.4033556,48.2456376 L9.64899321,48.2456376 L9.64899321,37.7194632 L14.0348992,37.7194632 L14.0348992,42.9825504 L12.2805368,42.9825504 Z M15.7892616,42.9825504 L15.7892616,36.842282 C15.7892616,36.3572008 15.3971616,35.9651008 14.9120804,35.9651008 L8.77181201,35.9651008 C8.28673081,35.9651008 7.89463081,36.3572008 7.89463081,36.842282 L7.89463081,48.2456376 L5.26308721,48.2456376 L5.26308721,28.07047 L3.50872481,28.07047 L3.50872481,35.9651008 L1.7543624,35.9651008 L1.7543624,27.1932888 C1.7543624,25.7424311 2.9350483,24.5617452 4.38590601,24.5617452 L7.01744961,24.5617452 L7.01744961,30.7020136 L8.77181201,30.7020136 L8.77181201,24.5617452 L11.2612523,24.5617452 L16.3892536,26.2704941 C16.5927596,26.3397915 16.8155636,26.3283881 17.0120522,26.2450559 L22.481277,23.9012277 L23.013726,24.6994626 L23.2795119,25.0985801 L17.3953804,28.0397686 L11.5270382,27.2011834 C11.2752872,27.1643418 11.0200274,27.2406566 10.8279247,27.4064438 C10.6366992,27.5748626 10.5261744,27.8160874 10.5261744,28.07047 L10.5261744,32.456376 C10.5261744,32.9414572 10.9182744,33.3335572 11.4033556,33.3335572 L15.7892616,33.3335572 C17.2401193,33.3335572 18.4208052,34.5142431 18.4208052,35.9651008 L18.4208052,42.9825504 L15.7892616,42.9825504 Z M25.4382548,37.7194632 C24.9531736,37.7194632 24.5610736,38.1115632 24.5610736,38.5966444 L24.5610736,42.9825504 L20.1751676,42.9825504 L20.1751676,35.9651008 C20.1751676,33.5467122 18.2076502,31.5791948 15.7892616,31.5791948 L12.2805368,31.5791948 L12.2805368,29.0818599 L17.4190643,29.8160606 C17.5962549,29.8414988 17.7751999,29.8116747 17.935724,29.7318512 L24.9531736,26.2231264 C25.0812421,26.1590921 25.1821179,26.061725 25.2636958,25.9485686 C25.2707132,25.9389196 25.2838709,25.9354109 25.2908884,25.9257619 L28.716281,20.7881116 L30.701342,19.298658 L30.701342,37.7194632 L25.4382548,37.7194632 Z M41.2275165,32.456376 L36.8416105,32.456376 L36.8416105,27.1932888 L41.2275165,27.1932888 L41.2275165,32.456376 Z M46.4906037,13.1583895 C46.4906037,14.6092473 45.3099178,15.7899331 43.8590601,15.7899331 L38.5959729,15.7899331 C38.1108917,15.7899331 37.7187917,16.1820331 37.7187917,16.6671144 L37.7187917,21.9302016 C37.7187917,22.4152828 38.1108917,22.8073828 38.5959729,22.8073828 L42.9818789,22.8073828 C44.4327366,22.8073828 45.6134225,23.9880687 45.6134225,25.4389264 L45.6134225,32.456376 L42.9818789,32.456376 L42.9818789,26.3161076 C42.9818789,25.8310264 42.5897789,25.4389264 42.1046977,25.4389264 L35.9644293,25.4389264 C35.479348,25.4389264 35.0872481,25.8310264 35.0872481,26.3161076 L35.0872481,33.3335572 L35.0872481,37.7194632 L32.4557044,37.7194632 L32.4557044,17.5442956 C32.4557044,17.2118439 32.2679877,16.9083392 31.9706232,16.7592184 C31.674136,16.6118519 31.3171232,16.6425533 31.0522145,16.8425506 L27.5434897,19.4740942 C27.4636662,19.5328653 27.3943689,19.6056714 27.3399837,19.6890036 L24.5610736,23.8573687 L23.8189783,22.7433485 L26.1399998,18.1004284 L31.0188816,14.0355707 L32.739034,14.0355707 L34.2723467,17.8697298 C34.4065554,18.2030586 34.7284809,18.4214768 35.0872481,18.4214768 C35.4460152,18.4214768 35.7679407,18.2030586 35.9021494,17.8697298 L37.4354621,14.0355707 L43.8590601,14.0355707 C44.3441413,14.0355707 44.7362413,13.6434708 44.7362413,13.1583895 L44.7362413,8.77248354 L46.4906037,8.77248354 L46.4906037,13.1583895 Z M44.7362413,3.16905003 L44.7362413,2.09538024 L46.3485003,2.63221513 L44.7362413,3.16905003 Z" id="Shape" fill="#212121"></path>
                    </g>
                </g>
            </g>
        </g>
    </g>
</svg>