<?xml version="1.0" encoding="UTF-8"?>
<svg width="11px" height="11px" viewBox="0 0 11 11" version="1.1" xmlns="http://www.w3.org/2000/svg" xmlns:xlink="http://www.w3.org/1999/xlink">
    <title>F965F0E8-DE83-477A-924F-5528DA9505CD</title>
    <g id="Web" stroke="none" stroke-width="1" fill="none" fill-rule="evenodd">
        <g id="Learn-tab" transform="translate(-1185.000000, -254.000000)" fill="#000000" fill-rule="nonzero">
            <g id="Group-38" transform="translate(520.000000, 110.000000)">
                <g id="Group-37" transform="translate(20.000000, 30.000000)">
                    <g id="Group-33" transform="translate(0.000000, 39.000000)">
                        <g id="Group-27" transform="translate(400.000000, 0.000000)">
                            <g id="Group-8-Copy" transform="translate(18.000000, 67.000000)">
                                <g id="Group-26" transform="translate(227.000000, 7.000000)">
                                    <g id="users-(2)" transform="translate(0.000000, 1.000000)">
                                        <path d="M10.2118987,8.34133368 L8.56189873,7.29385054 C8.30036817,7.14423375 8.13799251,6.86159206 8.13721519,6.55461858 L8.13721519,6.14789829 C8.58974684,5.80539699 8.92253165,5.29307213 9.07708861,4.70796575 C9.31101266,4.58380903 9.46835443,4.33264141 9.46835443,4.05293202 L9.46835443,3.14815776 C9.46835443,2.91126103 9.35556962,2.69148936 9.17316456,2.55448884 L9.17316456,2.01790348 C9.17316456,1.63687078 9.05898734,1.27581733 8.85291139,1.00324338 C8.29594937,0.262584328 7.43822785,0 6.82278481,0 C6.20734177,0 5.34962025,0.262584328 4.79265823,1.00324338 C4.72443038,1.09314997 4.66734177,1.19304619 4.62139241,1.30007784 C4.31924051,1.18020239 4.0156962,1.12882719 3.75949367,1.12882719 C3.20253165,1.12882719 2.42835443,1.36715101 1.92291139,2.03645563 C1.73493671,2.28619616 1.63189873,2.61442657 1.63189873,2.96120913 L1.63189873,3.42501297 C1.46898734,3.55345096 1.36734177,3.75324338 1.36734177,3.97016087 L1.36734177,4.7778931 C1.36734177,5.03476907 1.50936709,5.26595745 1.72240506,5.38440581 C1.86025316,5.90243902 2.15683544,6.35625324 2.5564557,6.66450441 L2.5564557,7.01128697 C2.5564557,7.2738713 2.41721519,7.51647639 2.18050633,7.65204982 L0.717088608,8.58108459 C0.268734177,8.86650234 0,9.35884795 0,9.89828749 L0,10.7145823 C0,10.8722141 0.124680196,11 0.278481013,11 L7.24050633,11 C7.26835443,11 7.29341772,10.9957187 7.31848101,10.9885833 L10.721519,10.9885833 C10.8746835,10.9885833 11,10.8601453 11,10.7031655 L11,9.78840166 C11,9.19473275 10.7048101,8.65386611 10.2118987,8.34133368 L10.2118987,8.34133368 Z M2.64556962,9.78840166 L2.64556962,10.4291645 L0.556962025,10.4291645 L0.556962025,9.89828749 C0.556962025,9.55721328 0.726835443,9.24610794 1.01088608,9.06629476 L2.46316456,8.14439543 C2.86403187,7.91514612 3.11273177,7.48177035 3.11341772,7.01128697 L3.11341772,6.51466009 C3.11341772,6.41761806 3.06468354,6.32771147 2.98531646,6.27490919 C2.60518987,6.02516866 2.32949367,5.6013233 2.23063291,5.11468604 C2.20891247,5.00354783 2.12449681,4.91646763 2.01620253,4.89348729 C1.96289765,4.88183397 1.92467311,4.8337535 1.9243038,4.7778931 L1.9243038,3.97016087 C1.9243038,3.91022314 1.96607595,3.87311884 2.00227848,3.86027504 C2.11367089,3.82031655 2.18886076,3.7132849 2.18886076,3.59198236 L2.18886076,2.96120913 C2.18886076,2.74001038 2.25151899,2.53593669 2.3643038,2.38466528 C2.74582278,1.87947587 3.33481013,1.69966269 3.75949367,1.69966269 C3.97392405,1.69966269 4.23012658,1.74532953 4.48075949,1.85664245 C4.47658228,1.90944473 4.47240506,1.9636741 4.47240506,2.01790348 L4.47240506,2.55448884 C4.29,2.69148936 4.17721519,2.91126103 4.17721519,3.14815776 L4.17721519,4.05293202 C4.17721519,4.33264141 4.33455696,4.58380903 4.56848101,4.70796575 C4.71329114,5.26024909 5.02101266,5.74688635 5.43594937,6.08796056 C5.46101266,6.1079398 5.48329114,6.12934613 5.50835443,6.14789829 L5.50835443,6.55461858 C5.50835443,6.76297353 5.43177215,6.95991178 5.29670886,7.11403736 C5.23405063,7.18681889 5.16025316,7.25103788 5.07253165,7.30098599 L3.43367089,8.34133368 C2.94075949,8.65386611 2.64556962,9.19473275 2.64556962,9.78840166 L2.64556962,9.78840166 Z M10.4430396,10.4177478 L3.20253165,10.4177478 L3.20253165,9.78840166 C3.20253165,9.39452517 3.39886076,9.03489881 3.72746835,8.82654385 L5.35518987,7.7933316 C5.7931331,7.54251909 6.06471008,7.06879236 6.06531646,6.55461858 L6.06531646,5.99805397 C6.06531646,5.90101194 6.01797468,5.81110535 5.93721519,5.75830306 C5.50417722,5.47288531 5.19088608,4.99195641 5.07810127,4.43681889 C5.05638082,4.32568068 4.97196516,4.23860048 4.86367089,4.21562013 C4.78848101,4.19849507 4.73417722,4.12999481 4.73417722,4.05293202 L4.73417722,3.14815776 C4.73417722,3.06824079 4.78987342,3.01258433 4.84417722,2.99260509 C4.95556962,2.9526466 5.02936709,2.84561495 5.02936709,2.7243124 L5.02936709,2.01790348 C5.02936709,1.76245459 5.10177215,1.52555786 5.23265823,1.35145304 C5.66708861,0.776336274 6.33962025,0.570835496 6.82278481,0.570835496 C7.30594937,0.570835496 7.97848101,0.776336274 8.41291139,1.35145304 C8.54379747,1.52555786 8.61620253,1.76245459 8.61620253,2.01790348 L8.61620253,2.7243124 C8.61620253,2.84561495 8.69,2.9526466 8.80139241,2.99260509 C8.8556962,3.01258433 8.91139241,3.06824079 8.91139241,3.14815776 L8.91139241,4.05293202 C8.91139241,4.12999481 8.85708861,4.19849507 8.78189873,4.21562013 C8.67329114,4.23845355 8.58974684,4.32550597 8.56746835,4.43681889 C8.45468354,4.99195641 8.14139241,5.47288531 7.70835443,5.75830306 C7.62759494,5.81110535 7.58025316,5.90101194 7.58025316,5.99805397 L7.58025316,6.55461858 C7.58025316,7.06694344 7.85177215,7.54216399 8.27924051,7.78619616 L9.91949367,8.82654385 C10.2453991,9.03197296 10.4436844,9.39626346 10.4430396,9.78840166 L10.4430396,10.4177478 L10.4430396,10.4177478 Z" id="Shape"></path>
                                    </g>
                                </g>
                            </g>
                        </g>
                    </g>
                </g>
            </g>
        </g>
    </g>
</svg>