<?xml version="1.0" encoding="UTF-8"?>
<svg width="35px" height="40px" viewBox="0 0 35 40" version="1.1" xmlns="http://www.w3.org/2000/svg" xmlns:xlink="http://www.w3.org/1999/xlink">
    <title>730ACA47-5E0D-4FBA-AAE5-AE709C9834E7</title>
    <g id="Web" stroke="none" stroke-width="1" fill="none" fill-rule="evenodd">
        <g id="Home-page" transform="translate(-391.000000, -404.000000)" fill-rule="nonzero">
            <g id="Group-28" transform="translate(100.000000, 110.000000)">
                <g id="Group-62" transform="translate(0.000000, 189.000000)">
                    <g id="Group-16" transform="translate(0.000000, 38.000000)">
                        <g id="Group-25" transform="translate(45.080226, 52.000000)">
                            <g id="Group-30" transform="translate(228.406476, 0.000000)">
                                <g id="Cute-monsters" transform="translate(18.032090, 15.000000)">
                                    <path d="M11.42371,5.87749543 C10.3219773,5.79532175 9.23940181,5.55110381 8.21286019,5.15316058 C7.56714106,3.54123693 8.56071657,2.08680968 8.60803878,2.01901937 C8.83103719,1.70331328 8.74966233,1.27151805 8.42606132,1.05340178 C8.10246032,0.835285511 7.65856278,0.913032221 7.4333795,1.22726565 C6.87783965,2.06992452 6.57777381,3.0480203 6.56765028,4.04919997 C6.46227632,3.93178482 6.36693319,3.80618719 6.28257215,3.6736602 C5.49164254,2.41146028 6.05168558,0.984892068 6.06275287,0.957404489 C6.21129217,0.601574848 6.03534714,0.195914132 5.66976865,0.0513359056 C5.30419016,-0.0932423213 4.88741533,0.0780107693 4.738876,0.433840396 C4.70376597,0.517417495 3.89070178,2.50506663 5.05085909,4.37867946 C5.19788364,4.61375877 5.36751706,4.83471363 5.55747383,5.03856709 C5.08973696,5.03731497 4.62699852,4.94486074 4.19657878,4.76666293 C3.84344464,4.60300575 3.42075373,4.7461602 3.24826739,5.0878314 C3.07578105,5.42950261 3.2176298,5.84265705 3.56650651,6.0147476 C4.48855375,6.41860867 5.51795345,6.52922143 6.50830671,6.33085476 C6.69883316,6.28863774 6.88599624,6.2331482 7.06834975,6.16481493 C8.15434349,6.72930084 9.55963491,7.09487326 11.284224,7.26153219 C11.3078851,7.26394664 11.3315462,7.26506155 11.3548257,7.26506155 C11.7363235,7.26552216 12.0508805,6.97415288 12.069293,6.6032609 C12.0877056,6.23236893 11.8034762,5.91283775 11.42371,5.87749543 L11.42371,5.87749543 Z M22.6741829,5.87749543 C23.7759156,5.79532175 24.8584911,5.55110381 25.8850327,5.15316058 C26.5307518,3.54123693 25.5371763,2.08680968 25.4900449,2.01901937 C25.2670465,1.70331328 25.3484214,1.27151805 25.6720224,1.05340178 C25.9956234,0.835285511 26.4395209,0.913032221 26.6647042,1.22726565 C27.2201768,2.06994418 27.5201761,3.04803855 27.5302426,4.04919997 C27.6356166,3.93178482 27.7309597,3.80618719 27.8153207,3.6736602 C28.6064412,2.41146028 28.0462073,0.984892068 28.03514,0.957404489 C27.8866007,0.60157485 28.0625457,0.195914144 28.4281242,0.0513359198 C28.7937027,-0.0932423049 29.2104775,0.078010778 29.3590169,0.433840396 C29.3941269,0.517417495 30.2071911,2.50506663 29.0470338,4.37867946 C28.9000092,4.61375877 28.7303758,4.83471363 28.540419,5.03856709 C29.0081559,5.03731497 29.4708944,4.94486074 29.9013141,4.76666293 C30.2549539,4.5999813 30.680507,4.74254974 30.8538298,5.08577394 C31.0271526,5.42899814 30.8831806,5.8440334 30.5315772,6.0147476 C29.6094735,6.41864813 28.5800005,6.52926159 27.5895862,6.33085476 C27.3990597,6.28863774 27.2118966,6.2331482 27.0295431,6.16481493 C25.9435494,6.72930084 24.538258,7.09487326 22.8136689,7.26153219 C22.7902081,7.26382772 22.7666461,7.26506155 22.7430672,7.26506155 C22.3615694,7.26552216 22.0470124,6.97415288 22.0285998,6.6032609 C22.0101873,6.23236893 22.2944167,5.91283775 22.6741829,5.87749543 L22.6741829,5.87749543 Z" id="Shape" fill="#703700"></path>
                                    <path d="M28.539465,24.1792085 L26.4403053,19.1062644 L16.9306409,22.6790925 L7.42078569,19.1062644 L5.32181688,24.1792085 C5.32181688,24.1792085 5.01288684,28.9505322 6.55639217,28.9260163 C7.54405241,28.9104152 7.94228403,28.22304 8.10123322,27.7299352 C7.92339331,28.6938577 7.66770075,30.7788277 8.6555518,31.2923626 C9.95214208,31.9663654 10.9399931,30.4038451 10.9399931,30.4038451 C10.9399931,30.4038451 11.9278442,32.988049 13.2862586,32.988049 C14.6446731,32.988049 14.6444823,32.2213684 14.6444823,32.2213684 C14.6444823,32.2213684 14.8975034,33.888453 16.8705341,33.9542003 L16.8705341,33.9573576 C16.8911421,33.9573576 16.9104145,33.9560576 16.9306409,33.9558718 C16.9508674,33.9560576 16.9699489,33.9573576 16.9905569,33.9573576 L16.9905569,33.9542003 C18.9635876,33.888453 19.2166088,32.2213684 19.2166088,32.2213684 C19.2166088,32.2213684 19.2166088,32.988049 20.5750232,32.988049 C21.9334377,32.988049 22.9210979,30.4038451 22.9210979,30.4038451 C22.9210979,30.4038451 23.908949,31.9663654 25.2055392,31.2923626 C26.1933903,30.7788277 25.9376977,28.6940434 25.7598578,27.7299352 C25.9189978,28.2232258 26.3170386,28.9104152 27.3046989,28.9260163 C28.8482042,28.9503465 28.539465,24.1792085 28.539465,24.1792085 L28.539465,24.1792085 Z" id="Path" fill="#EE8622"></path>
                                    <path d="M25.4543624,22.7318389 C25.4543624,22.7318389 24.2142535,20.2427272 16.9109869,20.2427272 C9.60772038,20.2427272 8.36761144,22.7318389 8.36761144,22.7318389 C7.68775482,24.5490769 7.62157415,26.5300917 8.17870425,28.3864797 C9.13125446,31.3725966 16.9109869,31.3391818 16.9109869,31.3391818 C16.9109869,31.3391818 24.6905286,31.3725966 25.6432696,28.3864797 C26.2003997,26.5300917 26.1342191,24.5490769 25.4543624,22.7318389 L25.4543624,22.7318389 Z" id="Path" fill="#703700"></path>
                                    <path d="M27.0324054,33.6401361 L27.023437,33.6360501 C27.023437,33.6360501 31.3787973,27.2773187 25.6934541,20.5549341 L28.1843576,19.2414735 C28.1843576,19.2414735 32.8681111,23.1047785 33.8206613,27.740893 C34.7732115,32.3770076 32.5822697,36.1411344 32.5822697,36.1411344 L31.2173675,38.3178535 C31.1047137,38.499298 30.9011657,38.6084623 30.6833981,38.6043441 C30.4656305,38.599988 30.2667273,38.4829931 30.1616135,38.2973114 C30.0564997,38.1116297 30.0611446,37.8854707 30.1737984,37.7040261 L31.4909967,35.6493296 L31.1164262,35.4805038 L29.7211844,37.7056977 C29.5551771,37.9784481 29.1982248,38.0760207 28.9106008,37.9272698 C28.7617461,37.8503164 28.6522642,37.7168152 28.608161,37.5584775 C28.5640578,37.4001398 28.589269,37.2310956 28.6778061,37.0914989 L30.0257257,34.9890705 L29.6446675,34.8174589 L28.2591572,37.0272374 C28.1464693,37.2086819 27.9428898,37.3178284 27.7251051,37.3135626 C27.5073205,37.3092967 27.3084173,37.1922664 27.2033206,37.006556 C27.0982238,36.8208456 27.1029002,36.5946688 27.2155881,36.4132243 L28.5537761,34.3256541 L28.1259681,34.1330553 L27.4676552,35.2143572 C27.3559987,35.3978921 27.1517299,35.5089782 26.93262,35.5053218 C26.7135101,35.5016654 26.5132737,35.3838291 26.4081466,35.1966767 C26.3030195,35.0095243 26.3091778,34.7818531 26.4242769,34.6003441 L27.0324054,33.6401361 Z" id="Path" fill="#703700"></path>
                                    <path d="M30.8239063,33.3674891 C30.8239063,33.3674891 30.5262344,31.3971125 33.2054726,31.3393515 C33.2054726,31.3393515 33.6222134,33.657223 30.8240971,33.3674891 L30.8239063,33.3674891 Z M32.2248726,30.8577616 C32.2248726,30.8577616 31.9249108,29.7816601 33.4105991,29.5762461 C33.4105991,29.5762461 33.8004349,30.8380746 32.2248726,30.8577616 Z M32.4607203,26.3821151 C32.4607203,26.3821151 31.3158283,26.3579706 31.5333578,24.9130147 C31.5333578,24.9130147 32.886811,24.9055864 32.4607203,26.3821151 Z M32.2933753,29.351888 C32.2933753,29.351888 31.245799,28.34952 32.695614,27.2178861 C32.695614,27.2178861 33.9645361,28.3697643 32.2933753,29.351888 Z M20.5103368,29.9116689 C20.5103368,29.9116689 19.4576086,28.914687 20.9011267,27.775624 C20.9011267,27.775624 22.1763456,28.9211874 20.5105276,29.9116689 L20.5103368,29.9116689 Z" id="Shape" fill="#8F4D26"></path>
                                    <path d="M31.1750065,27.9795521 C31.1750065,27.9795521 29.9190599,27.2377589 31.0633796,25.8126765 C31.0633796,25.8126765 32.5702483,26.6503048 31.1748157,27.9795521 L31.1750065,27.9795521 Z M30.2583296,32.5348754 C30.2583296,32.5348754 29.1527455,32.8268381 28.9417037,31.3807686 C28.9417037,31.3807686 30.2381032,31.0013285 30.2583296,32.5348754 Z M30.4668908,28.3623352 C30.4668908,28.3623352 29.3611158,28.6542979 29.1502649,27.2084141 C29.1502649,27.2084141 30.4464735,26.828974 30.4668908,28.3623352 Z M30.0402277,26.6438043 C30.0402277,26.6438043 28.9174702,26.4214892 29.3960351,25.0372668 C29.3960351,25.0372668 30.7294527,25.2647822 30.0402277,26.6438043 Z M29.7751852,29.8865958 C29.7751852,29.8865958 28.9413221,29.5816322 29.4832377,28.5757354 C29.4832377,28.5757354 30.4785305,28.9098581 29.7751852,29.8865958 Z M19.2375985,30.1962025 C19.2375985,30.1962025 18.3606111,30.0437207 18.7061777,28.9587042 C18.7061777,28.9587042 19.7472663,29.1113717 19.2375985,30.1962025 Z M29.8412073,30.9203516 C29.8412073,30.9203516 29.173926,31.1107217 29.0273798,30.2353908 C29.0273798,30.2353908 29.8097227,29.9894885 29.8413981,30.9203516 L29.8412073,30.9203516 Z M30.8124574,25.2530814 C30.8124574,25.2530814 29.6898907,25.0305806 30.1682648,23.6465438 C30.1682648,23.6465438 31.5016824,23.8740593 30.8124574,25.2530814 Z M30.830394,31.7537081 C30.830394,31.7537081 29.1886188,30.5652418 31.0410542,28.6802996 C31.0410542,28.6802996 33.0198093,30.0325771 30.830394,31.7537081 Z M22.3293795,29.4025915 C22.3293795,29.4025915 21.6269882,27.532136 24.2382962,26.9457962 C24.2382962,26.9457962 25.1299764,29.1332875 22.3293795,29.4025915 Z M13.3112554,29.9116689 C13.3112554,29.9116689 14.3643653,28.914687 12.9208472,27.775624 C12.9208472,27.775624 11.6454375,28.9211874 13.3112554,29.9116689 Z M14.5841846,30.1962025 C14.5841846,30.1962025 15.4611719,30.0437207 15.1156053,28.9587042 C15.1156053,28.9587042 14.0747076,29.1113717 14.5841846,30.1962025 Z M11.4924036,29.4025915 C11.4924036,29.4025915 12.1949857,27.532136 9.58348683,26.9457962 C9.58348683,26.9457962 8.69199753,29.1332875 11.4924036,29.4025915 Z" id="Shape" fill="#8F4D26"></path>
                                    <path d="M7.02846934,33.6401361 L7.03743766,33.6360501 C7.03743766,33.6360501 2.68188656,27.2773187 8.36742062,20.5549341 L5.87651709,19.2414735 C5.87651709,19.2414735 1.1927636,23.1047785 0.240022576,27.740893 C-0.712718448,32.3770076 1.47841417,36.1411344 1.47841417,36.1411344 L2.84331635,38.3178535 C2.95597017,38.499298 3.15951818,38.6084623 3.37728581,38.6043441 C3.59505343,38.599988 3.79395659,38.4829931 3.89907038,38.2973114 C4.00418417,38.1116298 3.99953931,37.8854707 3.88688548,37.7040261 L2.56987796,35.6491439 L2.94444848,35.4803181 L4.33969029,37.7055119 C4.50569757,37.9782624 4.86264986,38.0758349 5.15027388,37.9270841 C5.29912862,37.8501307 5.40861052,37.7166295 5.45271372,37.5582918 C5.49681693,37.3999541 5.4716057,37.2309098 5.38306861,37.0913131 L4.035149,34.9888848 L4.41620725,34.8172731 L5.80171748,37.0270516 C5.91440539,37.2084962 6.11798489,37.3176427 6.33576956,37.3133768 C6.55355423,37.309111 6.75245739,37.1920807 6.85755414,37.0063703 C6.96265089,36.8206599 6.95797453,36.5944831 6.84528661,36.4130385 L5.50709858,34.3254683 L5.93490659,34.1328696 L6.59321953,35.2141715 C6.70487602,35.3977063 6.90914477,35.5087924 7.12825469,35.5051361 C7.34736461,35.5014797 7.54760105,35.3836434 7.65272812,35.196491 C7.75785518,35.0093386 7.75169688,34.7816674 7.63659785,34.6001584 L7.02846934,33.6401361 Z" id="Path" fill="#703700"></path>
                                    <path d="M28.5881229,16.1769799 L27.8464236,13.7162844 C27.8464236,13.7162844 25.1990515,2.49633747 17.0489464,2.49633747 C8.89884136,2.49633747 6.25146925,13.7162844 6.25146925,13.7162844 L5.50977,16.1769799 C5.50977,16.1769799 1.51047115,19.9750947 3.17762483,21.7134984 C4.84477852,23.4519021 7.46429159,19.7431219 7.46429159,19.7431219 C7.46429159,19.7431219 4.89668029,23.392098 7.28568843,24.1474492 C9.67469656,24.9028005 11.2237355,21.4464231 11.2237355,21.4464231 C11.2237355,21.4464231 10.1189147,25.4224643 12.0301212,25.7666162 C13.7760816,26.1845017 14.7007728,23.3516095 14.8768954,22.7472542 C14.7414165,23.267661 14.295481,25.4677817 16.135895,26.4185176 C16.7071955,26.7122367 17.3906974,26.7122367 17.9619979,26.4185176 C19.8024119,25.4677817 19.3564764,23.267661 19.2209975,22.7472542 C19.3971201,23.3516095 20.3218113,26.184316 22.0677717,25.7666162 C23.9787874,25.4224643 22.8741573,21.4466089 22.8741573,21.4466089 C22.8741573,21.4466089 24.4231963,24.9029862 26.8122045,24.1474492 C29.2012126,23.3919123 26.6336013,19.7431219 26.6336013,19.7431219 C26.6336013,19.7431219 29.2533052,23.4520878 30.920268,21.7136841 C32.5872309,19.9752805 28.5881229,16.1769799 28.5881229,16.1769799 L28.5881229,16.1769799 Z" id="Path" fill="#F7C53F"></path>
                                    <ellipse id="Oval" fill="#703700" cx="10.9106076" cy="12.0384277" rx="1.14870839" ry="1.11807586"></ellipse>
                                    <path d="M24.3361845,12.0384277 C24.3361845,11.4209315 23.8218903,10.9203519 23.1874761,10.9203519 C22.553062,10.9203519 22.0387677,11.4209315 22.0387677,12.0384277 C22.0387677,12.655924 22.553062,13.1565036 23.1874761,13.1565036 C23.8218903,13.1565036 24.3361845,12.655924 24.3361845,12.0384277 Z M17.0489464,14.6725921 C15.7662857,14.6681347 15.1427011,14.2093893 15.1427011,14.2093893 C15.4738641,14.9311189 16.2186161,15.3880506 17.0304374,15.3675821 L17.0304374,15.3685108 L17.0674555,15.3685108 L17.0674555,15.3675821 C17.8793454,15.3881265 18.6241928,14.9311825 18.9553826,14.2093893 C18.9553826,14.2093893 18.3316072,14.6681347 17.0491373,14.6725921 L17.0489464,14.6725921 Z" id="Shape" fill="#703700"></path>
                                    <path d="M17.0489464,16.6292249 C16.2767167,16.6266247 15.9013829,16.3645641 15.9013829,16.3645641 C16.1105462,16.7861969 16.5572749,17.0463855 17.0378791,17.0264947 L17.0378791,17.0270519 L17.0602045,17.0270519 L17.0602045,17.0264947 C17.540796,17.0463362 17.9874989,16.7861625 18.1967007,16.3645641 C18.1967007,16.3645641 17.8211761,16.6266247 17.0489464,16.6292249 L17.0489464,16.6292249 Z" id="Path" fill="#EE8622"></path>
                                    <ellipse id="Oval" fill="#F7C53F" cx="5.50977" cy="14.209575" rx="2.85765063" ry="2.78144585"></ellipse>
                                    <path d="M6.57547371,13.2140789 C6.20310818,13.3285338 5.85148853,13.4991227 5.5334311,13.7196275 C5.22154589,13.4620475 4.84620689,13.287831 4.4442571,13.2140789 C4.51802689,13.5954293 4.69011775,13.9522891 4.94438413,14.2511778 C4.69008873,14.5501195 4.51799623,14.9070466 4.4442571,15.2884625 C4.846223,15.2146482 5.22156167,15.0403679 5.5334311,14.7827282 C5.85142256,15.0032731 6.20297586,15.1739237 6.57528289,15.2884625 C6.45452524,14.9170131 6.27336915,14.5668082 6.03871014,14.2511778 C6.27341823,13.9356166 6.45463841,13.585475 6.57547371,13.2140789 L6.57547371,13.2140789 Z" id="Path" fill="#EE8622"></path>
                                    <ellipse id="Oval" fill="#F7C53F" cx="28.5881229" cy="14.209575" rx="2.85765063" ry="2.78144585"></ellipse>
                                    <path d="M27.5224192,13.2140789 C27.8947847,13.3285338 28.2464043,13.4991227 28.5644618,13.7196275 C28.8764011,13.4620187 29.2518094,13.2878005 29.6538266,13.2140789 C29.580001,13.5954471 29.4078437,13.9523086 29.1535088,14.2511778 C29.4078728,14.5501 29.5800317,14.9070288 29.6538266,15.2884625 C29.2517933,15.2146787 28.8763853,15.0403967 28.5644618,14.7827282 C28.2464671,15.0032678 27.8949147,15.173918 27.52261,15.2884625 C27.6433676,14.9170131 27.8245237,14.5668082 28.0591827,14.2511778 C27.8244747,13.9356166 27.6432545,13.585475 27.5224192,13.2140789 L27.5224192,13.2140789 Z M7.54347996,17.5028842 C7.54347996,17.5028842 6.25032436,19.5915687 7.25420389,20.1506066 C8.25808343,20.7096446 9.32970242,18.5459263 9.32970242,18.5459263 C9.32970242,18.5459263 8.29147612,19.7839818 7.58316955,19.5507088 C6.87486299,19.3174358 7.54347996,17.5028842 7.54347996,17.5028842 L7.54347996,17.5028842 Z M14.2405262,20.766477 C14.2405262,20.766477 13.7825693,23.1640254 14.9240267,23.3445519 C16.0654841,23.5250784 16.2891197,21.1331019 16.2891197,21.1331019 C16.2891197,21.1331019 15.7632326,22.6469617 15.0158089,22.6703633 C14.2683852,22.6937649 14.2405262,20.7666627 14.2405262,20.7666627 L14.2405262,20.766477 Z M13.4988269,7.93999251 C13.4988269,7.93999251 13.0408701,10.3377266 14.1825183,10.5180674 C15.3241665,10.6984082 15.5474205,8.30680311 15.5474205,8.30680311 C15.5474205,8.30680311 15.0215334,9.82047723 14.2743005,9.84387882 C13.5270676,9.86728041 13.4988269,7.94017823 13.4988269,7.94017823 L13.4988269,7.93999251 Z M20.9495938,19.9047043 C20.9495938,19.9047043 22.1017368,22.0702797 23.116302,21.5300002 C24.1308672,20.9897207 22.7972587,18.9688265 22.7972587,18.9688265 C22.7972587,18.9688265 23.3378386,20.4778574 22.762912,20.9431033 C22.1879853,21.4083491 20.9495938,19.90489 20.9495938,19.90489 L20.9495938,19.9047043 Z M20.0565779,6.51806747 C20.0565779,6.51806747 21.2085302,8.68364296 22.2230954,8.14336345 C23.2376606,7.60308393 21.9044337,5.58218968 21.9044337,5.58218968 C21.9044337,5.58218968 22.4448228,7.09122064 21.870087,7.55646649 C21.2953512,8.02171234 20.0565779,6.51825319 20.0565779,6.51825319 L20.0565779,6.51806747 Z" id="Shape" fill="#EE8622"></path>
                                    <path d="M3.23696841,33.3674891 C3.23696841,33.3674891 3.53464035,31.3971125 0.855402068,31.3393515 C0.855402068,31.3393515 0.438661352,33.657223 3.23677759,33.3674891 L3.23696841,33.3674891 Z M1.83600213,30.8577616 C1.83600213,30.8577616 2.13596386,29.7816601 0.650275571,29.5762461 C0.650275571,29.5762461 0.260439818,30.8380746 1.83600213,30.8577616 Z M1.60015437,26.3821151 C1.60015437,26.3821151 2.74504644,26.3579706 2.52751695,24.9130147 C2.52751695,24.9130147 1.1740637,24.9055864 1.60015437,26.3821151 Z M1.76749942,29.351888 C1.76749942,29.351888 2.81507568,28.34952 1.36526067,27.2178861 C1.36526067,27.2178861 0.0963386203,28.3697643 1.76749942,29.351888 Z" id="Shape" fill="#8F4D26"></path>
                                    <path d="M2.88586817,27.9795521 C2.88586817,27.9795521 4.14181478,27.2377589 2.99749515,25.8126765 C2.99749515,25.8126765 1.49062636,26.6503048 2.88605898,27.9795521 L2.88586817,27.9795521 Z M3.80254509,32.5348754 C3.80254509,32.5348754 4.90812921,32.8268381 5.11917098,31.3807686 C5.11917098,31.3807686 3.82277152,31.0013285 3.80254509,32.5348754 Z M3.59398392,28.3623352 C3.59398392,28.3623352 4.69975885,28.6542979 4.91060981,27.2084141 C4.91060981,27.2084141 3.61440116,26.828974 3.59398392,28.3623352 Z M4.02083785,26.6438043 C4.02083785,26.6438043 5.14340453,26.4214892 4.66483964,25.0372668 C4.66483964,25.0372668 3.331422,25.2647822 4.02083785,26.6438043 Z M4.28568955,29.8865958 C4.28568955,29.8865958 5.11955261,29.5816322 4.57763703,28.5757354 C4.57763703,28.5757354 3.58234418,28.9098581 4.28568955,29.8865958 Z M4.21947663,30.9203516 C4.21947663,30.9203516 4.88694871,31.1107217 5.03349489,30.2353908 C5.03349489,30.2353908 4.25115197,29.9894885 4.21947663,30.9203516 Z M3.24841733,25.2530814 C3.24841733,25.2530814 4.37098401,25.0305806 3.89241912,23.6465438 C3.89241912,23.6465438 2.5591923,23.8740593 3.24841733,25.2530814 Z M3.23048068,31.7537081 C3.23048068,31.7537081 4.87225593,30.5652418 3.01982054,28.6802996 C3.01982054,28.6802996 1.0410654,30.0325771 3.23048068,31.7537081 Z" id="Shape" fill="#8F4D26"></path>
                                    <path d="M20.1458795,30.8577616 C20.1458795,30.8577616 19.907742,38.0561643 19.9672763,39.2151001 C20.0268107,40.3740358 21.5151704,40.258328 22.2891175,38.8094726 C23.0630645,37.3606171 23.9787874,29.4978694 23.9787874,29.4978694 L20.1458795,30.8577616 Z M13.6760944,30.8577616 L9.8429957,29.4978694 C9.8429957,29.4978694 10.7587185,37.3608028 11.5326656,38.8094726 C12.3066126,40.2581423 13.7951632,40.3742216 13.8546975,39.2151001 C13.9142319,38.0559786 13.6760944,30.8577616 13.6760944,30.8577616 L13.6760944,30.8577616 Z" id="Shape" fill="#703700"></path>
                                    <path d="M11.6177692,36.9759767 C11.6177692,36.9759767 12.4947566,36.823495 12.14919,35.7384785 C12.14919,35.7384785 11.1082923,35.891146 11.6177692,36.9759767 Z M11.413406,35.290691 C11.413406,35.290691 12.8273477,34.9025218 12.1159881,33.231537 C12.1159881,33.231537 10.4339508,33.647008 11.413406,35.290691 Z M10.7650155,33.4430799 C10.7650155,33.4430799 11.8747975,32.5062735 10.5003546,31.288648 C10.5003546,31.288648 9.15987676,32.3614065 10.7650155,33.4430799 Z M22.2040138,36.9759767 C22.2040138,36.9759767 21.3270265,36.823495 21.6725931,35.7384785 C21.6725931,35.7384785 22.7134908,35.891146 22.2040138,36.9759767 Z M22.4083771,35.290691 C22.4083771,35.290691 20.9944354,34.9025218 21.705795,33.231537 C21.705795,33.231537 23.3878322,33.647008 22.4083771,35.290691 Z M23.0567676,33.4430799 C23.0567676,33.4430799 21.9471764,32.5062735 23.3216193,31.288648 C23.3216193,31.288648 24.6619063,32.3614065 23.0567676,33.4430799 Z" id="Shape" fill="#8F4D26"></path>
                                    <path d="M27.3476323,18.0379633 C27.2632919,17.7636447 27.3730108,17.4893261 27.59283,17.4252503 C27.8126493,17.3611745 28.0591827,17.5316718 28.1433323,17.8059904 C28.2274819,18.080309 28.1179539,18.3546277 27.8981346,18.4187034 C27.6783153,18.4827792 27.4317819,18.3122819 27.3476323,18.0379633 Z M23.6326483,15.0414457 C23.5603293,14.7639698 23.6822603,14.4944801 23.9045602,14.4396906 C24.1268601,14.3849012 24.3657609,14.565242 24.4378891,14.842718 C24.5100173,15.1201939 24.3882771,15.3898694 24.1659772,15.4446588 C23.9436774,15.4994482 23.7047765,15.3191074 23.6326483,15.0416315 L23.6326483,15.0414457 Z M25.1635599,13.6494227 C25.0914317,13.371761 25.2131719,13.1022713 25.4356625,13.0474819 C25.6581532,12.9926924 25.8968632,13.173219 25.9689914,13.450695 C26.0411196,13.7281709 25.9193794,13.9976606 25.6970796,14.0524501 C25.4747797,14.1072395 25.2358789,13.9268987 25.1635599,13.6494227 L25.1635599,13.6494227 Z M24.993925,10.8559046 C24.9217968,10.5784287 25.043537,10.3089389 25.2658369,10.2541495 C25.4881368,10.1993601 25.7270376,10.3797009 25.7993566,10.6571769 C25.8716756,10.9346528 25.7497446,11.2043283 25.5272539,11.2591177 C25.3047632,11.3139071 25.066244,11.1333806 24.993925,10.8559046 L24.993925,10.8559046 Z M10.5024535,15.0414457 C10.5745817,14.7639698 10.4528415,14.4944801 10.2303509,14.4396906 C10.0078602,14.3849012 9.76915016,14.565242 9.69702196,14.842718 C9.62489376,15.1201939 9.74663395,15.3898694 9.96893383,15.4446588 C10.1912337,15.4994482 10.4301345,15.3191074 10.5024535,15.0416315 L10.5024535,15.0414457 Z M8.9713512,13.6494227 C9.0434794,13.371761 8.92173921,13.1022713 8.69943933,13.0474819 C8.47713945,12.9926924 8.23823864,13.173219 8.16591962,13.450695 C8.0936006,13.7281709 8.21553161,13.9976606 8.4380223,14.0524501 C8.660513,14.1072395 8.89903218,13.9268987 8.9713512,13.6494227 Z M9.14098604,10.8559046 C9.21311424,10.5784287 9.09137405,10.3089389 8.86907417,10.2541495 C8.64677429,10.1993601 8.40787348,10.3797009 8.33574528,10.6571769 C8.26361708,10.9346528 8.38535727,11.2043283 8.60765715,11.2591177 C8.82995702,11.3139071 9.06885784,11.1333806 9.14098604,10.8559046 Z" id="Shape" fill="#FFE971"></path>
                                    <path d="M6.38809304,26.5615273 C6.36634009,26.2760651 6.53425759,26.031277 6.76323601,26.0147474 C6.99221442,25.9982177 7.19486032,26.2164468 7.21642246,26.5020947 C7.23798459,26.7877427 7.07006708,27.032345 6.84127948,27.0488747 C6.61249188,27.0654044 6.40946436,26.8471753 6.38790222,26.5615273 L6.38809304,26.5615273 Z M17.0508546,32.9133868 C17.0292925,32.6281103 17.19721,32.3831366 17.4259976,32.3667926 C17.6547852,32.3504486 17.8578127,32.568492 17.8793748,32.8539542 C17.900937,33.1394164 17.7330195,33.3843902 17.5042319,33.4007342 C17.2754443,33.4170781 17.0724167,33.1990348 17.0508546,32.9135725 L17.0508546,32.9133868 Z M26.9150539,26.1506994 C26.8934918,25.8650515 27.0614093,25.6202634 27.2901969,25.6039195 C27.5189845,25.5875755 27.722012,25.8056189 27.7435742,26.0910811 C27.7651363,26.3765433 27.5972188,26.6215171 27.3684312,26.6378611 C27.1396436,26.654205 26.9366161,26.4361617 26.9150539,26.1506994 Z" id="Shape" fill="#F7C53F"></path>
                                    <path d="M10.7249442,19.1096074 C10.8407691,18.8464325 11.10543,18.7041657 11.3164718,18.7920145 C11.5275136,18.8798633 11.604603,19.1642112 11.4889689,19.4275719 C11.3733348,19.6909326 11.1084831,19.8330137 10.8974413,19.7451649 C10.6863995,19.657316 10.6093101,19.3729682 10.7249442,19.1096074 L10.7249442,19.1096074 Z" id="Path" fill="#FFE971"></path>
                                </g>
                            </g>
                        </g>
                    </g>
                </g>
            </g>
        </g>
    </g>
</svg>