<?xml version="1.0" encoding="UTF-8"?>
<svg width="100px" height="100px" viewBox="0 0 100 100" version="1.1" xmlns="http://www.w3.org/2000/svg" xmlns:xlink="http://www.w3.org/1999/xlink">
    <title>74FE8253-A03C-4BF0-A7FF-378FFE329FE0</title>
    <defs>
        <path d="M50,100 C77.6142375,100 100,77.831575 100,50.4854369 C100,23.1392988 77.6142375,0.970873786 50,0.970873786 C22.3857625,0.970873786 0,23.1392988 0,50.4854369 C0,77.831575 22.3857625,100 50,100 Z" id="path-1"></path>
        <mask id="mask-2" maskContentUnits="userSpaceOnUse" maskUnits="objectBoundingBox" x="0" y="0" width="100" height="99.0291262" fill="white">
            <use xlink:href="#path-1"></use>
        </mask>
    </defs>
    <g id="Web" stroke="none" stroke-width="1" fill="none" fill-rule="evenodd">
        <g id="Home-page" transform="translate(-980.000000, -338.000000)">
            <g id="Group-28" transform="translate(100.000000, 110.000000)">
                <g id="Group-24" transform="translate(840.000000, 0.000000)">
                    <g id="Group-11" transform="translate(20.000000, 20.000000)">
                        <g id="Group-10" transform="translate(0.000000, 186.000000)">
                            <g id="Group-88" transform="translate(20.000000, 22.000000)">
                                <use id="Oval" stroke="#000000" mask="url(#mask-2)" stroke-width="1.92" fill="#FFFFFF" stroke-dasharray="39.36" xlink:href="#path-1"></use>
                                <g id="chat-(1)" transform="translate(6.862745, 7.766990)">
                                    <path d="M43.1663856,0 C50.1448694,0 57.0967608,1.70474883 63.2736878,4.92984762 C84.3041102,15.9185155 92.3918574,41.802097 81.3030203,62.6354071 C73.739514,76.8416474 58.8480298,85.4368932 43.1170005,85.4368932 C40.0437325,85.4368932 36.9400737,85.1094909 33.8516103,84.4321075 C32.1117379,84.0482566 31.0138708,82.3397447 31.3975545,80.6161797 C31.7812381,78.8926147 33.5021163,77.8125638 35.2533852,78.185125 C51.3187131,81.722573 67.9044837,74.0869539 75.589553,59.6511558 C85.0182938,41.9413371 78.1423787,19.930132 60.2612015,10.5897642 C55.0111934,7.84636049 49.1001859,6.39751217 43.1625865,6.39751217 L43.1625865,6.39751217 C22.9071293,6.39751217 6.45811754,22.6885887 6.45811754,42.7128017 C6.45051982,48.5458275 7.88648438,54.3525105 10.6102584,59.5119159 L10.6102584,59.5119159 L11.4384072,61.1150572 C12.4526997,62.9966783 12.6768317,65.333652 12.019631,67.4485945 C11.1117063,69.8194371 10.3557356,72.1263045 9.73272449,74.4218824 C12.1563895,73.69934 15.1156921,72.6343422 17.2544435,71.8628778 L17.2544435,71.8628778 L18.1319774,71.5505287 C19.792074,70.93712 21.6573083,71.8064292 22.2651239,73.4697822 C22.8729396,75.129372 22.0030035,76.9658346 20.3277115,77.5641902 L20.3277115,77.5641902 L19.4615742,77.876539 C16.2629442,79.0243281 11.8866713,80.6011266 8.93116758,81.2559308 C8.68044362,81.3086163 8.41072538,81.3424856 8.1638003,81.334959 C6.18080163,81.334959 4.972768,80.540915 4.30796959,79.8710577 C3.28607948,78.8436923 2.79982694,77.4023706 2.85680966,75.5884877 C2.86440736,75.3815096 2.89099929,75.1670044 2.94038432,74.9600263 C3.70775161,71.7236379 4.70684864,68.4947757 5.91488227,65.3675214 C6.00225576,65.0626988 5.9490719,64.5095021 5.70214677,64.046623 L5.70214677,64.046623 L4.87019907,62.4472452 C1.68296564,56.4034778 -0.00752171207,49.5656664 2.51586181e-05,42.7090385 C2.51586181e-05,19.1586673 19.3438099,0 43.1170005,0 L43.1170005,0 L43.1663856,0 Z" id="Shape" stroke="#FFFFFF" stroke-width="3.84" fill="#FF4A00" fill-rule="nonzero"></path>
                                    <text id="Did-you-know?" font-family="Roboto-Black, Roboto" font-size="11.52" font-weight="800">
                                        <tspan x="23.7310049" y="40.2847896" fill="#000000">Did you</tspan>
                                        <tspan x="62.5435049" y="40.2847896" fill="#8A73FF"></tspan>
                                        <tspan x="26.3888174" y="54.2847896" fill="#FF4A00">know?</tspan>
                                    </text>
                                </g>
                                <polygon id="Path-14" fill="#FFFFFF" points="32.7305264 5.67300303 39.3772437 22.8586341 67.9521548 22.2881819 80.4729933 4.85436893"></polygon>
                                <g id="announcement" transform="translate(44.117647, 0.000000)" fill-rule="nonzero">
                                    <path d="M20.2065975,9.0430169 C21.1800756,8.33920078 21.4910182,7.06342281 20.9446855,6.01468863 C20.3983527,4.96595446 19.151775,4.44569787 17.9856702,4.77974982 L15.6193179,0.236971281 C15.5560917,0.115602788 15.4371722,0.0301828274 15.2985445,0.00655962564 C15.1599167,-0.0170635761 15.0178707,0.0238859007 14.9153898,0.117016674 L6.36238079,7.87905545 L1.39622305,10.2876177 C0.146167085,10.8959131 -0.357665594,12.3658785 0.269997569,13.5734556 L2.32408772,17.5164611 C2.62536704,18.0970112 3.15372086,18.5379715 3.79249303,18.7419815 C4.43126519,18.9459916 5.12791838,18.8962721 5.72863733,18.6038008 L5.97814965,18.4826983 L7.52548295,21.4540141 C7.99634983,22.3607925 8.90742639,22.978982 9.95101637,23.0998028 L11.6497225,23.298101 C11.6675955,23.3000275 11.6855663,23.3009709 11.7035505,23.3009709 C11.877526,23.3009709 12.0356454,23.2034242 12.1085991,23.0510174 L12.7518591,21.7054022 C12.8465652,21.5065769 12.7717369,21.2708257 12.5778845,21.1572843 L11.2425921,20.3767184 C10.9027193,20.1775108 10.7336511,19.7903606 10.8232686,19.4165076 L11.0787288,18.3538476 C11.1075526,18.2336147 11.0815131,18.1072267 11.0072222,18.0067757 C10.9329313,17.9063248 10.817535,17.841473 10.6903342,17.8286875 L9.27117706,17.686062 L8.93809743,17.0472607 L10.6947951,16.1949516 L22.2529555,14.2027868 C22.391599,14.1789614 22.5104239,14.0933218 22.5734496,13.9718 C22.6364753,13.8502781 22.63629,13.7071649 22.5729498,13.5857954 L20.2065975,9.0430169 Z M20.1477138,6.39999793 C20.4722696,7.02516126 20.3291844,7.78209926 19.7967906,8.25642461 L18.3954771,5.56634211 C19.1067603,5.43677198 19.8211312,5.77664581 20.1477138,6.39999793 L20.1477138,6.39999793 Z M9.21407769,14.1715068 L6.58958868,15.4445179 L6.55271201,15.432752 L6.26424126,14.8788946 C6.25731481,14.8656566 6.26276105,14.8495058 6.27643435,14.8427361 L8.90032858,13.5702989 L9.21407769,14.1715068 Z M5.32775221,17.8350009 C4.51661807,18.2283426 3.52861699,17.9128175 3.12080229,17.1301958 L1.06671214,13.1866163 C0.660302069,12.4037317 0.986971607,11.4511289 1.79710817,11.0567046 L6.42245408,8.81315173 L8.50003825,12.800925 L5.87614402,14.0736491 C5.4227676,14.2943012 5.23998699,14.8274101 5.46752669,15.2654469 L5.75599744,15.8193043 C5.86497413,16.0299885 6.05676712,16.1898478 6.28862745,16.2632511 C6.38213602,16.2932998 6.48002807,16.3087044 6.57858516,16.3088798 C6.72182335,16.3087619 6.86302326,16.2761242 6.99077119,16.2136048 L9.61466542,14.9408807 L9.9536929,15.591161 L5.32775221,17.8350009 Z M8.58330815,18.2835393 C8.65147185,18.414819 8.78436029,18.5034454 8.93571829,18.5185699 L10.0949543,18.6347939 L9.9536929,19.2225141 C9.77729067,19.9588722 10.1105444,20.7213315 10.7801467,21.1133775 L11.7743299,21.6944973 L11.4341129,22.4061897 L10.0580777,22.245485 C9.31126609,22.15896 8.65927625,21.7166069 8.32219752,21.0677488 L6.77486422,18.096146 L8.14078808,17.433813 L8.58330815,18.2835393 Z M20.4813882,13.6337199 L17.0509655,7.04769541 C16.9800619,6.90911555 16.8376113,6.81785042 16.6777387,6.80857676 C16.5178661,6.79930309 16.3651115,6.87344436 16.2775149,7.00283016 C16.1899183,7.13221597 16.1809255,7.2969859 16.2539535,7.43453467 L19.5651218,13.7915549 L10.801559,15.3021794 L7.16890931,8.32874174 L13.6541481,2.44350471 L15.0040127,5.03515556 C15.0737549,5.17558264 15.2166552,5.2687143 15.377698,5.27869547 C15.5387408,5.28867665 15.6928138,5.21395094 15.7806001,5.08328722 C15.8683863,4.95262351 15.8761969,4.78639681 15.8010247,4.64860327 L14.3319056,1.82823515 L15.0908513,1.13950056 L18.2991219,7.29793564 L19.2278787,9.08147125 L19.2278787,9.08175822 L21.507095,13.4566577 L20.4813882,13.6337199 Z" id="Shape" fill="#000000"></path>
                                    <path d="M3.1841469,11.1534145 C3.01452556,11.235689 2.91298303,11.4084748 2.92688377,11.591176 C2.9407845,11.7738773 3.06738989,11.9304997 3.24764491,11.9879867 C3.42789994,12.0454738 3.62629219,11.9924999 3.75028172,11.8537747 C3.87427125,11.7150495 3.89943062,11.5179035 3.81402426,11.3542954 C3.75812255,11.2470385 3.66034509,11.1656116 3.54221265,11.1279367 C3.42408021,11.0902618 3.29527498,11.0994268 3.1841469,11.1534145 L3.1841469,11.1534145 Z M5.32299393,10.6225149 C5.23773208,10.4588366 5.05867254,10.3608518 4.86933752,10.3742655 C4.6800025,10.3876792 4.51769328,10.5098487 4.45811891,10.6837881 C4.39854454,10.8577275 4.45344188,11.0491687 4.5972041,11.168814 C4.74096633,11.2884593 4.94527054,11.3127371 5.11481916,11.2303232 C5.34615041,11.117878 5.43932474,10.8458367 5.32299393,10.6225149 L5.32299393,10.6225149 Z M23.0704875,0.899878319 C22.9745005,0.833124455 22.854963,0.805902027 22.7381748,0.82420036 C22.6213867,0.842498694 22.5169159,0.90481869 22.4477476,0.997449052 L20.5420563,3.54863674 C20.4488236,3.67341026 20.4316558,3.8367021 20.4970199,3.97700181 C20.5623841,4.11730151 20.7003498,4.21329422 20.8589467,4.2288204 C21.0175435,4.24434658 21.172677,4.17704744 21.2659097,4.05227391 L23.171601,1.50079924 C23.2407786,1.40817535 23.2689895,1.29282604 23.2500267,1.18012984 C23.231064,1.06743363 23.1664812,0.966623209 23.0704875,0.899878319 L23.0704875,0.899878319 Z M26.0274614,6.98312654 L22.7686341,6.93663696 L22.7620915,6.93663696 C22.5157234,6.93481432 22.3144715,7.12605988 22.3125693,7.36379589 C22.3106938,7.60153189 22.5088834,7.79573255 22.7552514,7.79755519 L26.0140787,7.84404477 L26.0212161,7.84404477 C26.1805883,7.84517256 26.3284778,7.76416962 26.409176,7.631549 C26.4898742,7.49892838 26.4911213,7.33483829 26.4124473,7.20108988 C26.3337734,7.06734148 26.1871309,6.98425432 26.0277588,6.98312654 L26.0274614,6.98312654 Z M22.4034361,5.73766483 C22.4729667,5.7377766 22.5415422,5.72204458 22.6035813,5.6917492 L25.9569793,4.06518768 C26.1005909,3.99676837 26.1951698,3.85930888 26.2047802,3.70503776 C26.2143906,3.55076663 26.1375573,3.4033641 26.0034736,3.31883662 C25.8693899,3.23430914 25.6986373,3.22563147 25.5560942,3.29610073 L22.2026961,4.92323619 C22.0180145,5.01288576 21.9213631,5.21323355 21.969167,5.40731677 C22.0169708,5.60139999 22.196703,5.73835961 22.4034361,5.73823886 L22.4034361,5.73766483 Z" id="Shape" fill="#FF4A00"></path>
                                </g>
                            </g>
                        </g>
                    </g>
                </g>
            </g>
        </g>
    </g>
</svg>