<?xml version="1.0" encoding="UTF-8"?>
<svg width="20px" height="22px" viewBox="0 0 20 22" version="1.1" xmlns="http://www.w3.org/2000/svg" xmlns:xlink="http://www.w3.org/1999/xlink">
    <title>EB069D81-F06D-491C-BE19-2CA7107F2692</title>
    <g id="Web" stroke="none" stroke-width="1" fill="none" fill-rule="evenodd">
        <g id="Home-page" transform="translate(-1250.000000, -29.000000)" fill-rule="nonzero">
            <g id="Group" transform="translate(1240.000000, 20.000000)">
                <g id="Group-2" transform="translate(11.200000, 9.600000)">
                    <g id="Group-10" transform="translate(0.000000, -0.000000)">
                        <g id="Group-29-Copy" fill="#212121" stroke="#212121" stroke-width="0.5">
                            <path d="M16.5865888,18.0649351 L1.6738482,18.0649351 C0.953352277,18.0649351 0.313707248,17.6045223 0.0859410017,16.9219688 C-0.141825244,16.2394152 0.0934051638,15.4879071 0.669896228,15.0563636 L1.42176459,14.4932594 C1.70472141,14.2821156 1.89456741,13.9695538 1.95131365,13.6214118 L2.89464138,7.90330273 C3.37053573,4.83108996 6.0193792,2.5646713 9.13265204,2.56589974 C12.2459249,2.56712917 14.892973,4.83563833 15.3664347,7.90822584 L16.3091233,13.6214118 C16.3658696,13.9695538 16.5557156,14.2821156 16.8386724,14.4932594 L17.590769,15.0563636 C18.1673739,15.4879187 18.4026321,16.2395513 18.1747603,16.922173 C17.9468885,17.6047946 17.3070457,18.065151 16.5864518,18.0649351 L16.5865888,18.0649351 Z M9.13090324,3.47785803 C6.46261417,3.46499205 4.18999788,5.4113349 3.7963356,8.04662013 L2.85232311,13.7695612 C2.75761215,14.3496969 2.4411909,14.8705141 1.96966526,15.2223821 L1.21756865,15.7857143 C0.955475501,15.9818757 0.848539957,16.3235269 0.952118055,16.6338094 C1.05569615,16.944092 1.34653376,17.1532468 1.67407645,17.1532468 L16.586817,17.1532468 C16.9142644,17.1532468 17.2049891,16.9440637 17.3085526,16.6338766 C17.4121161,16.3236895 17.3052788,15.9821303 17.0433248,15.7859422 L16.291,15.2223821 C15.8194743,14.8705141 15.5030531,14.3496969 15.4083421,13.7695612 L14.4647405,8.05149766 C14.0730155,5.41471093 11.8003994,3.46602354 9.13090324,3.47785803 Z" id="Shape"></path>
                            <path d="M10.4997419,2.89916883 C10.2476196,2.89916883 10.0432341,2.69508045 10.0432341,2.44332468 L10.0432341,1.82337662 C10.0432341,1.31986507 9.63446308,0.911688312 9.13021848,0.911688312 C8.62597388,0.911688312 8.21720286,1.31986507 8.21720286,1.82337662 L8.21720286,2.44332468 C8.21720286,2.69508045 8.01281736,2.89916883 7.76069506,2.89916883 C7.50857276,2.89916883 7.30418725,2.69508045 7.30418725,2.44332468 L7.30418725,1.82337662 C7.30418725,0.816353521 8.12172928,0 9.13021848,0 C10.1387077,0 10.9562497,0.816353521 10.9562497,1.82337662 L10.9562497,2.44332468 C10.9562497,2.69508045 10.7518642,2.89916883 10.4997419,2.89916883 Z" id="Path"></path>
                            <path d="M9.13021848,20.8 C7.36617586,20.7980405 5.93662619,19.370569 5.93466382,17.6090909 C5.93466382,17.3573351 6.13904933,17.1532468 6.39117163,17.1532468 C6.64329393,17.1532468 6.84767944,17.3573351 6.84767944,17.6090909 C6.84767944,18.8678698 7.86960698,19.8883117 9.13021848,19.8883117 C10.39083,19.8883117 11.4127575,18.8678698 11.4127575,17.6090909 C11.4127575,17.3573351 11.617143,17.1532468 11.8692653,17.1532468 C12.1213876,17.1532468 12.3257731,17.3573351 12.3257731,17.6090909 C12.3238108,19.370569 10.8942611,20.7980405 9.13021848,20.8 L9.13021848,20.8 Z" id="Path"></path>
                        </g>
                        <ellipse id="Oval" fill="#FF6633" cx="15.088" cy="7.05714286" rx="3.312" ry="3.34285714"></ellipse>
                    </g>
                </g>
            </g>
        </g>
    </g>
</svg>