<?xml version="1.0" encoding="UTF-8"?>
<svg width="30px" height="30px" viewBox="0 0 30 30" version="1.1" xmlns="http://www.w3.org/2000/svg" xmlns:xlink="http://www.w3.org/1999/xlink">
    <title>C2FA0D33-B5D1-44CA-B0E5-D9C743772280</title>
    <defs>
        <linearGradient x1="50%" y1="0%" x2="50%" y2="100%" id="linearGradient-1">
            <stop stop-color="#FC7C3A" offset="0%"></stop>
            <stop stop-color="#FFBE96" offset="100%"></stop>
        </linearGradient>
        <linearGradient x1="7.68571429%" y1="38.5003698%" x2="92.3142857%" y2="61.4996302%" id="linearGradient-2">
            <stop stop-color="#FFFFFF" stop-opacity="0.2" offset="0%"></stop>
            <stop stop-color="#FFFFFF" stop-opacity="0" offset="100%"></stop>
        </linearGradient>
        <linearGradient x1="24.9910797%" y1="29.3711372%" x2="83.0086348%" y2="59.411018%" id="linearGradient-3">
            <stop stop-color="#000000" stop-opacity="0.1" offset="0%"></stop>
            <stop stop-color="#000000" stop-opacity="0" offset="100%"></stop>
        </linearGradient>
        <linearGradient x1="23.8201384%" y1="43.541653%" x2="76.9485012%" y2="60.2205569%" id="linearGradient-4">
            <stop stop-color="#000000" stop-opacity="0.1" offset="0%"></stop>
            <stop stop-color="#000000" stop-opacity="0" offset="100%"></stop>
        </linearGradient>
        <linearGradient x1="22.5032018%" y1="33.3708333%" x2="77.3557732%" y2="68.1375%" id="linearGradient-5">
            <stop stop-color="#FFFFFF" stop-opacity="0.2" offset="0%"></stop>
            <stop stop-color="#FFFFFF" stop-opacity="0" offset="100%"></stop>
        </linearGradient>
    </defs>
    <g id="Web" stroke="none" stroke-width="1" fill="none" fill-rule="evenodd">
        <g id="Home-page" transform="translate(-140.000000, -907.000000)">
            <g id="Group-28" transform="translate(100.000000, 110.000000)">
                <g id="Group-17" transform="translate(0.000000, 599.000000)">
                    <g id="Group-8" transform="translate(20.000000, 72.000000)">
                        <g id="Group-45" transform="translate(20.000000, 126.000000)">
                            <circle id="Oval" fill="url(#linearGradient-1)" cx="15" cy="15" r="15"></circle>
                            <g id="Avatar" transform="translate(7.777778, 5.000000)" fill-rule="nonzero">
                                <path d="M13.6435802,10.7001157 L13.6443827,10.5421296 C13.65,9.78217593 13.6540123,9.0837963 13.6411728,8.88611111 L13.3964198,4.39525463 C13.3365193,3.44646685 12.8078352,2.59176875 11.9896914,2.12106481 C11.0780864,1.59606481 9.69061728,0.983564815 8.01907407,0.840972222 C8.01907407,0.830439815 8.02469136,0.821527778 8.02469136,0.810185185 C8.02469136,0.362732263 7.66541369,0 7.22222222,0 C6.77903076,0 6.41975309,0.362732263 6.41975309,0.810185185 C6.41975309,0.828009259 6.42858025,0.842592593 6.42938272,0.859606481 C4.82604938,1.02569444 3.49395062,1.61226852 2.61123457,2.12106481 C1.79540752,2.5894686 1.26698492,3.44009183 1.20450617,4.38553241 L0.803271605,8.8755787 L0.804074074,8.88611111 L0.802469136,8.88611111 C0.78962963,9.0837963 0.793641975,9.78217593 0.799259259,10.5421296 L0.800061728,10.7001157 C0.0882716049,11.1659722 0,11.9704861 0,12.5578704 C0,13.3388889 0.721419753,15.09375 1.7445679,15.3594907 C2.19395062,16.2069444 4.1182716,19.4444444 7.22222222,19.4444444 C10.3261728,19.4444444 12.2504938,16.2069444 12.6998765,15.3594907 C13.7230247,15.09375 14.4444444,13.3388889 14.4444444,12.5578704 C14.4444444,11.9704861 14.3561728,11.1659722 13.6435802,10.7001157 Z" id="Path" fill="#303C42"></path>
                                <path d="M4.61419753,10.5324074 C5.44154321,10.5324074 6.01851852,10.959375 6.01851852,11.3425926 C6.01851852,11.7258102 5.44154321,12.1527778 4.61419753,12.1527778 C3.78685185,12.1527778 3.20987654,11.7258102 3.20987654,11.3425926 C3.20987654,10.959375 3.78685185,10.5324074 4.61419753,10.5324074 Z" id="Path" fill="#DDEEFD"></path>
                                <path d="M6.32185185,10.3168981 C5.92061728,9.95474537 5.31395062,9.72222222 4.61419753,9.72222222 C4.36302469,9.72222222 4.12709877,9.75787037 3.90401235,9.81296296 C4.68,9.33738426 5.77697531,8.91203704 7.22222222,8.91203704 C8.66746914,8.91203704 9.76444444,9.33738426 10.5404321,9.81296296 C10.3081904,9.75393307 10.0697321,9.72346514 9.83024691,9.72222222 C9.13049383,9.72222222 8.52382716,9.95474537 8.12259259,10.3168981 C7.54307585,10.0916546 6.90136859,10.0916546 6.32185185,10.3168981 L6.32185185,10.3168981 Z" id="Path" fill="#FEE8D7"></path>
                                <path d="M9.83024691,10.5324074 C10.6575926,10.5324074 11.2345679,10.959375 11.2345679,11.3425926 C11.2345679,11.7258102 10.6575926,12.1527778 9.83024691,12.1527778 C9.00290123,12.1527778 8.42592593,11.7258102 8.42592593,11.3425926 C8.42592593,10.959375 9.00290123,10.5324074 9.83024691,10.5324074 Z" id="Path" fill="#DDEEFD"></path>
                                <path d="M4.61419753,10.5324074 C5.44154321,10.5324074 6.01851852,10.959375 6.01851852,11.3425926 C6.01851852,11.7258102 5.44154321,12.1527778 4.61419753,12.1527778 C3.78685185,12.1527778 3.20987654,11.7258102 3.20987654,11.3425926 C3.20987654,10.959375 3.78685185,10.5324074 4.61419753,10.5324074 Z" id="Path" fill="url(#linearGradient-2)"></path>
                                <path d="M9.83024691,10.5324074 C10.6575926,10.5324074 11.2345679,10.959375 11.2345679,11.3425926 C11.2345679,11.7258102 10.6575926,12.1527778 9.83024691,12.1527778 C9.00290123,12.1527778 8.42592593,11.7258102 8.42592593,11.3425926 C8.42592593,10.959375 9.00290123,10.5324074 9.83024691,10.5324074 Z" id="Path" fill="url(#linearGradient-2)"></path>
                                <path d="M7.22222222,8.10185185 C4.97290123,8.10185185 3.46024691,9.06354167 2.75808642,9.63634259 C2.67486563,9.70604586 2.56688677,9.7380729 2.45954777,9.72489056 C2.35220876,9.71170822 2.25498357,9.65448 2.19074074,9.56666667 L1.72771605,8.94363426 C2.37691358,8.29143519 4.42882716,6.48148148 7.22222222,6.48148148 C10.0059877,6.48148148 12.0651235,8.29305556 12.7159259,8.94363426 L12.2537037,9.56585648 C12.1900755,9.65299879 12.0937161,9.70984656 11.987284,9.72303241 C11.8794147,9.73575458 11.7710014,9.70423133 11.686358,9.63553241 C10.9841975,9.06354167 9.47154321,8.10185185 7.22222222,8.10185185 Z" id="Path" fill="#6D4C41"></path>
                                <path d="M1.6041358,10.8605324 L1.60253086,10.5356481 L1.59932099,10.1086806 C1.79432099,10.3395833 2.05833333,10.4902778 2.35765432,10.5283565 C2.48123457,10.5429398 2.60240741,10.5332176 2.72037037,10.5113426 C2.52617284,10.753588 2.40740741,11.0347222 2.40740741,11.3425926 C2.40740741,12.2508102 3.37679012,12.962963 4.61419753,12.962963 C5.85160494,12.962963 6.82098765,12.2508102 6.82098765,11.3425926 C6.82098765,11.2243056 6.80333333,11.1100694 6.77203704,10.9998843 C7.06721895,10.9221223 7.37722549,10.9221223 7.67240741,10.9998843 C7.64026942,11.1112411 7.62379141,11.2266054 7.62345679,11.3425926 C7.62345679,12.2508102 8.59283951,12.962963 9.83024691,12.962963 C11.0676543,12.962963 12.037037,12.2508102 12.037037,11.3425926 C12.037037,11.0298611 11.9158642,10.7438657 11.7144444,10.4983796 C11.7874691,10.512963 11.8588889,10.5364583 11.9351235,10.5364583 C12.286076,10.5356794 12.6187935,10.3785427 12.844321,10.1070602 L12.8411111,10.5340278 L12.8395062,10.858912 C12.4230247,12.0717593 11.3533333,13.5519676 10.0910494,14.6773148 C9.72250037,14.1117609 9.09645889,13.7718187 8.42592593,13.7731481 L6.01851852,13.7731481 C5.33320988,13.7731481 4.71611111,14.1215278 4.35339506,14.6789352 C3.09111111,13.553588 2.02061728,12.0741898 1.6041358,10.8605324 L1.6041358,10.8605324 Z" id="Path" fill="#FEE8D7"></path>
                                <polygon id="Path" fill="#303C42" points="7.22222222 0.810185185 7.22222222 0.809375 7.62345679 0.810185185"></polygon>
                                <path d="M3.00925926,2.82511574 C3.96339506,2.27581019 5.48246914,1.62037037 7.3008642,1.62037037 C9.11845679,1.62037037 10.6367284,2.27581019 11.5924691,2.82511574 C12.1750173,3.16023199 12.5518684,3.76838262 12.5955556,4.44386574 L12.7841358,7.89930556 C11.7682099,7.01701389 9.79814815,5.6712963 7.22222222,5.6712963 C4.67759259,5.6712963 2.72679012,6.9837963 1.7004321,7.86689815 L2.00537037,4.44872685 C2.04793816,3.77140823 2.42524328,3.16118452 3.00925926,2.82511574 Z" id="Path" fill="#6D4C41"></path>
                                <path d="M2.89049383,3.43275463 C3.87191358,2.88263889 5.43351852,2.22800926 7.30246914,2.22800926 C9.17061728,2.22800926 10.7322222,2.88344907 11.7144444,3.43275463 C12.1253086,3.66284722 12.4262346,4.02581019 12.5955556,4.4462963 L12.5955556,4.44467593 C12.5518684,3.7691928 12.1750173,3.16104218 11.5924691,2.82592593 C10.6375309,2.27581019 9.11845679,1.62118056 7.3008642,1.62118056 C5.48246914,1.62118056 3.96419753,2.27662037 3.00925926,2.82592593 C2.42524328,3.16199471 2.04793816,3.77221842 2.00537037,4.44953704 L2.0045679,4.45601852 C2.17308642,4.0306713 2.47561728,3.66446759 2.89049383,3.43275463 Z" id="Path" fill="#FFFFFF" opacity="0.2"></path>
                                <path d="M0.842592593,12.0636574 C0.868271605,12.4395833 0.91,12.8649306 0.978209877,13.287037 C0.87308642,13.0123843 0.802469136,12.7474537 0.802469136,12.5578704 C0.802469136,12.3626157 0.817716049,12.2021991 0.842592593,12.0636574 L0.842592593,12.0636574 Z" id="Path" fill="#FEE8D7"></path>
                                <path d="M7.22222222,18.6342593 C4.22580247,18.6342593 2.44191358,14.9689815 2.36728395,14.8126157 C2.34722222,14.7704861 2.31030864,14.7445602 2.27901235,14.712963 L2.28944444,14.7024306 C2.01660494,14.4269676 1.83765432,13.680787 1.73092593,12.8665509 C2.42470689,13.913876 3.27061507,14.8498535 4.24024691,15.6430556 C4.34378361,15.727552 4.48219867,15.7544448 4.60940165,15.714779 C4.73660463,15.6751132 4.8358902,15.5740981 4.87419753,15.4453704 C5.02519902,14.9343981 5.49036681,14.583979 6.01851852,14.5833333 L8.42592593,14.5833333 C8.95314815,14.5833333 9.41296296,14.9300926 9.57024691,15.4445602 C9.60921934,15.5727595 9.7085058,15.6731783 9.83541491,15.7127524 C9.96232402,15.7523266 10.1004067,15.7259267 10.2041975,15.6422454 C11.1740224,14.84925 12.019959,13.913241 12.7135185,12.8657407 C12.6067901,13.6799769 12.4278395,14.4261574 12.155,14.7016204 L12.1654321,14.7121528 C12.1341358,14.74375 12.0972222,14.7704861 12.0771605,14.8118056 C12.0025309,14.9689815 10.218642,18.6342593 7.22222222,18.6342593 Z" id="Path" fill="#E6E6E6"></path>
                                <path d="M12.5321605,13.1201389 C12.4334568,13.5106481 12.310679,13.8306713 12.155,13.9886574 L12.1654321,13.9991898 C12.1341358,14.030787 12.0972222,14.0575231 12.0771605,14.0988426 C12.0025309,14.2543981 10.2194444,17.9204861 7.22222222,17.9204861 C4.225,17.9204861 2.44191358,14.2552083 2.36728395,14.0988426 C2.34722222,14.056713 2.31030864,14.030787 2.27901235,13.9991898 L2.28944444,13.9886574 C2.13376543,13.8314815 2.01098765,13.5106481 1.91228395,13.1201389 C1.85290123,13.0350694 1.7862963,12.9516204 1.73092593,12.8665509 C1.83765432,13.680787 2.01660494,14.4269676 2.28944444,14.7024306 L2.27901235,14.712963 C2.31030864,14.7445602 2.34722222,14.7712963 2.36728395,14.8126157 C2.44191358,14.9689815 4.22580247,18.6342593 7.22222222,18.6342593 C10.218642,18.6342593 12.0025309,14.9689815 12.0771605,14.8126157 C12.0972222,14.7704861 12.1341358,14.7445602 12.1654321,14.712963 L12.155,14.7024306 C12.4278395,14.4269676 12.6067901,13.680787 12.7135185,12.8665509 C12.6573457,12.9516204 12.5907407,13.0350694 12.5321605,13.1201389 Z" id="Path" fill="#000000" opacity="0.1"></path>
                                <path d="M13.4654321,13.287037 C13.533642,12.8649306 13.5753704,12.4395833 13.6010494,12.0636574 C13.6259259,12.2021991 13.6411728,12.3626157 13.6411728,12.5578704 C13.6419753,12.7474537 13.571358,13.0123843 13.4654321,13.287037 Z" id="Path" fill="#FEE8D7"></path>
                                <path d="M8.02469136,15.3935185 L6.41975309,15.3935185 C6.19815735,15.3935185 6.01851852,15.5748846 6.01851852,15.7986111 C6.01851852,16.0223376 6.19815735,16.2037037 6.41975309,16.2037037 L8.02469136,16.2037037 C8.24628709,16.2037037 8.42592593,16.0223376 8.42592593,15.7986111 C8.42592593,15.5748846 8.24628709,15.3935185 8.02469136,15.3935185 Z" id="Path" fill="#303C42"></path>
                                <path d="M6.32185185,10.3168981 C6.90136859,10.0916546 7.54307585,10.0916546 8.12259259,10.3168981 C8.52382716,9.95474537 9.13049383,9.72222222 9.83024691,9.72222222 C10.0814198,9.72222222 10.3173457,9.75787037 10.5404321,9.81296296 C9.76444444,9.33738426 8.66746914,8.91203704 7.22222222,8.91203704 C5.77697531,8.91203704 4.68,9.33738426 3.90401235,9.81296296 C4.12709877,9.75787037 4.36302469,9.72222222 4.61419753,9.72222222 C5.31395062,9.72222222 5.92061728,9.95474537 6.32185185,10.3168981 Z M1.59932099,10.1086806 L2.47401235,10.9917824 C2.52697531,10.8208333 2.60320988,10.6571759 2.72037037,10.5113426 C2.60098885,10.5353016 2.4787219,10.5410368 2.35765432,10.5283565 C2.06174427,10.4892683 1.79113151,10.3395061 1.59932099,10.1086806 L1.59932099,10.1086806 Z M12.0867901,10.5275463 C12.0367545,10.5339858 11.9863664,10.537233 11.9359259,10.5372685 C11.8604938,10.5372685 11.7890741,10.512963 11.7152469,10.4991898 C11.9158642,10.7438657 12.037037,11.0298611 12.037037,11.3425926 C12.037037,12.2508102 11.0676543,12.962963 9.83024691,12.962963 C8.59283951,12.962963 7.62345679,12.2508102 7.62345679,11.3425926 C7.62345679,11.2243056 7.64111111,11.1100694 7.67240741,10.9998843 C7.37722549,10.9221223 7.06721895,10.9221223 6.77203704,10.9998843 C6.80333333,11.1100694 6.82098765,11.2243056 6.82098765,11.3425926 C6.82098765,12.2508102 5.85160494,12.962963 4.61419753,12.962963 C4.54518519,12.962963 4.48018519,12.9524306 4.41277778,12.9483796 L5.35648148,13.9011574 C5.56592593,13.8258102 5.78580247,13.7731481 6.01851852,13.7731481 L8.42592593,13.7731481 C9.11123457,13.7731481 9.72833333,14.1215278 10.0910494,14.6789352 C11.3533333,13.553588 12.4238272,12.0741898 12.8395062,10.8605324 L12.8411111,10.5356481 L12.844321,10.1086806 C12.6501235,10.3395833 12.3853086,10.4894676 12.0867901,10.5275463 L12.0867901,10.5275463 Z" id="Shape" fill="url(#linearGradient-3)"></path>
                                <path d="M3.15851852,9.33900463 C3.96339506,8.78159722 5.32839506,8.10185185 7.22222222,8.10185185 C9.47154321,8.10185185 10.9841975,9.06354167 11.6855556,9.63634259 C11.7687763,9.70604586 11.8767552,9.7380729 11.9840942,9.72489056 C12.0914332,9.71170822 12.1886584,9.65448 12.2529012,9.56666667 L12.7151235,8.94444444 C12.0651235,8.29305556 10.0059877,6.48148148 7.22222222,6.48148148 C4.9712963,6.48148148 3.21709877,7.64976852 2.275,8.44699074 L3.15851852,9.33900463 L3.15851852,9.33900463 Z" id="Path" fill="url(#linearGradient-4)"></path>
                                <path d="M13.6435802,10.7001157 L13.6443827,10.5421296 C13.65,9.78217593 13.6540123,9.0837963 13.6411728,8.88611111 L13.3964198,4.39525463 C13.3365193,3.44646685 12.8078352,2.59176875 11.9896914,2.12106481 C11.0780864,1.59606481 9.69061728,0.983564815 8.01907407,0.840972222 C8.01907407,0.830439815 8.02469136,0.821527778 8.02469136,0.810185185 C8.02469136,0.362732263 7.66541369,0 7.22222222,0 C6.77903076,0 6.41975309,0.362732263 6.41975309,0.810185185 C6.41975309,0.828009259 6.42858025,0.842592593 6.42938272,0.859606481 C4.82604938,1.02569444 3.49395062,1.61226852 2.61123457,2.12106481 C1.79540752,2.5894686 1.26698492,3.44009183 1.20450617,4.38553241 L0.803271605,8.8755787 L0.804074074,8.88611111 L0.802469136,8.88611111 C0.78962963,9.0837963 0.793641975,9.78217593 0.799259259,10.5421296 L0.800061728,10.7001157 C0.0882716049,11.1659722 0,11.9704861 0,12.5578704 C0,13.3388889 0.721419753,15.09375 1.7445679,15.3594907 C2.19395062,16.2069444 4.1182716,19.4444444 7.22222222,19.4444444 C10.3261728,19.4444444 12.2504938,16.2069444 12.6998765,15.3594907 C13.7230247,15.09375 14.4444444,13.3388889 14.4444444,12.5578704 C14.4444444,11.9704861 14.3561728,11.1659722 13.6435802,10.7001157 Z" id="Path" fill="url(#linearGradient-5)"></path>
                            </g>
                        </g>
                    </g>
                </g>
            </g>
        </g>
    </g>
</svg>