<?xml version="1.0" encoding="UTF-8"?>
<svg width="30px" height="30px" viewBox="0 0 30 30" version="1.1" xmlns="http://www.w3.org/2000/svg" xmlns:xlink="http://www.w3.org/1999/xlink">
    <title>73DFB782-39F5-480D-ABDE-3176CFF96305</title>
    <defs>
        <linearGradient x1="50%" y1="0%" x2="50%" y2="100%" id="linearGradient-1">
            <stop stop-color="#F9C94E" offset="0%"></stop>
            <stop stop-color="#FBE1C8" offset="100%"></stop>
        </linearGradient>
        <linearGradient x1="4.74285714%" y1="34.2122449%" x2="95.1714286%" y2="58.2938776%" id="linearGradient-2">
            <stop stop-color="#FFFFFF" stop-opacity="0.2" offset="0%"></stop>
            <stop stop-color="#FFFFFF" stop-opacity="0" offset="100%"></stop>
        </linearGradient>
        <linearGradient x1="3.91428571%" y1="35.2408163%" x2="93.4285714%" y2="59.0938776%" id="linearGradient-3">
            <stop stop-color="#FFFFFF" stop-opacity="0.2" offset="0%"></stop>
            <stop stop-color="#FFFFFF" stop-opacity="0" offset="100%"></stop>
        </linearGradient>
        <linearGradient x1="18.8571429%" y1="27.6816327%" x2="83.1428571%" y2="64.4326531%" id="linearGradient-4">
            <stop stop-color="#FFFFFF" stop-opacity="0.2" offset="0%"></stop>
            <stop stop-color="#FFFFFF" stop-opacity="0" offset="100%"></stop>
        </linearGradient>
        <linearGradient x1="17.8571429%" y1="28.2693878%" x2="80.1428571%" y2="63.8612245%" id="linearGradient-5">
            <stop stop-color="#FFFFFF" stop-opacity="0.2" offset="0%"></stop>
            <stop stop-color="#FFFFFF" stop-opacity="0" offset="100%"></stop>
        </linearGradient>
        <linearGradient x1="7.46818182%" y1="26.1909091%" x2="96.3545455%" y2="67.6409091%" id="linearGradient-6">
            <stop stop-color="#FFFFFF" stop-opacity="0.2" offset="0%"></stop>
            <stop stop-color="#FFFFFF" stop-opacity="0" offset="100%"></stop>
        </linearGradient>
    </defs>
    <g id="Web" stroke="none" stroke-width="1" fill="none" fill-rule="evenodd">
        <g id="Home-page" transform="translate(-584.000000, -907.000000)">
            <g id="Group-28" transform="translate(100.000000, 110.000000)">
                <g id="Group-17" transform="translate(0.000000, 599.000000)">
                    <g id="Group-8" transform="translate(20.000000, 72.000000)">
                        <g id="Group-35-Copy" transform="translate(400.000000, 0.000000)">
                            <g id="Group-20" transform="translate(20.000000, 126.000000)">
                                <g id="Group-47-Copy" transform="translate(44.000000, 0.000000)">
                                    <circle id="Oval-Copy-7" fill="url(#linearGradient-1)" cx="15" cy="15" r="15"></circle>
                                    <g id="Avatar" transform="translate(5.555556, 5.000000)" fill-rule="nonzero">
                                        <path d="M18.1186869,6.45909091 C18.1142677,5.1280303 18.0488636,3.90214646 17.554798,3.2489899 C17.6359701,2.90847106 17.6771991,2.55965565 17.6776515,2.20959596 C17.6776515,0.361489899 15.247096,0 11.0488636,0 C6.81527778,0 4.81957071,0.631944444 4.10808081,2.23434343 C2.63383838,2.46767677 1.39292929,4.32285354 1.32929293,6.45555556 C0.972222222,6.87184343 0,8.1905303 0,10.1641414 C0,12.3755051 0.839646465,13.3830808 1.33989899,13.8957071 C1.48838384,15.0367424 2.77967172,17.6767677 3.97727273,17.6767677 C4.09482323,17.6767677 4.20707071,17.6299242 4.29015152,17.5477273 L4.96098485,16.8768939 C5.78207071,18.0948232 6.74457071,19.4444444 9.72222222,19.4444444 C12.6998737,19.4444444 13.6623737,18.0948232 14.4834596,16.8760101 L15.1542929,17.5468434 C15.2371853,17.6299955 15.3497604,17.6767428 15.4671717,17.6767677 C16.6647727,17.6767677 17.9560606,15.0367424 18.1045455,13.8957071 C18.604798,13.3830808 19.4444444,12.3755051 19.4444444,10.1641414 C19.4444444,8.19406566 18.4766414,6.8780303 18.1186869,6.45909091 Z" id="Path" fill="#303C42"></path>
                                        <path d="M3.84027778,16.7469697 C3.2905303,16.422601 2.20959596,14.4666667 2.20959596,13.6994949 C2.20941995,13.5822869 2.16305633,13.469871 2.08055556,13.3866162 C1.66161616,12.9694444 0.883838384,12.1907828 0.883838384,10.1641414 C0.883838384,8.17815657 2.06906566,6.95227273 2.08143939,6.94078283 C2.1632413,6.857497 2.20923476,6.74552669 2.20959596,6.62878788 C2.20959596,4.6375 3.39747475,3.09343434 4.41919192,3.09343434 C4.60932292,3.09328998 4.77804995,2.97155022 4.83813131,2.79116162 C5.16868687,1.80037879 6.14974747,0.883838384 11.0479798,0.883838384 C15.1286616,0.883838384 16.7929293,1.26830808 16.7929293,2.20959596 C16.7929293,3.96136364 15.9099747,4.3864899 15.0570707,4.79659091 L14.8281566,4.90795455 C14.0371212,5.3030303 12.7705808,5.3030303 11.9318182,5.3030303 C11.6392677,5.3030303 11.227399,5.16161616 10.7492424,4.99722222 C9.9979798,4.74002525 9.06376263,4.41919192 7.95454545,4.41919192 C5.50808081,4.41919192 2.65151515,5.92348485 2.65151515,10.1641414 C2.65151515,11.3352273 3.5760101,12.6954545 4.39179293,13.8965909 C4.71616162,14.3729798 5.14128788,14.9978535 5.26679293,15.3204545 L3.84027778,16.7469697 Z" id="Path" fill="#5D4037"></path>
                                        <path d="M14.9439394,9.72222222 C14.7609848,9.20871212 14.2748737,8.83838384 13.6994949,8.83838384 L11.489899,8.83838384 C11.1938131,8.83838384 10.9233586,8.93914141 10.702399,9.10353535 C10.4717172,8.93030303 10.1464646,8.83838384 9.72222222,8.83838384 C9.2979798,8.83838384 8.97272727,8.93030303 8.74204545,9.10353535 C8.52108586,8.93914141 8.25063131,8.83838384 7.95454545,8.83838384 L5.74494949,8.83838384 C5.16957071,8.83838384 4.6834596,9.20871212 4.50050505,9.72222222 L3.5530303,9.72222222 C3.73598485,6.47941919 5.90934343,5.3030303 7.95454545,5.3030303 C8.91616162,5.3030303 9.73813131,5.58497475 10.4628788,5.83421717 C11.0152778,6.02247475 11.4916667,6.18686869 11.9318182,6.18686869 C12.7864899,6.18686869 14.0353535,6.17007576 14.9934343,5.77941919 C15.5387626,6.85416667 15.8383838,8.17550505 15.8878788,9.72222222 L14.9439394,9.72222222 L14.9439394,9.72222222 Z" id="Path" fill="#FEE8D7"></path>
                                        <path d="M11.0479798,10.1641414 C11.0479798,9.92007618 11.2458338,9.72222222 11.489899,9.72222222 L13.6994949,9.72222222 C13.9435602,9.72222222 14.1414141,9.92007618 14.1414141,10.1641414 L14.1414141,10.6060606 C14.1414141,11.085101 13.5342172,11.489899 12.8156566,11.489899 C11.9618687,11.489899 11.0479798,10.9710859 11.0479798,10.6060606 L11.0479798,10.1641414 Z M8.39646465,10.1641414 L8.39646465,10.6060606 C8.39646465,10.9710859 7.48257576,11.489899 6.62878788,11.489899 C5.91022727,11.489899 5.3030303,11.085101 5.3030303,10.6060606 L5.3030303,10.1641414 C5.3030303,9.92007618 5.50088426,9.72222222 5.74494949,9.72222222 L7.95454545,9.72222222 C8.19861068,9.72222222 8.39646465,9.92007618 8.39646465,10.1641414 Z" id="Shape" fill="#5C6671"></path>
                                        <path d="M11.0479798,10.1641414 C11.0479798,9.92007618 11.2458338,9.72222222 11.489899,9.72222222 L13.6994949,9.72222222 C13.9435602,9.72222222 14.1414141,9.92007618 14.1414141,10.1641414 L14.1414141,10.6060606 C14.1414141,11.085101 13.5342172,11.489899 12.8156566,11.489899 C11.9618687,11.489899 11.0479798,10.9710859 11.0479798,10.6060606 L11.0479798,10.1641414 Z" id="Path" fill="url(#linearGradient-2)"></path>
                                        <path d="M8.39646465,10.1641414 L8.39646465,10.6060606 C8.39646465,10.9710859 7.48257576,11.489899 6.62878788,11.489899 C5.91022727,11.489899 5.3030303,11.085101 5.3030303,10.6060606 L5.3030303,10.1641414 C5.3030303,9.92007618 5.50088426,9.72222222 5.74494949,9.72222222 L7.95454545,9.72222222 C8.19861068,9.72222222 8.39646465,9.92007618 8.39646465,10.1641414 Z" id="Path" fill="url(#linearGradient-3)"></path>
                                        <path d="M11.0479798,10.1641414 C11.0479798,9.92007618 11.2458338,9.72222222 11.489899,9.72222222 L13.6994949,9.72222222 C13.9435602,9.72222222 14.1414141,9.92007618 14.1414141,10.1641414 L14.1414141,10.6060606 C14.1414141,11.085101 13.5342172,11.489899 12.8156566,11.489899 C11.9618687,11.489899 11.0479798,10.9710859 11.0479798,10.6060606 L11.0479798,10.1641414 Z" id="Path" fill="url(#linearGradient-4)"></path>
                                        <path d="M8.39646465,10.1641414 L8.39646465,10.6060606 C8.39646465,10.9710859 7.48257576,11.489899 6.62878788,11.489899 C5.91022727,11.489899 5.3030303,11.085101 5.3030303,10.6060606 L5.3030303,10.1641414 C5.3030303,9.92007618 5.50088426,9.72222222 5.74494949,9.72222222 L7.95454545,9.72222222 C8.19861068,9.72222222 8.39646465,9.92007618 8.39646465,10.1641414 Z" id="Path" fill="url(#linearGradient-5)"></path>
                                        <path d="M13.7984848,16.3130051 C13.0198232,17.4690657 12.2853535,18.5606061 9.72222222,18.5606061 C7.15909091,18.5606061 6.42462121,17.4690657 5.6459596,16.3130051 L5.59646465,16.2405303 L6.05694444,15.7800505 C6.14009654,15.6971581 6.18684381,15.5845831 6.18686869,15.4671717 C6.18686869,14.9881313 5.80239899,14.3994949 5.12272727,13.3989899 C4.52436869,12.517803 3.80757576,11.457197 3.59987374,10.6060606 L4.41919192,10.6060606 C4.41919192,11.5809343 5.41085859,12.3737374 6.62878788,12.3737374 C7.73623737,12.3737374 9.28030303,11.7011364 9.28030303,10.6060606 L9.28030303,10.1641414 C9.28030303,10.0041667 9.24760101,9.8530303 9.19545455,9.71073232 C9.19545455,9.71073232 9.35366162,9.72222222 9.72222222,9.72222222 C10.0907828,9.72222222 10.2489899,9.71073232 10.2489899,9.71073232 C10.194144,9.85566952 10.165417,10.0091794 10.1641414,10.1641414 L10.1641414,10.6060606 C10.1641414,11.7011364 11.7082071,12.3737374 12.8156566,12.3737374 C14.0335859,12.3737374 15.0252525,11.5809343 15.0252525,10.6060606 L15.8445707,10.6060606 C15.6368687,11.457197 14.9200758,12.517803 14.3217172,13.3989899 C13.6420455,14.3994949 13.2575758,14.9881313 13.2575758,15.4671717 C13.2575758,15.5847222 13.3044192,15.6969697 13.3866162,15.7800505 L13.847096,16.2405303 L13.7984848,16.3130051 L13.7984848,16.3130051 Z" id="Path" fill="#FEE8D7"></path>
                                        <path d="M17.3638889,13.3866162 C17.2810609,13.4696534 17.234639,13.5822106 17.2348485,13.6994949 C17.2348485,14.4666667 16.1539141,16.422601 15.6041667,16.7469697 L14.1776515,15.3204545 C14.3040404,14.9978535 14.7282828,14.3729798 15.0526515,13.8965909 C15.8684343,12.6954545 16.7929293,11.3352273 16.7929293,10.1641414 C16.7929293,8.29747475 16.4464646,6.7145202 15.7968434,5.41616162 C16.2343434,5.18901515 16.7107323,4.87083333 17.0775253,4.35290404 C17.2313131,5.03699495 17.2348485,6.0489899 17.2348485,6.62878788 C17.2348485,6.74545455 17.2816919,6.85770202 17.3630051,6.94078283 C17.3753788,6.95315657 18.5606061,8.17815657 18.5606061,10.1641414 C18.5606061,12.1907828 17.7828283,12.9694444 17.3638889,13.3866162 L17.3638889,13.3866162 Z" id="Path" fill="#5D4037"></path>
                                        <path d="M17.0775253,4.35290404 C16.7107323,4.86994949 16.2343434,5.18901515 15.7968434,5.41616162 C15.9258838,5.67424242 16.0337121,5.95265152 16.1388889,6.23282828 C16.5253197,6.04126081 16.8863543,5.80225354 17.2136364,5.52133838 C17.1933081,5.11388889 17.1544192,4.69318182 17.0775253,4.35290404 L17.0775253,4.35290404 Z" id="Path" fill="#000000" opacity="0.1"></path>
                                        <g id="Group" opacity="0.1" transform="translate(3.553030, 5.303030)">
                                            <path d="M11.8938131,4.41919192 L12.3339646,4.41919192 C12.2853535,2.87335859 11.9857323,1.55113636 11.4395202,0.476388889 C11.3325758,0.51969697 11.2123737,0.543560606 11.0992424,0.578030303 C10.1986111,0.855555556 9.13800505,0.883838384 8.37878788,0.883838384 C7.93863636,0.883838384 7.46224747,0.719444444 6.90984848,0.531186869 C6.18510101,0.281944444 5.36313131,0 4.40151515,0 C2.35631313,0 0.182954545,1.17638889 0,4.41919192 L0.444570707,4.41919192 C0.660227273,0.746843434 3.50353535,0.441919192 4.40063131,0.441919192 C5.28623737,0.441919192 6.06931818,0.710606061 6.76489899,0.948358586 C7.35441919,1.15075758 7.86439394,1.32575758 8.37790404,1.32575758 C9.15568182,1.32575758 10.2375,1.29570707 11.1867424,1.01376263 C11.6118687,1.98244949 11.8496212,3.12348485 11.8938131,4.41919192 Z M0.503787879,5.3030303 L0.0468434343,5.3030303 C0.254545455,6.15416667 0.971338384,7.21477273 1.56969697,8.0959596 C2.24936869,9.09646465 2.63383838,9.68510101 2.63383838,10.1641414 C2.63383838,10.2816919 2.58699495,10.3939394 2.50479798,10.4770202 L2.04431818,10.9375 L2.09381313,11.0099747 C2.17159091,11.1248737 2.24848485,11.2380051 2.32714646,11.3511364 C2.46944444,11.2008838 2.80441919,10.789899 2.86893939,10.6838384 C3.05631313,10.3736111 3.07840909,9.88484848 2.95025253,9.53661616 C2.79027778,9.10353535 2.42436869,8.56527778 1.93560606,7.84671717 C1.40707071,7.07159091 0.726515152,6.06224747 0.503787879,5.3030303 L0.503787879,5.3030303 Z M10.4036616,7.84760101 C9.93169192,8.5405303 9.40492424,9.29002525 9.27853535,9.73282828 C9.17424242,10.0969697 9.27411616,10.3877525 9.56931818,10.8349747 C9.63737374,10.9383838 9.86982323,11.2008838 10.0121212,11.3511364 C10.0907828,11.2388889 10.1685606,11.1248737 10.2454545,11.0099747 L10.2949495,10.9375 L9.8344697,10.4770202 C9.7513176,10.3941278 9.70457033,10.2815527 9.70454545,10.1641414 C9.70454545,9.68510101 10.0890152,9.09646465 10.7686869,8.0959596 C11.3670455,7.21477273 12.0838384,6.15416667 12.2915404,5.3030303 L11.834596,5.3030303 C11.6118687,6.06224747 10.9313131,7.07159091 10.4036616,7.84760101 L10.4036616,7.84760101 Z" id="Shape" fill="#000000"></path>
                                            <path d="M11.8938131,4.41919192 L12.3339646,4.41919192 C12.2853535,2.87335859 11.9857323,1.55113636 11.4395202,0.476388889 C11.3325758,0.51969697 11.2123737,0.543560606 11.0992424,0.578030303 C10.1986111,0.855555556 9.13800505,0.883838384 8.37878788,0.883838384 C7.93863636,0.883838384 7.46224747,0.719444444 6.90984848,0.531186869 C6.18510101,0.281944444 5.36313131,0 4.40151515,0 C2.35631313,0 0.182954545,1.17638889 0,4.41919192 L0.444570707,4.41919192 C0.660227273,0.746843434 3.50353535,0.441919192 4.40063131,0.441919192 C5.28623737,0.441919192 6.06931818,0.710606061 6.76489899,0.948358586 C7.35441919,1.15075758 7.86439394,1.32575758 8.37790404,1.32575758 C9.15568182,1.32575758 10.2375,1.29570707 11.1867424,1.01376263 C11.6118687,1.98244949 11.8496212,3.12348485 11.8938131,4.41919192 Z M0.503787879,5.3030303 L0.0468434343,5.3030303 C0.254545455,6.15416667 0.971338384,7.21477273 1.56969697,8.0959596 C2.24936869,9.09646465 2.63383838,9.68510101 2.63383838,10.1641414 C2.63383838,10.2816919 2.58699495,10.3939394 2.50479798,10.4770202 L2.04431818,10.9375 L2.09381313,11.0099747 C2.17159091,11.1248737 2.24848485,11.2380051 2.32714646,11.3511364 C2.46944444,11.2008838 2.80441919,10.789899 2.86893939,10.6838384 C3.05631313,10.3736111 3.07840909,9.88484848 2.95025253,9.53661616 C2.79027778,9.10353535 2.42436869,8.56527778 1.93560606,7.84671717 C1.40707071,7.07159091 0.726515152,6.06224747 0.503787879,5.3030303 L0.503787879,5.3030303 Z M10.4036616,7.84760101 C9.93169192,8.5405303 9.40492424,9.29002525 9.27853535,9.73282828 C9.17424242,10.0969697 9.27411616,10.3877525 9.56931818,10.8349747 C9.63737374,10.9383838 9.86982323,11.2008838 10.0121212,11.3511364 C10.0907828,11.2388889 10.1685606,11.1248737 10.2454545,11.0099747 L10.2949495,10.9375 L9.8344697,10.4770202 C9.7513176,10.3941278 9.70457033,10.2815527 9.70454545,10.1641414 C9.70454545,9.68510101 10.0890152,9.09646465 10.7686869,8.0959596 C11.3670455,7.21477273 12.0838384,6.15416667 12.2915404,5.3030303 L11.834596,5.3030303 C11.6118687,6.06224747 10.9313131,7.07159091 10.4036616,7.84760101 L10.4036616,7.84760101 Z" id="Shape" fill="#5D4037"></path>
                                        </g>
                                        <path d="M18.1186869,6.45909091 C18.1142677,5.1280303 18.0488636,3.90214646 17.554798,3.2489899 C17.6359701,2.90847106 17.6771991,2.55965565 17.6776515,2.20959596 C17.6776515,0.361489899 15.247096,0 11.0488636,0 C6.81527778,0 4.81957071,0.631944444 4.10808081,2.23434343 C2.63383838,2.46767677 1.39292929,4.32285354 1.32929293,6.45555556 C0.972222222,6.87184343 0,8.1905303 0,10.1641414 C0,12.3755051 0.839646465,13.3830808 1.33989899,13.8957071 C1.48838384,15.0367424 2.77967172,17.6767677 3.97727273,17.6767677 C4.09482323,17.6767677 4.20707071,17.6299242 4.29015152,17.5477273 L4.96098485,16.8768939 C5.78207071,18.0948232 6.74457071,19.4444444 9.72222222,19.4444444 C12.6998737,19.4444444 13.6623737,18.0948232 14.4834596,16.8760101 L15.1542929,17.5468434 C15.2371853,17.6299955 15.3497604,17.6767428 15.4671717,17.6767677 C16.6647727,17.6767677 17.9560606,15.0367424 18.1045455,13.8957071 C18.604798,13.3830808 19.4444444,12.3755051 19.4444444,10.1641414 C19.4444444,8.19406566 18.4766414,6.8780303 18.1186869,6.45909091 Z" id="Path" fill="url(#linearGradient-6)"></path>
                                    </g>
                                </g>
                            </g>
                        </g>
                    </g>
                </g>
            </g>
        </g>
    </g>
</svg>