<?xml version="1.0" encoding="UTF-8"?>
<svg width="16px" height="16px" viewBox="0 0 16 16" version="1.1" xmlns="http://www.w3.org/2000/svg" xmlns:xlink="http://www.w3.org/1999/xlink">
    <title>E2028DED-338D-4A65-8879-3D36312D3604</title>
    <g id="Web" stroke="none" stroke-width="1" fill="none" fill-rule="evenodd" stroke-linecap="round" stroke-linejoin="round">
        <g id="Home-page" transform="translate(-671.000000, -32.000000)" stroke="#212121" stroke-width="0.94190294">
            <g id="menu/Item" transform="translate(650.000000, 20.000000)">
                <g id="Group-11" transform="translate(22.000000, 13.000000)">
                    <g id="home" transform="translate(0.000000, 0.185424)">
                        <path d="M4.90531646,12.9659486 L4.90531646,10.8476682 C4.90530338,10.3088785 5.373876,9.87108625 5.95443038,9.86747022 L8.08101265,9.86747022 C8.66433724,9.86747022 9.13721517,10.3063198 9.13721517,10.8476682 L9.13721517,10.8476682 L9.13721517,12.9725271 C9.13707981,13.4299787 9.5305042,13.803855 10.0232912,13.8145765 L11.4410127,13.8145765 C12.8543023,13.8145765 14,12.7513234 14,11.4397342 L14,11.4397342 L14,5.41381861 C13.992453,4.89783853 13.7314024,4.41330765 13.2911393,4.09811652 L8.44253163,0.473357259 C7.59310978,-0.157785753 6.38562441,-0.157785753 5.53620253,0.473357259 L0.708860759,4.10469503 C0.266927392,4.41860781 0.00544282375,4.90394402 0,5.42039712 L0,11.4397342 C0,12.7513234 1.14569766,13.8145765 2.55898734,13.8145765 L3.97670886,13.8145765 C4.48173481,13.8145765 4.89113924,13.4346328 4.89113924,12.9659486 L4.89113924,12.9659486" id="Path"></path>
                    </g>
                </g>
            </g>
        </g>
    </g>
</svg>