<?xml version="1.0" encoding="UTF-8"?>
<svg width="18px" height="18px" viewBox="0 0 18 18" version="1.1" xmlns="http://www.w3.org/2000/svg" xmlns:xlink="http://www.w3.org/1999/xlink">
    <title>906BED9F-C7A5-46ED-A1EF-FFC9311CC548</title>
    <g id="Web" stroke="none" stroke-width="1" fill="none" fill-rule="evenodd">
        <g id="Challenges---Completetion-Page-1" transform="translate(-1127.000000, -203.000000)">
            <g id="Group-44" transform="translate(170.000000, 117.000000)">
                <g id="Group-38" transform="translate(538.000000, 0.000000)">
                    <g id="Group-20" transform="translate(0.000000, 33.000000)">
                        <g id="Group-12" transform="translate(34.000000, 43.000000)">
                            <g id="Diamond" transform="translate(385.000000, 10.000000)">
                                <polygon id="Path" fill="#FFD568" fill-rule="nonzero" points="17.5609696 6.15789474 8.99999697 17.5263158 0.43902431 6.15789474 4.60975458 0.473684211 13.3902394 0.473684211"></polygon>
                                <path d="M9,18 C8.86778482,18 8.74264096,17.9357211 8.65927025,17.8250211 L0.0982910128,6.4566 C-0.0314472351,6.28432105 -0.0328960151,6.03793421 0.0948095506,5.86387895 L4.26553762,0.179668421 C4.34879857,0.0661736842 4.47561072,0 4.60975458,0 L13.3902394,0 C13.5243832,0 13.6511954,0.0661736842 13.7344563,0.179668421 L17.9051866,5.86387895 C18.0328987,6.03793421 18.0314499,6.28432105 17.9016963,6.4566 L9.34072368,17.8250211 C9.25735298,17.9357211 9.13220912,18 9,18 Z M4.60975458,0.473684211 L13.3902394,0.473684211 L17.5609696,6.15789474 L8.99999697,17.5263158 L0.43902431,6.15789474 L4.60975458,0.473684211 Z" id="Shape" fill="#AA5416"></path>
                                <polygon id="Path" fill="#FFBC3A" fill-rule="nonzero" points="17.5609696 6.15789474 8.99999697 17.5263158 8.34146061 6.15789474 8.99999697 0.473684211 13.3902394 0.473684211"></polygon>
                                <polygon id="Path" fill="#FFE895" fill-rule="nonzero" points="0.43902431 6.15789474 8.99999697 17.5263158 1.97560915 6.15789474 6.36585153 0.473684211 4.60975458 0.473684211"></polygon>
                                <polygon id="Path" fill="#DB7E12" fill-rule="nonzero" points="17.5609696 6.15789474 8.99999697 17.5263158 13.3902394 6.15789474 8.99999697 0.473684211 13.3902394 0.473684211"></polygon>
                                <polygon id="Path" fill="#F09224" fill-rule="nonzero" points="15.3658484 6.15789474 8.99999697 17.5263158 13.3902394 6.15789474 8.99999697 0.473684211 11.1951182 0.473684211"></polygon>
                                <path d="M4.8130228,1.12109211 C4.89641546,1.01115 5.02112029,0.947368421 5.15280561,0.947368421 L7.68292425,0.947368421 C7.80416079,0.947368421 7.90243637,1.05340263 7.90243637,1.18421053 C7.90243637,1.31501842 7.80416079,1.42105263 7.68292425,1.42105263 L5.15280561,1.42105263 L2.25526759,5.24207368 C2.1785042,5.34332368 2.04018961,5.35824474 1.94637013,5.27542105 C1.8525287,5.19257368 1.83869944,5.04336316 1.91548478,4.94213684 L4.8130228,1.12109211 Z" id="Path" fill="#FFFFFF"></path>
                                <path d="M0.21951219,6.15789474 C0.21951219,6.02708684 0.317792157,5.92105263 0.43902431,5.92105263 L17.5609696,5.92105263 C17.6822062,5.92105263 17.7804817,6.02708684 17.7804817,6.15789474 C17.7804817,6.28870263 17.6822062,6.39473684 17.5609696,6.39473684 L0.43902431,6.39473684 C0.317792157,6.39473684 0.21951219,6.28870263 0.21951219,6.15789474 Z" id="Path" fill="#AA5416"></path>
                                <path d="M9.00000226,17.7631579 C9.0893384,17.7631579 9.16974569,17.7047526 9.20337494,17.6154632 L13.4838613,6.24704211 C13.5140003,6.16698947 13.5013564,6.07559211 13.4508467,6.00854211 L9.17036032,0.324331579 C9.12867497,0.268981579 9.06609207,0.236842105 9.00000226,0.236842105 C8.93390187,0.236842105 8.87131896,0.268981579 8.82963361,0.324331579 L4.54914728,6.00854211 C4.49865949,6.07559211 4.4860156,6.16698947 4.51613266,6.24704211 L8.79661899,17.6154632 C8.83024824,17.7047526 8.91067748,17.7631579 9.00000226,17.7631579 Z M4.97175201,6.19853684 L8.99999697,0.849268421 L13.0282419,6.19853684 L8.99999697,16.89705 L4.97175201,6.19853684 Z" id="Shape" fill="#AA5416"></path>
                            </g>
                        </g>
                    </g>
                </g>
            </g>
        </g>
    </g>
</svg>