<?xml version="1.0" encoding="UTF-8"?>
<svg width="16px" height="16px" viewBox="0 0 16 16" version="1.1" xmlns="http://www.w3.org/2000/svg" xmlns:xlink="http://www.w3.org/1999/xlink">
    <title>FDDD0DE4-5AB6-4F91-859C-EB9A883622A1</title>
    <g id="Web" stroke="none" stroke-width="1" fill="none" fill-rule="evenodd">
        <g id="Home-page" transform="translate(-119.000000, -551.000000)" fill="#5D5C5C" fill-rule="nonzero" stroke="#7C7C7C" stroke-width="0.6">
            <g id="Group-28" transform="translate(100.000000, 110.000000)">
                <g id="Group-62" transform="translate(0.000000, 189.000000)">
                    <g id="Group-16" transform="translate(0.000000, 38.000000)">
                        <g id="time" transform="translate(20.000000, 215.000000)">
                            <path d="M7,0 C3.13400675,0 0,3.13400675 0,7 C0,10.8659932 3.13400675,14 7,14 C10.8659932,14 14,10.8659932 14,7 C14,5.14348457 13.2625021,3.36300718 11.9497475,2.05025253 C10.6369928,0.737497883 8.85651543,0 7,0 L7,0 Z M7,13.0344828 C3.6672472,13.0344828 0.965517241,10.3327528 0.965517241,7 C0.965517241,3.6672472 3.6672472,0.965517241 7,0.965517241 C10.3327528,0.965517241 13.0344828,3.6672472 13.0344828,7 C13.0344828,10.3327528 10.3327528,13.0344828 7,13.0344828 L7,13.0344828 Z" id="Shape"></path>
                            <path d="M10.137931,7.51724138 L7.48275862,7.51724138 L7.48275862,3.89655172 C7.48275862,3.6299315 7.26662022,3.4137931 7,3.4137931 C6.73337978,3.4137931 6.51724138,3.6299315 6.51724138,3.89655172 L6.51724138,8 C6.51724138,8.26662022 6.73337978,8.48275862 7,8.48275862 L10.137931,8.48275862 C10.4045513,8.48275862 10.6206897,8.26662022 10.6206897,8 C10.6206897,7.73337978 10.4045513,7.51724138 10.137931,7.51724138 Z" id="Path"></path>
                        </g>
                    </g>
                </g>
            </g>
        </g>
    </g>
</svg>