<?xml version="1.0" encoding="UTF-8"?>
<svg width="13px" height="13px" viewBox="0 0 13 13" version="1.1" xmlns="http://www.w3.org/2000/svg" xmlns:xlink="http://www.w3.org/1999/xlink">
    <title>Group 25</title>
    <g id="Web" stroke="none" stroke-width="1" fill="none" fill-rule="evenodd">
        <g id="Challenge-Tab-Landing-page" transform="translate(-983.000000, -186.000000)" fill="#898989" fill-rule="nonzero">
            <g id="Group-25" transform="translate(983.000000, 186.000000)">
                <path d="M3.5,3 C3.22385763,3 3,2.77614237 3,2.5 L3,0.5 C3,0.223857625 3.22385763,0 3.5,0 C3.77614237,0 4,0.223857625 4,0.5 L4,2.5 C4,2.77614237 3.77614237,3 3.5,3 Z M9.5,3 C9.22385763,3 9,2.77614237 9,2.5 L9,0.5 C9,0.223857625 9.22385763,0 9.5,0 C9.77614237,0 10,0.223857625 10,0.5 L10,2.5 C10,2.77614237 9.77614237,3 9.5,3 Z" id="Shape"></path>
                <path d="M11.5,13 L1.5,13 C0.673,13 0,12.327 0,11.5 L0,2.5 C0,1.673 0.673,1 1.5,1 L11.5,1 C12.327,1 13,1.673 13,2.5 L13,11.5 C13,12.327 12.327,13 11.5,13 Z M1.5,2 C1.22385763,2 1,2.22385763 1,2.5 L1,11.5 C1,11.7761424 1.22385763,12 1.5,12 L11.5,12 C11.7761424,12 12,11.7761424 12,11.5 L12,2.5 C12,2.22385763 11.7761424,2 11.5,2 L1.5,2 Z" id="Shape"></path>
                <path d="M12.5,5 L0.5,5 C0.223857625,5 0,4.77614237 0,4.5 C0,4.22385763 0.223857625,4 0.5,4 L12.5,4 C12.7761424,4 13,4.22385763 13,4.5 C13,4.77614237 12.7761424,5 12.5,5 Z M4,6 L5,6 L5,7 L4,7 L4,6 Z M6,6 L7,6 L7,7 L6,7 L6,6 Z M8,6 L9,6 L9,7 L8,7 L8,6 Z M10,6 L11,6 L11,7 L10,7 L10,6 Z M2,8 L3,8 L3,9 L2,9 L2,8 Z M4,8 L5,8 L5,9 L4,9 L4,8 Z M6,8 L7,8 L7,9 L6,9 L6,8 Z M8,8 L9,8 L9,9 L8,9 L8,8 Z M10,8 L11,8 L11,9 L10,9 L10,8 Z M2,10 L3,10 L3,11 L2,11 L2,10 Z M4,10 L5,10 L5,11 L4,11 L4,10 Z M6,10 L7,10 L7,11 L6,11 L6,10 Z" id="Shape"></path>
            </g>
        </g>
    </g>
</svg>