<?xml version="1.0" encoding="UTF-8"?>
<svg width="400px" height="195px" viewBox="0 0 400 195" version="1.1" xmlns="http://www.w3.org/2000/svg" xmlns:xlink="http://www.w3.org/1999/xlink">
    <title>FDD8749B-E836-4D72-BB09-27D176D9CA6B</title>
    <defs>
        <linearGradient x1="-31.4928469%" y1="61.1449532%" x2="181.124909%" y2="13.2811338%" id="linearGradient-1">
            <stop stop-color="#0A0101" offset="0%"></stop>
            <stop stop-color="#0B98D4" offset="100%"></stop>
        </linearGradient>
        <linearGradient x1="-31.4928469%" y1="61.1449532%" x2="181.124909%" y2="13.2811338%" id="linearGradient-2">
            <stop stop-color="#0A0101" offset="0%"></stop>
            <stop stop-color="#BF482E" offset="100%"></stop>
        </linearGradient>
    </defs>
    <g id="Web" stroke="none" stroke-width="1" fill="none" fill-rule="evenodd">
        <g id="Home-page" transform="translate(-100.000000, -337.000000)">
            <g id="Group-19" transform="translate(100.000000, 337.000000)">
                <path d="M338.317324,191.134325 L391.77313,97.7161066 C393.037087,95.5072438 392.271089,92.6919678 390.062226,91.4280116 C389.365396,91.0292714 388.576479,90.8195111 387.773631,90.8195111 L346.194357,90.8195111 C343.649429,90.8195111 341.586357,88.7564391 341.586357,86.2115108 C341.586357,85.2777199 341.870055,84.3659638 342.399869,83.5970274 L393.779444,9.02810438 C395.584368,6.40855674 394.923985,2.82181374 392.304437,1.01688966 C391.343267,0.354622773 390.203572,-9.98438087e-15 389.036333,0 L172.450973,0 L172.450973,0 L172.450973,187 C172.450973,191.418278 176.032695,195 180.450973,195 L331.651491,195 C334.405874,195 336.949341,193.524983 338.317324,191.134325 Z" id="Path-8-Copy-2" fill="url(#linearGradient-1)" transform="translate(286.225487, 97.500000) scale(-1, -1) translate(-286.225487, -97.500000) "></path>
                <path d="M163.764813,191.436969 L217.473173,117.480496 C218.968604,115.421286 218.511571,112.53968 216.452361,111.044249 C215.665245,110.472633 214.717421,110.164779 213.744643,110.164779 L172.787208,110.164779 C170.24228,110.164779 168.179208,108.101707 168.179208,105.556778 C168.179208,104.757705 168.387002,103.972366 168.78219,103.277855 L225.099792,4.30432703 C225.886426,2.92188278 225.403427,1.16349741 224.020982,0.376863381 C223.586914,0.129870877 223.096076,-5.35831317e-16 222.596656,0 L8,0 C3.581722,8.11624501e-16 -5.41083001e-16,3.581722 0,8 L0,195 L0,195 L156.77382,195 C159.540179,195 162.139267,193.675348 163.764813,191.436969 Z" id="Path-8-Copy-3" fill="url(#linearGradient-2)"></path>
            </g>
        </g>
    </g>
</svg>