<?xml version="1.0" encoding="UTF-8"?>
<svg width="14px" height="14px" viewBox="0 0 14 14" version="1.1" xmlns="http://www.w3.org/2000/svg" xmlns:xlink="http://www.w3.org/1999/xlink">
    <title>7890A8A0-23C7-4AD9-A2DC-0591A5F3F257</title>
    <g id="Web" stroke="none" stroke-width="1" fill="none" fill-rule="evenodd">
        <g id="Challenges-for-you-Listing" transform="translate(-1386.000000, -50.000000)" fill="#000000" fill-rule="nonzero">
            <g id="Group-37" transform="translate(970.000000, 0.000000)">
                <g id="Group-27" transform="translate(0.500000, 48.000000)">
                    <path d="M415.645402,15.8533637 C415.73919,15.9472477 415.866456,16 415.999166,16 C416.131876,16 416.259143,15.9472477 416.352931,15.8533637 L422.498178,9.70865838 L428.645926,15.8533637 C428.772314,15.9797403 428.956528,16.029096 429.129177,15.982839 C429.301826,15.9365819 429.43668,15.8017396 429.482941,15.6291059 C429.529203,15.4564722 429.479842,15.2722743 429.353455,15.1458976 L423.205707,9.0011923 L429.350955,2.85398709 C429.546333,2.65862573 429.546333,2.34188238 429.350955,2.14652102 C429.155576,1.95115966 428.838805,1.95115966 428.643426,2.14652102 L422.498178,8.29372623 L416.350431,2.1490209 C416.152042,1.97914065 415.856314,1.99056237 415.671622,2.17523803 C415.48693,2.3599137 415.475507,2.65561647 415.645402,2.85398709 L421.79065,9.0011923 L415.645402,15.1483975 C415.451533,15.3434069 415.451533,15.6583543 415.645402,15.8533637 Z" id="Path"></path>
                </g>
            </g>
        </g>
    </g>
</svg>