<?xml version="1.0" encoding="UTF-8"?>
<svg width="50px" height="40px" viewBox="0 0 50 40" version="1.1" xmlns="http://www.w3.org/2000/svg" xmlns:xlink="http://www.w3.org/1999/xlink">
    <title>99BEDC40-455C-4CDA-86A6-B4ED32C1E5E4</title>
    <g id="Web" stroke="none" stroke-width="1" fill="none" fill-rule="evenodd">
        <g id="Home-page" transform="translate(-575.000000, -404.000000)" fill-rule="nonzero">
            <g id="Group-28" transform="translate(100.000000, 110.000000)">
                <g id="Group-62" transform="translate(0.000000, 189.000000)">
                    <g id="Group-16" transform="translate(0.000000, 38.000000)">
                        <g id="Group-27-Copy" transform="translate(420.000000, 0.000000)">
                            <g id="Group-25" transform="translate(45.080226, 52.000000)">
                                <g id="Cute-Bat-Copy" transform="translate(10.017828, 15.000000)">
                                    <path d="M4.31267492,26.83321 C4.94893811,33.0728088 11.1893106,34.920609 11.1893106,34.920609 C11.0833891,31.2544899 15.621675,31.6099135 15.621675,31.6099135 C16.5758862,28.7192809 19.4385199,29.5299252 19.4385199,29.5299252 L20.003924,25.6860027 C14.8088148,27.817446 4.31285849,26.83321 4.31285849,26.83321 L4.31267492,26.83321 Z M44.7744983,26.83321 C44.1384187,33.0728088 37.8978626,34.920609 37.8978626,34.920609 C38.0039677,31.2544899 33.4656818,31.6099135 33.4656818,31.6099135 C32.5114706,28.7192809 29.6488369,29.5299252 29.6488369,29.5299252 L29.0834328,25.6860027 C34.278542,27.817446 44.7744983,26.83321 44.7744983,26.83321 L44.7744983,26.83321 Z" id="Shape" fill="#F8C1D9"></path>
                                    <path d="M29.3868786,25.9872247 L29.2807735,26.5158739 C36.3841216,30.6403266 44.5477859,28.3847322 44.5477859,28.3847322 L44.6537074,26.6217137 C41.6247568,27.542043 29.386695,25.9872247 29.386695,25.9872247 L29.3868786,25.9872247 Z" id="Path" fill="#F490B3"></path>
                                    <path d="M38.6104921,28.1671931 C38.6104921,28.1671931 38.027465,30.2702538 35.0322918,31.0635023 L37.0295634,28.1023709 L38.6104921,28.1671931 Z M42.586311,28.3847322 C42.7454685,30.2534074 41.2080467,33.1786485 41.2080467,33.1786485 C43.9645753,30.9576626 44.3357594,28.2609474 44.3357594,28.2609474 L42.586311,28.3847322 Z M19.7006618,25.9872247 L19.8065832,26.5158739 C12.7032352,30.6403266 4.53957085,28.3847322 4.53957085,28.3847322 L4.43364937,26.6217137 C7.46259996,27.542043 19.7006618,25.9872247 19.7006618,25.9872247 Z" id="Shape" fill="#F490B3"></path>
                                    <path d="M10.4768647,28.1671931 C10.4768647,28.1671931 11.0598918,30.2702538 14.055065,31.0635023 L12.0576098,28.1023709 L10.4768647,28.1671931 Z M6.50086225,28.3847322 C6.34188824,30.2534074 7.87931013,33.1786485 7.87931013,33.1786485 C5.12278152,30.9576626 4.75141382,28.2609474 4.75141382,28.2609474 L6.50086225,28.3847322 Z" id="Shape" fill="#F490B3"></path>
                                    <path d="M28.7653012,24.8239035 C28.7653012,24.8239035 38.1194349,27.5235485 44.6940934,24.1819069 C45.3381751,23.8458291 46.1311082,24.0183046 46.5764485,24.5913491 L46.6129795,24.6389587 C46.9090677,25.0240385 46.9977665,25.5291686 46.8505169,25.9917079 C46.7032674,26.4542473 46.3386632,26.815789 45.8740991,26.9599246 C42.3961296,28.0322384 34.9322446,29.5528144 28.4473532,25.6169689 L28.7653012,24.8239035 Z" id="Path" fill="#000E34"></path>
                                    <path d="M48.415664,23.7376731 C48.415664,23.7376731 47.0638342,23.5225145 46.0022329,25.2721658 L45.4254473,24.275478 C45.4254473,24.275478 46.5055894,22.2026311 48.415664,23.7376731 L48.415664,23.7376731 Z M44.4541638,22.3905057 C44.4541638,22.3905057 44.0807768,23.7039802 45.6978693,24.9614219 L44.637553,25.4155438 C44.637553,25.4155438 42.7008604,24.10152 44.4541638,22.3905057 L44.4541638,22.3905057 Z" id="Shape" fill="#000E34"></path>
                                    <path d="M49.0873568,25.8130836 C49.0873568,25.8130836 47.8959696,25.1403239 46.2886064,26.4100342 L46.0973236,25.2749125 C46.0973236,25.2749125 47.8353905,23.7091074 49.0873568,25.8132667 L49.0873568,25.8130836 Z M44.008082,26.8661704 L45.4496791,26.491886 C45.4496791,26.491886 45.4656497,33.7571046 37.0850024,35.072044 C37.0850024,35.072044 44.2951898,32.2145549 44.008082,26.8661704 Z M35.9921937,27.6202326 L37.4192884,27.4017779 C37.4192884,27.4017779 37.2338799,31.349709 32.6452951,31.8413692 C32.6452951,31.8413692 36.0052274,30.5339375 35.9921937,27.6204157 L35.9921937,27.6202326 Z M20.3220556,24.8239035 C20.3220556,24.8239035 10.9679219,27.5235485 4.39307979,24.1819069 C3.74904322,23.8459329 2.95622759,24.0183998 2.51090825,24.5913491 L2.47437727,24.6389587 C2.17828911,25.0240385 2.08959027,25.5291686 2.23683984,25.9917079 C2.38408941,26.4542473 2.74869354,26.815789 3.21325764,26.9599246 C6.69122721,28.0322384 14.1551122,29.5528144 20.6400036,25.6169689 L20.3220556,24.8239035 Z" id="Shape" fill="#000E34"></path>
                                    <path d="M0.671692739,23.7376731 C0.671692739,23.7376731 2.02352256,23.5225145 3.08512385,25.2721658 L3.66190947,24.275478 C3.66190947,24.275478 2.58176734,22.2026311 0.671692739,23.7376731 L0.671692739,23.7376731 Z M4.63319296,22.3905057 C4.63319296,22.3905057 5.00657996,23.7039802 3.38948749,24.9614219 L4.44980377,25.4155438 C4.44980377,25.4155438 6.38649642,24.10152 4.63319296,22.3905057 L4.63319296,22.3905057 Z" id="Shape" fill="#000E34"></path>
                                    <path d="M0,25.8130836 C0,25.8130836 1.19138723,25.1403239 2.79875034,26.4100342 L2.99003316,25.2749125 C2.99003316,25.2749125 1.25196624,23.7091074 0,25.8132667 L0,25.8130836 Z M24.5436784,34.7649623 C35.4829629,34.7649623 28.9244588,25.881385 28.9244588,25.881385 C28.9244588,25.881385 20.0569765,25.7757284 20.162898,25.881385 C20.162898,25.881385 13.6043939,34.7649623 24.5436784,34.7649623" id="Shape" fill="#000E34"></path>
                                    <path d="M29.9064263,27.2739646 C29.916486,24.9473221 27.8467031,24.1716525 27.8467031,24.1716525 L21.2408372,24.1716525 C21.2408372,24.1716525 19.1708708,24.9473221 19.1811127,27.2739646 C19.697299,27.2673899 20.2105881,27.1963378 20.7090269,27.0624683 C20.3314658,27.9651246 20.162923,28.9411173 20.2159505,29.91776 C20.2159505,29.91776 21.5589688,29.8121034 22.0184515,29.5301083 C22.3990469,30.7262107 23.3421595,31.6609465 24.5436784,32.0329061 C25.7452676,31.6609976 26.6884571,30.7262535 27.0690889,29.5301083 C27.5283879,29.8121034 28.8714063,29.91776 28.8714063,29.91776 C28.9244338,28.9411173 28.755891,27.9651246 28.3783298,27.0624683 C28.8768281,27.196353 29.3901798,27.2674052 29.9064263,27.2739646 L29.9064263,27.2739646 Z" id="Path" fill="#F490B3"></path>
                                    <path d="M20.6756167,39.0483576 C20.3403352,39.0483635 20.0364792,38.8514658 19.9002054,38.5458937 C19.109741,36.7720714 19.7636272,33.023185 19.8409114,32.6016573 C19.9250605,32.1420173 20.3668227,31.8374513 20.8276149,31.9213899 C21.2884072,32.0053286 21.5937368,32.4459861 21.5095878,32.905626 C21.2549723,34.300586 21.0139413,36.8791929 21.4502938,37.8584849 C21.5667778,38.1201814 21.5427468,38.4228777 21.3864214,38.6630241 C21.2300961,38.9031704 20.962666,39.0482156 20.6756167,39.0485407 L20.6756167,39.0483576 Z" id="Path" fill="#000E34"></path>
                                    <path d="M15.3380551,39.9999997 C14.8927496,40.0003537 14.5230064,39.657113 14.4914101,39.2140406 C14.4598139,38.7709682 14.7771265,38.3789771 15.2179985,38.3164522 L22.5732084,37.2591538 C22.8747388,37.2125698 23.1781141,37.3311456 23.3676508,37.5696655 C23.5571875,37.8081855 23.6036672,38.1298801 23.4893661,38.4120805 C23.375065,38.6942808 23.1176036,38.8934835 22.8151573,38.9337285 L15.4599474,39.99121 C15.419523,39.9970891 15.3787233,39.9999997 15.3378715,39.9999997 L15.3380551,39.9999997 Z M28.4119237,39.0483577 C28.1249745,39.0479776 27.8576514,38.9029817 27.7013467,38.662941 C27.5450421,38.4229003 27.5209272,38.1203282 27.6372466,37.858668 C28.073599,36.8791929 27.8322009,34.300586 27.577769,32.9054429 C27.4936707,32.445803 27.7990414,32.0051865 28.2598336,31.9212984 C28.7206259,31.8374103 29.162347,32.1420174 29.2464454,32.6016573 C29.3237296,33.0235512 29.9776157,36.7720714 29.187335,38.5455275 C29.0512834,38.8513383 28.7473336,39.0484404 28.4119237,39.0483577 Z" id="Shape" fill="#000E34"></path>
                                    <path d="M33.7493017,39.9999996 C33.7085112,39.9999996 33.6677733,39.9970796 33.6274094,39.99121 L26.2721995,38.9337285 C25.9694177,38.8938949 25.7114887,38.6947525 25.5969231,38.4123593 C25.4823575,38.1299662 25.52885,37.8079383 25.7186438,37.5692673 C25.9084376,37.3305963 26.2122189,37.2121452 26.5139649,37.2591538 L33.8691747,38.3164522 C34.3100113,38.3789726 34.6273143,38.7709088 34.5957687,39.2139491 C34.564223,39.6569894 34.1945715,40.000257 33.7493017,39.9999996 L33.7493017,39.9999996 Z" id="Path" fill="#000E34"></path>
                                    <path d="M27.2378062,25.9938168 C27.2405572,25.3134274 26.8321325,24.6983836 26.2029926,24.4355194 L22.8843642,24.4355194 C22.2552243,24.6983836 21.8467996,25.3134274 21.8495506,25.9938168 C22.1089076,25.9905395 22.3668171,25.9548596 22.6172658,25.8876109 C22.4275409,26.3411014 22.3428301,26.8314457 22.3694426,27.3221235 C22.3694426,27.3221235 23.0442561,27.2690205 23.275007,27.1272905 C23.4662512,27.7281599 23.9400661,28.1977125 24.5436784,28.3845491 C25.1472204,28.1976614 25.6209584,27.7281171 25.8121662,27.1272905 C26.0431007,27.2690205 26.7177306,27.3221235 26.7177306,27.3221235 C26.7444011,26.8314596 26.6597531,26.3411158 26.470091,25.8876109 C26.7205393,25.9548615 26.978449,25.9905414 27.2378062,25.9938168 L27.2378062,25.9938168 Z" id="Path" fill="#F8C1D9"></path>
                                    <path d="M3.14662073,1.92846704 C3.14662073,1.92846704 6.00888725,3.95590176 6.11517588,6.80203776 C6.22146451,9.64817376 0.814145203,20.0124083 13.642577,19.0605834 L14.9149198,8.37937904 C14.9149198,8.37937904 10.6740219,2.03394053 3.14662073,1.92828393 L3.14662073,1.92846704 Z" id="Path" fill="#000E34"></path>
                                    <path d="M12.0271367,16.1774584 C12.0271367,16.1774584 12.6237482,10.7060215 8.54182423,9.22554738 C8.54182423,9.22554738 7.24286336,15.0388575 12.0273203,16.1772753 L12.0271367,16.1774584 Z" id="Path" fill="#F490B3"></path>
                                    <path d="M45.9407361,1.92846704 C45.9407361,1.92846704 43.078286,3.95590176 42.9723645,6.80222088 C42.866443,9.64853999 48.2732116,20.0125914 35.4447798,19.0607665 L34.1726205,8.37956216 C34.1726205,8.37956216 38.4131513,2.03412364 45.9407361,1.92846704 L45.9407361,1.92846704 Z" id="Path" fill="#000E34"></path>
                                    <path d="M37.0602201,16.1774584 C37.0602201,16.1774584 36.4636086,10.7060215 40.5455326,9.22554738 C40.5455326,9.22554738 41.8444934,15.0388575 37.0600365,16.1772753 L37.0602201,16.1774584 Z" id="Path" fill="#F490B3"></path>
                                    <path d="M24.5436784,3.02879718 C24.5436784,3.02879718 35.3946644,2.54061609 38.1552316,14.6598122 C38.6765507,16.9439575 38.2149328,19.341493 36.882422,21.2704877 C35.5499112,23.1994823 33.4683353,24.4835734 31.1429356,24.8110855 C29.0336946,25.1102033 26.9063331,25.2643211 24.7758979,25.2723489 L24.3114588,25.2723489 C22.1810194,25.2642622 20.0536578,25.1100831 17.9444211,24.8109024 C15.6190358,24.483437 13.5374586,23.1993844 12.2049433,21.270418 C10.872428,19.3414516 10.410806,16.9439363 10.9321252,14.6598122 C13.692876,2.54061609 24.5436784,3.02898029 24.5436784,3.02898029" id="Path" fill="#000E34"></path>
                                    <path d="M24.5436784,8.18308117 C24.5436784,8.18308117 32.4826497,7.82600949 33.5563668,17.3470055 C33.8069504,19.5316364 32.315727,21.5356248 30.1468698,21.9288761 C28.3474706,22.2600868 26.5222986,22.4323925 24.6925559,22.4437918 L24.3948009,22.4437918 C22.5650582,22.4323916 20.7398864,22.2600859 18.940487,21.9288761 C16.7716297,21.5356248 15.2804064,19.5316364 15.53099,17.3470055 C16.6048907,7.82582637 24.5436784,8.18308117 24.5436784,8.18308117" id="Path" fill="#F490B3"></path>
                                    <ellipse id="Oval" fill="#000E34" transform="translate(18.803175, 16.764338) rotate(-22.500000) translate(-18.803175, -16.764338) " cx="18.8031745" cy="16.7643378" rx="1.43611487" ry="1.43357442"></ellipse>
                                    <ellipse id="Oval" fill="#000E34" transform="translate(30.284366, 16.764338) rotate(-13.282000) translate(-30.284366, -16.764338) " cx="30.2843658" cy="16.7643378" rx="1.43645104" ry="1.43323756"></ellipse>
                                    <path d="M21.5791618,20.0572712 C21.5791618,20.0572712 21.226335,21.139473 21.6582817,21.3848454 C22.0902284,21.6302177 22.7894571,20.4890532 22.7894571,20.4890532 C22.4155431,20.2732564 22.0054636,20.1269574 21.5791618,20.0572712 L21.5791618,20.0572712 Z M27.5827255,20.0572712 C27.5827255,20.0572712 27.9355523,21.139473 27.5036056,21.3848454 C27.0716589,21.6302177 26.3724303,20.4890532 26.3724303,20.4890532 C26.7463476,20.2732638 27.1564258,20.1269653 27.5827255,20.0572712 L27.5827255,20.0572712 Z" id="Shape" fill="#FFFFFF"></path>
                                    <path d="M24.5436784,20.140771 C21.9635632,20.1349114 20.7088434,19.5471164 20.7088434,19.5471164 C20.7088434,19.5471164 21.5885241,21.0065325 24.5064131,21.031436 L24.5064131,21.0325347 L24.5809437,21.0325347 L24.5809437,21.031436 C27.4988327,21.0065325 28.3783298,19.5471164 28.3783298,19.5471164 C28.3783298,19.5471164 27.1237936,20.1349114 24.5436784,20.140771 Z" id="Path" fill="#000E34"></path>
                                    <ellipse id="Oval" fill="#000E34" cx="24.5436784" cy="16.9038704" rx="1.26591777" ry="1.96188002"></ellipse>
                                    <path d="M18.1274432,16.4673274 C18.1274432,16.1770817 18.3633237,15.9417911 18.654297,15.9417911 C18.9452704,15.9417911 19.1811508,16.1770817 19.1811508,16.4673274 C19.1811508,16.7575731 18.9452704,16.9928637 18.654297,16.9928637 C18.3633237,16.9928637 18.1274432,16.7575731 18.1274432,16.4673274 L18.1274432,16.4673274 Z M29.5197853,16.4673274 C29.5197853,16.1770817 29.7556658,15.9417911 30.0466391,15.9417911 C30.3376124,15.9417911 30.5734929,16.1770817 30.5734929,16.4673274 C30.5734929,16.7575731 30.3376124,16.9928637 30.0466391,16.9928637 C29.7556658,16.9928637 29.5197853,16.7575731 29.5197853,16.4673274 Z" id="Shape" fill="#14B4C9"></path>
                                    <path d="M21.9918334,17.8447085 C21.9918334,17.3902606 22.2662726,16.9805605 22.6871803,16.8066508 C23.1080881,16.6327411 23.5925739,16.7288703 23.9147227,17.0502135 C24.2368716,17.3715568 24.3332418,17.8548309 24.1588961,18.2746861 C23.9845504,18.6945413 23.5738232,18.9682941 23.1182359,18.9682941 C22.496141,18.9682941 21.9918334,18.4652477 21.9918334,17.8447085 Z" id="Path" fill="#000E34"></path>
                                    <path d="M22.6677483,17.8447085 C22.6676741,17.6628516 22.7774494,17.4988637 22.9458703,17.4292359 C23.1142912,17.359608 23.3081774,17.3980575 23.437092,17.5266498 C23.5660067,17.655242 23.6045525,17.8486434 23.5347501,18.0166431 C23.4649477,18.1846428 23.3005487,18.2941436 23.1182359,18.2940695 C22.8694805,18.2939684 22.6678496,18.0928419 22.6677483,17.8447085 Z" id="Path" fill="#F490B3"></path>
                                    <ellipse id="Oval" fill="#000E34" cx="25.9691209" cy="17.8447085" rx="1.12640247" ry="1.12358557"></ellipse>
                                    <path d="M26.4197921,17.8447085 C26.4198663,17.6628683 26.3101109,17.498892 26.1417125,17.4292534 C25.9733141,17.3596148 25.7794423,17.3980307 25.6505132,17.526585 C25.5215841,17.6551393 25.482993,17.8485106 25.5527375,18.0165162 C25.6224821,18.1845218 25.7868247,18.2940695 25.9691209,18.2940695 C26.2178763,18.2939684 26.4195072,18.0928419 26.4196085,17.8447085 L26.4197921,17.8447085 Z" id="Path" fill="#F490B3"></path>
                                    <path d="M28.5916414,7.42773722 L24.927529,7.74305899 C21.1775046,7.16625088 14.6019283,8.13418982 17.6183959,9.96587601 C20.2464236,11.5615287 22.4911513,10.3183698 23.5468783,9.49197779 C22.5111608,10.4762138 20.8149484,12.3276763 23.1316367,11.9751825 C25.839335,11.5631767 26.7089191,9.11128444 26.8935933,8.46013218 C27.2857048,9.53207969 28.3608904,12.1553663 29.5197853,12.2395986 C30.9771694,12.3452552 28.5916414,7.42773722 28.5916414,7.42773722 L28.5916414,7.42773722 Z M20.2989254,4.59130625 L23.9630377,4.27598448 C27.7130621,4.85279259 34.2886385,3.88485365 31.2721709,2.05316746 C28.6441432,0.457697929 26.3994155,1.70067362 25.3436885,2.52706568 C26.379406,1.54282962 28.0756183,-0.308632842 25.7591137,0.0440441149 C23.0512318,0.456049905 22.2565453,2.66934501 22.071504,3.32049727 C22.265724,2.35145966 22.2583811,1.06069129 21.0994862,0.976642111 C19.6421021,0.870802401 20.299109,4.59130625 20.299109,4.59130625 L20.2989254,4.59130625 Z" id="Shape" fill="#000E34"></path>
                                    <path d="M34.2644069,15.81764 C34.2311802,15.2020118 34.4529361,14.6896597 34.7600534,14.6729964 C35.0671706,14.656333 35.3427133,15.1419505 35.3761236,15.7575787 C35.4095338,16.3732069 35.1877779,16.885559 34.8808442,16.9022224 C34.5739106,16.9188857 34.2980007,16.4332682 34.2645905,15.81764 L34.2644069,15.81764 Z M36.8494785,6.71597433 C37.2880339,6.28144556 37.8191099,6.10565642 38.0357257,6.32319548 C38.2523416,6.54073453 38.0724403,7.06938374 37.6337014,7.5037294 C37.1949625,7.93807506 36.6640701,8.11404731 36.4476378,7.89632514 C36.2312055,7.67860297 36.4109232,7.15013688 36.8494785,6.71579122 L36.8494785,6.71597433 Z" id="Shape" fill="#263459"></path>
                                    <ellipse id="Oval" fill="#263459" transform="translate(31.933346, 7.109799) rotate(-44.801000) translate(-31.933346, -7.109799) " cx="31.9333457" cy="7.10979868" rx="1" ry="1.11765079"></ellipse>
                                    <path d="M33.9361788,20.5229293 C34.1759248,19.9547275 34.5999779,19.5905144 34.8834143,19.7093552 C35.1668506,19.8281959 35.2020966,20.3854109 34.9623505,20.9536127 C34.7226045,21.5218144 34.2985514,21.8862107 34.0151151,21.7671868 C33.7316787,21.6481629 33.6966163,21.091131 33.9361788,20.5229293 Z M28.3926485,32.0949817 C28.8774642,31.7130065 29.4250617,31.5985605 29.6154267,31.8391719 C29.8057916,32.0797832 29.567147,32.5846277 29.0823314,32.9666028 C28.5975157,33.348578 28.0501017,33.4632071 27.8597368,33.2225958 C27.6693718,32.9819844 27.9078328,32.4771399 28.3926485,32.0949817 L28.3926485,32.0949817 Z M21.1523552,31.8325798 C21.6491031,32.1989903 21.9037185,32.6957777 21.72088,32.9422487 C21.5380415,33.1887197 20.9871397,33.0916695 20.4902082,32.725259 C19.9932767,32.3588485 19.7388449,31.8620611 19.9216834,31.6155901 C20.1045218,31.369119 20.6554237,31.4663524 21.1523552,31.8325798 Z M24.0045252,32.7170189 C24.6059096,32.8587489 25.0360205,33.2154543 24.9651615,33.5139296 C24.8943024,33.8124049 24.349642,33.9393027 23.7482576,33.7977558 C23.1468732,33.656209 22.7169458,33.2991373 22.7876213,33.0008451 C22.8582969,32.7025529 23.4033244,32.5752889 24.0047088,32.7170189 L24.0045252,32.7170189 Z M14.1866867,16.3100327 C14.2200969,15.6945876 13.998341,15.1820524 13.6914074,15.1655722 C13.3844737,15.149092 13.1085638,15.6345263 13.0751536,16.2501545 C13.0417434,16.8657828 13.2633157,17.3781348 13.5704329,17.3946151 C13.8775502,17.4110953 14.1532764,16.925844 14.1866867,16.3100327 Z M10.6116071,5.65830969 C10.1728682,5.22378091 9.6419758,5.04817489 9.42535994,5.26571395 C9.20874408,5.483253 9.38864538,6.0117191 9.82720071,6.44624787 C10.265756,6.88077665 10.796832,7.05638267 11.0134479,6.83884361 C11.2300638,6.62130455 11.0501625,6.09265535 10.6114236,5.65830969 L10.6116071,5.65830969 Z M15.4871161,8.12869641 C15.0516815,8.566155 14.8754517,9.09590289 15.0935361,9.31197704 C15.3116206,9.52805119 15.8415951,9.34859977 16.2770297,8.91095807 C16.7124643,8.47331636 16.8888778,7.9439347 16.6706097,7.72786055 C16.4523417,7.5117864 15.9225507,7.69123781 15.4871161,8.12869641 Z M15.9739511,21.3064727 C15.6422351,20.7864299 15.1629266,20.4982089 14.9037219,20.6628281 C14.6445172,20.8274473 14.7028933,21.3824649 15.0347928,21.9025078 C15.3666924,22.4225506 15.8458173,22.7109547 16.1050221,22.5463355 C16.3642268,22.3817163 16.3058507,21.8266987 15.9739511,21.3066558 L15.9739511,21.3064727 Z M20.7024183,8.60534133 C20.1810717,8.93641087 19.8921282,9.41433759 20.0571601,9.67307722 C20.222192,9.93181686 20.778601,9.87322048 21.2999477,9.54215094 C21.8212943,9.2110814 22.1104214,8.73315468 21.9453895,8.47459816 C21.7803576,8.21604163 21.2239485,8.2744549 20.7026019,8.60534133 L20.7024183,8.60534133 Z M27.2794633,2.68307854 C26.7581166,3.01396497 26.4691731,3.4920748 26.634205,3.75063132 C26.7992369,4.00918784 27.355646,3.95095769 27.8769926,3.61988815 C28.3983393,3.28881861 28.6874664,2.81089189 28.5224345,2.55233537 C28.3574025,2.29377884 27.8009935,2.35219211 27.2794633,2.68307854 L27.2794633,2.68307854 Z" id="Shape" fill="#263459"></path>
                                    <path d="M5.07927478,26.8661704 L3.63767764,26.491886 C3.63767764,26.491886 3.62170704,33.7571046 12.0023544,35.072044 C12.0023544,35.072044 4.79216697,32.2145549 5.07927478,26.8661704 Z M13.095163,27.6202326 L11.6680684,27.4017779 C11.6680684,27.4017779 11.8534769,31.349709 16.4420616,31.8413692 C16.4420616,31.8413692 13.0821294,30.5339375 13.095163,27.6204157 L13.095163,27.6202326 Z" id="Shape" fill="#000E34"></path>
                                </g>
                            </g>
                        </g>
                    </g>
                </g>
            </g>
        </g>
    </g>
</svg>