<?xml version="1.0" encoding="UTF-8"?>
<svg width="14px" height="14px" viewBox="0 0 14 14" version="1.1" xmlns="http://www.w3.org/2000/svg" xmlns:xlink="http://www.w3.org/1999/xlink">
    <title>BC2A9BB0-8262-40DF-AB24-795E94A2A6D1</title>
    <g id="Web" stroke="none" stroke-width="1" fill="none" fill-rule="evenodd">
        <g id="Home-page" transform="translate(-892.000000, -33.000000)" fill="#777777" fill-rule="nonzero">
            <g id="menu/Item-Copy-2" transform="translate(870.000000, 20.000000)">
                <g id="menu/icon/home/inactive" transform="translate(22.000000, 13.000000)">
                    <path d="M12.0000005,5.293 L12.0000005,0.5 C12.0000005,0.223857625 11.7761417,0 11.5000005,0 L8.00000052,0 C7.79105312,0.000261943878 7.60430207,0.130424734 7.53174271,0.32636849 C7.45918334,0.522312245 7.51611799,0.742713606 7.6744999,0.879 L11.0000005,3.73 L11.0000005,5.293 L6.50000052,9.793 L4.3535004,7.6465 C4.25980169,7.55264182 4.13262323,7.49989942 4.00000052,7.49989942 C3.86737767,7.49989942 3.74019921,7.55264182 3.6465005,7.6465 L0.146501024,11.1465 C0.0525393339,11.2401212 -0.000191332256,11.3673587 5.21699362e-07,11.5 L5.21699362e-07,13.5 C5.21699362e-07,13.7761424 0.223858638,14 0.500000522,14 L13.5000005,14 C13.7761414,14 14.0000005,13.7761424 14.0000005,13.5 L14.0000005,7.5 C14.0001913,7.36735874 13.9474607,7.24012125 13.853499,7.1465 L12.0000005,5.293 Z M9.51989738,1 L10.937705,1 C10.9721093,1 10.9999994,1.02789014 10.9999994,1.06229438 L10.9999994,2.27755826 C10.9999994,2.31196249 10.9721093,2.33985264 10.937705,2.33985264 C10.9228346,2.33985264 10.9084548,2.33453319 10.8971644,2.32485567 L9.47935673,1.1095918 C9.45323509,1.08720182 9.45020998,1.04787537 9.47259996,1.02175373 C9.48443478,1.00794644 9.5017121,1 9.51989738,1 Z M12.8131177,13 L1.18688405,13 C1.08367133,13 1.0000009,12.9163296 1.0000009,12.8131169 L1.0000009,11.9650318 C1.0000009,11.7998168 1.06563229,11.6413686 1.18245691,11.524544 L3.86785455,8.83914634 C3.94083694,8.76616391 4.05916481,8.76616391 4.13214722,8.83914632 C4.13214722,8.83914633 4.13214723,8.83914633 4.13214722,8.83914637 L6.14650013,10.8535 L6.14650013,10.8535 C6.24019883,10.9473582 6.36737729,11.0001006 6.5000009,11.0001006 C6.63262286,11.0001006 6.75980132,10.9473582 6.85350002,10.8535 L11.3678545,6.33914633 C11.440837,6.26616394 11.5591648,6.26616395 11.6321472,6.33914634 L12.8175449,7.52454398 C12.9343695,7.64136861 13.0000009,7.7998168 13.0000009,7.96503177 L13.0000009,12.8131169 C13.0000009,12.9163296 12.9163305,13 12.8131177,13 Z" id="Shape"></path>
                </g>
            </g>
        </g>
    </g>
</svg>