<?xml version="1.0" encoding="UTF-8"?>
<svg width="20px" height="16px" viewBox="0 0 20 16" version="1.1" xmlns="http://www.w3.org/2000/svg" xmlns:xlink="http://www.w3.org/1999/xlink">
    <title>6396A6C0-829D-47B0-8697-5B591EFD5E79</title>
    <g id="Web" stroke="none" stroke-width="1" fill="none" fill-rule="evenodd">
        <g id="Home-page" transform="translate(-989.000000, -32.000000)" fill="#777777" fill-rule="nonzero" stroke="#FFFFFF" stroke-width="0.4">
            <g id="menu/Item-Copy-3" transform="translate(980.000000, 20.000000)">
                <g id="menu/icon/home/inactive" transform="translate(10.000000, 13.000000)">
                    <path d="M16.0714286,7 L12.8571429,7 L12.8571429,2.1 C12.8571429,0.940202025 11.993692,0 10.9285714,0 L7.07142857,0 C6.00630798,0 5.14285714,0.940202025 5.14285714,2.1 L5.14285714,4.2 L1.92857143,4.2 C0.86345084,4.2 0,5.14020203 0,6.3 L0,12.6 C0,13.3731986 0.575633893,14 1.28571429,14 L16.7142857,14 C17.4243661,14 18,13.3731986 18,12.6 L18,9.1 C18,7.94020203 17.1365492,7 16.0714286,7 Z M1.28571429,6.3 C1.28571429,5.91340068 1.57353123,5.6 1.92857143,5.6 L5.14285714,5.6 L5.14285714,12.6 L1.28571429,12.6 L1.28571429,6.3 Z M6.42857143,2.1 C6.42857143,1.71340068 6.71638838,1.4 7.07142857,1.4 L10.9285714,1.4 C11.2836116,1.4 11.5714286,1.71340068 11.5714286,2.1 L11.5714286,12.6 L6.42857143,12.6 L6.42857143,2.1 Z M12.8571429,12.6 L12.8571429,8.4 L16.0714286,8.4 C16.4264688,8.4 16.7142857,8.71340068 16.7142857,9.1 L16.7142857,12.6 L12.8571429,12.6 Z" id="Shape"></path>
                </g>
            </g>
        </g>
    </g>
</svg>