<?xml version="1.0" encoding="UTF-8"?>
<svg width="20px" height="16px" viewBox="0 0 20 16" version="1.1" xmlns="http://www.w3.org/2000/svg" xmlns:xlink="http://www.w3.org/1999/xlink">
    <title>CF140EBE-D47E-424D-8703-60CAE7E4DE1C</title>
    <g id="Web" stroke="none" stroke-width="1" fill="none" fill-rule="evenodd">
        <g id="Home-page" transform="translate(-780.000000, -32.000000)" fill="#777777" fill-rule="nonzero" stroke="#777777" stroke-width="0.2">
            <g id="menu/Item-Copy" transform="translate(760.000000, 20.000000)">
                <g id="menu/icon/home/inactive" transform="translate(20.500000, 13.000000)">
                    <path d="M18.7880367,3.48601168 L9.61202163,0.0205984552 C9.53985801,-0.00686615172 9.46034839,-0.00686615172 9.38796871,0.0205984552 L0.211953633,3.48601168 C0.0844789709,3.53407474 0,3.65855142 0,3.79786786 C0,3.9369628 0.0846950296,4.061218 0.211953633,4.10950255 L1.44867391,4.57640087 L2.09685016,4.82136744 L4.34926262,5.67210579 C4.3488305,5.6915968 4.34645385,5.71064483 4.34645385,5.73035733 L4.34645385,10.1860468 C4.34645385,11.4932735 5.62379318,11.9792199 6.85900105,12.4489975 C7.79086243,12.8033796 8.75426839,13.169722 9.23629546,13.8614314 L9.23735211,13.8629487 C9.33835198,14.0079861 9.53780453,14.0436855 9.68284186,13.9426856 C9.69590406,13.9335895 9.70826941,13.9235315 9.71983494,13.9125953 L9.71983494,13.9125953 L9.71983494,13.9125953 C10.5423706,13.1347268 11.4956218,12.8241995 12.3365225,12.5504394 C13.5278704,12.1623911 14.6533204,11.7960487 14.6533204,10.1862683 L14.6533204,5.73035733 C14.6533204,5.71064483 14.6511598,5.6915968 14.6507277,5.67210579 L18.7878206,4.10950255 C18.9152953,4.061218 19,3.9369628 19,3.79786786 C19.0004225,3.65855142 18.9155114,3.53407474 18.7880367,3.48601168 Z M12.1405572,11.91676 C11.3586406,12.1714721 10.4036609,12.4826638 9.53899377,13.1954147 C8.92214604,12.5245252 7.98963648,12.1697002 7.08435032,11.8255067 C5.78410877,11.3313652 4.9946301,10.9738824 4.9946301,10.1858253 L4.9946301,5.91596492 L9.38796871,7.57535875 C9.42405052,7.58909105 9.46207686,7.59573571 9.5001032,7.59573571 C9.53812954,7.59573571 9.57593982,7.58909105 9.61202163,7.57535875 L14.0051442,5.91596492 L14.0051442,10.1860468 C14.0053602,11.2618178 13.4001797,11.5067843 12.1405572,11.91676 Z M9.45608138,6.89293648 L1.41585918,3.85614401 C1.38367415,3.84398772 1.36743764,3.80804198 1.37959393,3.77585695 C1.38591463,3.75912225 1.39912448,3.7459124 1.41585918,3.7395917 L9.45608138,0.702799236 C9.48445119,0.692083959 9.5157552,0.692083959 9.54412501,0.702799236 L17.5843472,3.7395917 C17.6165322,3.75174799 17.6327687,3.78769373 17.6206125,3.81987876 C17.6142918,3.83661346 17.6010819,3.84982331 17.5843472,3.85614401 L9.54412501,6.89293648 C9.5157552,6.90365175 9.48445119,6.90365175 9.45608138,6.89293648 Z" id="Shape"></path>
                </g>
            </g>
        </g>
    </g>
</svg>