<?xml version="1.0" encoding="UTF-8"?>
<svg width="17px" height="17px" viewBox="0 0 17 17" version="1.1" xmlns="http://www.w3.org/2000/svg" xmlns:xlink="http://www.w3.org/1999/xlink">
    <title>05F0F989-2FF9-46FA-9A02-9BC8D0D488DA</title>
    <g id="Web" stroke="none" stroke-width="1" fill="none" fill-rule="evenodd">
        <g id="Home-page" transform="translate(-1192.000000, -31.000000)" fill="#212121" fill-rule="nonzero">
            <g id="Group-4" transform="translate(1180.000000, 20.000000)">
                <g id="search" transform="translate(12.000000, 11.000000)">
                    <path d="M16.7207249,15.3800456 L13.5106478,12.17941 C14.5463552,10.8599312 15.1083309,9.2305341 15.1062449,7.55312247 C15.1062449,3.38164812 11.7245968,0 7.55312247,0 C3.38164812,0 0,3.38164812 0,7.55312247 C0,11.7245968 3.38164812,15.1062449 7.55312247,15.1062449 C9.2305341,15.1083309 10.8599312,14.5463552 12.17941,13.5106478 L15.3800456,16.7207249 C15.5573237,16.8994626 15.798642,17 16.0503853,17 C16.3021285,17 16.5434469,16.8994626 16.7207249,16.7207249 C16.8994626,16.5434469 17,16.3021285 17,16.0503853 C17,15.798642 16.8994626,15.5573237 16.7207249,15.3800456 Z M1.88828062,7.55312247 C1.88828062,4.42451671 4.42451671,1.88828062 7.55312247,1.88828062 C10.6817282,1.88828062 13.2179643,4.42451671 13.2179643,7.55312247 C13.2179643,10.6817282 10.6817282,13.2179643 7.55312247,13.2179643 C4.42451671,13.2179643 1.88828062,10.6817282 1.88828062,7.55312247 Z" id="Shape"></path>
                </g>
            </g>
        </g>
    </g>
</svg>