<?xml version="1.0" encoding="UTF-8"?>
<svg width="30px" height="30px" viewBox="0 0 30 30" version="1.1" xmlns="http://www.w3.org/2000/svg" xmlns:xlink="http://www.w3.org/1999/xlink">
    <title>BC8E14F3-3641-40ED-903E-624EA670138D</title>
    <defs>
        <linearGradient x1="50%" y1="0%" x2="50%" y2="100%" id="linearGradient-1">
            <stop stop-color="#FF8CD9" offset="0%"></stop>
            <stop stop-color="#FFDEF6" offset="100%"></stop>
        </linearGradient>
        <linearGradient x1="10.571875%" y1="31.6125%" x2="91.73125%" y2="72.9%" id="linearGradient-2">
            <stop stop-color="#FFFFFF" stop-opacity="0.2" offset="0%"></stop>
            <stop stop-color="#FFFFFF" stop-opacity="0" offset="100%"></stop>
        </linearGradient>
    </defs>
    <g id="Web" stroke="none" stroke-width="1" fill="none" fill-rule="evenodd">
        <g id="Home-page" transform="translate(-562.000000, -907.000000)">
            <g id="Group-28" transform="translate(100.000000, 110.000000)">
                <g id="Group-17" transform="translate(0.000000, 599.000000)">
                    <g id="Group-8" transform="translate(20.000000, 72.000000)">
                        <g id="Group-35-Copy" transform="translate(400.000000, 0.000000)">
                            <g id="Group-20" transform="translate(20.000000, 126.000000)">
                                <g id="Group-46-Copy" transform="translate(22.000000, 0.000000)">
                                    <circle id="Oval-Copy-6" fill="url(#linearGradient-1)" cx="15" cy="15" r="15"></circle>
                                    <g id="Avatar" transform="translate(6.111111, 5.000000)" fill-rule="nonzero">
                                        <path d="M9.72222222,0 C8.77106481,0 8.21446759,0.259259259 7.97465278,0.406712963 C4.18298611,0.489351852 0,4.27291667 0,9.31712963 C0,14.4577546 1.60092593,17.4854167 1.66898148,17.6109954 C1.69976852,17.6677083 1.74351852,17.7163194 1.79618056,17.7527778 C1.88530093,17.8143519 2.76597222,18.3539352 6.12094907,18.5564815 C7.12719907,19.2402778 8.1099537,19.4444444 8.91203704,19.4444444 C9.71412037,19.4444444 10.696875,19.2402778 11.703125,18.5564815 C15.058912,18.3539352 15.9387731,17.8143519 16.0278935,17.7527778 C16.0807966,17.7161135 16.1243629,17.6675523 16.1550926,17.6109954 C16.2231481,17.4846065 17.8240741,14.4569444 17.8240741,9.31712963 C17.8240741,4.06956019 13.4685185,0 9.72222222,0 Z" id="Path" fill="#303C42"></path>
                                        <path d="M4.14895833,14.8855324 L4.10763889,14.8037037 C4.03818366,14.6685536 3.89905889,14.5835156 3.74710648,14.5833333 C3.18159722,14.5833333 2.43055556,13.1938657 2.43055556,12.5578704 C2.43055556,11.777662 2.6193287,11.497338 2.92962963,11.3409722 C3.51944444,11.3150463 4.36122685,11.0517361 5.28564815,10.63125 L5.29131944,10.6596065 C4.56377315,10.9050926 4.05092593,11.4819444 4.05092593,12.1527778 C4.05092593,13.046412 4.95914352,13.7731481 6.07638889,13.7731481 C7.09884259,13.7731481 7.93738426,13.1622685 8.07430556,12.3739583 C8.20231481,12.2888889 8.47048611,12.1527778 8.91203704,12.1527778 C9.35520833,12.1527778 9.625,12.2905093 9.74976852,12.3731481 C9.88587963,13.1614583 10.7244213,13.7731481 11.7476852,13.7731481 C12.8649306,13.7731481 13.7731481,13.046412 13.7731481,12.1527778 C13.7731481,11.4819444 13.2603009,10.9050926 12.5319444,10.6587963 C12.5392361,10.6158565 12.5578704,10.5769676 12.5578704,10.5324074 C12.5384845,10.0990337 12.1814923,9.75765368 11.7476852,9.75765368 C11.3138781,9.75765368 10.9568859,10.0990337 10.9375,10.5324074 C10.9375,10.5769676 10.9561343,10.6158565 10.9634259,10.6587963 C10.4716435,10.8248843 10.0795139,11.1424769 9.87615741,11.5378472 C9.63391204,11.4341435 9.32604167,11.3425926 8.91203704,11.3425926 C8.49803241,11.3425926 8.19016204,11.4341435 7.94872685,11.5378472 C7.74537037,11.1424769 7.35324074,10.8248843 6.86145833,10.6587963 C6.86793981,10.6158565 6.88657407,10.5769676 6.88657407,10.5324074 C6.88518363,10.3068174 6.78904587,10.092198 6.62164352,9.94097222 C8.26388889,9.00196759 9.92071759,7.71296296 10.7665509,6.44502315 C11.3993056,8.75810185 13.2100694,11.2478009 14.8928241,11.3393519 C15.2039352,11.4965278 15.3935185,11.7768519 15.3935185,12.5570602 C15.3935185,13.1930556 14.6424769,14.5825231 14.0769676,14.5825231 C13.924963,14.5825201 13.7857493,14.6676125 13.7164352,14.8028935 L13.6751157,14.8847222 C12.416088,17.3728009 10.8143519,18.6342593 8.91203704,18.6342593 C7.00972222,18.6342593 5.40798611,17.3728009 4.14895833,14.8855324 Z" id="Path" fill="#FEE8D7"></path>
                                        <path d="M6.07638889,11.3425926 C6.73506944,11.3425926 7.29166667,11.7136574 7.29166667,12.1527778 C7.29166667,12.5918981 6.73506944,12.962963 6.07638889,12.962963 C5.41770833,12.962963 4.86111111,12.5918981 4.86111111,12.1527778 C4.86111111,11.7136574 5.41770833,11.3425926 6.07638889,11.3425926 Z M11.7476852,11.3425926 C12.4063657,11.3425926 12.962963,11.7136574 12.962963,12.1527778 C12.962963,12.5918981 12.4063657,12.962963 11.7476852,12.962963 C11.0890046,12.962963 10.5324074,12.5918981 10.5324074,12.1527778 C10.5324074,11.7136574 11.0890046,11.3425926 11.7476852,11.3425926 Z" id="Shape" fill="#BBDEFB"></path>
                                        <path d="M15.4956019,17.119213 C15.2663194,17.2196759 14.5063657,17.4854167 12.7474537,17.6596065 C13.2959491,17.0827546 13.8363426,16.3365741 14.3402778,15.3627315 C15.4324074,15.1083333 16.2037037,13.3413194 16.2037037,12.5578704 C16.2037037,11.8440972 16.0846065,10.9715278 15.1496528,10.5664352 C15.0989043,10.5438718 15.0439641,10.5322764 14.9884259,10.5324074 C13.4887731,10.5324074 11.3425926,7.19282407 11.3425926,4.86111111 C11.3425926,4.63738465 11.1612265,4.45601852 10.9375,4.45601852 C10.7137735,4.45601852 10.5324074,4.63738465 10.5324074,4.86111111 C10.5324074,6.95219907 4.85543981,10.5324074 2.83564815,10.5324074 C2.78010995,10.5322764 2.72516974,10.5438718 2.6744213,10.5664352 C1.73946759,10.9715278 1.62037037,11.8440972 1.62037037,12.5578704 C1.62037037,13.3421296 2.39166667,15.1083333 3.4837963,15.3627315 C3.98773148,16.3365741 4.528125,17.0827546 5.07662037,17.6596065 C3.30555556,17.4837963 2.54803241,17.2164352 2.32928241,17.1200231 C2.05543981,16.5512731 0.810185185,13.7188657 0.810185185,9.31712963 C0.810185185,4.29722222 5.05717593,1.21527778 8.10185185,1.21527778 C8.19415345,1.21364659 8.28342954,1.18208721 8.35625,1.12534722 C8.36030093,1.12210648 8.77268519,0.810185185 9.72222222,0.810185185 C13.024537,0.810185185 17.0138889,4.60509259 17.0138889,9.31712963 C17.0138889,13.7148148 15.7710648,16.546412 15.4956019,17.119213 L15.4956019,17.119213 Z" id="Path" fill="#4D4D4D"></path>
                                        <circle id="Oval" fill="#FFFFFF" opacity="0.2" cx="5.56840278" cy="12.0028935" r="1"></circle>
                                        <circle id="Oval" fill="#FFFFFF" opacity="0.2" cx="11.4673611" cy="12.0028935" r="1"></circle>
                                        <path d="M14.8928241,11.340162 C13.2092593,11.2486111 11.3993056,8.75891204 10.7665509,6.44583333 C10.7163194,6.52118056 10.6506944,6.59652778 10.5947917,6.671875 C11.1943287,8.91851852 12.7199074,11.2518519 14.1458333,11.340162 C14.4180556,11.497338 14.5833333,11.777662 14.5833333,12.5578704 C14.5833333,13.1938657 13.9262731,14.5833333 13.43125,14.5833333 C13.2916829,14.5880482 13.1679252,14.6743613 13.1152778,14.8037037 L13.0796296,14.8855324 C11.978588,17.3728009 10.5761574,18.6342593 8.91203704,18.6342593 C10.8143519,18.6342593 12.4168981,17.3728009 13.6751157,14.8855324 L13.7164352,14.8037037 C13.7858904,14.6685536 13.9250152,14.5835156 14.0769676,14.5833333 C14.6424769,14.5833333 15.3935185,13.1938657 15.3935185,12.5578704 C15.3935185,11.7768519 15.2039352,11.497338 14.8928241,11.340162 Z" id="Path" fill="#000000" opacity="0.1"></path>
                                        <path d="M4.74444444,14.8855324 L4.7087963,14.8037037 C4.65614888,14.6743613 4.5323912,14.5880482 4.39282407,14.5833333 C3.89780093,14.5833333 3.24074074,13.1938657 3.24074074,12.5578704 C3.24074074,11.777662 3.40601852,11.497338 3.67824074,11.3409722 C4.00231481,11.3247685 4.41631944,11.2113426 4.87893519,11.0258102 C4.8724537,10.9966435 4.86111111,10.9690972 4.86111111,10.9375 C4.86111111,10.8888889 4.87326389,10.8443287 4.88865741,10.8013889 C4.12303241,11.1197917 3.43356481,11.318287 2.93043981,11.340162 C2.6193287,11.497338 2.43055556,11.777662 2.43055556,12.5578704 C2.43055556,13.1938657 3.18159722,14.5833333 3.74710648,14.5833333 C3.89861111,14.5833333 4.03796296,14.6684028 4.10763889,14.8037037 L4.14895833,14.8855324 C5.40717593,17.3728009 7.00972222,18.6342593 8.91203704,18.6342593 C7.24791667,18.6342593 5.84548611,17.3728009 4.74444444,14.8855324 Z" id="Path" fill="#FFFFFF" opacity="0.2"></path>
                                        <path d="M1.21527778,9.72222222 C1.21527778,4.70231481 5.46226852,1.62037037 8.50694444,1.62037037 C8.59924604,1.61873918 8.68852213,1.5871798 8.76134259,1.53043981 C8.76539352,1.52719907 9.17777778,1.21527778 10.1273148,1.21527778 C11.5702546,1.21527778 13.1436343,1.93958333 14.4585648,3.14837963 C13.0699074,1.70138889 11.3174769,0.810185185 9.72222222,0.810185185 C8.77349537,0.810185185 8.36111111,1.12210648 8.35625,1.12534722 C8.28334466,1.18193198 8.19412191,1.2134725 8.10185185,1.21527778 C5.05717593,1.21527778 0.810185185,4.29722222 0.810185185,9.31712963 C0.810185185,13.7180556 2.05543981,16.5512731 2.32928241,17.1208333 C2.38275463,17.1443287 2.47025463,17.1783565 2.59502315,17.2188657 C2.17615741,16.2450231 1.21527778,13.5900463 1.21527778,9.72222222 Z" id="Path" fill="#FFFFFF" opacity="0.2"></path>
                                        <path d="M9.72222222,0 C8.77106481,0 8.21446759,0.259259259 7.97465278,0.406712963 C4.18298611,0.489351852 0,4.27291667 0,9.31712963 C0,14.4577546 1.60092593,17.4854167 1.66898148,17.6109954 C1.69976852,17.6677083 1.74351852,17.7163194 1.79618056,17.7527778 C1.88530093,17.8143519 2.76597222,18.3539352 6.12094907,18.5564815 C7.12719907,19.2402778 8.1099537,19.4444444 8.91203704,19.4444444 C9.71412037,19.4444444 10.696875,19.2402778 11.703125,18.5564815 C15.058912,18.3539352 15.9387731,17.8143519 16.0278935,17.7527778 C16.0807966,17.7161135 16.1243629,17.6675523 16.1550926,17.6109954 C16.2231481,17.4846065 17.8240741,14.4569444 17.8240741,9.31712963 C17.8240741,4.06956019 13.4685185,0 9.72222222,0 Z" id="Path" fill="url(#linearGradient-2)"></path>
                                    </g>
                                </g>
                            </g>
                        </g>
                    </g>
                </g>
            </g>
        </g>
    </g>
</svg>