<?xml version="1.0" encoding="UTF-8"?>
<svg width="104px" height="104px" viewBox="0 0 104 104" version="1.1" xmlns="http://www.w3.org/2000/svg" xmlns:xlink="http://www.w3.org/1999/xlink">
    <title>9DE06863-3516-4895-8B4C-FA82DB041DC6</title>
    <defs>
        <circle id="path-1" cx="35" cy="35" r="35"></circle>
        <filter x="-41.4%" y="-31.4%" width="182.9%" height="182.9%" filterUnits="objectBoundingBox" id="filter-2">
            <feOffset dx="0" dy="7" in="SourceAlpha" result="shadowOffsetOuter1"></feOffset>
            <feGaussianBlur stdDeviation="8.5" in="shadowOffsetOuter1" result="shadowBlurOuter1"></feGaussianBlur>
            <feColorMatrix values="0 0 0 0 0   0 0 0 0 0   0 0 0 0 0  0 0 0 0.128988199 0" type="matrix" in="shadowBlurOuter1"></feColorMatrix>
        </filter>
    </defs>
    <g id="Web" stroke="none" stroke-width="1" fill="none" fill-rule="evenodd">
        <g id="Confidence-Monitoring-slider-2" transform="translate(-551.000000, -333.000000)">
            <g id="Group-21" transform="translate(568.000000, 343.000000)">
                <g id="Oval-Copy">
                    <use fill="black" fill-opacity="1" filter="url(#filter-2)" xlink:href="#path-1"></use>
                    <use fill="#FF8080" fill-rule="evenodd" xlink:href="#path-1"></use>
                </g>
                <g id="face-with-raised-eyebrow" transform="translate(13.000000, 13.000000)" fill-rule="nonzero">
                    <circle id="Oval" fill="#FDD402" cx="22" cy="22" r="22"></circle>
                    <path d="M6.01366743,22 C6.01366743,10.8698943 14.2793531,1.67179253 25.0068337,0.20542287 C24.0103703,0.0688763666 23.0057754,2.84864514e-15 22,2.84864514e-15 C9.84972975,2.84864514e-15 0,9.84972975 0,22 C0,34.1502703 9.84972975,44 22,44 C23.0057754,44 24.0103703,43.9311236 25.0068337,43.7945771 C14.2793531,42.3282075 6.01366743,33.1301057 6.01366743,22 Z" id="Path" fill="#FBBF13"></path>
                    <path d="M28.3143508,32.889984 L15.6856492,32.889984 C15.2704921,32.889984 14.9339408,32.5534326 14.9339408,32.1382755 C14.9339408,31.7231184 15.2704921,31.3865671 15.6856492,31.3865671 L28.3143508,31.3865671 C28.7295079,31.3865671 29.0660592,31.7231184 29.0660592,32.1382755 C29.0660592,32.5534326 28.7295079,32.889984 28.3143508,32.889984 Z" id="Path" fill="#74563A"></path>
                    <circle id="Oval" fill="#74563A" cx="14.6833713" cy="17.8405467" r="2.80637813"></circle>
                    <path d="M13.881549,17.8405467 C13.8816621,16.6773491 14.5992149,15.6347429 15.6856492,15.2191841 C14.5170805,14.7724586 13.1939343,15.1531801 12.4414948,16.1526555 C11.6890554,17.152131 11.6890554,18.5289624 12.4414948,19.5284379 C13.1939343,20.5279133 14.5170805,20.9086348 15.6856492,20.4619093 C14.5992195,20.0463447 13.8816692,19.003742 13.881549,17.8405467 L13.881549,17.8405467 Z" id="Path" fill="#674B34"></path>
                    <circle id="Oval" fill="#74563A" cx="29.8177677" cy="17.8405467" r="2.80637813"></circle>
                    <path d="M29.0159453,17.8405467 C29.0160584,16.6773491 29.7336113,15.6347429 30.8200456,15.2191841 C29.6514769,14.7724586 28.3283307,15.1531801 27.5758912,16.1526555 C26.8234517,17.152131 26.8234517,18.5289624 27.5758912,19.5284379 C28.3283307,20.5279133 29.6514769,20.9086348 30.8200456,20.4619093 C29.7336159,20.0463447 29.0160656,19.003742 29.0159453,17.8405467 L29.0159453,17.8405467 Z" id="Path" fill="#674B34"></path>
                    <path d="M11.8769932,13.3340156 C11.8548729,13.3340156 11.8328498,13.3330364 11.8107296,13.3310789 L10.8084517,13.2424014 C10.3949162,13.205805 10.0893467,12.840901 10.125943,12.4273655 C10.1625394,12.01383 10.5274434,11.7082605 10.9409789,11.7448569 L11.7885111,11.8198323 L15.850575,10.4769362 C16.0120459,10.4235248 16.1868634,10.4264931 16.346428,10.4853554 L18.250756,11.1869499 C18.5029204,11.2796604 18.6864287,11.4999107 18.7320994,11.7646677 C18.7777702,12.0294248 18.6786583,12.2984272 18.4721282,12.4702628 C18.2655982,12.6420984 17.983057,12.6906362 17.7310208,12.5975779 L16.0731529,11.9868148 L12.1129805,13.2960403 C12.0368405,13.3211777 11.9571754,13.3340156 11.8769932,13.3340156 L11.8769932,13.3340156 Z M27.0117814,9.63733306 C26.6566897,9.63743114 26.3499444,9.3890778 26.2761523,9.04173812 C26.2023602,8.69439843 26.3816438,8.34278859 26.7061057,8.19851599 L31.2163563,6.19396018 C31.4445767,6.09265206 31.7081903,6.11116976 31.9200065,6.24338852 L33.5236511,7.24566642 C33.8755299,7.46575938 33.9824526,7.92938242 33.7625053,8.2813523 C33.542558,8.63332218 33.0789792,8.74043672 32.7269184,8.52063508 L31.4619344,7.72996811 L27.3166733,9.57233932 C27.2207301,9.61516066 27.116847,9.63733306 27.0117814,9.63733306 Z" id="Shape" fill="#74563A"></path>
                </g>
            </g>
        </g>
    </g>
</svg>