<?xml version="1.0" encoding="UTF-8"?>
<svg width="114px" height="114px" viewBox="0 0 114 114" version="1.1" xmlns="http://www.w3.org/2000/svg" xmlns:xlink="http://www.w3.org/1999/xlink">
    <title>468E6245-49F3-4402-8966-C71F3542AF85</title>
    <defs>
        <circle id="path-1" cx="40" cy="40" r="40"></circle>
        <filter x="-36.2%" y="-27.5%" width="172.5%" height="172.5%" filterUnits="objectBoundingBox" id="filter-2">
            <feOffset dx="0" dy="7" in="SourceAlpha" result="shadowOffsetOuter1"></feOffset>
            <feGaussianBlur stdDeviation="8.5" in="shadowOffsetOuter1" result="shadowBlurOuter1"></feGaussianBlur>
            <feColorMatrix values="0 0 0 0 0   0 0 0 0 0   0 0 0 0 0  0 0 0 0.128988199 0" type="matrix" in="shadowBlurOuter1"></feColorMatrix>
        </filter>
    </defs>
    <g id="Web" stroke="none" stroke-width="1" fill="none" fill-rule="evenodd">
        <g id="Confidence-Monitoring-slider-4" transform="translate(-749.000000, -328.000000)">
            <g id="Group-25" transform="translate(766.000000, 338.000000)">
                <g id="Oval-Copy">
                    <use fill="black" fill-opacity="1" filter="url(#filter-2)" xlink:href="#path-1"></use>
                    <use fill="#BCF585" fill-rule="evenodd" xlink:href="#path-1"></use>
                </g>
                <g id="slightly-smiling-face" transform="translate(13.000000, 13.000000)" fill-rule="nonzero">
                    <circle id="Oval" fill="#FDD402" cx="27" cy="27" r="27"></circle>
                    <path d="M7.38041002,27 C7.38041002,13.3403174 17.5246606,2.05174538 30.690205,0.252102506 C29.4672721,0.0845288507 28.2343604,0 27,0 C12.0883047,0 0,12.0883121 0,27 C0,41.9116879 12.0883047,54 27,54 C28.2343604,54 29.4672721,53.9154711 30.690205,53.7478975 C17.5246606,51.9482546 7.38041002,40.6596826 7.38041002,27 Z" id="Path" fill="#FBBF13"></path>
                    <circle id="Oval" fill="#74563A" cx="15.8678815" cy="19.4350797" r="3.44419134"></circle>
                    <path d="M14.8838269,19.4350797 C14.8839611,18.0075177 15.7645958,16.7279531 17.0979499,16.2179528 C15.6637974,15.6696989 14.0399362,16.1369479 13.1164877,17.3635769 C12.1930393,18.5902059 12.1930393,20.2799536 13.1164877,21.5065825 C14.0399362,22.7332115 15.6637974,23.2004606 17.0979499,22.6522066 C15.7645958,22.1422064 14.8839611,20.8626418 14.8838269,19.4350797 L14.8838269,19.4350797 Z" id="Path" fill="#674B34"></path>
                    <circle id="Oval" fill="#74563A" cx="38.1321185" cy="19.4350797" r="3.44419134"></circle>
                    <path d="M37.1480638,19.4350797 C37.1481978,18.0075191 38.028833,16.7279561 39.3621868,16.217959 C37.9280331,15.6696963 36.304165,16.1369415 35.380712,17.3635723 C34.4572589,18.5902032 34.4572589,20.2799563 35.380712,21.5065871 C36.304165,22.733218 37.9280331,23.2004631 39.3621868,22.6522005 C38.028833,22.1422033 37.1481978,20.8626404 37.1480638,19.4350797 Z" id="Path" fill="#674B34"></path>
                    <path d="M27.4305239,45.4510296 L26.5694761,45.4510296 C19.2297547,45.4564756 12.7930373,40.5522905 10.8501868,33.4743761 C10.7628496,33.1564958 10.8517761,32.8161695 11.0834547,32.5816472 C11.3151332,32.3471249 11.6543494,32.2540534 11.9732715,32.3375062 C12.2921936,32.4209589 12.5423463,32.6682514 12.629461,32.9861928 C14.3524021,39.2627698 20.0607193,43.6114584 26.5694761,43.6059226 L27.4305239,43.6059226 C33.9370881,43.6041125 39.6415766,39.2579089 41.3704173,32.9852308 C41.5053013,32.494085 42.0126816,32.2051676 42.5038984,32.3397932 C42.9951152,32.4744187 43.2842996,32.9816469 43.1499325,33.4729345 C41.2070619,40.5510923 34.7704859,45.4557228 27.4305239,45.4510296 Z" id="Path" fill="#74563A"></path>
                </g>
            </g>
        </g>
    </g>
</svg>