<?xml version="1.0" encoding="UTF-8"?>
<svg width="109px" height="109px" viewBox="0 0 109 109" version="1.1" xmlns="http://www.w3.org/2000/svg" xmlns:xlink="http://www.w3.org/1999/xlink">
    <title>883CE695-AC00-4D11-BF7E-6A989FD95A47</title>
    <defs>
        <circle id="path-1" cx="37.5" cy="37.5" r="37.5"></circle>
        <filter x="-38.7%" y="-29.3%" width="177.3%" height="177.3%" filterUnits="objectBoundingBox" id="filter-2">
            <feOffset dx="0" dy="7" in="SourceAlpha" result="shadowOffsetOuter1"></feOffset>
            <feGaussianBlur stdDeviation="8.5" in="shadowOffsetOuter1" result="shadowBlurOuter1"></feGaussianBlur>
            <feColorMatrix values="0 0 0 0 0   0 0 0 0 0   0 0 0 0 0  0 0 0 0.128988199 0" type="matrix" in="shadowBlurOuter1"></feColorMatrix>
        </filter>
    </defs>
    <g id="Web" stroke="none" stroke-width="1" fill="none" fill-rule="evenodd">
        <g id="Confidence-Monitoring-slider-3" transform="translate(-648.000000, -331.000000)">
            <g id="Group-24" transform="translate(665.000000, 341.000000)">
                <g id="Oval-Copy">
                    <use fill="black" fill-opacity="1" filter="url(#filter-2)" xlink:href="#path-1"></use>
                    <use fill="#FFFFFF" fill-rule="evenodd" xlink:href="#path-1"></use>
                </g>
                <g id="neutral-face" transform="translate(13.000000, 13.000000)" fill-rule="nonzero">
                    <circle id="Oval" fill="#FDD402" cx="24.5" cy="24.5" r="24.5"></circle>
                    <path d="M6.69703872,24.5 C6.69703872,12.1051029 15.9020068,1.86176895 27.8485194,0.228759681 C26.738821,0.0767021052 25.6200678,0 24.5,0 C10.9690172,0 0,10.9690239 0,24.5 C0,38.0309761 10.9690172,49 24.5,49 C25.6200678,49 26.738821,48.9232979 27.8485194,48.7712403 C15.9020068,47.138231 6.69703872,36.8948971 6.69703872,24.5 Z" id="Path" fill="#FBBF13"></path>
                    <path d="M14.3986333,22.714123 C12.2112792,22.7116453 10.4386963,20.9390625 10.4362187,18.7517084 C10.4362187,18.2893744 10.8110145,17.9145786 11.2733485,17.9145786 C11.7356826,17.9145786 12.1104784,18.2893744 12.1104784,18.7517084 C12.1104784,20.0154215 13.1349202,21.0398633 14.3986333,21.0398633 C15.6623463,21.0398633 16.6867882,20.0154215 16.6867882,18.7517084 C16.6867882,18.2893744 17.061584,17.9145786 17.523918,17.9145786 C17.986252,17.9145786 18.3610478,18.2893744 18.3610478,18.7517084 C18.3585702,20.9390625 16.5859873,22.7116453 14.3986333,22.714123 Z M34.6013667,22.714123 C32.4140127,22.7116453 30.6414298,20.9390625 30.6389522,18.7517084 C30.6389522,18.2893744 31.013748,17.9145786 31.476082,17.9145786 C31.938416,17.9145786 32.3132118,18.2893744 32.3132118,18.7517084 C32.3132118,20.0154215 33.3376537,21.0398633 34.6013667,21.0398633 C35.8650798,21.0398633 36.8895216,20.0154215 36.8895216,18.7517084 C36.8895216,18.2893744 37.2643174,17.9145786 37.7266515,17.9145786 C38.1889855,17.9145786 38.5637813,18.2893744 38.5637813,18.7517084 C38.5613037,20.9390625 36.7887208,22.7116453 34.6013667,22.714123 Z M34.5455581,36.1082005 L14.4544419,36.1082005 C13.9921079,36.1082005 13.6173121,35.7334047 13.6173121,35.2710706 C13.6173121,34.8087366 13.9921079,34.4339408 14.4544419,34.4339408 L34.5455581,34.4339408 C35.0078921,34.4339408 35.3826879,34.8087366 35.3826879,35.2710706 C35.3826879,35.7334047 35.0078921,36.1082005 34.5455581,36.1082005 Z" id="Shape" fill="#74563A"></path>
                </g>
            </g>
        </g>
    </g>
</svg>