<?xml version="1.0" encoding="UTF-8"?>
<svg width="99px" height="99px" viewBox="0 0 99 99" version="1.1" xmlns="http://www.w3.org/2000/svg" xmlns:xlink="http://www.w3.org/1999/xlink">
    <title>D3D31CB8-38FE-42F6-8B2F-51D8EF27DB4D</title>
    <defs>
        <circle id="path-1" cx="32.5" cy="32.5" r="32.5"></circle>
        <filter x="-44.6%" y="-33.8%" width="189.2%" height="189.2%" filterUnits="objectBoundingBox" id="filter-2">
            <feOffset dx="0" dy="7" in="SourceAlpha" result="shadowOffsetOuter1"></feOffset>
            <feGaussianBlur stdDeviation="8.5" in="shadowOffsetOuter1" result="shadowBlurOuter1"></feGaussianBlur>
            <feColorMatrix values="0 0 0 0 0   0 0 0 0 0   0 0 0 0 0  0 0 0 0.128988199 0" type="matrix" in="shadowBlurOuter1"></feColorMatrix>
        </filter>
    </defs>
    <g id="Web" stroke="none" stroke-width="1" fill="none" fill-rule="evenodd">
        <g id="Confidence-Monitoring-slider-1" transform="translate(-459.000000, -336.000000)">
            <g id="Group-15-Copy-4" transform="translate(476.000000, 346.000000)">
                <g id="Oval-Copy">
                    <use fill="black" fill-opacity="1" filter="url(#filter-2)" xlink:href="#path-1"></use>
                    <use fill="#EA6060" fill-rule="evenodd" xlink:href="#path-1"></use>
                </g>
                <g id="confused-face" transform="translate(13.000000, 13.000000)" fill-rule="nonzero">
                    <circle id="Oval" fill="#FDD402" cx="20" cy="20" r="20"></circle>
                    <path d="M5.46697039,20 C5.46697039,9.88171663 12.9812301,1.51981139 22.7334852,0.186742597 C21.827609,0.0626139635 20.9143411,0 20,0 C8.95429977,0 0,8.95430524 0,20 C0,31.0456948 8.95429977,40 20,40 C20.9143411,40 21.827609,39.937386 22.7334852,39.8132574 C12.9812301,38.4801886 5.46697039,30.1182834 5.46697039,20 Z" id="Path" fill="#FBBF13"></path>
                    <circle id="Oval" fill="#74563A" cx="11.7539863" cy="14.3963554" r="2.55125285"></circle>
                    <path d="M11.0250569,14.3963554 C11.0251657,13.3389049 11.6774844,12.391084 12.6651481,12.0132984 C11.6028129,11.6071843 10.3999527,11.9532948 9.71591682,12.8619088 C9.03188093,13.7705229 9.03188093,15.0221878 9.71591682,15.9308019 C10.3999527,16.8394159 11.6028129,17.1855264 12.6651481,16.7794123 C11.6774844,16.4016267 11.0251657,15.4538058 11.0250569,14.3963554 Z" id="Path" fill="#674B34"></path>
                    <circle id="Oval" fill="#74563A" cx="28.2460137" cy="14.3963554" r="2.55125285"></circle>
                    <path d="M27.5170843,14.3963554 C27.5171837,13.338902 28.1695057,12.3910764 29.1571754,12.0132984 C28.0948403,11.6071843 26.89198,11.9532948 26.2079442,12.8619088 C25.5239083,13.7705229 25.5239083,15.0221878 26.2079442,15.9308019 C26.89198,16.8394159 28.0948403,17.1855264 29.1571754,16.7794123 C28.1695057,16.4016344 27.5171837,15.4538087 27.5170843,14.3963554 L27.5170843,14.3963554 Z" id="Path" fill="#674B34"></path>
                    <path d="M28.6173303,31.260728 C28.3516597,31.2608336 28.1099957,31.1069829 27.9976683,30.8662269 C27.2074967,29.177984 25.9933073,27.7233249 24.4735016,26.6441002 C23.3890751,25.8719311 22.1698193,25.309352 20.878595,24.9853677 C19.4403145,24.6231703 17.9418913,24.5678404 16.4808155,24.8229777 L15.8524346,24.9313148 C14.3899821,25.1799346 12.996286,25.733772 11.7620838,26.556769 C11.4480208,26.7657958 11.0239861,26.6807795 10.8147746,26.3668395 C10.6055631,26.0528995 10.6903298,25.6288149 11.0041467,25.4194187 C12.3969475,24.4904796 13.9697539,23.8652468 15.620195,23.5844155 L16.2485768,23.4760784 C19.4076666,22.9296271 22.6541022,23.6690932 25.2648957,25.5297959 C26.9775537,26.7461134 28.3457656,28.3855147 29.236103,30.2881248 C29.3347221,30.4997279 29.318565,30.7470226 29.1932513,30.9439948 C29.0679376,31.1409671 28.8507885,31.2603908 28.617333,31.260728 L28.6173303,31.260728 Z" id="Path" fill="#74563A"></path>
                </g>
            </g>
        </g>
    </g>
</svg>