<?xml version="1.0" encoding="UTF-8"?>
<svg width="140px" height="140px" viewBox="0 0 140 140" version="1.1" xmlns="http://www.w3.org/2000/svg" xmlns:xlink="http://www.w3.org/1999/xlink">
    <title>6F1B3ECA-F160-4769-B89A-132B94CCABD4</title>
    <defs>
        <circle id="path-1" cx="45" cy="45" r="45"></circle>
        <filter x="-47.2%" y="-36.1%" width="194.4%" height="194.4%" filterUnits="objectBoundingBox" id="filter-2">
            <feOffset dx="0" dy="10" in="SourceAlpha" result="shadowOffsetOuter1"></feOffset>
            <feGaussianBlur stdDeviation="12.5" in="shadowOffsetOuter1" result="shadowBlurOuter1"></feGaussianBlur>
            <feColorMatrix values="0 0 0 0 0   0 0 0 0 0   0 0 0 0 0  0 0 0 0.128988199 0" type="matrix" in="shadowBlurOuter1"></feColorMatrix>
        </filter>
    </defs>
    <g id="Web" stroke="none" stroke-width="1" fill="none" fill-rule="evenodd">
        <g id="Confidence-Monitoring-slider-5" transform="translate(-848.000000, -318.000000)">
            <g id="Group-15" transform="translate(873.000000, 333.000000)">
                <g id="Oval-Copy">
                    <use fill="black" fill-opacity="1" filter="url(#filter-2)" xlink:href="#path-1"></use>
                    <use fill="#9CDF5C" fill-rule="evenodd" xlink:href="#path-1"></use>
                </g>
                <g id="Chat-Smiley" transform="translate(14.000000, 14.000000)" fill-rule="nonzero">
                    <path d="M62,30.9989287 C62,48.1267581 48.1096174,62 31.0010713,62 C13.8732419,62 0,48.1267581 0,30.9989287 C0,13.8710993 13.8732419,0 31.0010713,0 C48.1096174,0 62,13.8710993 62,30.9989287 Z" id="Path" fill="#FFD93B"></path>
                    <path d="M61.9978643,30.9967861 C61.9978643,48.1246155 48.1160452,61.9978749 30.9967861,61.9978749 C21.6199436,62.0078166 12.7446077,57.7643926 6.86484432,50.4600339 C12.3707624,54.9177927 19.243846,57.3434979 26.3280921,57.3291634 C43.4452086,57.3291634 57.3291634,43.4559215 57.3291634,26.3280921 C57.3291634,18.955455 54.7623458,12.1848844 50.4600339,6.86484432 C57.7613911,12.7469828 62.0040834,21.6207885 61.9978643,30.9967861 Z" id="Path" fill="#F4C534"></path>
                    <path d="M28.9998963,23.8512631 C28.9998963,29.7797975 25.4346339,34.5684763 21.0144797,34.5684763 C16.6114663,34.5684763 13.0462038,29.7776549 13.0462038,23.8512631 C13.0462038,17.9398694 16.6114663,13.1490479 21.0144797,13.1490479 C25.4346339,13.1511905 28.9998963,17.9398694 28.9998963,23.8512631 Z" id="Path" fill="#FFFFFF"></path>
                    <circle id="Oval" fill="#3E4347" cx="21.2994436" cy="26.2938107" r="4.60227391"></circle>
                    <path d="M23.9991015,25.4303487 C23.7377061,25.8395825 23.0670768,25.7603069 22.4842935,25.2653696 C21.9015102,24.7682897 21.6401147,24.0548087 21.9015102,23.6455749 C22.1564779,23.2470539 22.8335349,23.3156167 23.4163182,23.810554 C23.9991015,24.3054912 24.2540692,25.0318278 23.9991015,25.4303487 Z M32.9958185,23.8512631 C32.9958185,29.7797975 36.561081,34.5684763 40.9812351,34.5684763 C45.3842485,34.5684763 48.949511,29.7776549 48.949511,23.8512631 C48.949511,17.9398694 45.3842485,13.1490479 40.9812351,13.1490479 C36.561081,13.1511905 32.9958185,17.9398694 32.9958185,23.8512631 L32.9958185,23.8512631 Z" id="Shape" fill="#FFFFFF"></path>
                    <circle id="Oval" fill="#3E4347" cx="40.6962712" cy="26.2938107" r="4.60227391"></circle>
                    <path d="M43.3937865,25.4303487 C43.1323911,25.8395825 42.4617618,25.7603069 41.8789785,25.2653696 C41.2961952,24.7682897 41.0347997,24.0548087 41.2961952,23.6455749 C41.5511629,23.2470539 42.2282199,23.3156167 42.8110032,23.810554 C43.3937865,24.3054912 43.6487542,25.0318278 43.3937865,25.4303487 Z" id="Path" fill="#FFFFFF"></path>
                    <path d="M53.980302,37.7802122 C51.1135225,47.7775167 41.9089747,55.081591 31.0010713,55.081591 C20.1124512,55.081591 10.9293292,47.8160832 8.02184055,37.8573453 C7.55689947,36.2289802 9.36095656,34.3713585 10.7150707,35.3762311 C24.1126585,45.3221136 37.66237,45.9327505 51.3449217,35.299098 C52.6561841,34.2813699 54.4452431,36.173273 53.980302,37.7802122 L53.980302,37.7802122 Z" id="Path" fill="#3E4347"></path>
                    <path d="M53.980302,37.7802122 C51.1135225,47.7775167 41.9089747,55.081591 31.0010713,55.081591 C20.1124512,55.081591 10.9293292,47.8160832 8.02184055,37.8573453 C7.55689947,36.2289802 9.36095656,34.3713585 10.7150707,35.3762311 C24.1126585,45.3221136 37.66237,45.9327505 51.3449217,35.299098 C52.6561841,34.2813699 54.4452431,36.173273 53.980302,37.7802122 L53.980302,37.7802122 Z" id="Path" fill="#3E4347"></path>
                    <path d="M31.0010713,55.0837337 C34.7084875,55.0839632 38.364615,54.2174397 41.6775754,52.55334 C41.4332864,51.6463821 41.0755041,50.7738828 40.6127104,49.9565262 C38.9264955,47.0061859 35.3290942,45.5256592 32.1023603,46.6355185 C30.8919192,47.0269526 29.6085182,47.1390304 28.3485503,46.9633341 C25.0339703,46.4898227 21.7643847,48.5381346 20.6073885,51.6920206 C20.5024018,51.9834122 20.4252687,52.2769465 20.345993,52.5704807 C23.6549485,54.2225748 27.302612,55.0829628 31.0010713,55.0837337 Z" id="Path" fill="#E24B4B"></path>
                    <path d="M51.064243,35.5047863 C37.5595259,45.8491896 24.1855064,45.2535508 10.9593254,35.547638 C16.7657325,45.4635242 19.6303694,47.8032292 30.8360922,47.8032292 C42.0225317,47.8053703 45.2856896,45.4399558 51.064243,35.5047863 Z" id="Path" fill="#FFFFFF"></path>
                </g>
            </g>
        </g>
    </g>
</svg>