<?xml version="1.0" encoding="UTF-8"?>
<svg width="18px" height="18px" viewBox="0 0 18 18" version="1.1" xmlns="http://www.w3.org/2000/svg" xmlns:xlink="http://www.w3.org/1999/xlink">
    <title>Group 6</title>
    <g id="new-updation-with-brand-colour" stroke="none" stroke-width="1" fill="none" fill-rule="evenodd">
        <g id="MAX-102---Assessment-Questionnaire-flow-" transform="translate(-336.000000, -593.000000)">
            <g id="Group-19" transform="translate(15.000000, 126.000000)">
                <g id="Group-18" transform="translate(25.000000, 40.000000)">
                    <g id="Group-16" transform="translate(0.000000, 327.000000)">
                        <g id="Group-9" transform="translate(0.000000, 78.000000)">
                            <g id="Group-8" transform="translate(20.000000, 13.000000)">
                                <g id="Group-6" transform="translate(276.000000, 9.000000)">
                                    <rect id="Rectangle" fill="#2A7776" x="0" y="0" width="18" height="18" rx="2"></rect>
                                    <path d="M14.2260745,4 C14.1298862,4 14.0261979,4.01759259 13.9163221,4.05648148 C10.735173,5.17833333 8.06627783,7.90388889 6.89814399,11.0266667 C6.21170129,10.22 5.37863249,9.56074074 4.35224972,9.04944444 C4.20674862,8.97722222 4.06387254,8.94518519 3.92868401,8.94518519 C3.11192783,8.94518519 2.57192374,10.107963 3.4509304,10.5459259 C4.86656611,11.2511111 5.76188539,12.212037 6.47832831,13.5816667 C6.62514192,13.8635185 6.93995681,14 7.25420919,14 C7.64758716,14 8.04152765,13.7861111 8.10977816,13.3746296 C8.64865724,10.1244444 11.1394261,6.87388889 14.3908882,5.72722222 C15.355583,5.38703704 15.0790184,4 14.2260745,4 Z" id="Path" fill="#FFFFFF" fill-rule="nonzero"></path>
                                </g>
                            </g>
                        </g>
                    </g>
                </g>
            </g>
        </g>
    </g>
</svg>