<?xml version="1.0" encoding="UTF-8"?>
<svg width="18px" height="18px" viewBox="0 0 18 18" version="1.1" xmlns="http://www.w3.org/2000/svg" xmlns:xlink="http://www.w3.org/1999/xlink">
    <title>97FF3200-444B-4CED-AE0B-52233D5299AB</title>
    <g id="Web" stroke="none" stroke-width="1" fill="none" fill-rule="evenodd">
        <g id="Profile---Basic-Details---Select-Avatar-or-Image" transform="translate(-404.000000, -289.000000)">
            <g id="Group-25" transform="translate(404.000000, 289.000000)">
                <circle id="Oval" fill="#2A7776" cx="9" cy="9" r="9"></circle>
                <path d="M13.3550621,5 C13.2749052,5 13.1884983,5.01407407 13.0969351,5.04518519 C10.4459775,5.94266667 8.22189819,8.12311111 7.24845333,10.6213333 C6.67641775,9.976 5.98219374,9.44859259 5.12687477,9.03955556 C5.00562385,8.98177778 4.88656045,8.95614815 4.77390334,8.95614815 C4.09327319,8.95614815 3.64326979,9.88637037 4.37577533,10.2367407 C5.55547176,10.8008889 6.30157116,11.5696296 6.89860693,12.6653333 C7.0209516,12.8908148 7.28329734,13 7.54517432,13 C7.8729893,13 8.20127304,12.8288889 8.25814847,12.4997037 C8.70721437,9.89955556 10.7828551,7.29911111 13.4924068,6.38177778 C14.2963192,6.10962963 14.0658487,5 13.3550621,5 Z" id="Path" fill="#FFFFFF" fill-rule="nonzero"></path>
            </g>
        </g>
    </g>
</svg>