<?xml version="1.0" encoding="UTF-8"?>
<svg width="14px" height="22px" viewBox="0 0 14 22" version="1.1" xmlns="http://www.w3.org/2000/svg" xmlns:xlink="http://www.w3.org/1999/xlink">
    <title>25B3C8B1-56F6-47CE-9B95-987DFAC22D1D</title>
    <g id="Web" stroke="none" stroke-width="1" fill="none" fill-rule="evenodd">
        <g id="Profile---Your-Squads---Challenges" transform="translate(-449.000000, -129.000000)" fill="#212121" fill-rule="nonzero" stroke="#FDE7E7" stroke-width="0.8">
            <g id="back" transform="translate(450.000000, 130.000000)">
                <path d="M10.5497591,0.00177392505 C10.249918,0.0192452002 9.96450854,0.145681963 9.74035923,0.360339172 L0.464583271,8.89440708 C0.169785254,9.16466951 0,9.5601084 0,9.97644625 C0,10.3927841 0.169785254,10.788223 0.464583271,11.0584854 L9.74035923,19.5842209 C10.0920421,19.9613531 10.6106697,20.0952152 11.0834512,19.9308839 C11.5562326,19.7665526 11.9035724,19.3316941 11.9829582,18.8047293 C12.062344,18.2777644 11.8604109,17.7474107 11.4600112,17.4312704 L3.35825365,9.97784396 L11.4600112,2.52167587 C11.9020207,2.13161231 12.0609,1.48072893 11.8539432,0.907847721 C11.6469864,0.334966509 11.1209875,-0.0303811957 10.5497591,0.00198895668 L10.5497591,0.00177392505 Z" id="path9509"></path>
            </g>
        </g>
    </g>
</svg>