<?xml version="1.0" encoding="UTF-8"?>
<svg width="59px" height="52px" viewBox="0 0 59 52" version="1.1" xmlns="http://www.w3.org/2000/svg" xmlns:xlink="http://www.w3.org/1999/xlink">
    <title>E7577612-3368-46E9-90CC-FFEBBCA147F8</title>
    <g id="Web" stroke="none" stroke-width="1" fill="none" fill-rule="evenodd">
        <g id="Challenge-Q&amp;A-Flow---Feedback" transform="translate(-691.000000, -177.000000)" fill-rule="nonzero">
            <g id="Group-20" transform="translate(372.000000, 128.000000)">
                <g id="Group-19" transform="translate(227.000000, 50.000000)">
                    <g id="Group-14" transform="translate(93.000000, 0.000000)">
                        <path d="M3.86438383,50 C3.2920487,49.9903787 2.72953524,49.8510068 2.21996518,49.5925684 C0.868122772,48.9804173 0.000689261105,47.6431323 0,46.1701434 L0,21.1864407 C0,9.48549259 9.57100699,0 21.3774424,0 L35.2892242,0 C47.0956597,0 56.6666667,9.48549259 56.6666667,21.1864407 C56.6666667,32.8873888 47.0956597,42.3728814 35.2892242,42.3728814 L15.079319,42.3728814 L6.16656994,49.2014342 C5.50571635,49.7059177 4.69843386,49.9859421 3.86438383,50 L3.86438383,50 Z M21.4103308,4.04172099 C11.8599575,4.05070538 4.12011201,11.7213974 4.11104662,21.1864407 L4.11104662,45.6323338 L13.1224608,38.8363755 C13.4748359,38.5310672 13.9211332,38.3529945 14.3886632,38.3311604 L35.3221126,38.3311604 C44.4448323,37.7728591 51.5551843,30.2774672 51.5551843,21.2190352 C51.5551843,12.1606032 44.4448323,4.66521134 35.3221126,4.10691004 L21.4103308,4.04172099 Z" id="Shape" stroke="#FFFFFF" fill="#212121"></path>
                        <path d="M39.1700522,18.3996089 L17.5623912,18.3996089 C16.427157,18.3996089 15.5068679,17.4875423 15.5068679,16.3624511 C15.5068679,15.2373599 16.427157,14.3252934 17.5623912,14.3252934 L39.1700522,14.3252934 C40.3052864,14.3252934 41.2255755,15.2373599 41.2255755,16.3624511 C41.2255755,17.4875423 40.3052864,18.3996089 39.1700522,18.3996089 Z M29.4022055,28.3735332 L17.5623912,28.3735332 C16.427157,28.3735332 15.5068679,27.4614667 15.5068679,26.3363755 C15.5068679,25.2112843 16.427157,24.2992177 17.5623912,24.2992177 L29.4022055,24.2992177 C30.5374396,24.2992177 31.4577288,25.2112843 31.4577288,26.3363755 C31.4577288,27.4614667 30.5374396,28.3735332 29.4022055,28.3735332 Z" id="Shape" fill="#2A7776"></path>
                    </g>
                </g>
            </g>
        </g>
    </g>
</svg>