<?xml version="1.0" encoding="UTF-8"?>
<svg width="70px" height="70px" viewBox="0 0 70 70" version="1.1" xmlns="http://www.w3.org/2000/svg" xmlns:xlink="http://www.w3.org/1999/xlink">
    <title>8CD4C004-EF99-4EB4-B1CB-7B866F7CCFE6</title>
    <g id="Web" stroke="none" stroke-width="1" fill="none" fill-rule="evenodd">
        <g id="Challenges---Completetion-Page-1" transform="translate(-511.000000, -251.000000)" fill-rule="nonzero" stroke="#FFECA2">
            <g id="Group-44" transform="translate(170.000000, 117.000000)">
                <g id="Group-22" transform="translate(0.000000, 80.000000)">
                    <g id="Group-11" transform="translate(58.000000, 44.000000)">
                        <g id="Group-5" transform="translate(284.000000, 11.000000)">
                            <path d="M32.3168779,8.77418573 L32.3168779,1.68394314 C32.3168779,0.753901344 33.0704311,0 34.0000433,0 C34.9294872,0 35.6832086,0.753901344 35.6832086,1.68394314 L35.6832086,8.77418573 C35.6832086,9.70422753 34.9294872,10.4581289 34.0000433,10.4581289 C33.0704311,10.4581289 32.3168779,9.70422753 32.3168779,8.77418573 L32.3168779,8.77418573 Z" id="Path" fill="#212121"></path>
                            <path d="M25.2898309,10.0886717 C25.6032015,10.3922002 26.0224498,10.5616321 26.4586209,10.5610195 C26.9155227,10.5616511 27.3529286,10.3758684 27.6698267,10.0465732 C28.3154889,9.37737416 28.2966375,8.31143816 27.6277476,7.66547757 L22.5408853,2.75307864 C21.8721637,2.10728645 20.80672,2.12597821 20.1608895,2.79517722 C19.5152272,3.46437622 19.5340787,4.53031223 20.2029686,5.17627282 L25.2898309,10.0886717 L25.2898309,10.0886717 Z" id="Path" fill="#212121"></path>
                            <path d="M41.5416339,10.5610192 C41.9624253,10.5610192 42.3837216,10.4040743 42.710424,10.0886717 L47.7972863,5.17627282 C48.4661762,4.53048062 48.4848593,3.46420783 47.8393654,2.79517722 C47.1935349,2.12597821 46.1282595,2.10728645 45.4592013,2.75307864 L40.372339,7.66547757 C39.7034491,8.31126976 39.6847659,9.37737416 40.3302598,10.0465732 C40.6472436,10.3758449 41.0846896,10.5616188 41.5416339,10.5610192 Z" id="Path" fill="#212121"></path>
                            <path d="M67.6035979,29.0640166 L56.9005177,41.7611163 C56.580819,42.1410839 56.1095007,42.3601148 55.6130646,42.3594213 C55.2161098,42.3597916 54.8318942,42.2192691 54.5287695,41.9628527 C53.818137,41.3632005 53.7279194,40.3008008 54.3272946,39.5900084 L62.695656,29.66249 L49.7871244,29.66249 L39.112658,57.6396897 L49.8202827,44.9370331 C50.4198262,44.2260723 51.4817352,44.1361497 52.1921993,44.7352967 C52.9028317,45.3349488 52.9930494,46.3973485 52.3936742,47.1081409 L35.2868232,67.4018449 C34.9669169,67.7811435 34.4961024,68 34.0000433,68 C33.5039842,68 33.0331697,67.7811435 32.7132634,67.4018449 L0.396488667,29.0640166 C-0.1207436,28.4504325 -0.133212552,27.5569047 0.366696641,26.9291135 L4.43069938,21.825587 C5.00987657,21.0981236 6.06892421,20.9785636 6.79588332,21.5578401 C7.52301075,22.1372849 7.64285213,23.1968219 7.06350661,23.924117 L5.17600499,26.2944353 L18.3885163,26.2944353 L24.1074073,16.1347012 L13.2666442,16.1347012 L11.4217267,18.4514702 C10.8423811,19.1789336 9.78367014,19.2988304 9.0565427,18.7192171 C8.32941527,18.1397723 8.2095739,17.0802353 8.78891941,16.3529402 L11.1391232,13.4014931 C11.4584133,13.0004021 11.9430119,12.7668149 12.4555268,12.7668149 L55.5445597,12.7668149 C56.0570747,12.7668149 56.5416733,13.0004021 56.8609634,13.4014931 L67.6332216,26.9291135 C68.133179,27.5568648 68.1207805,28.4503921 67.6035979,29.0640166 L67.6035979,29.0640166 Z" id="Path" fill="#212121"></path>
                            <polygon id="Path" fill="#FFECA2" points="54.7336107 16.1347012 43.8930159 16.1347012 49.6117385 26.2944353 62.8240816 26.2944353"></polygon>
                            <polygon id="Path" fill="#FFECA2" points="22.2520541 26.2944353 45.7482008 26.2944353 40.0293099 16.1347012 27.9706084 16.1347012"></polygon>
                            <polygon id="Path" fill="#FFECA2" points="5.30459882 29.6623216 28.8879335 57.6395213 18.2134672 29.6623216"></polygon>
                            <polygon id="Path" fill="#FFECA2" points="46.1836357 29.6623216 21.8166192 29.6623216 34.0000433 61.5942618"></polygon>
                        </g>
                    </g>
                </g>
            </g>
        </g>
    </g>
</svg>