<?xml version="1.0" encoding="UTF-8"?>
<svg width="20px" height="12px" viewBox="0 0 20 12" version="1.1" xmlns="http://www.w3.org/2000/svg" xmlns:xlink="http://www.w3.org/1999/xlink">
    <title>B4597CAA-65EB-4BBF-8EB7-4BD192B8D4AA</title>
    <g id="Web" stroke="none" stroke-width="1" fill="none" fill-rule="evenodd">
        <g id="Profile-Listing" transform="translate(-1295.000000, -147.000000)" fill="#212121" stroke="#FFFFFF" stroke-width="0.4">
            <g id="Group-29" transform="translate(1153.000000, 67.961720)">
                <path d="M158.637691,84.3318286 L155.662322,81.2603877 L155.630493,81.2246732 C155.603507,81.1911017 155.595895,81.1832445 155.573061,81.1468158 C155.357866,80.808243 155.495563,80.2853837 155.854683,80.1089545 C155.925954,80.0739543 156.003452,80.0510971 156.081641,80.0432399 C156.172286,80.0332399 156.194429,80.0410971 156.22349,80.0432399 C156.349425,80.0610971 156.471207,80.1060973 156.571539,80.1846691 C156.604753,80.2110977 156.611672,80.2189549 156.64281,80.248955 L160.800715,84.5411151 C160.829777,84.5732581 160.837388,84.580401 160.86299,84.6146868 C161.043588,84.8604021 161.04774,85.2282607 160.86299,85.4796903 C160.837388,85.5139762 160.829777,85.5211191 160.800715,85.553262 L156.64281,89.8454221 C156.611672,89.8754223 156.604753,89.8832794 156.571539,89.9097081 C156.201348,90.198995 155.556454,89.9789941 155.469961,89.4611349 C155.43744,89.2689912 155.485876,89.0632761 155.600047,88.9075612 C155.625649,88.8725611 155.633952,88.8654182 155.662322,88.8339895 L158.637691,85.7625486 L143.677813,85.7625486 C143.622457,85.7554057 143.566409,85.7554057 143.512438,85.7418342 C143.033611,85.6196909 142.797657,84.8968308 143.21836,84.5118293 C143.302778,84.4346861 143.40311,84.3804002 143.512438,84.3525429 C143.566409,84.3389715 143.622457,84.3389715 143.677813,84.3318286 L158.637691,84.3318286 Z" id="Path"></path>
            </g>
        </g>
    </g>
</svg>