<?xml version="1.0" encoding="UTF-8"?>
<svg width="22px" height="22px" viewBox="0 0 22 22" version="1.1" xmlns="http://www.w3.org/2000/svg" xmlns:xlink="http://www.w3.org/1999/xlink">
    <title>Shape 2</title>
    <g id="User-Web-App---Maxlearn" stroke="none" stroke-width="1" fill="none" fill-rule="evenodd" stroke-linecap="round" stroke-linejoin="round">
        <g id="Profile-Listing" transform="translate(-1178.000000, -142.000000)" stroke="#212121" stroke-width="1.4">
            <g id="Group-44" transform="translate(1153.000000, 67.961720)">
                <g id="Shape-2" transform="translate(26.000000, 75.038280)">
                    <path d="M14.2855094,0 L17.5521036,0 C18.9036211,0 20,1.10589743 20,2.47018211 L20,5.76410278 C20,7.12735391 18.9036211,8.23428489 17.5521036,8.23428489 L14.2855094,8.23428489 C12.9329672,8.23428489 11.8365883,7.12735391 11.8365883,5.76410278 L11.8365883,2.47018211 C11.8365883,1.10589743 12.9329672,0 14.2855094,0 Z M2.44892104,0 L5.71449064,0 C7.06703281,0 8.16341169,1.10589743 8.16341169,2.47018211 L8.16341169,5.76410278 C8.16341169,7.12735391 7.06703281,8.23428489 5.71449064,8.23428489 L2.44892104,8.23428489 C1.09637888,8.23428489 0,7.12735391 0,5.76410278 L0,2.47018211 C0,1.10589743 1.09637888,0 2.44892104,0 Z M2.44892104,11.7657151 L5.71449064,11.7657151 C7.06703281,11.7657151 8.16341169,12.8716125 8.16341169,14.2369308 L8.16341169,17.5298179 C8.16341169,18.8941026 7.06703281,20 5.71449064,20 L2.44892104,20 C1.09637888,20 0,18.8941026 0,17.5298179 L0,14.2369308 C0,12.8716125 1.09637888,11.7657151 2.44892104,11.7657151 Z M14.2855094,11.7657151 L17.5521036,11.7657151 C18.9036211,11.7657151 20,12.8716125 20,14.2369308 L20,17.5298179 C20,18.8941026 18.9036211,20 17.5521036,20 L14.2855094,20 C12.9329672,20 11.8365883,18.8941026 11.8365883,17.5298179 L11.8365883,14.2369308 C11.8365883,12.8716125 12.9329672,11.7657151 14.2855094,11.7657151 Z" id="Shape"></path>
                </g>
            </g>
        </g>
    </g>
</svg>