<?xml version="1.0" encoding="UTF-8"?>
<svg width="20px" height="20px" viewBox="0 0 20 20" version="1.1" xmlns="http://www.w3.org/2000/svg" xmlns:xlink="http://www.w3.org/1999/xlink">
    <title>B24E3003-E0C6-49DE-9030-082B2E41FEA3</title>
    <g id="Web" stroke="none" stroke-width="1" fill="none" fill-rule="evenodd">
        <g id="Assessment-flow---Q&amp;A---MCQ---Answer-explanation" transform="translate(-1195.000000, -348.000000)">
            <g id="Group-3" transform="translate(175.000000, 145.000000)">
                <g id="Group-17" transform="translate(573.000000, 60.000000)">
                    <g id="Group-16" transform="translate(0.000000, 49.000000)">
                        <g id="Group-13" transform="translate(0.000000, 76.000000)">
                            <g id="Group-12" transform="translate(20.000000, 18.000000)">
                                <g id="Correct" transform="translate(427.000000, 0.000000)">
                                    <polygon id="Path-2" fill="#9EFFB1" points="5.48843563 17.6470588 4.03315208 16.2262511 1.86128936 14.7198598 1.86128936 12.9221925 1.52315711 11.5161531 0.829287403 9.9987006 2.15801953 5.13069035 4.03315208 4.38562757 5.08110387 2.10290558 7.05651511 2.10290558 9.99293718 0.607410782 11.7032875 1.52324683 14.5861024 1.88576668 15.9614207 3.56034185 16.7897069 4.73304981 17.8746118 5.13069035 17.8746118 7.07520871 18.4768532 8.34876775 19.0699022 9.59585565 18.4768532 12.0783454 17.8746118 13.9610581 16.2057217 16.2262511 14.8744629 17.6470588 11.7032875 18.4779415 9.20405827 19.0885365"></polygon>
                                    <path d="M1.59854876,15.2594711 L3.59171536,16.4092614 L4.74143794,18.4025454 C4.86866134,18.6193092 5.10426023,18.7559646 5.35399505,18.7559646 L7.65344021,18.7559646 L9.64660681,19.9057549 C9.7549823,19.9670142 9.87749372,20 10,20 C10.1225166,20 10.245028,19.9670142 10.3534035,19.9057549 L12.3465701,18.7559646 L14.6460152,18.7559646 C14.8957501,18.7559646 15.131349,18.6193092 15.2585724,18.4025454 L16.4082949,16.4092614 L18.4014615,15.2594711 C18.6182125,15.1322402 18.7548599,14.9013397 18.7548599,14.6468779 L18.7548599,12.3472973 L19.9045824,10.3540133 C20.0318059,10.1372496 20.0318059,9.86393877 19.9045824,9.64717503 L18.7548599,7.65389102 L18.7548599,5.35431042 C18.7548599,5.10456089 18.6182125,4.86894812 18.4014615,4.74171722 L16.4082949,3.59192692 L15.2585724,1.59864292 C15.131349,1.38187917 14.900462,1.24522377 14.6460152,1.24522377 L12.3465701,1.24522377 L10.3534035,0.0954334644 C10.1349835,-0.0318111548 9.86502684,-0.0318111548 9.64660681,0.0954334644 L7.65344021,1.24522377 L5.35399505,1.24522377 C5.10426023,1.24522377 4.86866134,1.38187917 4.74143794,1.59864292 L3.59171536,3.59192692 L1.59854876,4.74171722 C1.38179778,4.86894812 1.24515042,5.09984863 1.24515042,5.35431042 L1.24515042,7.65389102 L0.0954278434,9.64717503 C-0.0318092811,9.86560792 -0.0318092811,10.1355804 0.0954278434,10.3540133 L1.24515042,12.3472973 L1.24515042,14.6468779 C1.24515042,14.9013397 1.38179778,15.1322402 1.59854876,15.2594711 Z M2.5645042,8.19580039 C2.62575991,8.08741851 2.65874376,7.96489987 2.65874376,7.84238124 L2.65874376,5.75956438 L4.46343125,4.71815595 C4.57180674,4.65689663 4.66133432,4.56736378 4.72259003,4.4589819 L5.75922514,2.65890037 L7.84191932,2.65890037 C7.96443074,2.65890037 8.08694217,2.62591458 8.19531766,2.56465526 L10.0000051,1.52324683 L11.8046926,2.56465526 C11.9130681,2.62591458 12.0355795,2.65890037 12.158091,2.65890037 L14.2407852,2.65890037 L15.2821322,4.46369416 C15.343388,4.57207603 15.4329155,4.66160888 15.541291,4.7228682 L17.3412665,5.75956438 L17.3412665,7.84238124 C17.3412665,7.96489987 17.3742504,8.08741851 17.4355061,8.19580039 L18.4768532,10.0005942 L17.4355061,11.805388 C17.3742504,11.9137698 17.3412665,12.0362885 17.3412665,12.1588071 L17.3412665,14.241624 L15.536579,15.2830324 C15.4282036,15.3442917 15.338676,15.4338246 15.2774203,15.5422065 L14.2407852,17.342288 L12.158091,17.342288 C12.0355795,17.342288 11.9130681,17.3752738 11.8046926,17.4365331 L10.0000051,18.4779415 L8.19531766,17.4365331 C8.08694217,17.3752738 7.96443074,17.342288 7.84191932,17.342288 L5.75922514,17.342288 L4.71787805,15.5374942 C4.65662234,15.4291123 4.56709476,15.3395795 4.45871927,15.2783202 L2.65874376,14.241624 L2.65874376,12.1588071 C2.65874376,12.0362885 2.62575991,11.9137698 2.5645042,11.805388 L1.52315711,10.0005942 L2.5645042,8.19580039 Z" id="Shape" fill="#212121" fill-rule="nonzero"></path>
                                    <path d="M6.10319952,12.5499243 C6.22571094,12.7808248 6.46602181,12.9221925 6.72518059,12.9221925 C6.84298003,12.9221925 6.9560675,12.893919 7.05501903,12.8373719 L15.3716598,8.40785188 C15.7156342,8.22407392 15.8475696,7.79525868 15.6638024,7.45126404 C15.5742749,7.28162285 15.4282036,7.15910421 15.2444364,7.1072694 C15.0653813,7.05072234 14.8721902,7.06957136 14.707271,7.15910421 L7.01261123,11.2587664 L5.57074603,8.55393179 C5.48121845,8.38900285 5.33514714,8.26648422 5.15138001,8.20993715 C4.97232485,8.15339009 4.77913376,8.17223911 4.61421454,8.26177196 C4.27024016,8.44554992 4.13830478,8.87436515 4.32207192,9.21835979 L6.10319952,12.5499243 L6.10319952,12.5499243 Z" id="Path" fill="#007E19" fill-rule="nonzero"></path>
                                </g>
                            </g>
                        </g>
                    </g>
                </g>
            </g>
        </g>
    </g>
</svg>