<?xml version="1.0" encoding="UTF-8"?>
<svg width="24px" height="18px" viewBox="0 0 24 18" version="1.1" xmlns="http://www.w3.org/2000/svg" xmlns:xlink="http://www.w3.org/1999/xlink">
    <title>crown</title>
    <g id="User-Web-App---Maxlearn" stroke="none" stroke-width="1" fill="none" fill-rule="evenodd">
        <g id="Individual---Leaderboard" transform="translate(-322.000000, -326.000000)" fill-rule="nonzero">
            <g id="Group-8" transform="translate(120.000000, 244.000000)">
                <g id="Group-17" transform="translate(30.000000, 30.000000)">
                    <g id="Group-14" transform="translate(141.000000, 52.000000)">
                        <g id="crown" transform="translate(31.000000, 0.000000)">
                            <ellipse id="Oval" fill="#000000" cx="11.9995171" cy="4.76033058" rx="1" ry="1"></ellipse>
                            <ellipse id="Oval" fill="#000000" cx="11.9995171" cy="12.3966942" rx="1" ry="1"></ellipse>
                            <ellipse id="Oval" fill="#000000" cx="22.2785401" cy="8.41487603" rx="1" ry="1"></ellipse>
                            <ellipse id="Oval" fill="#000000" cx="1.72049415" cy="8.41487603" rx="1" ry="1"></ellipse>
                            <ellipse id="Oval" fill="#000000" cx="17.5917267" cy="7.38" rx="1" ry="1"></ellipse>
                            <ellipse id="Oval" fill="#000000" cx="6.40730755" cy="7.38" rx="1" ry="1"></ellipse>
                            <rect id="Rectangle" fill="#FED030" x="0.482877953" y="15.768595" width="23.0332783" height="2.23140496" rx="1.11570248"></rect>
                            <path d="M22.4296809,15.768595 L21.705364,15.768595 C22.3054078,15.768595 22.7918394,16.2681121 22.7918394,16.8842975 C22.7918394,17.500483 22.3054078,18 21.705364,18 L22.4296809,18 C23.0297247,18 23.5161563,17.500483 23.5161563,16.8842975 C23.5161563,16.2681121 23.0297247,15.768595 22.4296809,15.768595 L22.4296809,15.768595 Z" id="Path" fill="#F8BE32"></path>
                            <path d="M1.82286427,15.768595 C1.52122651,14.046281 1.21910587,12.3241322 0.916502354,10.6021488 L0,6.27272727 L3.27149813,7.68595041 L3.26184057,7.70380165 C2.85957206,8.1846704 2.89498773,8.9049477 3.34237822,9.34176121 C3.7897687,9.77857473 4.49207106,9.77857473 4.93946155,9.34176121 C5.38685203,8.9049477 5.4222677,8.1846704 5.0199992,7.70380165 L5.00985876,7.68595041 C5.22618808,6.40661157 5.44267836,5.12710744 5.6593296,3.84743802 L7.85883868,7.09090909 C7.78918303,7.3085817 7.76709071,7.53934189 7.79413303,7.76677686 C7.89070862,8.54181818 8.54838839,8.94347107 8.62564887,8.98909091 C9.21235604,9.32992773 9.93730798,9.29562466 10.4910064,8.90082645 C11.2505734,8.34942149 11.2216007,7.40132231 11.2153233,7.29867769 C11.1786246,6.53107438 10.6740171,5.83933884 9.92941934,5.52892562 L11.9869623,0 L12.0120719,0 L14.0681663,5.52892562 C13.3235685,5.83933884 12.818961,6.53107438 12.7822623,7.29867769 C12.7774335,7.40132231 12.7484608,8.34942149 13.5065792,8.90082645 C14.060372,9.29546799 14.7853211,9.32957821 15.3719367,8.98859504 C15.4491972,8.94297521 16.106877,8.54231405 16.2034526,7.76628099 C16.2304949,7.53884602 16.2084026,7.30808583 16.1387469,7.09041322 L18.338256,3.84694215 C18.5545853,5.12628099 18.7710756,6.40578512 18.9877269,7.68545455 L18.9775864,7.70330579 C18.5753179,8.18417453 18.6107336,8.90445183 19.0581241,9.34126535 C19.5055145,9.77807886 20.2078169,9.77807886 20.6552074,9.34126535 C21.1025979,8.90445183 21.1380135,8.18417453 20.735745,7.70330579 L20.7260875,7.68545455 L23.9990342,6.27272727 L23.0815661,10.6046281 C22.7792845,12.3269421 22.4771639,14.0490909 22.1752042,15.7710744 L1.82286427,15.768595 Z" id="Path" fill="#FED030"></path>
                            <path d="M10.2360468,5.6861157 C10.1673974,5.56682265 10.0873257,5.45486288 9.99702225,5.35190083 C9.97480987,5.41090909 9.95308036,5.47041322 9.93086797,5.52942149 C10.0363561,5.5735406 10.1383833,5.62592652 10.2360468,5.6861157 L10.2360468,5.6861157 Z M18.2648586,6.94214876 L18.2547181,6.96 C18.003939,7.25964942 17.9143307,7.66757254 18.0155504,8.04876147 C18.11677,8.4299504 18.395619,8.73469987 18.7598085,8.86214876 C18.6279434,8.46356737 18.7109376,8.02310307 18.9780693,7.70380165 L18.9882097,7.68595041 C18.7715585,6.40661157 18.5553901,5.12710744 18.3397046,3.84743802 C18.1803549,4.0831405 18.0206833,4.3185124 17.8606897,4.55355372 L18.2648586,6.94214876 Z M13.3438493,4.78512397 C12.5992515,5.09553719 12.0946441,5.78727273 12.0579454,6.55487603 C12.0531166,6.65752066 12.0241439,7.60561983 12.7822623,8.15702479 C12.8486742,8.2051158 12.918391,8.24820375 12.9908656,8.28595041 C12.8434113,7.97940375 12.7712941,7.6404431 12.7808136,7.29867769 C12.8175124,6.53107438 13.3221198,5.83933884 14.0667176,5.52892562 L12.0120719,0 L11.9869623,0 L11.7754618,0.570247934 L13.3438493,4.78512397 Z" id="Shape" fill="#F8BE32"></path>
                            <path d="M23.0284496,6.69024793 C22.805038,7.74809917 22.5816265,8.80413223 22.358215,9.85834711 L21.5947849,14.2090909 C21.5117594,14.6817987 21.1107841,15.0254558 20.6430325,15.0247934 L1.69248722,15.0247934 L1.82286427,15.768595 L22.17617,15.768595 L23.0825319,10.6021488 L24,6.27024793 L23.0284496,6.69024793 Z M7.13452175,6.34710744 C7.0648661,6.56478005 7.04277378,6.79554024 7.0698161,7.02297521 C7.16639169,7.79801653 7.82407147,8.19966942 7.90133194,8.24528926 C7.91774979,8.25471074 7.93416764,8.2631405 7.94961973,8.27206612 C7.8681001,8.11471697 7.81493445,7.94353798 7.7926844,7.76677686 C7.76564208,7.53934189 7.7877344,7.3085817 7.85739004,7.09090909 L5.6593296,3.84743802 L5.61538771,4.10677686 L7.13452175,6.34710744 Z M2.26807774,7.89619835 C2.32745339,8.34307089 2.62772152,8.71707911 3.04357974,8.86214876 C2.91171465,8.46356737 2.99470886,8.02310307 3.26184057,7.70380165 L3.27149813,7.68595041 L2.34195807,7.28479339 C2.26549652,7.47840246 2.24001589,7.68927032 2.26807774,7.89619835 L2.26807774,7.89619835 Z" id="Shape" fill="#F8BE32"></path>
                            <ellipse id="Oval" fill="#EB304A" cx="11.9995171" cy="12.3719008" rx="1.56935335" ry="1.61157025"></ellipse>
                            <path d="M11.9995171,10.7603305 C11.8775579,10.7603982 11.7560207,10.7750422 11.6373587,10.8039669 C12.3446752,10.9765184 12.8439887,11.6253423 12.8439887,12.3719008 C12.8439887,13.1184593 12.3446752,13.7672833 11.6373587,13.9398347 C12.2255568,14.0833268 12.8417188,13.8670976 13.2213829,13.3839546 C13.6010469,12.9008116 13.6766948,12.2366753 13.4158577,11.6765987 C13.1550206,11.1165221 12.604085,10.7601073 11.9995171,10.7603305 L11.9995171,10.7603305 Z" id="Path" fill="#E4222E"></path>
                            <ellipse id="Oval" fill="#EB304A" cx="20.2567301" cy="12.3719008" rx="1" ry="1"></ellipse>
                            <path d="M20.2567301,11.628097 C20.2042628,11.6282076 20.1519636,11.6341935 20.1007605,11.6459504 C20.4318714,11.7218171 20.6673426,12.0235217 20.6673426,12.3719008 C20.6673426,12.7202799 20.4318714,13.0219845 20.1007605,13.0978512 C20.3721041,13.1600197 20.6541552,13.0572141 20.8266101,12.8332845 C20.999065,12.6093548 21.0314881,12.3038211 20.91005,12.0470031 C20.7886119,11.7901851 20.5347444,11.6274071 20.2567301,11.628097 Z" id="Path" fill="#E4222E"></path>
                            <ellipse id="Oval" fill="#EB304A" cx="3.74230413" cy="12.3719008" rx="1" ry="1"></ellipse>
                            <polygon id="Path" fill="#1CABE1" points="7.65361555 14.047438 6.40730755 12.3719008 7.65361555 10.6963636 8.89992354 12.3719008"></polygon>
                            <path d="M7.65361555,10.6963636 L7.29145708,11.1818182 L7.95203412,12.0694215 C8.08421274,12.2471288 8.08421274,12.4936977 7.95203412,12.671405 L7.29145708,13.5619835 L7.65361555,14.0489256 L8.89992354,12.3719008 L7.65361555,10.6963636 Z" id="Path" fill="#199AD5"></path>
                            <polygon id="Path" fill="#1CABE1" points="16.3454187 14.047438 15.0991107 12.3719008 16.3454187 10.6963636 17.5917267 12.3719008"></polygon>
                            <path d="M16.3454187,10.6963636 L15.9832602,11.1818182 L16.6438373,12.0694215 C16.7760159,12.2471288 16.7760159,12.4936977 16.6438373,12.671405 L15.9832602,13.5619835 L16.3454187,14.0489256 L17.5917267,12.3719008 L16.3454187,10.6963636 Z" id="Path" fill="#199AD5"></path>
                            <ellipse id="Oval" fill="#EB304A" cx="11.9995171" cy="4.76033058" rx="1" ry="1"></ellipse>
                            <ellipse id="Oval" fill="#FFFFFF" cx="11.9995171" cy="12.3966942" rx="1" ry="1"></ellipse>
                            <ellipse id="Oval" fill="#EB304A" cx="22.2785401" cy="8.41487603" rx="1" ry="1"></ellipse>
                            <ellipse id="Oval" fill="#EB304A" cx="1.72049415" cy="8.41487603" rx="1" ry="1"></ellipse>
                            <ellipse id="Oval" fill="#1CABE1" cx="17.5917267" cy="7.38" rx="1" ry="1"></ellipse>
                            <ellipse id="Oval" fill="#1CABE1" cx="6.40730755" cy="7.38" rx="1" ry="1"></ellipse>
                            <path d="M3.74230413,11.628097 C3.68983682,11.6282076 3.63753759,11.6341935 3.58633455,11.6459504 C3.9174454,11.7218171 4.15291661,12.0235217 4.15291661,12.3719008 C4.15291661,12.7202799 3.9174454,13.0219845 3.58633455,13.0978512 C3.85767815,13.1600197 4.13972922,13.0572141 4.31218413,12.8332845 C4.48463903,12.6093548 4.51706217,12.3038211 4.39562403,12.0470031 C4.2741859,11.7901851 4.02031846,11.6274071 3.74230413,11.628097 Z" id="Path" fill="#E4222E"></path>
                        </g>
                    </g>
                </g>
            </g>
        </g>
    </g>
</svg>