<?xml version="1.0" encoding="UTF-8"?>
<svg width="58px" height="70px" viewBox="0 0 58 70" version="1.1" xmlns="http://www.w3.org/2000/svg" xmlns:xlink="http://www.w3.org/1999/xlink">
    <title>A5FF79B9-212D-4067-BDEF-9656ED267340</title>
    <g id="Web" stroke="none" stroke-width="1" fill="none" fill-rule="evenodd">
        <g id="Squad-Information-(Opponent-Team)" transform="translate(-477.000000, -391.000000)" fill-rule="nonzero">
            <g id="Group-19" transform="translate(247.000000, 185.000000)">
                <g id="Group-28" transform="translate(199.000000, 181.000000)">
                    <g id="Cute-monsters" transform="translate(31.500000, 25.500000)">
                        <path d="M19.1804039,10.1386796 C17.3305951,9.99693002 15.5129514,9.57565407 13.7893885,8.889202 C12.7052264,6.10863371 14.3734392,3.59974671 14.4528932,3.48280841 C14.8273074,2.9382154 14.690679,2.19336863 14.1473531,1.81711807 C13.6040271,1.44086751 12.8587234,1.57498058 12.4806408,2.11703325 C11.5478896,3.57061979 11.0440792,5.25783502 11.0270818,6.98486994 C10.850159,6.78232881 10.6900779,6.5656729 10.5484358,6.33706385 C9.2204653,4.15976899 10.1607773,1.69893882 10.1793593,1.65152274 C10.4287567,1.03771661 10.1333451,0.337951878 9.51953896,0.0885544371 C8.90573284,-0.160843004 8.20596809,0.134568577 7.95657062,0.748374683 C7.89762091,0.892545179 6.53248651,4.32123994 8.48039009,7.55322207 C8.72724425,7.95873387 9.01205867,8.33988101 9.33099601,8.69152823 C8.54566602,8.68936832 7.76872839,8.52988477 7.04605385,8.22249355 C6.45314179,7.94018491 5.74344393,8.18712634 5.45383945,8.77650917 C5.16423498,9.365892 5.40239896,10.0785834 5.98816279,10.3754396 C7.53627968,11.0721 9.26464131,11.262907 10.927444,10.9207245 C11.2473378,10.8479001 11.5615845,10.7521807 11.867756,10.6343057 C13.691139,11.608044 16.0506226,12.2386564 18.9462069,12.526143 C18.9859339,12.530308 19.0256609,12.5322312 19.0647471,12.5322312 C19.7052817,12.5330257 20.2334228,12.0304137 20.2643375,11.3906251 C20.2952522,10.7508364 19.8180311,10.1996451 19.1804039,10.1386796 L19.1804039,10.1386796 Z M38.0699426,10.1386796 C39.9197514,9.99693002 41.7373951,9.57565407 43.460958,8.889202 C44.5451201,6.10863371 42.8769073,3.59974671 42.7977737,3.48280841 C42.4233595,2.9382154 42.5599878,2.19336863 43.1033138,1.81711807 C43.6466397,1.44086751 44.3919435,1.57498058 44.7700261,2.11703325 C45.7026643,3.57065371 46.206363,5.25786651 46.2232647,6.98486994 C46.4001875,6.78232881 46.5602686,6.5656729 46.7019107,6.33706385 C48.0302016,4.15976899 47.0895692,1.69893882 47.0709872,1.65152274 C46.8215898,1.03771662 47.1170014,0.337951899 47.7308075,0.0885544616 C48.3446136,-0.160842976 49.0443784,0.134568592 49.2937759,0.748374683 C49.3527256,0.892545179 50.71786,4.32123994 48.7699564,7.55322207 C48.5231022,7.95873387 48.2382878,8.33988101 47.9193505,8.69152823 C48.7046805,8.68936832 49.4816181,8.52988477 50.2042926,8.22249355 C50.7980537,7.93496775 51.5125571,8.1808983 51.803566,8.77296005 C52.094575,9.36502179 51.852846,10.0809576 51.2625041,10.3754396 C49.7142924,11.072168 47.9858076,11.2629762 46.3229025,10.9207245 C46.0030087,10.8479001 45.6887619,10.7521807 45.3825905,10.6343057 C43.5592075,11.608044 41.1997239,12.2386564 38.3041395,12.526143 C38.264749,12.5301028 38.2251884,12.5322312 38.1855994,12.5322312 C37.5450647,12.5330257 37.0169237,12.0304137 36.986009,11.3906251 C36.9550943,10.7508364 37.4323154,10.1996451 38.0699426,10.1386796 L38.0699426,10.1386796 Z" id="Shape" fill="#703700"></path>
                        <path d="M47.9177486,41.7091347 L44.3932605,32.958306 L28.4265383,39.1214345 L12.4594958,32.958306 L8.9353281,41.7091347 C8.9353281,41.7091347 8.41663469,49.9396681 11.0081794,49.8973781 C12.6664605,49.8704663 13.3350912,48.6847441 13.6019668,47.8341381 C13.3033737,49.4969045 12.874066,53.0934778 14.5326675,53.9793254 C16.709642,55.1419804 18.3682434,52.4466329 18.3682434,52.4466329 C18.3682434,52.4466329 20.0268449,56.9043846 22.3076221,56.9043846 C24.5883994,56.9043846 24.588079,55.5818606 24.588079,55.5818606 C24.588079,55.5818606 25.0129014,58.4575814 28.325619,58.5709955 L28.325619,58.5764419 C28.3602199,58.5764419 28.3925782,58.5741993 28.4265383,58.5738789 C28.4604985,58.5741993 28.4925364,58.5764419 28.5271373,58.5764419 L28.5271373,58.5709955 C31.8398549,58.4575814 32.2646773,55.5818606 32.2646773,55.5818606 C32.2646773,55.5818606 32.2646773,56.9043846 34.5454545,56.9043846 C36.8262318,56.9043846 38.4845129,52.4466329 38.4845129,52.4466329 C38.4845129,52.4466329 40.1431143,55.1419804 42.3200888,53.9793254 C43.9786903,53.0934778 43.5493826,49.4972249 43.2507894,47.8341381 C43.5179854,48.6850644 44.1862958,49.8704663 45.8445768,49.8973781 C48.4361216,49.9393477 47.9177486,41.7091347 47.9177486,41.7091347 L47.9177486,41.7091347 Z" id="Path" fill="#EE8622"></path>
                        <path d="M42.7378629,39.2124221 C42.7378629,39.2124221 40.6557205,34.9187044 28.3935393,34.9187044 C16.1313581,34.9187044 14.0492158,39.2124221 14.0492158,39.2124221 C12.9077368,42.3471577 12.7966195,45.7644082 13.7320407,48.9666775 C15.331372,54.1177291 28.3935393,54.0600885 28.3935393,54.0600885 C28.3935393,54.0600885 41.4553862,54.1177291 43.0550379,48.9666775 C43.9904591,45.7644082 43.8793418,42.3471577 42.7378629,39.2124221 L42.7378629,39.2124221 Z" id="Path" fill="#703700"></path>
                        <path d="M45.3873962,58.0292348 L45.3723384,58.0221865 C45.3723384,58.0221865 52.6849863,47.0533748 43.1392976,35.4572613 L47.3215235,33.1915419 C47.3215235,33.1915419 55.1855434,39.8557429 56.7848748,47.8530405 C58.3842062,55.8503381 54.7056159,62.3434568 54.7056159,62.3434568 L52.4139458,66.0982973 C52.2248,66.4112891 51.883043,66.5995974 51.5174113,66.5924936 C51.1517795,66.5849792 50.8178212,66.3831631 50.6413352,66.0628622 C50.4648492,65.7425613 50.4726479,65.3524369 50.6617937,65.0394451 L52.8733691,61.4950935 L52.2444653,61.2038691 L49.901855,65.0423285 C49.6231288,65.512823 49.0238061,65.6811357 48.5408855,65.4245405 C48.2909585,65.2917958 48.1071384,65.0615062 48.0330891,64.7883737 C47.9590399,64.5152412 48.0013695,64.2236399 48.1500233,63.9828355 L50.4131797,60.3561466 L49.773383,60.0601165 L47.447112,63.8719844 C47.257909,64.1849763 46.9160991,64.3732541 46.5504388,64.3658954 C46.1847784,64.3585367 45.8508201,64.1566596 45.6743627,63.8363091 C45.4979054,63.5159586 45.5057569,63.1258037 45.6949599,62.8128119 L47.941777,59.2117533 L47.2234875,58.8795204 L46.1181804,60.7447662 C45.9307092,61.0613638 45.5877421,61.2529873 45.2198566,61.2466801 C44.8519712,61.2403728 44.5157743,61.0371053 44.339266,60.7142674 C44.1627577,60.3914295 44.1730975,59.9986966 44.3663487,59.6855936 L45.3873962,58.0292348 Z" id="Path" fill="#703700"></path>
                        <path d="M51.7533245,57.5589186 C51.7533245,57.5589186 51.2535335,54.1600191 55.7519733,54.0603813 C55.7519733,54.0603813 56.4516808,58.0587097 51.7536449,57.5589186 L51.7533245,57.5589186 Z M54.1055462,53.2296388 C54.1055462,53.2296388 53.6019106,51.3733636 56.0963806,51.0190246 C56.0963806,51.0190246 56.7509146,53.1956787 54.1055462,53.2296388 Z M54.5015345,45.5091486 C54.5015345,45.5091486 52.5792613,45.4674994 52.9444932,42.9749504 C52.9444932,42.9749504 55.2169406,42.9621365 54.5015345,45.5091486 Z M54.2205623,50.6320069 C54.2205623,50.6320069 52.4616822,48.9029221 54.8959209,46.9508536 C54.8959209,46.9508536 57.0264405,48.9378434 54.2205623,50.6320069 Z M34.4368461,51.5976288 C34.4368461,51.5976288 32.6693158,49.877835 35.092982,47.9129513 C35.092982,47.9129513 37.2340741,49.8890483 34.4371665,51.5976288 L34.4368461,51.5976288 Z" id="Shape" fill="#8F4D26"></path>
                        <path d="M52.3428216,48.2647273 C52.3428216,48.2647273 50.2340879,46.9851341 52.1554,44.526867 C52.1554,44.526867 54.685432,45.9717757 52.3425013,48.2647273 L52.3428216,48.2647273 Z M50.8037215,56.1226601 C50.8037215,56.1226601 48.9474463,56.6262957 48.5931072,54.1318258 C48.5931072,54.1318258 50.7697613,53.4772917 50.8037215,56.1226601 Z M51.1538956,48.9250282 C51.1538956,48.9250282 49.2973,49.4286638 48.9432814,46.9345142 C48.9432814,46.9345142 51.1196151,46.2799802 51.1538956,48.9250282 Z M50.4375284,45.9605625 C50.4375284,45.9605625 48.5524191,45.5770689 49.3559294,43.1892851 C49.3559294,43.1892851 51.594737,43.5817493 50.4375284,45.9605625 Z M49.9925222,51.5543777 C49.9925222,51.5543777 48.5924665,51.0283156 49.5023425,49.2931436 C49.5023425,49.2931436 51.1734387,49.8695052 49.9925222,51.5543777 Z M32.299919,52.0884493 C32.299919,52.0884493 30.8274577,51.8254182 31.4076638,49.9537648 C31.4076638,49.9537648 33.155651,50.2171162 32.299919,52.0884493 Z M50.1033733,53.3376065 C50.1033733,53.3376065 48.9830083,53.6659949 48.7369574,52.1560492 C48.7369574,52.1560492 50.0505108,51.7318676 50.1036937,53.3376065 L50.1033733,53.3376065 Z M51.7341018,43.5615654 C51.7341018,43.5615654 49.8493128,43.1777515 50.6525027,40.7902881 C50.6525027,40.7902881 52.8913103,41.1827522 51.7341018,43.5615654 Z M51.7642174,54.7751465 C51.7642174,54.7751465 49.0076775,52.7250421 52.1179157,49.4735169 C52.1179157,49.4735169 55.4402446,51.8061955 51.7642174,54.7751465 Z M37.491018,50.7194703 C37.491018,50.7194703 36.3117033,47.4929346 40.6960883,46.4814985 C40.6960883,46.4814985 42.1932188,50.2549209 37.491018,50.7194703 Z M22.3495918,51.5976288 C22.3495918,51.5976288 24.1177628,49.877835 21.6940966,47.9129513 C21.6940966,47.9129513 19.5526841,49.8890483 22.3495918,51.5976288 Z M24.4868393,52.0884493 C24.4868393,52.0884493 25.9593006,51.8254182 25.3790944,49.9537648 C25.3790944,49.9537648 23.6314277,50.2171162 24.4868393,52.0884493 Z M19.2957403,50.7194703 C19.2957403,50.7194703 20.4753753,47.4929346 16.09067,46.4814985 C16.09067,46.4814985 14.5938599,50.2549209 19.2957403,50.7194703 Z" id="Shape" fill="#8F4D26"></path>
                        <path d="M11.8007968,58.0292348 L11.8158546,58.0221865 C11.8158546,58.0221865 4.50288631,47.0533748 14.0488954,35.4572613 L9.8666695,33.1915419 C9.8666695,33.1915419 2.00264954,39.8557429 0.402997795,47.8530405 C-1.19665395,55.8503381 2.48225672,62.3434568 2.48225672,62.3434568 L4.77392684,66.0982973 C4.96307256,66.4112891 5.30482958,66.5995974 5.67046132,66.5924936 C6.03609306,66.5849793 6.37005137,66.3831632 6.54653738,66.0628622 C6.72302339,65.7425613 6.71522467,65.3524369 6.52607893,65.0394451 L4.31482391,61.4947732 L4.94372765,61.2035488 L7.28633801,65.0420081 C7.56506415,65.5125027 8.16438688,65.6808153 8.64730749,65.4242201 C8.89723451,65.2914754 9.08105458,65.0611858 9.15510384,64.7880533 C9.2291531,64.5149208 9.18682345,64.2233195 9.03816972,63.9825151 L6.77501332,60.3558262 L7.41480994,60.0597962 L9.74108098,63.8716641 C9.93028393,64.1846559 10.2720938,64.3729337 10.6377542,64.365575 C11.0034145,64.3582164 11.3373729,64.1563392 11.5138302,63.8359888 C11.6902876,63.5156383 11.682436,63.1254833 11.4932331,62.8124915 L9.24641599,59.2114329 L9.96470544,58.8792 L11.0700126,60.7444458 C11.2574837,61.0610434 11.6004509,61.252667 11.9683364,61.2463597 C12.3362218,61.2400524 12.6724187,61.0367849 12.848927,60.713947 C13.0254353,60.3911091 13.0150955,59.9983762 12.8218443,59.6852732 L11.8007968,58.0292348 Z" id="Path" fill="#703700"></path>
                        <path d="M47.9994452,27.9052904 L46.7541325,23.6605906 C46.7541325,23.6605906 42.3091959,4.30618213 28.6251732,4.30618213 C14.9411506,4.30618213 10.496214,23.6605906 10.496214,23.6605906 L9.25090129,27.9052904 C9.25090129,27.9052904 2.53608037,34.4570384 5.33523064,37.4557847 C8.1343809,40.454531 12.5325422,34.0568852 12.5325422,34.0568852 C12.5325422,34.0568852 8.22152396,40.351369 12.2326675,41.6543499 C16.2438111,42.9573308 18.8446468,36.9950799 18.8446468,36.9950799 C18.8446468,36.9950799 16.9896531,43.8537509 20.198568,44.447413 C23.1300347,45.1682655 24.6825908,40.2815264 24.9783005,39.2390136 C24.7508315,40.1367152 24.002106,43.9319234 27.0921603,45.5719429 C28.0513735,46.0786083 29.198973,46.0786083 30.1581862,45.5719429 C33.2482405,43.9319234 32.499515,40.1367152 32.272046,39.2390136 C32.5677557,40.2815264 34.1203118,45.1679451 37.0517785,44.447413 C40.260373,43.8537509 38.4056997,36.9954003 38.4056997,36.9954003 C38.4056997,36.9954003 41.0065354,42.9576512 45.017679,41.6543499 C49.0288225,40.3510487 44.7178043,34.0568852 44.7178043,34.0568852 C44.7178043,34.0568852 49.116286,40.4548514 51.9151158,37.4561051 C54.7139457,34.4573588 47.9994452,27.9052904 47.9994452,27.9052904 L47.9994452,27.9052904 Z" id="Path" fill="#F7C53F"></path>
                        <circle id="Oval" fill="#703700" cx="18.3189051" cy="20.7662878" r="1.92868085"></circle>
                        <path d="M40.8604426,20.7662878 C40.8604426,19.7011068 39.9969428,18.8376069 38.9317618,18.8376069 C37.8665808,18.8376069 37.0030809,19.7011068 37.0030809,20.7662878 C37.0030809,21.8314688 37.8665808,22.6949686 38.9317618,22.6949686 C39.9969428,22.6949686 40.8604426,21.8314688 40.8604426,20.7662878 Z M28.6251732,25.3102214 C26.4715864,25.3025323 25.4245882,24.5111965 25.4245882,24.5111965 C25.9806107,25.7561801 27.2310489,26.5443872 28.5940965,26.5090792 L28.5940965,26.5106811 L28.65625,26.5106811 L28.65625,26.5090792 C30.0194127,26.5445182 31.2700111,25.7562899 31.8260786,24.5111965 C31.8260786,24.5111965 30.7787601,25.3025323 28.6254936,25.3102214 L28.6251732,25.3102214 Z" id="Shape" fill="#703700"></path>
                        <path d="M28.6251732,28.6854129 C27.3285999,28.6809276 26.6984147,28.228873 26.6984147,28.228873 C27.0495997,28.9561896 27.7996569,29.405015 28.6065913,29.3707033 L28.6065913,29.3716645 L28.6440756,29.3716645 L28.6440756,29.3707033 C29.4509883,29.4049299 30.2010024,28.9561304 30.5522522,28.228873 C30.5522522,28.228873 29.9217466,28.6809276 28.6251732,28.6854129 L28.6251732,28.6854129 Z" id="Path" fill="#EE8622"></path>
                        <circle id="Oval" fill="#F7C53F" cx="9.25090129" cy="24.5115169" r="4.79799409"></circle>
                        <path d="M11.0402173,22.7942861 C10.4150158,22.9917209 9.82464655,23.2859866 9.29062827,23.6663574 C8.76697315,23.222032 8.13677914,22.9215085 7.46190563,22.7942861 C7.58576507,23.4521155 7.87470555,24.0676987 8.30161868,24.5832818 C7.87465682,25.0989562 7.58571359,25.7146555 7.46190563,26.3725978 C8.13680619,26.2452682 8.76699965,25.9446346 9.29062827,25.5002061 C9.82453578,25.8806461 10.4147936,26.1750183 11.039897,26.3725978 C10.8371449,25.7318476 10.5329839,25.1277441 10.1389915,24.5832818 C10.5330663,24.0389387 10.8373349,23.4349444 11.0402173,22.7942861 L11.0402173,22.7942861 Z" id="Path" fill="#EE8622"></path>
                        <circle id="Oval" fill="#F7C53F" cx="47.9994452" cy="24.5115169" r="4.79799409"></circle>
                        <path d="M46.2101291,22.7942861 C46.8353307,22.9917209 47.4256999,23.2859866 47.9597182,23.6663574 C48.4834641,23.2219822 49.1137746,22.9214558 49.7887612,22.7942861 C49.6648081,23.4521463 49.3757561,24.0677323 48.9487278,24.5832818 C49.3758049,25.0989226 49.6648596,25.7146246 49.7887612,26.3725978 C49.1137476,26.2453208 48.4834376,25.9446843 47.9597182,25.5002061 C47.4258052,25.880637 46.8355489,26.1750085 46.2104495,26.3725978 C46.4132016,25.7318476 46.7173625,25.1277441 47.1113549,24.5832818 C46.7172802,24.0389387 46.4130116,23.4349444 46.2101291,22.7942861 L46.2101291,22.7942861 Z M12.6654994,30.1924752 C12.6654994,30.1924752 10.4942917,33.795456 12.179805,34.7597965 C13.8653183,35.7241369 15.6645661,31.991723 15.6645661,31.991723 C15.6645661,31.991723 13.9213846,34.1273686 12.7321382,33.7249727 C11.5428918,33.3225768 12.6654994,30.1924752 12.6654994,30.1924752 L12.6654994,30.1924752 Z M23.9098369,35.8221728 C23.9098369,35.8221728 23.1409276,39.9579438 25.057434,40.269352 C26.9739405,40.5807603 27.3494245,36.4546007 27.3494245,36.4546007 C27.3494245,36.4546007 26.4664604,39.066009 25.2115363,39.1063767 C23.9566122,39.1467445 23.9098369,35.8224932 23.9098369,35.8224932 L23.9098369,35.8221728 Z M22.6645242,13.6964871 C22.6645242,13.6964871 21.8956149,17.8325784 23.8124417,18.1436663 C25.7292686,18.4547542 26.1041118,14.3292354 26.1041118,14.3292354 C26.1041118,14.3292354 25.2211476,16.9403232 23.966544,16.980691 C22.7119403,17.0210587 22.6645242,13.6968075 22.6645242,13.6968075 L22.6645242,13.6964871 Z M35.1743583,34.3356148 C35.1743583,34.3356148 37.108806,38.0712326 38.8122604,37.1392504 C40.5157149,36.2072682 38.276587,32.7212257 38.276587,32.7212257 C38.276587,32.7212257 39.1842203,35.3243041 38.2189188,36.1268531 C37.2536172,36.9294022 35.1743583,34.3359352 35.1743583,34.3359352 L35.1743583,34.3356148 Z M33.6749851,11.2436664 C33.6749851,11.2436664 35.6091124,14.9792841 37.3125669,14.0473019 C39.0160214,13.1153198 36.7775342,9.62927721 36.7775342,9.62927721 C36.7775342,9.62927721 37.6848472,12.2323556 36.719866,13.0349047 C35.7548848,13.8374538 33.6749851,11.2439868 33.6749851,11.2439868 L33.6749851,11.2436664 Z" id="Shape" fill="#EE8622"></path>
                        <path d="M5.43486847,57.5589186 C5.43486847,57.5589186 5.93465952,54.1600191 1.43621968,54.0603813 C1.43621968,54.0603813 0.736512208,58.0587097 5.43454809,57.5589186 L5.43486847,57.5589186 Z M3.08264674,53.2296388 C3.08264674,53.2296388 3.58628234,51.3733636 1.09181238,51.0190246 C1.09181238,51.0190246 0.437278335,53.1956787 3.08264674,53.2296388 Z M2.68665844,45.5091486 C2.68665844,45.5091486 4.60893172,45.4674994 4.2436998,42.9749504 C4.2436998,42.9749504 1.97125241,42.9621365 2.68665844,45.5091486 Z M2.96763072,50.6320069 C2.96763072,50.6320069 4.72651077,48.9029221 2.29227204,46.9508536 C2.29227204,46.9508536 0.161752499,48.9378434 2.96763072,50.6320069 Z" id="Shape" fill="#8F4D26"></path>
                        <path d="M4.84537133,48.2647273 C4.84537133,48.2647273 6.95410511,46.9851341 5.03279297,44.526867 C5.03279297,44.526867 2.50276097,45.9717757 4.84569171,48.2647273 L4.84537133,48.2647273 Z M6.38447146,56.1226601 C6.38447146,56.1226601 8.24074669,56.6262957 8.59508573,54.1318258 C8.59508573,54.1318258 6.41843163,53.4772917 6.38447146,56.1226601 Z M6.03429735,48.9250282 C6.03429735,48.9250282 7.89089295,49.4286638 8.24491161,46.9345142 C8.24491161,46.9345142 6.06857789,46.2799802 6.03429735,48.9250282 Z M6.7509849,45.9605625 C6.7509849,45.9605625 8.63577385,45.5770689 7.83226362,43.1892851 C7.83226362,43.1892851 5.59345601,43.5817493 6.7509849,45.9605625 Z M7.19567079,51.5543777 C7.19567079,51.5543777 8.59572649,51.0283156 7.68585047,49.2931436 C7.68585047,49.2931436 6.01475424,49.8695052 7.19567079,51.5543777 Z M7.08449931,53.3376065 C7.08449931,53.3376065 8.20518463,53.6659949 8.45123561,52.1560492 C8.45123561,52.1560492 7.13768221,51.7318676 7.08449931,53.3376065 Z M5.4540912,43.5615654 C5.4540912,43.5615654 7.33888014,43.1777515 6.53536992,40.7902881 C6.53536992,40.7902881 4.29688269,41.1827522 5.4540912,43.5615654 Z M5.42397559,54.7751465 C5.42397559,54.7751465 8.18051546,52.7250421 5.0702773,49.4735169 C5.0702773,49.4735169 1.74794833,51.8061955 5.42397559,54.7751465 Z" id="Shape" fill="#8F4D26"></path>
                        <path d="M33.8249224,53.2296388 C33.8249224,53.2296388 33.4250896,65.6468834 33.5250478,67.6460476 C33.625006,69.6452118 36.1239613,69.4456158 37.423418,66.9463402 C38.7228747,64.4470645 40.260373,50.8838247 40.260373,50.8838247 L33.8249224,53.2296388 Z M22.9621562,53.2296388 L16.5263853,50.8838247 C16.5263853,50.8838247 18.0638835,64.4473849 19.3633402,66.9463402 C20.662797,69.4452954 23.1620726,69.6455322 23.2620308,67.6460476 C23.361989,65.646563 22.9621562,53.2296388 22.9621562,53.2296388 L22.9621562,53.2296388 Z" id="Shape" fill="#703700"></path>
                        <path d="M19.5062292,63.7835599 C19.5062292,63.7835599 20.9786905,63.5205288 20.3984844,61.6488754 C20.3984844,61.6488754 18.6508176,61.9122268 19.5062292,63.7835599 Z M19.1631034,60.8764419 C19.1631034,60.8764419 21.5371109,60.2068501 20.3427385,57.3244013 C20.3427385,57.3244013 17.5185986,58.0410888 19.1631034,60.8764419 Z M18.074456,57.6893128 C18.074456,57.6893128 19.9377796,56.0733218 17.6300905,53.9729178 C17.6300905,53.9729178 15.3794289,55.8234262 18.074456,57.6893128 Z M37.280529,63.7835599 C37.280529,63.7835599 35.8080677,63.5205288 36.3882739,61.6488754 C36.3882739,61.6488754 38.1359406,61.9122268 37.280529,63.7835599 Z M37.6236548,60.8764419 C37.6236548,60.8764419 35.2496473,60.2068501 36.4440198,57.3244013 C36.4440198,57.3244013 39.2681596,58.0410888 37.6236548,60.8764419 Z M38.7123022,57.6893128 C38.7123022,57.6893128 36.8492991,56.0733218 39.1569881,53.9729178 C39.1569881,53.9729178 41.4073294,55.8234262 38.7123022,57.6893128 Z" id="Shape" fill="#8F4D26"></path>
                        <path d="M45.9166621,31.1154867 C45.7750546,30.6422871 45.9592725,30.1690875 46.3283489,30.0585568 C46.6974254,29.9480261 47.1113549,30.2421339 47.252642,30.7153335 C47.3939291,31.1885331 47.2100316,31.6617327 46.8409552,31.7722634 C46.4718787,31.8827941 46.0579492,31.5886863 45.9166621,31.1154867 Z M39.6792057,25.9464939 C39.5577821,25.4678478 39.7625042,25.0029781 40.1357456,24.9084663 C40.508987,24.8139546 40.9101013,25.1250424 41.0312046,25.6036885 C41.1523078,26.0823345 40.9479061,26.5475247 40.5746647,26.6420364 C40.2014233,26.7365482 39.8003089,26.4254603 39.6792057,25.9468143 L39.6792057,25.9464939 Z M42.2496054,23.5452542 C42.1285022,23.0662878 42.3329039,22.601418 42.7064657,22.5069062 C43.0800275,22.4123945 43.4808215,22.7238027 43.6019247,23.2024488 C43.7230279,23.6810948 43.5186262,24.1459646 43.1453848,24.2404764 C42.7721434,24.3349881 42.371029,24.0239002 42.2496054,23.5452542 L42.2496054,23.5452542 Z M41.9647886,18.7264355 C41.8436854,18.2477894 42.0480871,17.7829197 42.4213285,17.6884079 C42.7945699,17.5938961 43.1956843,17.904984 43.3171079,18.3836301 C43.4385315,18.8622761 43.2338094,19.3274662 42.8602476,19.421978 C42.4866858,19.5164898 42.0862122,19.2050815 41.9647886,18.7264355 L41.9647886,18.7264355 Z M17.6336147,25.9464939 C17.7547179,25.4678478 17.5503162,25.0029781 17.1767544,24.9084663 C16.8031926,24.8139546 16.4023986,25.1250424 16.2812954,25.6036885 C16.1601922,26.0823345 16.3645939,26.5475247 16.7378353,26.6420364 C17.1110767,26.7365482 17.5121911,26.4254603 17.6336147,25.9468143 L17.6336147,25.9464939 Z M15.0628945,23.5452542 C15.1839978,23.0662878 14.979596,22.601418 14.6063546,22.5069062 C14.2331132,22.4123945 13.8319989,22.7238027 13.7105753,23.2024488 C13.5891517,23.6810948 13.7938738,24.1459646 14.1674356,24.2404764 C14.5409973,24.3349881 14.9414709,24.0239002 15.0628945,23.5452542 Z M15.3477114,18.7264355 C15.4688146,18.2477894 15.2644129,17.7829197 14.8911715,17.6884079 C14.5179301,17.5938961 14.1168157,17.904984 13.9957125,18.3836301 C13.8746093,18.8622761 14.079011,19.3274662 14.4522524,19.421978 C14.8254938,19.5164898 15.2266081,19.2050815 15.3477114,18.7264355 Z" id="Shape" fill="#FFE971"></path>
                        <path d="M10.7256053,45.8186346 C10.6890821,45.3262123 10.9710155,44.9039529 11.3554701,44.8754392 C11.7399248,44.8469255 12.0801672,45.2233707 12.11637,45.7161134 C12.1525728,46.2088561 11.8706394,46.6307951 11.4865051,46.6593088 C11.1023708,46.6878225 10.7614877,46.3113773 10.7252849,45.8186346 L10.7256053,45.8186346 Z M28.628377,56.7755923 C28.5921742,56.2834903 28.8741076,55.8609106 29.2582419,55.8327172 C29.6423762,55.8045239 29.9832593,56.1806487 30.0194621,56.673071 C30.0556649,57.1654934 29.7737315,57.5880731 29.3895972,57.6162664 C29.005463,57.6444598 28.6645798,57.268335 28.628377,56.7759126 L28.628377,56.7755923 Z M45.1903632,45.1099565 C45.1541604,44.6172138 45.4360938,44.1949545 45.820228,44.1667611 C46.2043623,44.1385678 46.5452454,44.5146926 46.5814483,45.0071149 C46.6176511,45.4995372 46.3357177,45.922117 45.9515834,45.9503103 C45.5674491,45.9785037 45.226566,45.6023789 45.1903632,45.1099565 Z" id="Shape" fill="#F7C53F"></path>
                        <path d="M18.0071764,32.9640729 C18.2016464,32.510096 18.6460119,32.2646858 19.000351,32.416225 C19.35469,32.5677642 19.4841231,33.0582642 19.2899735,33.5125615 C19.0958239,33.9668587 18.651138,34.2119486 18.2967989,34.0604094 C17.9424599,33.9088702 17.8130268,33.4183701 18.0071764,32.9640729 L18.0071764,32.9640729 Z" id="Path" fill="#FFE971"></path>
                    </g>
                </g>
            </g>
        </g>
    </g>
</svg>