<?xml version="1.0" encoding="UTF-8"?>
<svg width="14px" height="14px" viewBox="0 0 14 14" version="1.1" xmlns="http://www.w3.org/2000/svg" xmlns:xlink="http://www.w3.org/1999/xlink">
    <title>E3EECF5D-46BD-4136-9A9C-040DA37C29BF</title>
    <g id="Web" stroke="none" stroke-width="1" fill="none" fill-rule="evenodd">
        <g id="Profile---Basic-Details---Edit" transform="translate(-1386.000000, -50.000000)" fill="#000000" fill-rule="nonzero">
            <g id="Group-48" transform="translate(970.000000, 0.000000)">
                <g id="Group-27" transform="translate(0.000000, 48.000000)">
                    <path d="M416.145402,15.8533637 C416.23919,15.9472477 416.366456,16 416.499166,16 C416.631876,16 416.759143,15.9472477 416.852931,15.8533637 L422.998178,9.70865838 L429.145926,15.8533637 C429.272314,15.9797403 429.456528,16.029096 429.629177,15.982839 C429.801826,15.9365819 429.93668,15.8017396 429.982941,15.6291059 C430.029203,15.4564722 429.979842,15.2722743 429.853455,15.1458976 L423.705707,9.0011923 L429.850955,2.85398709 C430.046333,2.65862573 430.046333,2.34188238 429.850955,2.14652102 C429.655576,1.95115966 429.338805,1.95115966 429.143426,2.14652102 L422.998178,8.29372623 L416.850431,2.1490209 C416.652042,1.97914065 416.356314,1.99056237 416.171622,2.17523803 C415.98693,2.3599137 415.975507,2.65561647 416.145402,2.85398709 L422.29065,9.0011923 L416.145402,15.1483975 C415.951533,15.3434069 415.951533,15.6583543 416.145402,15.8533637 Z" id="Path"></path>
                </g>
            </g>
        </g>
    </g>
</svg>