<?xml version="1.0" encoding="UTF-8"?>
<svg width="22px" height="22px" viewBox="0 0 22 22" version="1.1" xmlns="http://www.w3.org/2000/svg" xmlns:xlink="http://www.w3.org/1999/xlink">
    <title>490CDF2D-1E52-4D63-AFEC-2C67A38F7660</title>
    <g id="Web" stroke="none" stroke-width="1" fill="none" fill-rule="evenodd">
        <g id="Login-with-Google-and-LinkedIn" transform="translate(-563.000000, -705.000000)">
            <g id="Group-22" transform="translate(442.000000, 180.000000)">
                <g id="Group-21" transform="translate(50.000000, 50.000000)">
                    <g id="Group-20" transform="translate(0.000000, 461.000000)">
                        <g id="Group-11-Copy" transform="translate(71.000000, 14.000000)">
                            <rect id="Rectangle-Copy-9" fill="#F0F6F7" x="10.4511534" y="10.6129661" width="3.27949985" height="1" rx="0.04"></rect>
                            <text id="Login-with-Google" font-family="Roboto-Medium, Roboto" font-size="0.14" font-weight="400" line-spacing="0.12" fill="#212121">
                                <tspan x="11.8387013" y="10.7221962">Login with Google</tspan>
                            </text>
                            <g id="Google" fill-rule="nonzero">
                                <path d="M22,11.2444351 C22,10.34 21.9251127,9.68 21.7630433,8.99556492 L11.2244898,8.99556492 L11.2244898,13.0777403 L17.4103831,13.0777403 C17.2857143,14.0922175 16.6122449,15.62 15.1156176,16.6466105 L15.0946389,16.7832784 L18.4267346,19.3129835 L18.6575868,19.3355649 C20.77773,17.4166526 22,14.5933052 22,11.2444351" id="Path" fill="#4285F4"></path>
                                <path d="M11.2244898,22 C14.2550591,22 16.7992481,21.0221754 18.6575868,19.3355649 L15.1156176,16.6466105 C14.1677909,17.294393 12.8956534,17.7466105 11.2244898,17.7466105 C8.25625493,17.7466105 5.73699966,15.8277825 4.8389545,13.1755649 L4.70732146,13.1865186 L1.24256091,15.814301 L1.19725025,15.9377403 C3.04303613,19.5310456 6.83442891,22 11.2244898,22" id="Path" fill="#34A853"></path>
                                <path d="M4.8389545,13.1755649 C4.60199783,12.4911298 4.46486216,11.7577403 4.46486216,11 C4.46486216,10.2421754 4.60199783,9.50887016 4.82648762,8.82443508 L4.82021119,8.67866718 L1.31203152,6.00867101 L1.19725025,6.06217541 C0.436512713,7.55330525 0,9.22778246 0,11 C0,12.7722175 0.436512713,14.4466105 1.19725025,15.9377403 L4.8389545,13.1755649" id="Path" fill="#FBBC05"></path>
                                <path d="M11.2244898,4.25330525 C13.3321661,4.25330525 14.7539062,5.14552279 15.5645972,5.89112984 L18.7323881,2.86 C16.7868672,1.08778246 14.2550591,0 11.2244898,0 C6.83442891,0 3.04303613,2.46887016 1.19725025,6.06217541 L4.82648762,8.82443508 C5.73699966,6.17221754 8.25625493,4.25330525 11.2244898,4.25330525" id="Path" fill="#EB4335"></path>
                            </g>
                        </g>
                    </g>
                </g>
            </g>
        </g>
    </g>
</svg>