<?xml version="1.0" encoding="UTF-8"?>
<svg width="499px" height="515px" viewBox="0 0 499 515" version="1.1" xmlns="http://www.w3.org/2000/svg" xmlns:xlink="http://www.w3.org/1999/xlink">
    <title>Group 19</title>
    <defs>
        <linearGradient x1="26.932201%" y1="65.1760585%" x2="87.1169145%" y2="-1.56125113e-14%" id="linearGradient-1">
            <stop stop-color="#0A0101" offset="0%"></stop>
            <stop stop-color="#BF482E" offset="100%"></stop>
        </linearGradient>
        <linearGradient x1="26.932201%" y1="65.1760585%" x2="87.1169145%" y2="-1.56125113e-14%" id="linearGradient-2">
            <stop stop-color="#0A0101" offset="0%"></stop>
            <stop stop-color="#0B98D4" offset="100%"></stop>
        </linearGradient>
    </defs>
    <g id="Web" stroke="none" stroke-width="1" fill="none" fill-rule="evenodd">
        <g id="Group-19">
            <path d="M214.166408,503.69598 L269.389195,286.486247 C270.477853,282.204191 267.889092,277.850367 263.607036,276.761709 C262.962773,276.597913 262.300606,276.515057 261.635847,276.515057 L222.311125,276.515057 C217.892847,276.515057 214.311125,272.933335 214.311125,268.515057 C214.311125,267.929314 214.375455,267.345343 214.502957,266.773645 L270.197997,17.0474714 C271.881069,9.50089047 267.127756,2.01877844 259.581175,0.335706458 C258.580704,0.112577031 257.558754,-4.74043722e-15 256.533704,0 L20,0 C8.954305,2.02906125e-15 5.75271986e-15,8.954305 0,20 L0,495 C1.3527075e-15,506.045695 8.954305,515 20,515 L199.628879,515 C206.489622,515 212.47593,510.345197 214.166408,503.69598 Z" id="Path-8-Copy" fill="url(#linearGradient-1)"></path>
            <path d="M437.716695,504.078912 L491.610435,265.020467 C492.582113,260.71036 489.875782,256.428628 485.565674,255.45695 C484.988266,255.326778 484.398195,255.261089 483.806296,255.261089 L445.498116,255.261089 C441.079838,255.261089 437.498116,251.679367 437.498116,247.261089 C437.498116,246.607684 437.578166,245.956741 437.736476,245.322804 L494.656763,17.391998 C496.530112,9.89038618 491.967503,2.29047905 484.465891,0.417130286 C483.356503,0.140086916 482.217351,1.451047e-14 481.073893,0 L245,0 C233.954305,2.02906125e-15 225,8.954305 225,20 L225,495 C225,506.045695 233.954305,515 245,515 L424.059452,515 C430.605162,515 436.277148,510.464366 437.716695,504.078912 Z" id="Path-8-Copy-2" fill="url(#linearGradient-2)" transform="translate(362.000000, 257.500000) scale(-1, -1) translate(-362.000000, -257.500000) "></path>
        </g>
    </g>
</svg>