<?xml version="1.0" encoding="UTF-8"?>
<svg width="22px" height="22px" viewBox="0 0 22 22" version="1.1" xmlns="http://www.w3.org/2000/svg" xmlns:xlink="http://www.w3.org/1999/xlink">
    <title>613494BB-33DB-4644-A2A0-7702CEA590B9</title>
    <g id="Web" stroke="none" stroke-width="1" fill="none" fill-rule="evenodd">
        <g id="Profile-Listing" transform="translate(-1178.000000, -188.000000)" fill="#212121" fill-rule="nonzero">
            <g id="Group-44" transform="translate(1153.000000, 67.961720)">
                <g id="Group-42" transform="translate(26.000000, 29.038280)">
                    <g id="Group-38" transform="translate(0.000000, 92.000000)">
                        <path d="M16.836147,3.68713173 C16.7217992,3.68713173 16.6096253,3.64061 16.5287557,3.55974043 C16.4478862,3.47887087 16.4013644,3.36669695 16.4013644,3.25234913 C16.4013644,3.1380013 16.4478862,3.02582739 16.5287557,2.94495782 C16.6096253,2.86413173 16.7217992,2.81756652 16.836147,2.81756652 C16.9504949,2.81756652 17.0626688,2.86408826 17.1435383,2.94495782 C17.2244079,3.02582739 17.2709296,3.1380013 17.2709296,3.25234913 C17.2709296,3.36713173 17.2244079,3.47887087 17.1435383,3.55974043 C17.0626688,3.64061 16.9504949,3.68713173 16.836147,3.68713173 Z" id="XMLID_919_" stroke="#FFFFFF" stroke-width="0.1"></path>
                        <path d="M9.99973639,20 C7.92600587,20 5.89949346,19.3573025 4.21096745,18.1565408 L1.63033543,18.8480186 C1.4955158,18.8841059 1.35175246,18.8455972 1.25305918,18.746943 C1.15440496,18.6482887 1.11585717,18.5044473 1.15198352,18.3697058 L1.84346136,15.7890737 C0.507840959,13.9108942 -0.137356101,11.6142348 0.0244508856,9.30000041 C0.192428643,6.89816453 1.22365038,4.6366551 2.92818915,2.93207728 C6.34023491,-0.479929423 11.6960735,-0.972302263 15.6632153,1.7613883 C15.8408007,1.88378828 15.8855973,2.1269479 15.7631974,2.30457237 C15.6408364,2.48227495 15.3975987,2.52699351 15.2199742,2.40459353 C11.5632457,-0.115268106 6.62612126,0.338869388 3.48059032,3.48440033 C0.277569659,6.68742099 -0.108415966,11.8435297 2.5827822,15.4779185 C2.6536289,15.5736045 2.6769841,15.6964341 2.6461693,15.8114135 L2.08158282,17.9184584 L4.18858864,17.3538719 C4.30356807,17.3230961 4.42639765,17.3464123 4.52208366,17.4172199 C8.15658961,20.1084572 13.3126983,19.7224715 16.5156409,16.5194509 C19.6612499,13.3738809 20.1153093,8.43663926 17.5953305,4.77983261 C17.4729305,4.60220814 17.5176881,4.35900947 17.6953126,4.23660949 C17.872898,4.11424857 18.1161357,4.15900619 18.2385357,4.3365916 C20.9723825,8.30377241 20.4801268,13.6597282 17.068003,17.071813 C15.3634251,18.7763908 13.1019548,19.8076125 10.7000798,19.9755903 C10.4664107,19.9918765 10.2326244,20 9.99973639,20 L9.99973639,20 Z" id="XMLID_918_" stroke="#212121" stroke-width="0.5"></path>
                        <path d="M9.93373258,13.0635848 C9.2533465,13.0635848 8.70242945,12.5127068 8.70242945,11.8355624 C8.70242945,10.5475506 9.42370664,9.38443843 10.584788,8.80012891 C11.0978993,8.54189387 11.4123743,8.00339647 11.3859337,7.428265 C11.3541034,6.73596699 10.6946511,6.07655372 10.0023922,6.04468442 C9.59961267,6.02640645 9.21741543,6.16845134 8.92711581,6.44570642 C8.75398272,6.61106746 8.62814586,6.80732141 8.55304211,7.02896144 C8.3825648,7.53238699 7.91729649,7.87408367 7.39528051,7.87923899 L7.39528051,7.87927805 C7.39117968,7.8793171 7.38707886,7.8793171 7.38297803,7.8793171 C6.99089974,7.8793171 6.61928654,7.69106954 6.38686719,7.37401689 C6.1516749,7.05321491 6.08719425,6.65359891 6.20994572,6.27757244 C6.40780095,5.67146995 6.76004261,5.11465552 7.22851348,4.66719651 C8.00927222,3.92154868 9.03416697,3.53853127 10.1153798,3.5880146 C11.0628665,3.6315615 11.973641,4.04449543 12.6798819,4.75073625 C13.3861227,5.45697708 13.7990176,6.36771257 13.8426035,7.3152774 C13.9136064,8.85800918 13.0687966,10.3031803 11.6903323,10.9969624 C11.3642579,11.1610346 11.1616769,11.4824224 11.1616769,11.8356014 C11.161755,12.5127068 10.610877,13.0635848 9.93373258,13.0635848 Z M9.93103775,5.26193385 C9.96673448,5.26193385 10.0024703,5.26275402 10.0384013,5.2644334 C11.1410166,5.31512746 12.1154906,6.28960154 12.1661847,7.39233392 C12.2068024,8.27483228 11.723881,9.10128597 10.9359361,9.49785564 C10.0400417,9.94867341 9.48353969,10.8444506 9.48353969,11.8355233 C9.48353969,12.0819636 9.68401163,12.2824355 9.93045191,12.2824355 C10.1801338,12.2824355 10.3806057,12.0819245 10.3806057,11.8355233 C10.3806057,11.1854053 10.7479228,10.5967215 11.3392233,10.2991576 C12.4428149,9.74371008 13.1191783,8.58649526 13.0623525,7.35113036 C13.0277493,6.5985697 12.6957774,5.87119984 12.1275588,5.30305931 C11.5593402,4.73487972 10.8320094,4.40290786 10.0795268,4.36826562 C9.21393949,4.32897578 8.39295357,4.63521005 7.76802632,5.23205639 C7.38715697,5.59581942 7.11275294,6.02914033 6.95254723,6.51999001 C6.90880505,6.6538723 6.93227742,6.79681548 7.0168326,6.91218546 C7.10361395,7.03056272 7.23675419,7.09820686 7.38270464,7.09820686 C7.38430591,7.09820686 7.38559475,7.0973867 7.38750847,7.09816781 C7.5779822,7.09629314 7.7490844,6.96776145 7.81321355,6.77838127 C7.92748998,6.44094165 8.12612631,6.13060655 8.38756391,5.88088561 C8.80787933,5.47947305 9.35246939,5.26193385 9.93103775,5.26193385 L9.93103775,5.26193385 Z" id="XMLID_915_" stroke="#212121" stroke-width="0.2"></path>
                        <path d="M9.93209224,16.4199374 C9.2540495,16.4199374 8.70242945,15.8683174 8.70242945,15.1903137 C8.70242945,14.5122709 9.2540495,13.9606509 9.93209224,13.9606509 C10.610135,13.9606509 11.161755,14.5122709 11.161755,15.1903137 C11.161755,15.8683174 10.610135,16.4199374 9.93209224,16.4199374 L9.93209224,16.4199374 Z" id="XMLID_912_-path" stroke="#FFFFFF" stroke-width="0.9"></path>
                    </g>
                </g>
            </g>
        </g>
    </g>
</svg>