<?xml version="1.0" encoding="UTF-8"?>
<svg width="16px" height="16px" viewBox="0 0 16 16" version="1.1" xmlns="http://www.w3.org/2000/svg" xmlns:xlink="http://www.w3.org/1999/xlink">
    <title>A314711D-1A5D-4AED-ACBC-94E15A38800F</title>
    <g id="Web" stroke="none" stroke-width="1" fill="none" fill-rule="evenodd" stroke-linecap="round" stroke-linejoin="round">
        <g id="Individual---Leaderboard" transform="translate(-671.000000, -32.000000)" stroke="#777777">
            <g id="menu/Item" transform="translate(650.000000, 20.000000)">
                <g id="menu/icon/home/inactive" transform="translate(22.000000, 13.000000)">
                    <path d="M4.90531646,13.1399816 L4.90531646,10.993269 C4.90530338,10.4472474 5.373876,10.003579 5.95443038,9.99991447 L8.08101265,9.99991447 C8.66433724,9.99991447 9.13721517,10.4446544 9.13721517,10.993269 L9.13721517,10.993269 L9.13721517,13.1466484 C9.13707981,13.6102401 9.5305042,13.9891346 10.0232912,14 L11.4410127,14 C12.8543023,14 14,12.9224756 14,11.5932818 L14,11.5932818 L14,5.48648457 C13.992453,4.96357884 13.7314024,4.47254443 13.2911393,4.15312272 L8.44253163,0.479710808 C7.59310978,-0.159903603 6.38562441,-0.159903603 5.53620253,0.479710808 L0.708860759,4.15978952 C0.266927392,4.47791574 0.00544282375,4.96976628 0,5.49315138 L0,11.5932818 C0,12.9224756 1.14569766,14 2.55898734,14 L3.97670886,14 C4.48173481,14 4.89113924,13.6149567 4.89113924,13.1399816 L4.89113924,13.1399816" id="Path"></path>
                </g>
            </g>
        </g>
    </g>
</svg>