<?xml version="1.0" encoding="UTF-8"?>
<svg width="20px" height="16px" viewBox="0 0 20 16" version="1.1" xmlns="http://www.w3.org/2000/svg" xmlns:xlink="http://www.w3.org/1999/xlink">
    <title>D7B6E40B-3863-4FD4-A60E-E92B609B8DAA</title>
    <defs>
        <linearGradient x1="43.6381315%" y1="41.4290971%" x2="119.071736%" y2="106.505074%" id="linearGradient-1">
            <stop stop-color="#FF6633" offset="0%"></stop>
            <stop stop-color="#DE5020" offset="100%"></stop>
        </linearGradient>
        <linearGradient x1="43.6381315%" y1="15.5851292%" x2="50%" y2="71.8425507%" id="linearGradient-2">
            <stop stop-color="#FF6633" offset="0%"></stop>
            <stop stop-color="#DE5020" offset="100%"></stop>
        </linearGradient>
    </defs>
    <g id="Web" stroke="none" stroke-width="1" fill="none" fill-rule="evenodd">
        <g id="Learn-tab" transform="translate(-780.000000, -32.000000)">
            <g id="menu/Item-Copy" transform="translate(760.000000, 20.000000)">
                <g id="Group-29" transform="translate(20.500000, 13.000000)">
                    <polygon id="Path-4" fill="url(#linearGradient-1)" points="9.7156046 7.353144 4.9946301 5.5550718 1.11119764 4.08599755 0.841405335 3.60335475 9.49988717 0.295603762 17.8875071 3.60335475 16.7581335 4.46909738"></polygon>
                    <polygon id="Path-5" fill="url(#linearGradient-2)" points="9.36445623 13.4350704 5.30757766 11.1496135 4.68521448 9.55523757 4.68521448 5.51811907 9.36445623 7.08365067 14.2278845 5.51811907 14.2278845 8.28829014 14.2278845 10.9488845 11.4409675 12.6148383"></polygon>
                    <g id="Graduation" fill="#212121" fill-rule="nonzero" stroke="#212121" stroke-width="0.3">
                        <path d="M18.7880367,3.4858467 L9.61202163,0.0205974803 C9.53985801,-0.00686582678 9.46034839,-0.00686582678 9.38796871,0.0205974803 L0.211953633,3.4858467 C0.0844789709,3.53390749 0,3.65837828 0,3.79768812 C0,3.93677648 0.0846950296,4.0610258 0.211953633,4.10930807 L1.44867391,4.57618429 L2.09685016,4.82113927 L4.34926262,5.67183735 C4.3488305,5.69132744 4.34645385,5.71037457 4.34645385,5.73008614 L4.34645385,10.1855648 C4.34645385,11.4927296 5.62379318,11.9786529 6.85900105,12.4484084 C7.79086243,12.8027736 8.75426839,13.1690987 9.23629546,13.8607754 L9.23735008,13.8622898 C9.33835559,14.0073283 9.53781373,14.0430242 9.6828523,13.9420187 C9.69591059,13.9329248 9.70827243,13.9228697 9.71983494,13.9119369 L9.71983494,13.9119369 L9.71983494,13.9119369 C10.5423706,13.1341051 11.4956218,12.8235926 12.3365225,12.5498454 C13.5278704,12.1618155 14.6533204,11.7954904 14.6533204,10.1857862 L14.6533204,5.73008614 C14.6533204,5.71037457 14.6511598,5.69132744 14.6507277,5.67183735 L18.7878206,4.10930807 C18.9152953,4.0610258 19,3.93677648 19,3.79768812 C19.0004225,3.65837828 18.9155114,3.53390749 18.7880367,3.4858467 Z M12.1405572,11.9161961 C11.3586406,12.1708961 10.4036609,12.4820731 9.53899377,13.1947902 C8.92214604,12.5239325 7.98963648,12.1691243 7.08435032,11.824947 C5.78410877,11.330829 4.9946301,10.973363 4.9946301,10.1853433 L4.9946301,5.91568494 L9.38796871,7.57500024 C9.42405052,7.58873189 9.46207686,7.59537624 9.5001032,7.59537624 C9.53812954,7.59537624 9.57593982,7.58873189 9.61202163,7.57500024 L14.0051442,5.91568494 L14.0051442,10.1855648 C14.0053602,11.2612848 13.4001797,11.5062398 12.1405572,11.9161961 Z M9.42943873,6.88254781 L1.5092625,3.89123829 C1.45759617,3.87172484 1.43153111,3.81402222 1.45104457,3.76235589 C1.46119103,3.73549082 1.48239743,3.71428441 1.5092625,3.70413795 L9.42943873,0.712828431 C9.4749785,0.695628871 9.52522789,0.695628871 9.57076766,0.712828431 L17.4909439,3.70413795 C17.5426102,3.72365141 17.5686753,3.78135402 17.5491618,3.83302035 C17.5390154,3.85988543 17.517809,3.88109183 17.4909439,3.89123829 L9.57076766,6.88254781 C9.52522789,6.89974737 9.4749785,6.89974737 9.42943873,6.88254781 Z" id="Shape"></path>
                    </g>
                </g>
            </g>
        </g>
    </g>
</svg>