<?xml version="1.0" encoding="UTF-8"?>
<svg width="22px" height="22px" viewBox="0 0 22 22" version="1.1" xmlns="http://www.w3.org/2000/svg" xmlns:xlink="http://www.w3.org/1999/xlink">
    <title>35139B9E-B4A6-472E-AD38-7C4D78657981</title>
    <g id="Web" stroke="none" stroke-width="1" fill="none" fill-rule="evenodd">
        <g id="Login-with-Google-and-LinkedIn" transform="translate(-797.000000, -705.000000)" fill-rule="nonzero">
            <g id="Group-22" transform="translate(442.000000, 180.000000)">
                <g id="Group-21" transform="translate(50.000000, 50.000000)">
                    <g id="Group-20" transform="translate(0.000000, 461.000000)">
                        <g id="Group-17" transform="translate(238.000000, 0.000000)">
                            <g id="linkedin-(5)" transform="translate(67.000000, 14.000000)">
                                <rect id="Rectangle" fill="#117EB8" x="0" y="0" width="22" height="22" rx="4"></rect>
                                <path d="M4.01469444,8.50911111 L6.95505556,8.50911111 L6.95505556,17.9697222 L4.01469444,17.9697222 L4.01469444,8.50911111 Z M5.48533333,3.80630556 C6.42552778,3.80630556 7.18941667,4.57019444 7.18941667,5.51038889 C7.18941667,6.4515 6.42552778,7.21569444 5.48533333,7.21569444 C4.86861124,7.22737183 4.29367294,6.90503705 3.98189161,6.37280129 C3.67011028,5.84056554 3.67011028,5.18143446 3.98189161,4.64919871 C4.29367294,4.11696295 4.86861124,3.79462817 5.48533333,3.80630556 Z M8.79938889,8.50880556 L11.6196667,8.50880556 L11.6196667,9.80161111 L11.6587778,9.80161111 C12.0514167,9.05788889 13.0105556,8.27383333 14.4408611,8.27383333 C17.4181944,8.27383333 17.9681944,10.2333611 17.9681944,12.7807778 L17.9681944,17.9697222 L15.0296667,17.9697222 L15.0296667,13.3689722 C15.0296667,12.2720278 15.0095,10.8606667 13.5018889,10.8606667 C11.9719722,10.8606667 11.737,12.0556944 11.737,13.2898333 L11.737,17.9697222 L8.79908333,17.9697222 L8.79908333,8.50911111 L8.79938889,8.50880556 Z" id="Shape" fill="#FFFFFF"></path>
                            </g>
                        </g>
                    </g>
                </g>
            </g>
        </g>
    </g>
</svg>