<?xml version="1.0" encoding="UTF-8"?>
<svg width="18px" height="22px" viewBox="0 0 18 22" version="1.1" xmlns="http://www.w3.org/2000/svg" xmlns:xlink="http://www.w3.org/1999/xlink">
    <title>4A75AB1E-F58A-433C-8200-0E88344E6411</title>
    <g id="Web" stroke="none" stroke-width="1" fill="none" fill-rule="evenodd">
        <g id="Profile-Listing" transform="translate(-1180.000000, -234.000000)" fill="#212121" fill-rule="nonzero" stroke="#FFFFFF" stroke-width="0.7">
            <g id="Group-44" transform="translate(1153.000000, 67.961720)">
                <g id="Group-42" transform="translate(26.000000, 29.038280)">
                    <g id="Group-41" transform="translate(2.000000, 138.000000)">
                        <g id="Group-39" transform="translate(8.000000, 10.000000) scale(-1, 1) translate(-8.000000, -10.000000) ">
                            <path d="M12.999968,0 L6.9999039,0 C6.44761326,0 5.99989323,0.44771525 5.99989323,1 C5.99989323,1.55228475 6.44761326,2 6.9999039,2 L12.999968,2 C13.5522586,2 13.9999786,2.44771525 13.9999786,3 L13.9999786,17 C13.9999786,17.5522847 13.5522586,18 12.999968,18 L6.9999039,18 C6.44761326,18 5.99989323,18.4477153 5.99989323,19 C5.99989323,19.5522847 6.44761326,20 6.9999039,20 L12.999968,20 C14.6568399,20 16,18.6568542 16,17 L16,3 C16,1.34314575 14.6568399,0 12.999968,0 Z" id="Path"></path>
                            <path d="M5.70684739,13.293 C5.96680675,13.5440745 6.07106387,13.9158779 5.97954746,14.2655073 C5.88803104,14.6151368 5.61498316,14.8881817 5.26535,14.9796972 C4.91571683,15.0712126 4.54390944,14.9669566 4.29283229,14.707 L0.29278958,10.707 C-0.0975965267,10.3165001 -0.0975965267,9.68349985 0.29278958,9.293 L4.29283229,5.293 C4.54390944,5.03304342 4.91571683,4.9287874 5.26535,5.02030284 C5.61498316,5.11181828 5.88803104,5.38486324 5.97954746,5.73449268 C6.07106387,6.08412211 5.96680675,6.45592553 5.70684739,6.707 L3.4138229,9 L10.9999466,9 C11.5522373,9 11.9999573,9.44771525 11.9999573,10 C11.9999573,10.5522847 11.5522373,11 10.9999466,11 L3.4138229,11 L5.70684739,13.293 Z" id="Path"></path>
                        </g>
                    </g>
                </g>
            </g>
        </g>
    </g>
</svg>