<?xml version="1.0" encoding="UTF-8"?>
<svg width="20px" height="24px" viewBox="0 0 20 24" version="1.1" xmlns="http://www.w3.org/2000/svg" xmlns:xlink="http://www.w3.org/1999/xlink">
    <title>4C6A2D5A-4DB0-40E6-A0C6-557924398EF1</title>
    <g id="Web" stroke="none" stroke-width="1" fill="none" fill-rule="evenodd">
        <g id="Login-with-Google-and-LinkedIn" transform="translate(-493.000000, -441.000000)" fill="#727A92" fill-rule="nonzero" stroke="#727A92" stroke-width="0.6">
            <g id="Group-22" transform="translate(442.000000, 180.000000)">
                <g id="Group-21" transform="translate(50.000000, 50.000000)">
                    <g id="Group-15" transform="translate(0.000000, 131.000000)">
                        <g id="Shape-2" transform="translate(2.000000, 81.000000)">
                            <path d="M14.625,7.7 L14.625,5.5 C14.625,2.46244504 12.1065903,0 9,0 C5.8934097,0 3.375,2.46244504 3.375,5.5 L3.375,7.7 C1.51185611,7.70201421 0.0020599875,9.17825931 0,11 L0,18.7 C0.0020599875,20.5217407 1.51185611,21.9979858 3.375,22 L14.625,22 C16.4881439,21.9979858 17.99794,20.5217407 18,18.7 L18,11 C17.99794,9.17825931 16.4881439,7.70201421 14.625,7.7 Z M4.5,5.5 C4.5,3.06991575 6.51468656,1.1 9,1.1 C11.4853134,1.1 13.5,3.06991575 13.5,5.5 L13.5,7.7 L4.5,7.7 L4.5,5.5 Z M16.875,18.7 C16.8734207,19.9144043 15.8670044,20.8984558 14.625,20.9 L3.375,20.9 C2.13299561,20.8984558 1.12657928,19.9144043 1.125,18.7 L1.125,11 C1.12657928,9.78559571 2.13299561,8.80154418 3.375,8.8 L14.625,8.8 C15.8670044,8.80154418 16.8734207,9.78559571 16.875,11 L16.875,18.7 Z M9,12.1 C8.06801603,12.1 7.3125,12.8387268 7.3125,13.75 C7.3125,14.4673767 7.78360748,15.071759 8.4375,15.2990234 L8.4375,17.0506042 C8.43770599,17.3542053 8.68949887,17.6002014 9,17.6 L9.0006867,17.6 C9.31111909,17.5997986 9.5627061,17.3536011 9.5625,17.05 L9.5625,15.2984863 C10.2159806,15.0708191 10.686676,14.4669738 10.6875,13.75 C10.6875,12.8387268 9.93198397,12.1 9,12.1 Z M9,14.3 C8.68936162,14.3 8.4375,14.0537353 8.4375,13.75 C8.4375,13.4462647 8.68936162,13.2 9,13.2 C9.31043239,13.2006042 9.56188204,13.4464661 9.5625,13.75 C9.5625,14.0537353 9.31063837,14.3 9,14.3 Z" id="Shape"></path>
                        </g>
                    </g>
                </g>
            </g>
        </g>
    </g>
</svg>