<?xml version="1.0" encoding="UTF-8"?>
<svg width="24px" height="24px" viewBox="0 0 24 24" version="1.1" xmlns="http://www.w3.org/2000/svg" xmlns:xlink="http://www.w3.org/1999/xlink">
    <title>82DE6AF6-1244-4B91-8D7C-159E5770B027</title>
    <g id="Web" stroke="none" stroke-width="1" fill="none" fill-rule="evenodd">
        <g id="Login-with-Google-and-LinkedIn" transform="translate(-491.000000, -360.000000)" fill="#727A92" fill-rule="nonzero" stroke="#FFFFFF">
            <g id="Group-22" transform="translate(442.000000, 180.000000)">
                <g id="Group-21" transform="translate(50.000000, 50.000000)">
                    <g id="Group-7" transform="translate(0.000000, 131.000000)">
                        <path d="M20.7133929,18.4200893 C19.5397321,19.6625 18.1450893,20.5709821 16.5294643,21.140625 C14.9138393,21.7151786 13.2098214,22 11.4174107,22 C9.70357143,22 8.14196429,21.7299107 6.7375,21.1848214 C5.33303571,20.6446429 4.12991071,19.8883929 3.13794643,18.9209821 C2.14107143,17.9535714 1.37008929,16.7946429 0.820089286,15.4441964 C0.270089286,14.09375 0,12.6205357 0,11.0245536 C0,9.44821429 0.299553571,7.98973214 0.898660714,6.64910714 C1.49776786,5.30848214 2.31294643,4.14464286 3.34910714,3.15758929 C4.38526786,2.17053571 5.59330357,1.39955357 6.98303571,0.834821429 C8.36294643,0.279910714 9.84598214,0 11.4174107,0 C12.7727679,0 14.0888393,0.196428571 15.3607143,0.589285714 C16.6375,0.982142857 17.7669643,1.57633929 18.7540179,2.36205357 C19.7410714,3.15267857 20.5267857,4.13482143 21.1160714,5.31830357 C21.7053571,6.50178571 22,7.89151786 22,9.4875 C22,10.6709821 21.8379464,11.7169643 21.5089286,12.6205357 C21.1799107,13.5290179 20.7428571,14.2852679 20.1928571,14.8991071 C19.6428571,15.5129464 19.0191964,15.9696429 18.3120536,16.2741071 C17.6049107,16.5785714 16.8633929,16.7308036 16.0875,16.7308036 C15.2919643,16.7308036 14.6535714,16.5441964 14.1723214,16.1709821 C13.6959821,15.7977679 13.4553571,15.3214286 13.4553571,14.7517857 L13.3080357,14.7517857 C13.0084821,15.2232143 12.5517857,15.675 11.9330357,16.0973214 C11.3142857,16.5196429 10.5580357,16.7357143 9.659375,16.7357143 C8.30401786,16.7357143 7.25803571,16.29375 6.52142857,15.4049107 C5.78482143,14.5160714 5.41651786,13.3669643 5.41651786,11.9428571 C5.41651786,11.1129464 5.55401786,10.2977679 5.83392857,9.4875 C6.11383929,8.67723214 6.51160714,7.96026786 7.02723214,7.32678571 C7.54285714,6.69821429 8.16160714,6.1875 8.87857143,5.80446429 C9.59553571,5.42142857 10.3910714,5.22991071 11.2700893,5.22991071 C12.0263393,5.22991071 12.6647321,5.38705357 13.1852679,5.70133929 C13.7008929,6.015625 14.0397321,6.40357143 14.2017857,6.85535714 L14.23125,6.85535714 L14.471875,5.671875 L17.1334821,5.671875 L15.9598214,11.2651786 C15.9205357,11.5401786 15.8665179,11.8446429 15.7977679,12.1834821 C15.7290179,12.5174107 15.6946429,12.8316964 15.6946429,13.13125 C15.6946429,13.4651786 15.7584821,13.7450893 15.8910714,13.9758929 C16.01875,14.2017857 16.2741071,14.3147321 16.6522321,14.3147321 C17.428125,14.3147321 18.0714286,13.9022321 18.5821429,13.0723214 C19.0879464,12.2424107 19.3433036,11.1325893 19.3433036,9.73303571 C19.3433036,8.54955357 19.1419643,7.49866071 18.7441964,6.58526786 C18.3464286,5.66696429 17.7915179,4.90089286 17.084375,4.27723214 C16.3772321,3.65848214 15.5325893,3.18705357 14.5602679,2.87276786 C13.5830357,2.55848214 12.5174107,2.40133929 11.3633929,2.40133929 C10.10625,2.40133929 8.95714286,2.62232143 7.91116071,3.06428571 C6.86517857,3.50625 5.97142857,4.12008929 5.23482143,4.89598214 C4.49821429,5.67678571 3.92366071,6.59017857 3.51607143,7.64598214 C3.10357143,8.696875 2.89732143,9.83616071 2.89732143,11.0589286 C2.89732143,12.3602679 3.11339286,13.5339286 3.540625,14.5799107 C3.96785714,15.6258929 4.571875,16.5147321 5.34776786,17.25625 C6.12366071,17.9977679 7.05178571,18.5625 8.12723214,18.9553571 C9.20267857,19.3482143 10.3910714,19.5446429 11.6825893,19.5446429 C13.2982143,19.5446429 14.6879464,19.2892857 15.8517857,18.7736607 C17.015625,18.2629464 18.0861607,17.5508929 19.0633929,16.6424107 L20.7133929,18.4200893 Z M11.3584821,7.66071429 C10.8821429,7.66071429 10.4598214,7.79821429 10.1013393,8.07321429 C9.74285714,8.34821429 9.43839286,8.696875 9.18794643,9.12410714 C8.9375,9.54642857 8.75089286,10.0178571 8.61830357,10.5285714 C8.490625,11.0392857 8.421875,11.5352679 8.421875,12.0066964 C8.421875,12.2424107 8.44642857,12.4928571 8.49553571,12.7629464 C8.54464286,13.028125 8.64285714,13.2736607 8.79508929,13.5044643 C8.94241071,13.7303571 9.13883929,13.9169643 9.37946429,14.0642857 C9.62008929,14.2116071 9.93928571,14.2852679 10.3370536,14.2852679 C10.8772321,14.2852679 11.3339286,14.1526786 11.7120536,13.8875 C12.0901786,13.6223214 12.3995536,13.2883929 12.6401786,12.8808036 C12.8808036,12.478125 13.0526786,12.0361607 13.165625,11.5647321 C13.2736607,11.0933036 13.3276786,10.65625 13.3276786,10.2633929 C13.3276786,9.94910714 13.2982143,9.63973214 13.2392857,9.33035714 C13.1803571,9.02589286 13.0772321,8.75089286 12.925,8.50044643 C12.7776786,8.25491071 12.5714286,8.05357143 12.3111607,7.89642857 C12.0558036,7.73928571 11.7366071,7.66071429 11.3584821,7.66071429 L11.3584821,7.66071429 Z" id="Shape"></path>
                    </g>
                </g>
            </g>
        </g>
    </g>
</svg>