<?xml version="1.0" encoding="UTF-8"?>
<svg width="46px" height="50px" viewBox="0 0 46 50" version="1.1" xmlns="http://www.w3.org/2000/svg" xmlns:xlink="http://www.w3.org/1999/xlink">
    <title>0084D032-BED8-4086-BA4F-7119D7085134</title>
    <g id="Web" stroke="none" stroke-width="1" fill="none" fill-rule="evenodd">
        <g id="Logout-confirmation-popup" transform="translate(-697.000000, -314.000000)" fill-rule="nonzero">
            <g id="Group-29-Copy" transform="translate(372.000000, 229.000000)">
                <g id="Group-28" transform="translate(132.000000, 85.000000)">
                    <g id="Group-27" transform="translate(59.000000, 0.000000)">
                        <g id="logout-(1)" transform="translate(134.000000, 0.000000)">
                            <path d="M22.9746665,50 C11.9819986,49.9921508 2.53317513,42.3341614 0.427829278,31.7264615 C-1.67751657,21.1187616 4.14981291,10.5299999 14.3330366,6.45949721 C14.927409,6.19381059 15.6221373,6.27025982 16.1420597,6.65856557 C16.6619822,7.04687132 16.9232166,7.68438596 16.8222957,8.31860849 C16.7213748,8.95283102 16.2745808,9.48143861 15.6588757,9.69506518 C9.02093525,12.410641 4.44972509,18.506871 3.77442122,25.5443401 C3.09911734,32.5818093 6.43002375,39.4110191 12.4342737,43.2992517 C18.4385236,47.1874843 26.1353841,47.4996368 32.4449458,44.1108007 C32.9998058,43.6955598 33.7505038,43.6380526 34.3640847,43.9637852 C34.9776657,44.2895178 35.3405376,44.9381875 35.2917568,45.6220915 C35.2429761,46.3059954 34.7915734,46.8985228 34.1377583,47.1368715 C30.7251326,49.0095789 26.8828688,49.9950492 22.9746665,50 Z M38.5887896,43.2611732 C38.1513899,43.2553837 37.7309002,43.0941511 37.4050047,42.8072626 C37.0579616,42.4940221 36.8517519,42.0580283 36.83177,41.5952595 C36.811788,41.1324906 36.9796718,40.6808827 37.298464,40.339851 C41.6130472,35.7299314 43.3556265,29.3336628 41.9623811,23.2205921 C40.5691356,17.1075214 36.2170007,12.0539788 30.314133,9.69506518 C29.6984279,9.48143861 29.2516338,8.95283102 29.1507129,8.31860849 C29.049792,7.68438596 29.3110265,7.04687132 29.8309489,6.65856557 C30.3508714,6.27025982 31.0455996,6.19381059 31.6399721,6.45949721 C38.6293318,9.23968687 43.7866493,15.2142868 45.4402474,22.4467037 C47.0938455,29.6791206 45.0332832,37.248946 39.9264665,42.702514 C39.5829529,43.0690851 39.0956206,43.2726116 38.5887896,43.2611732 L38.5887896,43.2611732 Z" id="Shape" fill="#212121"></path>
                            <path d="M22.9746665,25.2560521 C21.9939869,25.2560521 21.1989891,24.4744264 21.1989891,23.5102421 L21.1989891,1.74581006 C21.1989891,0.781625786 21.9939869,0 22.9746665,0 C23.955346,0 24.7503439,0.781625786 24.7503439,1.74581006 L24.7503439,23.5102421 C24.7503439,23.9732597 24.5632641,24.4173133 24.23026,24.7447162 C23.8972559,25.0721191 23.4456054,25.2560521 22.9746665,25.2560521 Z" id="Path" fill="#2A7776"></path>
                        </g>
                    </g>
                </g>
            </g>
        </g>
    </g>
</svg>