<?xml version="1.0" encoding="UTF-8"?>
<svg width="22px" height="17px" viewBox="0 0 22 17" version="1.1" xmlns="http://www.w3.org/2000/svg" xmlns:xlink="http://www.w3.org/1999/xlink">
    <title>eye icon selcted</title>
    <g id="Emint-User-App-New" stroke="none" stroke-width="1" fill="none" fill-rule="evenodd">
        <g id="eye-icon-selcted" transform="translate(1.000000, 1.000000)" fill="#727A92" fill-rule="nonzero" stroke="#FFFFFF" stroke-width="0.2">
            <path d="M10.0002689,15.6313063 C8.04764427,15.6326233 6.13147852,15.0756934 4.45722611,14.0201479 C4.11894039,13.8065115 4.00956629,13.3452405 4.21293223,12.9898705 C4.41629818,12.6345004 4.85539361,12.5196026 5.19367935,12.7332391 C7.43294939,14.1421658 10.130714,14.5042738 12.6352721,13.7320883 C15.1398302,12.9599029 17.2234147,11.1236473 18.3826926,8.6669072 C18.6350481,8.13085151 18.6350481,7.50184195 18.3826926,6.96578626 C17.5967233,5.30504467 16.3811873,3.91057096 14.8754322,2.94222629 C14.5459206,2.72265877 14.4451144,2.26593993 14.6490234,1.91644449 C14.8529323,1.56694905 15.2860893,1.45402591 15.6218858,1.66282127 C17.3561071,2.778133 18.7562668,4.38397306 19.6620211,6.29644358 C20.1126596,7.25441984 20.1126596,8.37827362 19.6620211,9.33624989 C17.8497444,13.2003755 14.1008232,15.6429301 10.0002689,15.6313063 Z M2.85717252,12.5051223 C2.66664219,12.5053333 2.48397629,12.4253336 2.35001267,12.2830086 C1.53394072,11.4198002 0.854615751,10.4249703 0.337802415,9.33624989 C-0.112600805,8.37847966 -0.112600805,7.25496418 0.337802415,6.29719396 C2.66903557,1.36730182 8.03352468,-1.0922177 13.0596571,0.464457732 C13.4322587,0.586447957 13.6426806,1.00001436 13.5322191,1.39323836 C13.4217577,1.78646236 13.0313099,2.01375774 12.6553579,1.90369459 C8.29427106,0.553179112 3.63972452,2.68742122 1.61713098,6.96503588 C1.36476005,7.50135159 1.36476005,8.13059149 1.61713098,8.6669072 C2.06584072,9.61230955 2.65570179,10.4761724 3.36433236,11.2257172 C3.56832512,11.4406826 3.6289481,11.7635775 3.51792802,12.0438106 C3.40690793,12.3240437 3.14611298,12.5064159 2.85717252,12.5058751 L2.85717252,12.5051223 Z" id="Shape"></path>
            <path d="M10.0002689,12.31831 C8.86315738,12.3215427 7.77205876,11.8467956 6.97016743,10.9998516 C6.78447793,10.8114493 6.71000686,10.5324539 6.77537722,10.2700975 C6.84074758,10.0077411 7.03578623,9.80285249 7.2855299,9.73418075 C7.53527358,9.66550901 7.80085634,9.74374107 7.98020126,9.93880838 C9.09605107,11.1110116 10.9052011,11.1110116 12.0210509,9.93880838 C13.1369007,8.76660518 13.1369007,6.86608828 12.0210509,5.69388508 C11.7503474,5.39945017 11.7542188,4.93143114 12.0297522,4.6419826 C12.3052856,4.35253406 12.7508047,4.3484671 13.0310847,4.63284185 C14.2565373,5.92057183 14.6229926,7.85693563 13.959599,9.53914565 C13.2962053,11.2213557 11.7335823,12.3181913 10.0002689,12.31831 L10.0002689,12.31831 Z M6.44586415,8.94154781 C6.07929295,8.94116754 5.77249733,8.64935602 5.73584037,8.26620205 C5.72165216,8.11658684 5.71450037,7.96632729 5.71441108,7.81597154 C5.71716644,5.33061704 7.63439724,3.31656098 10.0002689,3.31366232 C10.1472409,3.31351526 10.2941177,3.32153055 10.4402837,3.33767876 C10.8227051,3.3926096 11.0944179,3.75674313 11.053871,4.15997247 C11.013324,4.56320181 10.675185,4.85966095 10.2902786,4.8294425 C9.48627133,4.74397723 8.68538103,5.01989466 8.08570444,5.58894781 C7.48602784,6.15800097 7.14356782,6.96704686 7.14303036,7.81597154 C7.14283077,7.91621541 7.14759929,8.01640222 7.15731655,8.11612521 C7.19678636,8.52821548 6.9109684,8.89597445 6.51872373,8.93779589 C6.49449913,8.94013569 6.47019045,8.94138747 6.44586415,8.94154781 Z" id="Shape"></path>
        </g>
    </g>
</svg>