<?xml version="1.0" encoding="UTF-8"?>
<svg width="22px" height="20px" viewBox="0 0 22 20" version="1.1" xmlns="http://www.w3.org/2000/svg" xmlns:xlink="http://www.w3.org/1999/xlink">
    <title>E4141763-A6D0-4399-ABE8-BABCEC1521FB</title>
    <g id="Web" stroke="none" stroke-width="1" fill="none" fill-rule="evenodd">
        <g id="Profile---Basic-Details---Edit" transform="translate(-1379.000000, -503.000000)" fill="#727A92" fill-rule="nonzero" stroke="#FFFFFF" stroke-width="0.2">
            <g id="Group-48" transform="translate(970.000000, 0.000000)">
                <g id="Group-19" transform="translate(40.000000, 138.000000)">
                    <g id="Group-6" transform="translate(0.000000, 334.000000)">
                        <g id="Group-4" transform="translate(370.000000, 32.000000)">
                            <path d="M10.0002689,16.8106826 C8.04764427,16.8120412 6.13147852,16.2551113 4.45722611,15.1995658 C4.11894039,14.9859294 4.00956629,14.5246584 4.21293223,14.1692884 C4.41629818,13.8139183 4.85539361,13.6990205 5.19367935,13.912657 C7.43294939,15.3215838 10.130714,15.6836917 12.6352721,14.9115063 C15.1398302,14.1393208 17.2234147,12.3030652 18.3826926,9.84632511 C18.6350481,9.31026942 18.6350481,8.68125986 18.3826926,8.14520417 C17.5967233,6.48446258 16.3811873,5.08998887 14.8754322,4.1216442 C14.5459206,3.90207667 14.4451144,3.44535783 14.6490234,3.0958624 C14.8529323,2.74636696 15.2860893,2.63344382 15.6218858,2.84223918 C17.3561071,3.95755091 18.7562668,5.56339097 19.6620211,7.47586148 C20.1126596,8.43383775 20.1126596,9.55769153 19.6620211,10.5156678 C17.8497444,14.3797934 14.1008232,16.822348 10.0002689,16.8106826 Z M2.85717252,13.6845402 C2.66664219,13.6847512 2.48397629,13.6047515 2.35001267,13.4624265 C1.53394072,12.5992181 0.854615751,11.6043883 0.337802415,10.5156678 C-0.112600805,9.55789757 -0.112600805,8.43438209 0.337802415,7.47661187 C2.66903557,2.54671973 8.03352468,0.0872002078 13.0596571,1.64387564 C13.4322587,1.76586587 13.6426806,2.17943227 13.5322191,2.57265627 C13.4217577,2.96588027 13.0313099,3.19317565 12.6553579,3.0831125 C8.29427106,1.73259702 3.63972452,3.86683913 1.61713098,8.14445379 C1.36476005,8.6807695 1.36476005,9.3100094 1.61713098,9.84632511 C2.06584072,10.7917275 2.65570179,11.6555904 3.36433236,12.4051352 C3.56832512,12.6201005 3.6289481,12.9429954 3.51792802,13.2232285 C3.40690793,13.5034616 3.14611298,13.6858338 2.85717252,13.6852918 L2.85717252,13.6845402 Z" id="Shape"></path>
                            <path d="M10.0002689,13.4977113 C8.86315738,13.5009606 7.77205876,13.0262135 6.97016743,12.1792695 C6.78447793,11.9908672 6.71000686,11.7118718 6.77537722,11.4495154 C6.84074758,11.187159 7.03578623,10.9822704 7.2855299,10.9135987 C7.53527358,10.8449269 7.80085634,10.923159 7.98020126,11.1182263 C9.09605107,12.2904295 10.9052011,12.2904295 12.0210509,11.1182263 C13.1369007,9.94602309 13.1369007,8.04550619 12.0210509,6.87330299 C11.7503474,6.57886808 11.7542188,6.11084905 12.0297522,5.82140051 C12.3052856,5.53195197 12.7508047,5.52788501 13.0310847,5.81225976 C14.2565373,7.09998973 14.6229926,9.03635354 13.959599,10.7185636 C13.2962053,12.4007736 11.7335823,13.4976092 10.0002689,13.4977113 L10.0002689,13.4977113 Z M6.44586415,10.1209657 C6.07929295,10.1205855 5.77249733,9.82877393 5.73584037,9.44561996 C5.72165216,9.29600475 5.71450037,9.1457452 5.71441108,8.99538945 C5.71716644,6.51003495 7.63439724,4.49597889 10.0002689,4.49308227 C10.1472409,4.49293317 10.2941177,4.50094846 10.4402837,4.51709666 C10.8227051,4.57202751 11.0944179,4.93616104 11.053871,5.33939038 C11.013324,5.74261972 10.675185,6.03907886 10.2902786,6.00886041 C9.48627133,5.92339514 8.68538103,6.19931257 8.08570444,6.76836572 C7.48602784,7.33741887 7.14356782,8.14646477 7.14303036,8.99538945 C7.14283077,9.09563332 7.14759929,9.19582013 7.15731655,9.29554312 C7.19678636,9.70763339 6.9109684,10.0753924 6.51872373,10.1172138 C6.49449913,10.1195536 6.47019045,10.1208054 6.44586415,10.1209657 Z" id="Shape"></path>
                            <path d="M2.14286288,18 C1.85399899,18 1.59360587,17.8171103 1.48307079,17.5367533 C1.37253571,17.2563964 1.43361918,16.9336994 1.63784596,16.7190938 L17.3526581,0.210641859 C17.6329381,-0.0737328911 18.0784572,-0.0696659322 18.3539906,0.219782608 C18.6295239,0.509231147 18.6333954,0.97725018 18.3626919,1.27168509 L2.64787979,17.780137 C2.51408581,17.9210814 2.33234104,18.0002052 2.14286288,18 L2.14286288,18 Z" id="Path"></path>
                        </g>
                    </g>
                </g>
            </g>
        </g>
    </g>
</svg>