<?xml version="1.0" encoding="UTF-8"?>
<svg width="20px" height="24px" viewBox="0 0 20 24" version="1.1" xmlns="http://www.w3.org/2000/svg" xmlns:xlink="http://www.w3.org/1999/xlink">
    <title>0BF8255E-DEC5-4D0C-9B93-F89324B47522</title>
    <g id="Web" stroke="none" stroke-width="1" fill="none" fill-rule="evenodd">
        <g id="Profile---Your-Squads" transform="translate(-1137.000000, -321.000000)" fill="#212121" fill-rule="nonzero" stroke="#FFFFFF" stroke-width="0.2">
            <g id="Group-27" transform="translate(450.000000, 244.000000)">
                <g id="Group-26" transform="translate(0.000000, 41.000000)">
                    <g id="Group-22" transform="translate(522.000000, 37.000000)">
                        <g id="Shape-2" transform="translate(166.000000, 0.000000)">
                            <path d="M17.9479258,21.1293562 L16.49265,16.6765111 C16.4094914,16.420949 16.1553956,16.243355 15.8689604,16.243355 L11.383015,16.243355 L11.383015,13.4278401 L13.3603421,14.7749557 C13.6005781,14.9049025 13.9193528,14.9135657 14.1272494,14.7749557 C14.3536256,14.6190195 14.450644,14.3417996 14.3628655,14.090569 L12.6996931,9.29119905 L17.0562806,6.32407954 C17.2826569,6.16814334 17.3796753,5.89092341 17.2918967,5.63969285 C17.2041182,5.3884623 16.9546423,5.2195314 16.672827,5.2195314 L11.2859967,5.2195314 L9.62282433,0.420161449 C9.53504579,0.168930892 9.28556994,0 9.00375463,0 C8.72193932,0 8.47246347,0.168930892 8.38468493,0.420161449 L6.7215126,5.2195314 L1.33468223,5.2195314 C1.05286692,5.2195314 0.803391073,5.3884623 0.715612534,5.63969285 C0.627833994,5.89092341 0.72485238,6.16814334 0.951228613,6.32407954 L5.30781613,9.29119905 L3.6446438,14.090569 C3.55686526,14.3417996 3.65388364,14.6190195 3.88025988,14.7749557 C4.10663611,14.9308919 4.41617096,14.9308919 4.64716712,14.7749557 L6.62449422,13.4278401 L6.62449422,16.243355 L2.13854886,16.243355 C1.85211362,16.243355 1.59801785,16.4166174 1.51485924,16.6765111 L0.0364838335,21.2073243 C-0.0281950904,21.3935814 -0.0928740142,22 0.655553533,22 L17.3565756,22 C18.2020216,22 17.9848852,21.2073243 17.9479258,21.1293562 Z M5.5018529,12.6828116 L6.69379306,9.24788344 C6.7815716,8.99665288 6.68455322,8.71943296 6.45817698,8.56349675 L3.34434879,6.4410317 L7.19736469,6.4410317 C7.47918,6.4410317 7.72865585,6.27210081 7.81643439,6.01653869 L9.00837455,2.58161055 L10.2003147,6.01653869 C10.2880933,6.26776925 10.5375691,6.4410317 10.8193844,6.4410317 L14.6724003,6.4410317 L11.5585721,8.56349675 C11.3321959,8.71943296 11.2351775,8.99665288 11.322956,9.24788344 L12.5148962,12.6828116 L9.40106802,10.5603465 C9.28556994,10.4823784 9.15159217,10.4433944 9.0176144,10.4433944 C8.88363663,10.4433944 8.74965886,10.4823784 8.63416078,10.5603465 L5.5018529,12.6828116 L5.5018529,12.6828116 Z M10.0801967,12.5442016 L10.0801967,16.2476866 L7.92731254,16.2476866 L7.92731254,12.5442016 L9.00375463,11.8121677 L10.0801967,12.5442016 Z M1.53795885,20.7784997 L2.61902086,17.4691868 L15.3884884,17.4691868 L16.4695504,20.7784997 L1.53795885,20.7784997 L1.53795885,20.7784997 Z" id="Shape"></path>
                        </g>
                    </g>
                </g>
            </g>
        </g>
    </g>
</svg>