<?xml version="1.0" encoding="UTF-8"?>
<svg width="22px" height="22px" viewBox="0 0 22 22" version="1.1" xmlns="http://www.w3.org/2000/svg" xmlns:xlink="http://www.w3.org/1999/xlink">
    <title>A9EAEF02-8B86-4F79-803F-0EFB11EC9726</title>
    <g id="Web" stroke="none" stroke-width="1" fill="none" fill-rule="evenodd">
        <g id="Profile-Listing" transform="translate(-1178.000000, -96.000000)" fill-rule="nonzero">
            <g id="Group-44" transform="translate(1153.000000, 67.961720)">
                <g id="Group-28" transform="translate(26.000000, 29.038280)">
                    <path d="M18.4135437,12.6957703 C17.7507019,12.1133423 16.9468689,11.6101074 16.0241699,11.2001038 C15.6297302,11.0249329 15.1681519,11.2025452 14.9929809,11.5968323 C14.8178101,11.9911194 14.9954223,12.4526977 15.3897095,12.6280213 C16.1677551,12.9737854 16.8382263,13.3914184 17.3822021,13.8694763 C18.0528259,14.4587707 18.4375,15.3120422 18.4375,16.2109375 L18.4375,17.65625 C18.4375,18.0870056 18.0870056,18.4375 17.65625,18.4375 L2.34375,18.4375 C1.91299438,18.4375 1.5625,18.0870056 1.5625,17.65625 L1.5625,16.2109375 C1.5625,15.3120422 1.94717406,14.4587707 2.61779785,13.8694763 C3.407135,13.1758118 5.70693969,11.5625 10,11.5625 C13.1877136,11.5625 15.78125,8.96896363 15.78125,5.78125 C15.78125,2.59353637 13.1877136,0 10,0 C6.81228637,0 4.21875,2.59353637 4.21875,5.78125 C4.21875,7.6448059 5.10528563,9.30496215 6.47857664,10.362854 C3.9657593,10.9152222 2.40264891,11.9784546 1.58645629,12.6957703 C0.578308125,13.581543 0,14.8626709 0,16.2109375 L0,17.65625 C0,18.9486695 1.05133055,20 2.34375,20 L17.65625,20 C18.9486695,20 20,18.9486695 20,17.65625 L20,16.2109375 C20,14.8626709 19.4216919,13.581543 18.4135437,12.6957703 Z" id="Path" stroke="#FFFFFF" stroke-width="0.2" fill="#212121"></path>
                    <path d="M5.78125,5.78125 C5.78125,3.45504762 7.67379762,1.5625 10,1.5625 C12.3262024,1.5625 14.21875,3.45504762 14.21875,5.78125 C14.21875,8.10745238 12.3262024,10 10,10 C7.67379762,10 5.78125,8.10745238 5.78125,5.78125 Z" id="Path" fill="#FFFFFF"></path>
                </g>
            </g>
        </g>
    </g>
</svg>