<?xml version="1.0" encoding="UTF-8"?>
<svg width="331px" height="413px" viewBox="0 0 331 413" version="1.1" xmlns="http://www.w3.org/2000/svg" xmlns:xlink="http://www.w3.org/1999/xlink">
    <title>D44FADE6-3555-4F76-A155-C2BD7184DBEE@1.5x</title>
    <defs>
        <linearGradient x1="63.7932537%" y1="-20.7413033%" x2="45.8068966%" y2="124.349135%" id="linearGradient-1">
            <stop stop-color="#FFFFFF" stop-opacity="0" offset="0%"></stop>
            <stop stop-color="#FFFFFF" stop-opacity="0.104400384" offset="32.8527632%"></stop>
            <stop stop-color="#FFFFFF" stop-opacity="0.607834858" offset="81.213924%"></stop>
            <stop stop-color="#FFFFFF" offset="100%"></stop>
        </linearGradient>
        <linearGradient x1="50%" y1="-39.2022446%" x2="50%" y2="100%" id="linearGradient-2">
            <stop stop-color="#FFE159" offset="0%"></stop>
            <stop stop-color="#FFC02C" offset="100%"></stop>
        </linearGradient>
        <linearGradient x1="50%" y1="-39.2022446%" x2="50%" y2="100%" id="linearGradient-3">
            <stop stop-color="#FFE159" offset="0%"></stop>
            <stop stop-color="#FFC02C" offset="100%"></stop>
        </linearGradient>
    </defs>
    <g id="Web" stroke="none" stroke-width="1" fill="none" fill-rule="evenodd">
        <g id="Cert-Q&amp;A-flow---Intro" transform="translate(-358.000000, -205.000000)">
            <g id="Group-16" transform="translate(298.000000, 145.000000)">
                <g id="Group-13" transform="translate(60.000000, 60.000000)">
                    <rect id="Rectangle" fill="#2A7776" x="0" y="0" width="331" height="413" rx="20"></rect>
                    <g id="Group" transform="translate(39.000000, 40.000000)">
                        <g id="Group-15">
                            <ellipse id="Oval" fill="url(#linearGradient-1)" cx="126.083948" cy="166.039886" rx="121.083948" ry="121.039886"></ellipse>
                            <path d="M251.680125,114.153985 L253.375896,106.983661 C253.588324,106.085441 253.032379,105.185083 252.134159,104.972655 C251.880292,104.912616 251.615895,104.91284 251.362131,104.97331 L243.631231,106.815515 C242.733372,107.029467 242.178956,107.930767 242.392908,108.828626 C242.472772,109.163777 242.654267,109.466054 242.912548,109.694078 L248.947677,115.022196 C249.639605,115.633065 250.69573,115.567354 251.306599,114.875427 C251.488552,114.66933 251.616851,114.421528 251.680125,114.153985 Z" id="Path-3" stroke="#FFFFFF" stroke-width="1.67123555" fill="#FF7C82"></path>
                            <path d="M17.5057542,189.28219 L20.9782975,174.599046 C21.1907253,173.700826 20.6347807,172.800468 19.7365605,172.58804 C19.4826936,172.528001 19.2182967,172.528225 18.964532,172.588695 L3.13345857,176.3611 C2.23560012,176.575051 1.68118418,177.476352 1.8951359,178.37421 C1.9749994,178.709361 2.15649462,179.011638 2.41477613,179.239662 L14.7733063,190.150402 C15.4652342,190.761271 16.5213597,190.69556 17.1322288,190.003632 C17.3141817,189.797535 17.4424807,189.549733 17.5057542,189.28219 Z" id="Path-3-Copy-2" stroke="#FFFFFF" stroke-width="1.67123555" fill="#5BAFFF" transform="translate(10.801201, 181.978107) scale(-1, 1) translate(-10.801201, -181.978107) "></path>
                            <ellipse id="Oval" stroke="#FFFFFF" stroke-width="1.67123555" fill="#FF7C82" cx="192.064193" cy="10.017094" rx="9.18512274" ry="9.18147624"></ellipse>
                            <ellipse id="Oval-Copy-3" stroke="#FFFFFF" stroke-width="1.67123555" fill="#FF7C82" cx="187.045273" cy="340" rx="4.16620236" ry="4.16438223"></ellipse>
                            <ellipse id="Oval-Copy" stroke="#FFFFFF" stroke-width="1.67123555" fill="#FFD400" cx="96.0320966" cy="10.017094" rx="5.00981419" ry="5.00768707"></ellipse>
                            <ellipse id="Oval-Copy-2" stroke="#FFFFFF" stroke-width="1.67123555" fill="#00D177" cx="50.9387643" cy="50.9202279" rx="10.0201844" ry="10.0162341"></ellipse>
                        </g>
                        <path d="M227.371166,182.604127 L230.448871,169.590499 C230.661299,168.692279 230.105355,167.791921 229.207134,167.579493 C228.953267,167.519454 228.688871,167.519678 228.435106,167.580148 L214.404071,170.923619 C213.506213,171.137571 212.951797,172.038871 213.165748,172.93673 C213.245612,173.271881 213.427107,173.574158 213.685389,173.802182 L224.638718,183.472339 C225.330646,184.083208 226.386772,184.017497 226.997641,183.325569 C227.179594,183.119472 227.307893,182.87167 227.371166,182.604127 Z" id="Path-3-Copy" stroke="#FFFFFF" stroke-width="1.67123555" fill="#00D077"></path>
                        <path d="M16.3711662,361.604127 L19.4488713,348.590499 C19.6612992,347.692279 19.1053546,346.791921 18.2071344,346.579493 C17.9532675,346.519454 17.6888706,346.519678 17.4351059,346.580148 L3.40407101,349.923619 C2.50621256,350.137571 1.95179661,351.038871 2.16574834,351.93673 C2.24561184,352.271881 2.42710705,352.574158 2.68538856,352.802182 L13.6387184,362.472339 C14.3306462,363.083208 15.3867717,363.017497 15.9976408,362.325569 C16.1795937,362.119472 16.3078927,361.87167 16.3711662,361.604127 Z" id="Path-3-Copy-3" stroke="#FFFFFF" stroke-width="1.67123555" fill="#00D077"></path>
                        <g id="Group-2" transform="translate(83.000000, 111.000000)" fill-rule="nonzero">
                            <path d="M35.5133712,6.51943086 L26.7816114,6.51943086 C25.491868,6.51943086 24.4400293,7.5662311 24.4400293,8.84979649 L24.4400293,17.22816 C24.4400293,18.5117254 25.491868,19.5585256 26.7816114,19.5585256 L60.9001022,19.5585256 C62.1898456,19.5585256 63.2416843,18.5117254 63.2416843,17.22816 L63.2416843,8.84979649 C63.2416843,7.5662311 62.1898456,6.51943086 60.9001022,6.51943086 L52.1683424,6.51943086 C51.2616818,2.778961 47.8776273,0 43.8407397,0 C39.8038521,0 36.4197977,2.778961 35.5133712,6.51943086 Z" id="Path" fill="#FFD64A"></path>
                            <path d="M20.8058939,18.3914785 C21.3524191,21.1783628 23.8234907,23.2873437 26.7813773,23.2873437 L60.899868,23.2873437 C63.8577546,23.2873437 66.3288262,21.1783628 66.8753515,18.3914785 L76.4564031,18.3914785 C77.7461465,18.3914785 78.7979852,19.4385118 78.7979852,20.7220772 L78.7979852,100.686709 C78.7979852,101.970275 77.7461465,103.017075 76.4564031,103.017075 L11.2248423,103.017075 C9.93509882,103.017075 8.88326012,101.970275 8.88326012,100.686709 L8.88326012,20.7218441 C8.88326012,19.4382788 9.93509882,18.3914785 11.2248423,18.3914785 L20.8058939,18.3914785 L20.8058939,18.3914785 Z" id="Path" fill="url(#linearGradient-2)"></path>
                            <path d="M21.938283,41.4029069 L19.2597472,38.7372017 C18.9085189,38.3875866 18.4321093,38.191169 17.9353483,38.191169 C17.4385873,38.191169 16.9621778,38.3875866 16.6109495,38.7372017 C16.2596516,39.0867475 16.0622887,39.560875 16.0622887,40.0552565 C16.0622887,40.5496379 16.2596516,41.0237654 16.6109495,41.3733113 L20.5490223,45.2925202 C21.2807667,46.0207594 22.4834033,46.0221576 23.208123,45.2820335 L32.6969162,36.7121139 C33.0637336,36.3799345 33.2829155,35.9163273 33.306234,35.4233023 C33.3295525,34.9302773 33.1550971,34.4482302 32.8212542,34.0832285 C32.487476,33.7181682 32.0216373,33.5000363 31.5262393,33.4768294 C31.0308413,33.4536226 30.546474,33.6272423 30.1797154,33.9594861 L21.938283,41.4029069 L21.938283,41.4029069 Z" id="Path" fill="#FFFFFF"></path>
                            <path d="M18.0327581,56.3172469 C17.6814603,56.6667927 17.4840973,57.1409202 17.4840973,57.6353017 C17.4840973,58.1296831 17.6814603,58.6038106 18.0327581,58.9533565 L22.0378002,62.9392138 L18.0327581,66.9250712 C17.3194435,67.6560951 17.3280546,68.8216636 18.0520929,69.54217 C18.7761312,70.2626763 19.9473106,70.2711431 20.68179,69.5611808 L24.6868321,65.5753234 L28.6918741,69.5611808 C29.0431024,69.9107959 29.519512,70.1072134 30.016273,70.1072134 C30.513034,70.1072134 30.9894436,69.9107959 31.3406719,69.5611808 C31.6919697,69.2116349 31.8893326,68.7375074 31.8893326,68.243126 C31.8893326,67.7487445 31.6919697,67.2746171 31.3406719,66.9250712 L27.3356298,62.9392138 L31.3406719,58.9533565 C31.6919697,58.6038106 31.8893326,58.1296831 31.8893326,57.6353017 C31.8893326,57.1409202 31.6919697,56.6667927 31.3406719,56.3172469 C30.9894436,55.9676318 30.513034,55.7712143 30.016273,55.7712143 C29.519512,55.7712143 29.0431024,55.9676318 28.6918741,56.3172469 L24.6868321,60.3031042 L20.68179,56.3172469 C19.9502532,55.5893054 18.7642949,55.5893054 18.0327581,56.3172469 L18.0327581,56.3172469 Z" id="Path" fill="#FFFFFF"></path>
                            <path d="M16.6109495,88.1477109 L20.5490223,92.0669198 C21.2807667,92.7953921 22.4834033,92.7965573 23.208123,92.0564332 L32.6969162,83.4865136 C33.0637336,83.1543342 33.2829155,82.6907269 33.306234,82.1977019 C33.3295525,81.704677 33.1550971,81.2226299 32.8212542,80.8576281 C32.487476,80.4925679 32.0216373,80.2744359 31.5262393,80.2512291 C31.0308413,80.2280222 30.546474,80.401642 30.1797154,80.7338857 L21.938283,88.1773066 L19.2597472,85.5116013 C18.9085189,85.1619862 18.4321093,84.9655687 17.9353483,84.9655687 C17.4385873,84.9655687 16.9621778,85.1619862 16.6109495,85.5116013 C16.2596516,85.8611472 16.0622887,86.3352747 16.0622887,86.8296561 C16.0622887,87.3240376 16.2596516,87.798165 16.6109495,88.1477109 L16.6109495,88.1477109 Z" id="Path" fill="#FFFFFF"></path>
                            <path d="M39.2081536,90.748632 C39.2081536,91.7782523 40.0468433,92.6129245 41.0814194,92.6129245 L69.7461311,92.6129245 C70.7807072,92.6129245 71.6193969,91.7782523 71.6193969,90.748632 C71.6193969,89.7190117 70.7807072,88.8843395 69.7461311,88.8843395 L41.0814194,88.8843395 C40.0468433,88.8843395 39.2081536,89.7190117 39.2081536,90.748632 Z" id="Path" fill="#FFFFFF"></path>
                            <path d="M39.2081536,82.1099666 C39.2081536,83.1395869 40.0468433,83.9742591 41.0814194,83.9742591 L69.7461311,83.9742591 C70.7807072,83.9742591 71.6193969,83.1395869 71.6193969,82.1099666 C71.6193969,81.0803463 70.7807072,80.2456741 69.7461311,80.2456741 L41.0814194,80.2456741 C40.0468968,80.2458028 39.2081536,81.0803996 39.2081536,82.1099666 Z" id="Path" fill="#FFFFFF"></path>
                            <path d="M39.2081536,67.2585465 C39.2081536,68.2881668 40.0468433,69.122839 41.0814194,69.122839 L69.7461311,69.122839 C70.7807072,69.122839 71.6193969,68.2881668 71.6193969,67.2585465 C71.6193969,66.2289262 70.7807072,65.394254 69.7461311,65.394254 L41.0814194,65.394254 C40.0468433,65.394254 39.2081536,66.2289262 39.2081536,67.2585465 Z" id="Path" fill="#FFFFFF"></path>
                            <path d="M39.2081536,58.6198811 C39.2081536,59.6495015 40.0468433,60.4841736 41.0814194,60.4841736 L69.7461311,60.4841736 C70.7807072,60.4841736 71.6193969,59.6495015 71.6193969,58.6198811 C71.6193969,57.5902608 70.7807072,56.7555887 69.7461311,56.7555887 L41.0814194,56.7555887 C40.0468968,56.7557173 39.2081536,57.5903141 39.2081536,58.6198811 Z" id="Path" fill="#FFFFFF"></path>
                            <path d="M41.0814194,45.6327535 L69.7461311,45.6327535 C70.7807072,45.6327535 71.6193969,44.7980814 71.6193969,43.768461 C71.6193969,42.7388407 70.7807072,41.9041685 69.7461311,41.9041685 L41.0814194,41.9041685 C40.0468433,41.9041685 39.2081536,42.7388407 39.2081536,43.768461 C39.2081536,44.7980814 40.0468433,45.6327535 41.0814194,45.6327535 Z" id="Path" fill="#FFFFFF"></path>
                            <path d="M41.0814194,36.9940882 L69.7461311,36.9940882 C70.7807072,36.9940882 71.6193969,36.159416 71.6193969,35.1297957 C71.6193969,34.1001754 70.7807072,33.2655032 69.7461311,33.2655032 L41.0814194,33.2655032 C40.0468433,33.2655032 39.2081536,34.1001754 39.2081536,35.1297957 C39.2081536,36.159416 40.0468433,36.9940882 41.0814194,36.9940882 Z" id="Path" fill="#FFFFFF"></path>
                            <path d="M5.13696288,16.5274191 L5.13696288,104.881134 C5.13696288,105.910755 5.9756525,106.745427 7.01022858,106.745427 L80.6712509,106.745427 C81.705827,106.745427 82.5445166,105.910755 82.5445166,104.881134 L82.5445166,16.5274191 C82.5445166,15.4977987 81.705827,14.6631266 80.6712509,14.6631266 L66.9879816,14.6631266 L66.9879816,9.55077047 L82.6423947,9.55077047 C85.417872,9.55077047 87.6814795,11.8037679 87.6814795,14.5657173 L87.6814795,106.842603 C87.6814795,109.604785 85.417872,111.85755 82.6423947,111.85755 L5.03908474,111.85755 C2.26360744,111.85755 0,109.604785 0,106.842603 L0,14.5657173 C0,11.8035349 2.26360744,9.55077047 5.03908474,9.55077047 L20.6932638,9.55077047 L20.6932638,14.6631266 L7.01022858,14.6631266 C5.9756525,14.6631266 5.13696288,15.4977987 5.13696288,16.5274191 Z" id="Path" fill="url(#linearGradient-3)"></path>
                            <path d="M43.8407397,9.24432739 C42.5891641,9.24432739 41.5747907,8.23457996 41.5747907,6.98923257 C41.5747907,5.74365215 42.5893982,4.73413776 43.8407397,4.73413776 C45.0920812,4.73413776 46.1066888,5.74365215 46.1066888,6.98923257 C46.1066888,8.23457996 45.0923154,9.24432739 43.8407397,9.24432739 Z" id="Path" fill="#FFFFFF"></path>
                        </g>
                    </g>
                </g>
            </g>
        </g>
    </g>
</svg>