<?xml version="1.0" encoding="UTF-8"?>
<svg width="14px" height="25px" viewBox="0 0 14 25" version="1.1" xmlns="http://www.w3.org/2000/svg" xmlns:xlink="http://www.w3.org/1999/xlink">
    <title>D0BDA86F-5F2B-4DAA-9781-DA4A994010E4</title>
    <g id="Web" stroke="none" stroke-width="1" fill="none" fill-rule="evenodd">
        <g id="Challenge-Q&amp;A-Flow---Answer-Selection" transform="translate(-466.000000, -28.000000)" fill="#F36F40" fill-rule="nonzero">
            <g id="Group-26" transform="translate(100.000000, 20.000000)">
                <g id="Group-18" transform="translate(221.000000, 1.000000)">
                    <path d="M158.825482,13.5805288 C159.012927,13.7808494 159.049375,14.0012019 158.934825,14.2415865 L150.499767,31.624399 C150.364389,31.8747997 150.145702,32 149.843707,32 C149.802052,32 149.729156,31.989984 149.62502,31.9699519 C149.447988,31.9198718 149.315214,31.8247196 149.226698,31.6844952 C149.138182,31.5442708 149.114751,31.3940304 149.156406,31.233774 L152.23364,19.094351 L145.891726,20.6117788 C145.850071,20.6217949 145.787589,20.6268029 145.70428,20.6268029 C145.516834,20.6268029 145.355422,20.5717147 145.220045,20.4615385 C145.032599,20.3112981 144.964911,20.1159856 145.016979,19.875601 L148.156695,7.48076923 C148.19835,7.34054487 148.281659,7.22536058 148.406623,7.13521635 C148.531586,7.04507212 148.677378,7 148.843996,7 L153.967513,7 C154.165372,7 154.331991,7.06260016 154.467368,7.18780048 C154.602746,7.3130008 154.670434,7.46073718 154.670434,7.63100962 C154.670434,7.71113782 154.6444,7.80128205 154.592332,7.90144231 L151.92123,14.8575721 L158.10694,13.3852163 C158.190249,13.3651843 158.252731,13.3551683 158.294385,13.3551683 C158.492245,13.3551683 158.669277,13.4302885 158.825482,13.5805288 Z" id="Path"></path>
                </g>
            </g>
        </g>
    </g>
</svg>