<?xml version="1.0" encoding="UTF-8"?>
<svg width="16px" height="18px" viewBox="0 0 16 18" version="1.1" xmlns="http://www.w3.org/2000/svg" xmlns:xlink="http://www.w3.org/1999/xlink">
    <title>8E0A2540-803C-4822-8AC6-B001A13EC6CD</title>
    <g id="Web" stroke="none" stroke-width="1" fill="none" fill-rule="evenodd">
        <g id="Challenge-Q&amp;A-Flow" transform="translate(-1151.000000, -32.000000)" fill="#212121" fill-rule="nonzero">
            <g id="Group-26" transform="translate(100.000000, 20.000000)">
                <g id="Group-4" transform="translate(1041.000000, 0.000000)">
                    <g id="Group-3" transform="translate(10.000000, 11.000000)">
                        <path d="M5.82954545,2.28571429 L9.71590909,2.28571429 C10.073639,2.28571429 10.3636364,1.99789734 10.3636364,1.64285714 C10.3636364,1.28781695 10.073639,1 9.71590909,1 L5.82954545,1 C5.47181556,1 5.18181818,1.28781695 5.18181818,1.64285714 C5.18181818,1.99789734 5.47181556,2.28571429 5.82954545,2.28571429 Z M7.77272727,3.57142857 C3.47996854,3.57142857 0,7.02523193 0,11.2857143 C0,15.5461966 3.47996854,19 7.77272727,19 C12.065486,19 15.5454545,15.5461966 15.5454545,11.2857143 C15.5406026,7.02722815 12.0634747,3.57624402 7.77272727,3.57142857 Z M11.4368298,8.55827955 L8.23077004,11.7402738 C8.0671413,11.9026863 7.82863964,11.9661231 7.60510634,11.9066882 C7.38157304,11.8472532 7.20696812,11.6739761 7.14706357,11.4521287 C7.08715902,11.2302812 7.15105576,10.9935673 7.3146845,10.8311548 L10.5207847,7.64916143 C10.6844133,7.4867555 10.9229113,7.42332471 11.1464388,7.48276281 C11.3699662,7.54220091 11.5445641,7.71547785 11.6044629,7.93732188 C11.6643618,8.15916591 11.6004616,8.39587364 11.436833,8.55827955 L11.4368298,8.55827955 Z" id="Shape"></path>
                    </g>
                </g>
            </g>
        </g>
    </g>
</svg>