<?xml version="1.0" encoding="UTF-8"?>
<svg width="15px" height="16px" viewBox="0 0 15 16" version="1.1" xmlns="http://www.w3.org/2000/svg" xmlns:xlink="http://www.w3.org/1999/xlink">
    <title>8FC3E3E8-F6C4-4F5B-8FDA-FD157F67275D</title>
    <defs>
        <linearGradient x1="43.6381315%" y1="13.2653006%" x2="63.7904506%" y2="93.6368981%" id="linearGradient-1">
            <stop stop-color="#FF6633" offset="0%"></stop>
            <stop stop-color="#DE5020" offset="100%"></stop>
        </linearGradient>
        <linearGradient x1="68.4895541%" y1="40.7698134%" x2="83.8109353%" y2="66.0225194%" id="linearGradient-2">
            <stop stop-color="#FF6633" offset="0%"></stop>
            <stop stop-color="#DE5020" offset="100%"></stop>
        </linearGradient>
    </defs>
    <g id="Web" stroke="none" stroke-width="1" fill="none" fill-rule="evenodd">
        <g id="Challenge-Tab-Landing-page" transform="translate(-891.000000, -32.000000)">
            <g id="menu/Item-Copy-2" transform="translate(870.000000, 20.000000)">
                <g id="Group-16" transform="translate(21.500000, 13.000000)">
                    <path d="M12,5.293 L12,0.5 C12,0.223857625 11.776142,0 11.5,0 L8,0 C7.79105318,0.000261943878 7.60430212,0.130424734 7.53174275,0.32636849 C7.45918338,0.522312245 7.51611803,0.742713606 7.67449995,0.879 L11,3.73 L11,5.293 L6.5,9.793 L4.3535002,7.6465 C4.25980149,7.55264182 4.13262302,7.49989942 4,7.49989942 C3.86737743,7.49989942 3.74019896,7.55264182 3.64650025,7.6465 L0.146500514,11.1465 C0.0525388161,11.2401212 -0.00019185397,11.3673587 0,11.5 L0,13.5 C0,13.7761424 0.223858133,14 0.5,14 L13.5,14 C13.7761419,14 14,13.7761424 14,13.5 L14,7.5 C14.0001919,7.36735874 13.9474612,7.24012125 13.8534995,7.1465 L12,5.293 Z" id="Path" stroke="#FFFFFF" stroke-width="0.2" fill="#212121" fill-rule="nonzero"></path>
                    <path d="M9.62182555,1 L10.8999997,1 C10.9552282,1 10.9999997,1.04477153 10.9999997,1.1 L10.9999997,2.19557792 C10.9999997,2.2508064 10.9552282,2.29557792 10.8999997,2.29557792 C10.8761286,2.29557792 10.8530449,2.28703871 10.8349206,2.27150358 L9.55674641,1.17592566 C9.51481383,1.13998344 9.50995768,1.07685344 9.54589989,1.03492086 C9.56489811,1.01275627 9.59263307,1 9.62182555,1 Z" id="Path" fill="url(#linearGradient-1)"></path>
                    <path d="M12.7000004,13 L1.30000046,13 C1.13431503,13 1.00000045,12.8656854 1.00000045,12.7 L1.00000045,12.1212136 C1.00000045,11.8559971 1.10535729,11.6016432 1.29289367,11.4141068 L3.78786841,8.91913204 C3.90502568,8.80197473 4.09497518,8.80197473 4.21213247,8.91913202 C4.21213248,8.91913203 4.21213249,8.91913204 4.21213247,8.91913206 L6.14650006,10.8535 L6.14650006,10.8535 C6.24019878,10.9473582 6.36737725,11.0001006 6.50000045,11.0001006 C6.63262283,11.0001006 6.7598013,10.9473582 6.85350001,10.8535 L11.2878684,6.41913203 C11.4050257,6.30197476 11.5949752,6.30197476 11.7121325,6.41913204 L12.7071072,7.41410678 C12.8946436,7.60164316 13.0000004,7.85599707 13.0000004,8.12121356 L13.0000004,12.7 C13.0000004,12.8656854 12.8656859,13 12.7000004,13 Z" id="Path" fill="url(#linearGradient-2)"></path>
                </g>
            </g>
        </g>
    </g>
</svg>