<?xml version="1.0" encoding="UTF-8"?>
<svg width="14px" height="25px" viewBox="0 0 14 25" version="1.1" xmlns="http://www.w3.org/2000/svg" xmlns:xlink="http://www.w3.org/1999/xlink">
    <title>2CDBB455-4948-4DDA-8D5B-C8564EAA8482</title>
    <g id="Web" stroke="none" stroke-width="1" fill="none" fill-rule="evenodd">
        <g id="Challenge-Tab-Landing-page" transform="translate(-164.000000, -370.000000)" fill="#212121" fill-rule="nonzero">
            <g id="Group-13" transform="translate(100.000000, 237.000000)">
                <g id="Group-19" transform="translate(20.000000, 130.000000)">
                    <path d="M57.8254816,9.58052885 C58.0129273,9.78084936 58.0493751,10.0012019 57.9348249,10.2415865 L49.4997666,27.624399 C49.3643892,27.8747997 49.1457025,28 48.8437066,28 C48.802052,28 48.7291564,27.989984 48.6250199,27.9699519 C48.4479878,27.9198718 48.3152137,27.8247196 48.2266977,27.6844952 C48.1381816,27.5442708 48.1147509,27.3940304 48.1564055,27.233774 L51.2336397,15.094351 L44.8917256,16.6117788 C44.850071,16.6217949 44.787589,16.6268029 44.7042798,16.6268029 C44.5168341,16.6268029 44.3554225,16.5717147 44.220045,16.4615385 C44.0325993,16.3112981 43.9649105,16.1159856 44.0169788,15.875601 L47.1566949,3.48076923 C47.1983495,3.34054487 47.2816587,3.22536058 47.4066226,3.13521635 C47.5315864,3.04507212 47.6773775,3 47.843996,3 L52.9675128,3 C53.1653722,3 53.3319906,3.06260016 53.4673681,3.18780048 C53.6027456,3.3130008 53.6704343,3.46073718 53.6704343,3.63100962 C53.6704343,3.71113782 53.6444002,3.80128205 53.5923319,3.90144231 L50.9212302,10.8575721 L57.1069396,9.38521635 C57.1902488,9.36518429 57.2527307,9.35516827 57.2943853,9.35516827 C57.4922447,9.35516827 57.6692768,9.43028846 57.8254816,9.58052885 Z" id="Path-Copy"></path>
                </g>
            </g>
        </g>
    </g>
</svg>