<?xml version="1.0" encoding="UTF-8"?>
<svg width="27px" height="28px" viewBox="0 0 27 28" version="1.1" xmlns="http://www.w3.org/2000/svg" xmlns:xlink="http://www.w3.org/1999/xlink">
    <title>EF6E493C-1E74-4365-B260-E0D0891EAF95</title>
    <g id="Web" stroke="none" stroke-width="1" fill="none" fill-rule="evenodd">
        <g id="Home-page" transform="translate(-307.000000, -179.000000)" fill-rule="nonzero">
            <g id="Group-28" transform="translate(100.000000, 110.000000)">
                <g id="Group-4" transform="translate(40.000000, 40.000000)">
                    <g id="waving-hand" transform="translate(167.000000, 29.000000)">
                        <path d="M27,19.8918899 L27,9.89238418 C27,8.5821803 25.9252223,7.51998438 24.5995801,7.51998438 C23.273938,7.51998438 22.1993263,8.58212562 22.1993263,9.89238418 L22.1993263,12.347034 L15.6958285,5.9190069 C14.8832578,5.11586582 13.5658597,5.11586582 12.7533444,5.9190069 C11.9407737,6.72214799 11.9407737,8.02420342 12.7533444,8.82734451 L11.2679657,7.35920304 C10.455395,6.55606196 9.13799695,6.55606196 8.32548161,7.35920304 C7.51291094,8.16234413 7.51291094,9.46445424 8.32548161,10.2675406 L9.18546976,11.1175489 C8.37289909,10.3144625 7.05550104,10.3144625 6.2429857,11.1175489 C5.43041503,11.92069 5.43041503,13.2228001 6.2429857,14.0258865 L8.36520827,16.1234815 C7.5526376,15.3203404 6.23523956,15.3203404 5.42272422,16.1234815 C4.61015355,16.9266226 4.61015355,18.2287327 5.42272422,19.0318191 L11.9739162,25.5069869 C15.3369606,28.8310044 20.7895278,28.8310044 24.1525722,25.5069869 L24.9965701,24.6727833 C26.3322269,23.3526809 27,21.6224221 27,19.8921633 C27,19.8921633 27,19.8919993 27,19.8918899 Z" id="Path" fill="#FFD72E"></path>
                        <g id="Group" transform="translate(4.813075, 8.417202)">
                            <path d="M3.85755283,8.00837372 L3.55196738,7.70633448 L2.79544561,7.22913109 C2.05873184,6.96334968 1.20056957,7.12210759 0.609428002,7.70633448 C-0.203142667,8.50947557 -0.203142667,9.81158569 0.609428002,10.6146721 C0.609428002,10.6146721 3.21456742,13.1895798 4.65496318,14.6132603 C3.33856107,12.3602981 3.0736429,9.56521836 3.85755283,8.00837372 L3.85755283,8.00837372 Z" id="Path" fill="#EED076"></path>
                            <path d="M1.42974482,5.60873954 L2.5691475,6.73491987 C2.36492591,6.10984138 1.86590814,3.59875401 2.74526165,2.10436253 C2.26583057,2.13974536 1.79641415,2.33804235 1.42980015,2.70040193 C0.617229478,3.50348833 0.617229478,4.80559845 1.42974482,5.60873954 L1.42974482,5.60873954 Z" id="Path" fill="#EED076"></path>
                            <path d="M11.9726362,4.80592658 C11.8664587,4.80592658 11.7602259,4.76584062 11.679168,4.68577807 L7.64669059,0.700150791 C7.48463016,0.539971012 7.48463016,0.280259926 7.64669059,0.120134834 C7.80880635,-0.0400449448 8.07151135,-0.0400449448 8.23357178,0.120134834 L12.2660492,4.10576211 C12.4281096,4.26594189 12.4281096,4.52565298 12.2660492,4.68583276 C12.1850466,4.7658953 12.0788138,4.80592658 11.9726362,4.80592658 L11.9726362,4.80592658 Z" id="Path" fill="#9A8033"></path>
                            <path d="M9.07745901,7.76113139 C8.97128148,7.76113139 8.86504863,7.72104543 8.78399075,7.64098288 L4.07876061,2.99035523 C3.91670018,2.83017545 3.91670018,2.57046436 4.07876061,2.41033927 C4.24087637,2.2501048 4.50358137,2.25021418 4.6656418,2.41033927 L9.37087193,7.06091224 C9.53293237,7.22109202 9.53293237,7.48080311 9.37087193,7.64098288 C9.28986938,7.72104543 9.18369186,7.76113139 9.07745901,7.76113139 L9.07745901,7.76113139 Z" id="Path" fill="#9A8033"></path>
                            <path d="M6.65595857,11.1844068 C6.54978105,11.1844068 6.4435482,11.1443755 6.36249031,11.0642583 L3.25849913,7.99634246 C3.0964387,7.83616268 3.0964387,7.5764516 3.25849913,7.41632651 C3.42061489,7.25614673 3.68331988,7.25614673 3.84538031,7.41632651 L6.9493715,10.4842423 C7.11143193,10.6444221 7.11143193,10.9041332 6.9493715,11.064313 C6.86836895,11.1443208 6.7621361,11.1844068 6.65595857,11.1844068 L6.65595857,11.1844068 Z" id="Path" fill="#9A8033"></path>
                        </g>
                        <g id="Group" transform="translate(16.586877, 0.000000)" fill="#4E5660">
                            <path d="M2.75190856,6.04642885 C2.46806765,4.8826235 1.51811356,3.97552142 0.331846692,3.73560722 C0.10731913,3.69016188 -0.037423133,3.47348988 0.00850044424,3.25156788 C0.0544240215,3.02959119 0.27380593,2.8865833 0.498278162,2.93197395 C1.99848524,3.23543506 3.19980176,4.38245134 3.55878028,5.85425687 C3.61250533,6.07442887 3.47539855,6.29602275 3.25264154,6.34906965 C3.0307698,6.40195249 2.80585493,6.26758523 2.75190856,6.04642885 Z" id="Path"></path>
                            <path d="M5.75685974,5.76927244 C5.14795737,3.27262258 3.11011246,1.32678553 0.565282322,0.812066484 C0.340754759,0.766675833 0.196012497,0.549949147 0.241936074,0.328027145 C0.287859651,0.106105143 0.506854252,-0.0370668136 0.731713792,0.00843321238 C3.59048414,0.586644481 5.87969148,2.77245042 6.56367613,5.57704577 C6.61740118,5.79727246 6.48029441,6.01881165 6.25753739,6.07191324 C6.03527834,6.12490546 5.81069545,5.99004601 5.75685974,5.76927244 L5.75685974,5.76927244 Z" id="Path"></path>
                        </g>
                        <g id="Group" transform="translate(0.000000, 20.367207)" fill="#4E5660">
                            <path d="M5.9229039,3.51747437 C4.43387341,3.16271636 3.27333481,1.97534068 2.96636613,0.492488269 C2.92044255,0.270566268 3.06518481,0.0538395812 3.28976771,0.00844893021 C3.51401862,-0.0371057833 3.73351119,0.106120861 3.77949009,0.328042863 C4.0222211,1.50054353 4.93991803,2.43941907 6.11744282,2.72002079 C6.34019983,2.77312239 6.47730661,2.99466158 6.42358155,3.21483358 C6.36991183,3.43495089 6.14582691,3.57063065 5.9229039,3.51747437 L5.9229039,3.51747437 Z" id="Path"></path>
                            <path d="M5.64254876,6.48749951 C2.80502498,5.81145225 0.593500423,3.54881033 0.00850044424,0.723160276 C-0.037423133,0.501238275 0.10731913,0.284566276 0.331846692,0.239120937 C0.556595573,0.193511536 0.775645503,0.336792868 0.82162441,0.55871487 C1.34238671,3.07401318 3.31106961,5.08820965 5.83708768,5.69004593 C6.05984469,5.74314752 6.19695147,5.96468671 6.14322641,6.18485871 C6.08955669,6.40497603 5.86547177,6.54065579 5.64254876,6.48749951 Z" id="Path"></path>
                        </g>
                        <path d="M20.1188776,21.0381406 C19.9584217,21.0381406 19.8057673,20.9457186 19.7378779,20.7909529 C18.8610695,18.7915221 19.0230746,16.4899426 20.1712194,14.6342853 C20.2907867,14.4410196 20.5461882,14.3800977 20.7417783,14.4983321 C20.9372579,14.6165119 20.998895,14.8689495 20.8792724,15.0622153 C19.8719415,16.6903724 19.7299104,18.7100377 20.4994346,20.4647418 C20.5905072,20.6725544 20.493957,20.9141092 20.2837045,21.0041796 C20.2299241,21.027203 20.1739305,21.0381406 20.1188776,21.0381406 L20.1188776,21.0381406 Z" id="Path" fill="#9A8033"></path>
                    </g>
                </g>
            </g>
        </g>
    </g>
</svg>