<?xml version="1.0" encoding="UTF-8"?>
<svg width="24px" height="24px" viewBox="0 0 24 24" version="1.1" xmlns="http://www.w3.org/2000/svg" xmlns:xlink="http://www.w3.org/1999/xlink">
    <title>2C25E9EA-4343-4F39-B224-C36349EF3FD7</title>
    <g id="Web" stroke="none" stroke-width="1" fill="none" fill-rule="evenodd">
        <g id="Cert-Q&amp;A-flow---Cert-Completion-page-for-higher-level-achievement" transform="translate(-627.000000, -405.000000)" fill-rule="nonzero">
            <g id="Group-10" transform="translate(543.000000, 123.000000)">
                <g id="Group-14" transform="translate(32.000000, 0.000000)">
                    <g id="Group-6" transform="translate(28.000000, 0.000000)">
                        <g id="Group-3" transform="translate(0.000000, 244.000000)">
                            <g id="Group-5" transform="translate(24.000000, 38.000000)">
                                <path d="M11.4059569,3.09677143 L11.4059569,0.594332873 C11.4059569,0.266082827 11.6719168,0 12.0000153,0 C12.3280543,0 12.5940736,0.266082827 12.5940736,0.594332873 L12.5940736,3.09677143 C12.5940736,3.42502148 12.3280543,3.69110431 12.0000153,3.69110431 C11.6719168,3.69110431 11.4059569,3.42502148 11.4059569,3.09677143 L11.4059569,3.09677143 Z" id="Path" fill="#FFFFFF"></path>
                                <path d="M8.92582268,3.56070767 C9.03642407,3.66783538 9.18439406,3.72763486 9.3383368,3.72741863 C9.49959624,3.72764157 9.6539748,3.66207119 9.76582119,3.54584935 C9.99370198,3.30966147 9.98704853,2.93344876 9.75096973,2.70546267 L7.95560656,0.971674814 C7.71958718,0.743748157 7.34354824,0.750345252 7.11560805,0.986533136 C6.88772726,1.22272102 6.89438071,1.59893373 7.1304595,1.82691982 L8.92582268,3.56070767 L8.92582268,3.56070767 Z" id="Path" fill="#FFFFFF"></path>
                                <path d="M14.6617532,3.72741856 C14.8102677,3.72741856 14.9589606,3.67202622 15.0742673,3.56070767 L16.8696305,1.82691982 C17.1057092,1.59899316 17.1123033,1.22266159 16.8844819,0.986533136 C16.6565417,0.750345252 16.2805622,0.743748157 16.044424,0.971674814 L14.2490608,2.70546267 C14.012982,2.93338933 14.006388,3.30966147 14.2342094,3.54584935 C14.346086,3.6620629 14.5004787,3.72763017 14.6617532,3.72741856 Z" id="Path" fill="#FFFFFF"></path>
                                <path d="M23.8600934,10.2578882 L20.0825357,14.7392175 C19.9697008,14.8733237 19.8033532,14.9506288 19.6281404,14.950384 C19.4880387,14.9505147 19.3524332,14.9009185 19.245448,14.8104186 C18.9946366,14.5987767 18.9627951,14.223812 19.1743393,13.9729441 L22.1278786,10.4691141 L17.5719262,10.4691141 L13.8044675,20.3434199 L17.5836292,15.8601293 C17.7952328,15.609202 18.1700242,15.5774646 18.4207762,15.7889282 C18.6715877,16.0005702 18.7034292,16.3755348 18.491885,16.6264027 L12.4541729,23.7888864 C12.3412648,23.9227565 12.175095,24 12.0000153,24 C11.8249356,24 11.6587658,23.9227565 11.5458577,23.7888864 L0.139937177,10.2578882 C-0.0426153883,10.0413291 -0.047016195,9.72596636 0.129422344,9.504393 L1.56377625,7.70314837 C1.76819173,7.44639656 2.14197325,7.40419893 2.39854706,7.60864944 C2.65518027,7.81315938 2.69747722,8.18711362 2.49300233,8.44380599 L1.82682529,9.28038894 L6.49006459,9.28038894 L8.50849668,5.69460042 L4.68234501,5.69460042 L4.03119764,6.51228359 C3.82672276,6.76903539 3.45306005,6.81135189 3.19642684,6.60678251 C2.93979363,6.40227257 2.89749667,6.02831833 3.10197156,5.77162596 L3.93145524,4.72993874 C4.04414587,4.58837721 4.21518066,4.50593467 4.39606829,4.50593467 L19.6039623,4.50593467 C19.7848499,4.50593467 19.9558847,4.58837721 20.0685753,4.72993874 L23.8705488,9.504393 C24.0470044,9.72595228 24.0426284,10.0413149 23.8600934,10.2578882 L23.8600934,10.2578882 Z" id="Path" fill="#FFFFFF"></path>
                                <polygon id="Path" fill="#307F7E" points="19.3177449 5.69460042 15.4916527 5.69460042 17.5100254 9.28038894 22.1732053 9.28038894"></polygon>
                                <polygon id="Path" fill="#307F7E" points="7.85366615 9.28038894 16.1464238 9.28038894 14.1279917 5.69460042 9.87197942 5.69460042"></polygon>
                                <polygon id="Path" fill="#307F7E" points="1.87221135 10.4690547 10.1957412 20.3433605 6.42828252 10.4690547"></polygon>
                                <polygon id="Path" fill="#307F7E" points="16.3001067 10.4690547 7.69998325 10.4690547 12.0000153 21.7391512"></polygon>
                            </g>
                        </g>
                    </g>
                </g>
            </g>
        </g>
    </g>
</svg>