<?xml version="1.0" encoding="UTF-8"?>
<svg width="82px" height="82px" viewBox="0 0 82 82" version="1.1" xmlns="http://www.w3.org/2000/svg" xmlns:xlink="http://www.w3.org/1999/xlink">
    <title>A1165EA9-7692-4E08-B5F3-4C3A0E311937</title>
    <g id="Web" stroke="none" stroke-width="1" fill="none" fill-rule="evenodd">
        <g id="Profile---Analytics" transform="translate(-294.000000, -530.000000)" fill-rule="nonzero" stroke="#FFECA2" stroke-width="0.8">
            <g id="Group-52" transform="translate(100.000000, 130.000000)">
                <g id="Group-27" transform="translate(0.000000, 327.000000)">
                    <g id="Group-42" transform="translate(25.000000, 30.000000)">
                        <g id="Group-5" transform="translate(170.000000, 44.000000)">
                            <path d="M38,10.0677884 L38,1.93221158 C38,0.865051123 38.8954,0 40,0 C41.1044,0 42,0.865051123 42,1.93221158 L42,10.0677884 C42,11.1349489 41.1044,12 40,12 C38.8954,12 38,11.1349489 38,10.0677884 L38,10.0677884 Z M29.6259597,12.4295508 C29.9966677,12.7961189 30.4926257,13.0007399 31.0086029,13 C31.5491039,13.0007628 32.0665418,12.776395 32.4414227,12.3787088 C33.2052216,11.5705245 33.1829209,10.2832051 32.3916444,9.50308557 L26.3740403,3.57043486 C25.5829629,2.79051866 24.3225753,2.81309251 23.5585773,3.62127686 C22.7947784,4.42946121 22.8170791,5.71678052 23.6083556,6.4969001 L29.6259597,12.4295508 L29.6259597,12.4295508 Z M48.9915106,13 C49.4892917,13 49.9876701,12.8104593 50.3741474,12.429551 L56.3917236,6.49690018 C57.1829964,5.71698396 57.2050979,4.42925788 56.4415017,3.62127688 C55.6775072,2.8130925 54.4173246,2.79051866 53.6258526,3.57043488 L47.6082764,9.50308574 C46.8170036,10.283002 46.7949021,11.5705247 47.5584983,12.378709 C47.9334788,12.7763669 48.4509618,13.0007241 48.9915106,13 Z M79.5336446,34.1790155 L66.9417856,49.1213274 C66.5656695,49.5684841 66.0111773,49.8262461 65.4271348,49.8254299 C64.9601291,49.8258656 64.5081108,49.6604947 64.1514935,49.3587365 C63.3154553,48.6530487 63.2093169,47.4027861 63.9144642,46.5663052 L73.7595953,34.8833162 L58.5730875,34.8833162 L46.0148918,67.8076891 L58.6120973,52.8588375 C59.3174426,52.0221584 60.5667473,51.9163349 61.4025874,52.6214283 C62.2386256,53.3271162 62.344764,54.5773788 61.6396167,55.4138597 L41.5139096,79.2960739 C41.1375493,79.7424434 40.5836499,80 40.0000509,80 C39.416452,80 38.8625526,79.7424434 38.4861922,79.2960739 L0.466457256,34.1790155 C-0.142051294,33.4569321 -0.15672065,32.4054028 0.431407813,31.6666001 L5.2125875,25.6606235 C5.89397244,24.8045236 7.13991084,24.663822 7.99515685,25.3455311 C8.85060089,26.0274385 8.99159074,27.2743321 8.31000778,28.1302338 L6.08941764,30.9196926 L21.6335486,30.9196926 L28.3616556,18.9634254 L15.6078167,18.9634254 L13.4373255,21.6898657 C12.7557425,22.5459656 11.5102002,22.6870636 10.6547561,22.004958 C9.79931209,21.3230507 9.65832224,20.0761571 10.3399052,19.2202554 L13.1048508,15.7469075 C13.4804862,15.2748921 14.0506022,15 14.653561,15 L65.3465409,15 C65.9494996,15 66.5196156,15.2748921 66.895251,15.7469075 L79.568496,31.6666001 C80.1566812,32.4053559 80.1420947,33.4568845 79.5336446,34.1790155 L79.5336446,34.1790155 Z" id="Combined-Shape" fill="#E8BC09"></path>
                            <polygon id="Path" fill="#FFECA2" points="64.5979746 19 52 19 58.6457905 31 74 31"></polygon>
                            <polygon id="Path" fill="#FFECA2" points="26 31 54 31 47.1848848 19 32.814714 19"></polygon>
                            <polygon id="Path" fill="#FFECA2" points="6 35 34 68 21.3264294 35"></polygon>
                            <polygon id="Path" fill="#FFECA2" points="55 35 26 35 40.4998998 73"></polygon>
                        </g>
                    </g>
                </g>
            </g>
        </g>
    </g>
</svg>