<?xml version="1.0" encoding="UTF-8"?>
<svg width="18px" height="24px" viewBox="0 0 18 24" version="1.1" xmlns="http://www.w3.org/2000/svg" xmlns:xlink="http://www.w3.org/1999/xlink">
    <title>F7B2FF3D-3C91-46DD-9CEA-5841C9718A4F</title>
    <g id="Web" stroke="none" stroke-width="1" fill="none" fill-rule="evenodd">
        <g id="Profile---Analytics" transform="translate(-331.000000, -329.000000)" fill="#FFFFFF" fill-rule="nonzero">
            <g id="Group-52" transform="translate(100.000000, 130.000000)">
                <g id="Group-14" transform="translate(220.000000, 191.000000)">
                    <g id="Group-8-Copy" transform="translate(11.428571, 8.571429)">
                        <path d="M10.5033117,9.19395205 L8.27914631,5.74582983 C7.616297,4.70196006 7.88095067,3.29414421 8.87225707,2.59079799 L11.9613756,0.383999768 C12.9542082,-0.310489936 14.296458,-0.0372663456 14.9681177,0.996041462 L17.1428571,4.39244185 L10.5033117,9.19395205 Z M13.197023,1.72014713 C13.0940558,1.72112311 12.9936934,1.75413078 12.9087053,1.81497049 L9.79487382,3.9959078 C9.67762237,4.07675379 9.59603447,4.20320612 9.56819936,4.34722845 C9.54036424,4.49125079 9.56858193,4.64094259 9.64659612,4.76311499 L10.9399071,6.7888868 L14.8857412,3.94418596 L13.6089055,1.94427507 C13.5129766,1.80588818 13.3603758,1.72284971 13.197023,1.72014713 L13.197023,1.72014713 Z" id="Shape" transform="translate(12.528489, 4.596976) scale(-1, 1) translate(-12.528489, -4.596976) "></path>
                        <path d="M13.7815876,22.8571396 C13.6557673,22.857437 13.5306811,22.8370753 13.4108933,22.7967942 L9.73690167,21.7709779 C9.15484115,21.6199199 8.64703628,21.2482517 8.31178832,20.7279209 L5.4780369,16.3143244 C5.33877913,16.1260374 5.2801411,15.8858628 5.31602687,15.65075 C5.35191264,15.4156372 5.47912612,15.2065261 5.66750284,15.0730004 L5.66750284,15.0730004 C5.84875438,14.9446843 6.07134713,14.8971103 6.2861649,14.9407758 C6.50098267,14.9844413 6.69036944,15.1157574 6.81253611,15.3057487 L9.63804988,19.7021045 C9.7309102,19.8379414 9.85202655,19.9499463 9.99226881,20.0296761 L10.0993583,20.0296761 L13.394418,20.9779098 L13.8557264,17.2711784 C13.8557264,17.2711784 13.7815876,17.0901519 13.6415475,16.8832646 L6.21942535,5.3923973 L2.27359125,8.23709813 L4.01997294,10.9180132 C4.14259312,11.1076842 4.18805535,11.3406169 4.14632815,11.5654134 C4.10460096,11.7902099 3.97911394,11.9883941 3.79755641,12.1162356 L3.79755641,12.1162356 C3.61630486,12.2445518 3.39371211,12.2921258 3.17889434,12.2484603 C2.96407658,12.2047948 2.7746898,12.0734786 2.65252313,11.8834874 L0,7.76298133 L6.66425842,2.95285082 L15.0089973,15.9436513 C15.3733926,16.4550846 15.5302801,17.0962976 15.4455928,17.7280546 L14.9678091,21.7709779 C14.9257407,22.1224756 14.7392275,22.4372775 14.4570748,22.6330084 C14.2589944,22.7779948 14.0233132,22.8561943 13.7815876,22.8571396 Z" id="Shape" transform="translate(7.734023, 12.904997) scale(-1, 1) translate(-7.734023, -12.904997) "></path>
                    </g>
                </g>
            </g>
        </g>
    </g>
</svg>