<?xml version="1.0" encoding="UTF-8"?>
<svg width="16px" height="16px" viewBox="0 0 16 16" version="1.1" xmlns="http://www.w3.org/2000/svg" xmlns:xlink="http://www.w3.org/1999/xlink">
    <title>8221D8FE-2332-4BE3-A63A-CABFB38187C8</title>
    <g id="Web" stroke="none" stroke-width="1" fill="none" fill-rule="evenodd">
        <g id="Profile---Basic-Details" transform="translate(-551.000000, -244.000000)" fill="#212121" fill-rule="nonzero">
            <g id="Group-3" transform="translate(450.000000, 244.000000)">
                <g id="Group-8-Copy" transform="translate(101.000000, 0.000000)">
                    <path d="M7.81990101,6.43576644 L6.16397063,4.02208088 C5.67046761,3.29137204 5.86750694,2.30590095 6.60555207,1.81355859 L8.90545538,0.268799837 C9.64463678,-0.217342955 10.6439655,-0.0260864419 11.1440279,0.697229024 L12.7631599,3.0747093 L7.81990101,6.43576644 Z M9.8254167,1.20410299 C9.74875576,1.20478618 9.67403421,1.22789155 9.61075906,1.27047934 L7.29245652,2.79713546 C7.20516075,2.85372765 7.14441712,2.94224428 7.12369339,3.04305992 C7.10296965,3.14387555 7.12397821,3.24865981 7.18206116,3.33418049 L8.14495402,4.75222076 L11.0826972,2.76093017 L10.1320705,1.36099255 C10.0606497,1.26412173 9.94703574,1.2059948 9.8254167,1.20410299 L9.8254167,1.20410299 Z" id="Shape" transform="translate(9.327681, 3.217883) scale(-1, 1) translate(-9.327681, -3.217883) "></path>
                    <path d="M10.2606353,15.9999978 C10.1669599,16.0002059 10.073831,15.9859527 9.98464691,15.957756 L7.24929524,15.2396845 C6.8159409,15.1339439 6.43787121,14.8737762 6.18827318,14.5095446 L4.07849521,11.4200271 C3.97481534,11.2882262 3.93115829,11.120104 3.95787588,10.955525 C3.98459347,10.790946 4.07930615,10.6445683 4.21955594,10.5511003 L4.21955594,10.5511003 C4.35450092,10.461279 4.52022515,10.4279772 4.68016077,10.458543 C4.8400964,10.4891089 4.9810982,10.5810302 5.07205344,10.7140241 L7.17569833,13.7914732 C7.24483448,13.8865589 7.33500774,13.9649624 7.43942058,14.0207733 L7.51915056,14.0207733 L9.97238076,14.6845368 L10.315833,12.0898249 C10.315833,12.0898249 10.2606353,11.9631064 10.156373,11.8182852 L4.630472,3.77467811 L1.69272884,5.76596869 L2.99294084,7.64260921 C3.08423373,7.77537896 3.11808116,7.93843181 3.08701453,8.09578936 C3.0559479,8.25314692 2.96252059,8.39187585 2.8273478,8.48136495 L2.8273478,8.48136495 C2.69240283,8.57118625 2.5266786,8.60448808 2.36674297,8.57392222 C2.20680735,8.54335636 2.06580555,8.45143505 1.97485031,8.31844117 L0,5.43408693 L4.96165808,2.06699558 L11.1744636,11.1605559 C11.4457622,11.5185592 11.5625678,11.9674083 11.4995166,12.4096382 L11.1437982,15.2396845 C11.1124775,15.4857329 10.9736151,15.7060942 10.7635475,15.8431059 C10.6160731,15.9445964 10.4406043,15.999336 10.2606353,15.9999978 Z" id="Shape" transform="translate(5.758117, 9.033498) scale(-1, 1) translate(-5.758117, -9.033498) "></path>
                    <rect id="Rectangle" transform="translate(5.922868, 15.396574) scale(-1, 1) translate(-5.922868, -15.396574) " x="0.556427425" y="14.7931527" width="10.7328821" height="1.20684278" rx="0.603421389"></rect>
                    <rect id="Rectangle" transform="translate(13.930087, 15.396574) scale(-1, 1) translate(-13.930087, -15.396574) " x="11.860174" y="14.7931527" width="4.13982596" height="1.20684278" rx="0.603421389"></rect>
                </g>
            </g>
        </g>
    </g>
</svg>