<?xml version="1.0" encoding="UTF-8"?>
<svg width="26px" height="28px" viewBox="0 0 26 28" version="1.1" xmlns="http://www.w3.org/2000/svg" xmlns:xlink="http://www.w3.org/1999/xlink">
    <title>Group 26</title>
    <g id="Web" stroke="none" stroke-width="1" fill="none" fill-rule="evenodd">
        <g id="Profile---Analytics" transform="translate(-374.000000, -653.000000)">
            <g id="Group-52" transform="translate(100.000000, 130.000000)">
                <g id="Group-27" transform="translate(0.000000, 327.000000)">
                    <g id="Group-21" transform="translate(0.000000, 196.000000)">
                        <g id="Group-26" transform="translate(275.000000, 1.000000)">
                            <g id="Group-8">
                                <path d="M7.5,15.4768095 C7.5,11.2029048 10.8594,7.73809524 15,7.73809524 C10.8594,7.73809524 7.5012,4.27328571 7.5012,0 C7.5012,4.27328571 4.1418,7.73809524 0,7.73809524 C4.1418,7.73809524 7.5,11.2029048 7.5,15.4768095 Z" id="Path" stroke="#503B2D" stroke-width="0.915" fill="#FDCD0B" fill-rule="nonzero" stroke-linecap="round" stroke-linejoin="round"></path>
                                <path d="M11.103,8.87466667 C12.275356,8.13180291 13.6241993,7.73840882 15,7.73809524 C10.8594,7.73809524 7.5012,4.27328571 7.5012,0 C7.5012,1.47457143 7.0938,2.8482381 6.3996,4.02071429 C7.14915641,6.30615359 8.88807319,8.10073182 11.103,8.87466667 L11.103,8.87466667 Z" id="Path" fill="#DAB20E" fill-rule="nonzero"></path>
                                <path d="M7.5,15.4768095 C7.5,11.2029048 10.8594,7.73809524 15,7.73809524 C10.8594,7.73809524 7.5012,4.27328571 7.5012,0 C7.5012,4.27328571 4.1418,7.73809524 0,7.73809524 C4.1418,7.73809524 7.5,11.2029048 7.5,15.4768095 Z" id="Path" stroke="#503B2D" stroke-width="0.915" stroke-linecap="round" stroke-linejoin="round"></path>
                            </g>
                            <g id="Group-9" transform="translate(15.000000, 7.428571)">
                                <path d="M4.5,9.28571429 C4.5,6.7222381 6.5154,4.64285714 9,4.64285714 C6.51471863,4.64285714 4.5,2.5641792 4.5,0 C4.5,2.56409524 2.4864,4.64285714 0,4.64285714 C2.48528137,4.64285714 4.5,6.72153509 4.5,9.28571429 Z" id="Path" stroke="#503B2D" stroke-width="0.915" fill="#FDCD0B" fill-rule="nonzero" stroke-linecap="round" stroke-linejoin="round"></path>
                                <path d="M5.9328,5.89519048 C6.76346013,5.09020718 7.86038129,4.64233585 9,4.64285714 C6.51471863,4.64285714 4.5,2.5641792 4.5,0 C4.50050525,1.17579708 4.06641458,2.30754113 3.2862,3.16457143 C3.74281216,4.42772359 4.70851406,5.4240827 5.9328,5.89519048 L5.9328,5.89519048 Z" id="Path" fill="#DAB20E" fill-rule="nonzero"></path>
                                <path d="M4.5,9.28571429 C4.5,6.7222381 6.5154,4.64285714 9,4.64285714 C6.51471863,4.64285714 4.5,2.5641792 4.5,0 C4.5,2.56409524 2.4864,4.64285714 0,4.64285714 C2.48528137,4.64285714 4.5,6.72153509 4.5,9.28571429 Z" id="Path" stroke="#503B2D" stroke-width="0.915" stroke-linecap="round" stroke-linejoin="round"></path>
                            </g>
                            <g id="Group-43" transform="translate(6.601200, 13.618429)">
                                <path d="M5.9988,12.3815714 C5.9988,8.96319048 8.6862,6.18985714 11.9982,6.18985714 C8.6862,6.19109524 5.9988,3.41961905 5.9988,0 C5.9988,3.41961905 3.3132,6.19109524 0,6.19109524 C3.3132,6.19109524 5.9988,8.96319048 5.9988,12.3815714 Z" id="Path" stroke="#503B2D" stroke-width="0.915" fill="#FDCD0B" fill-rule="nonzero" stroke-linecap="round" stroke-linejoin="round"></path>
                                <path d="M8.4828,7.37285714 C9.5035725,6.60430596 10.7345317,6.19006442 11.9982,6.18985714 C8.6862,6.19109524 5.9988,3.41961905 5.9988,0 C5.99927919,1.30437083 5.59796464,2.57515021 4.8528,3.62885714 C5.45933823,5.37408112 6.79107478,6.7476408 8.4828,7.37285714 L8.4828,7.37285714 Z" id="Path" fill="#DAB20E" fill-rule="nonzero"></path>
                                <path d="M5.9988,12.3815714 C5.9988,8.96319048 8.6862,6.18985714 11.9982,6.18985714 C8.6862,6.19109524 5.9988,3.41961905 5.9988,0 C5.9988,3.41961905 3.3132,6.19109524 0,6.19109524 C3.3132,6.19109524 5.9988,8.96319048 5.9988,12.3815714 Z" id="Path" stroke="#503B2D" stroke-width="0.915" stroke-linecap="round" stroke-linejoin="round"></path>
                            </g>
                        </g>
                    </g>
                </g>
            </g>
        </g>
    </g>
</svg>