<?xml version="1.0" encoding="UTF-8"?>
<svg width="18px" height="18px" viewBox="0 0 18 18" version="1.1" xmlns="http://www.w3.org/2000/svg" xmlns:xlink="http://www.w3.org/1999/xlink">
    <title>556AF4C7-4815-40C4-B76D-374CB6C8C7FA</title>
    <g id="Web" stroke="none" stroke-width="1" fill="none" fill-rule="evenodd">
        <g id="Profile---Analytics" transform="translate(-125.000000, -666.000000)" fill="#2B3344" fill-rule="nonzero">
            <g id="Group-52" transform="translate(100.000000, 130.000000)">
                <g id="Group-27" transform="translate(0.000000, 327.000000)">
                    <g id="Group-21" transform="translate(0.000000, 196.000000)">
                        <g id="target-(1)" transform="translate(25.000000, 13.000000)">
                            <path d="M8.08579797,12.2795674 C7.23615756,12.3068169 6.43655256,11.8777014 5.98818643,11.1538645 C5.5398203,10.4300276 5.51081053,9.52143733 5.9120848,8.7703509 C6.31335908,8.01926447 7.08395431,7.53978976 7.93359471,7.51254024 C8.19628076,7.49674371 8.42200683,7.69736516 8.43776799,7.9606408 C8.45352915,8.22391644 8.25335698,8.45014913 7.99067093,8.46594568 C7.22998562,8.5187177 6.64511343,9.16156738 6.66267714,9.92558148 C6.68024084,10.6895956 7.2940333,11.3047657 8.05633644,11.3223688 C8.81863958,11.3399719 9.46004965,10.753787 9.51270349,9.99139437 C9.53296154,9.73033512 9.7558486,9.53223693 10.0168768,9.54329382 C10.1431062,9.55065606 10.2612156,9.60808984 10.3451089,9.70290526 C10.4290022,9.79772068 10.471774,9.92211327 10.4639738,10.0485987 C10.3835785,11.3050563 9.34201439,12.2821484 8.08579797,12.2795674 L8.08579797,12.2795674 Z M4.27120387,7.51254024 C4.16871559,7.51001358 4.06932598,7.47680935 3.98582276,7.4171997 C3.77567392,7.25923432 3.7330841,6.96043641 3.89069573,6.7498159 C4.88177335,5.42791335 6.4359976,4.65082315 8.08579797,4.65231712 C8.93119152,4.65094939 9.76404796,4.85717575 10.5115374,5.25296937 C10.7427011,5.37934168 10.8278807,5.6696025 10.7017914,5.90128506 C10.5757021,6.13296763 10.2860913,6.21833846 10.0549276,6.09196615 C8.19291415,5.11645418 5.8993525,5.64661428 4.65171201,7.34092727 C4.5571525,7.45266814 4.41736002,7.51571594 4.27120387,7.51254024 Z" id="Shape"></path>
                            <path d="M8.08579797,15.1397837 C5.19842278,15.1345364 2.85904655,12.7899096 2.85381105,9.89605383 C2.85517847,9.54392401 2.89021861,9.19273618 2.95845079,8.84730785 C2.9924364,8.67699837 3.11449595,8.53779772 3.2786508,8.48214145 C3.44280565,8.42648517 3.62411675,8.46282878 3.75428598,8.57748199 C3.88445521,8.6921352 3.94370676,8.86767946 3.90972113,9.03798894 C3.58507465,10.64038 4.19742182,12.288405 5.48874707,13.2876604 C6.78007232,14.2869158 8.52584114,14.4636518 9.99046503,13.7434 C11.4550889,13.0231481 12.3839004,11.531145 12.3855399,9.89605383 C12.3865277,9.20843122 12.2199896,8.53096514 11.9003921,7.92250458 C11.8188266,7.77263224 11.8232338,7.59053215 11.9119537,7.44479965 C12.0006736,7.29906716 12.1602273,7.21184249 12.3305127,7.21598234 C12.500798,7.2201222 12.6559445,7.31499763 12.73751,7.46486997 C13.1258141,8.2157277 13.325025,9.05036334 13.3177849,9.89605383 C13.3125494,12.7899096 10.9731732,15.1345364 8.08579797,15.1397837 L8.08579797,15.1397837 Z" id="Path"></path>
                            <path d="M8.08579797,18 C3.62013506,18 0,14.3717397 0,9.89605383 C0,5.42036794 3.62013506,1.79209541 8.08579797,1.79209541 C8.9862482,1.79052693 9.8804423,1.94204294 10.7303295,2.2402082 C10.8947438,2.29459143 11.0166863,2.43422077 11.0486987,2.60475422 C11.0807111,2.77528768 11.0177362,2.94978555 10.8842831,3.06033545 C10.7508299,3.17088534 10.5679805,3.20002334 10.4068976,3.13640931 C9.66079549,2.87559267 8.87597834,2.74342167 8.08579797,2.74551308 C4.14550717,2.74551308 0.951270349,5.94691922 0.951270349,9.89605383 C0.951270349,13.8451884 4.14550717,17.0465946 8.08579797,17.0465946 C12.0260888,17.0465946 15.2203256,13.8451884 15.2203256,9.89605383 C15.2224123,9.10409993 15.0905373,8.31752129 14.8303047,7.56974457 C14.7668332,7.40830012 14.7959059,7.22504034 14.9062082,7.09128766 C15.0165106,6.95753499 15.1906177,6.89441874 15.3607692,6.92650297 C15.5309208,6.9585872 15.6702374,7.08080347 15.7244989,7.24558672 C16.0219964,8.09738149 16.1731731,8.99358258 16.1716081,9.89605383 C16.166354,14.3695618 12.5492878,17.9947463 8.08579797,18 Z" id="Path"></path>
                            <path d="M8.08579797,10.3727899 C7.95965585,10.3742978 7.83873435,10.322358 7.75285335,10.2297457 C7.66088717,10.1432401 7.60871815,10.022462 7.60871815,9.89605383 C7.60871815,9.7696457 7.66088717,9.64886758 7.75285335,9.56236192 L15.7625497,1.53468818 C15.8814993,1.41547154 16.0548722,1.36891214 16.2173605,1.41254846 C16.3798488,1.45618477 16.5067665,1.58338741 16.5503051,1.74624037 C16.5938437,1.90909332 16.5473886,2.08285535 16.4284389,2.20207199 L8.41874259,10.2297457 C8.33286158,10.322358 8.21194009,10.3742978 8.08579797,10.3727899 L8.08579797,10.3727899 Z" id="Path"></path>
                            <path d="M14.8112793,6.33035086 L14.7066396,6.33035086 L12.5187178,5.82501263 C12.3408943,5.7898045 12.2018771,5.65047521 12.1667478,5.47225262 L11.6625745,3.27942013 C11.6250279,3.12162746 11.6718411,2.95560893 11.7862396,2.84085363 L14.4783347,0.142716253 C14.5986557,0.0177979593 14.7781747,-0.0299364345 14.9444572,0.0187735471 C15.1113545,0.0666528231 15.2389683,0.201861721 15.2774018,0.371533557 L15.7149862,2.27834442 L17.6175269,2.71691092 C17.8802129,2.77483157 18.0463132,3.0352126 17.9885223,3.29848823 C17.9307314,3.56176387 17.6709334,3.72823699 17.4082474,3.67031635 L15.2203256,3.1173412 C15.0358615,3.07475306 14.8918229,2.93039121 14.8493301,2.74551308 L14.5449236,1.39167737 L12.6423829,3.29848823 L13.0228911,4.93834558 L14.6590761,5.31970775 L15.8862148,4.0993488 C16.0711625,3.91765695 16.3671564,3.91765695 16.5521041,4.0993488 C16.6421478,4.18885765 16.6927962,4.31070089 16.6927962,4.43780773 C16.6927962,4.56491456 16.6421478,4.68675781 16.5521041,4.77626665 L15.144224,6.18730669 C15.058343,6.27991892 14.9374215,6.33185873 14.8112793,6.33035086 Z" id="Path"></path>
                        </g>
                    </g>
                </g>
            </g>
        </g>
    </g>
</svg>